<svg width="56" height="64" viewBox="0 0 56 64" fill="none" xmlns="http://www.w3.org/2000/svg" xmlns:xlink="http://www.w3.org/1999/xlink">
<path d="M27.062,0C20.89,0 15.887,5.162 15.887,11.375C15.887,17.588 20.89,22.625 27.062,22.625C33.234,22.625 38.237,17.588 38.237,11.375C38.237,5.162 33.234,0 27.062,0Z" clip-rule="evenodd" fill-rule="evenodd" fill="#009EFF"/>
<path d="M35.389,38.688C30.534,38.688 28.873,44.52 28.857,44.578C28.852,44.596 28.833,44.604 28.828,44.622C28.828,44.621 28.828,44.621 28.828,44.621C28.588,45.404 27.884,45.946 27.067,45.949C27.065,45.949 27.064,45.949 27.06,45.949C26.229,45.949 25.497,45.391 25.268,44.585C25.201,44.344 23.544,38.688 18.735,38.688C15.048,38.688 12.269,41.793 12.269,45.913C12.269,50.816 16.661,55.738 23.941,61.923C24.562,62.45 25.201,62.993 25.856,63.554C26.55,64.147 27.571,64.149 28.266,63.556C28.92,62.996 29.558,62.454 30.177,61.927C35.715,57.224 41.855,51.178 41.855,45.913C41.855,41.793 39.076,38.688 35.389,38.688Z" clip-rule="evenodd" fill-rule="evenodd" fill="#009EFF"/>
<path d="M36.561,22.813C33.991,25.025 30.712,26.375 27.062,26.375C23.411,26.375 20.133,25.025 17.563,22.813C7.133,23.862 -0.876,32.687 -0.876,43.375L-0.876,46C-0.876,52.075 1.471,57.775 5.718,62.05C5.718,62.087 5.718,62.087 5.755,62.087C6.91,63.25 8.511,63.925 10.15,63.962C12.874,63.894 15.077,61.814 15.44,59.138C11.968,55.547 8.544,50.946 8.544,45.913C8.544,39.507 13.405,34.937 18.718,34.937C18.721,34.937 18.724,34.938 18.728,34.938C18.73,34.938 18.733,34.937 18.735,34.937C22.241,34.937 25.17,36.878 27.064,39.718C28.975,36.851 31.825,34.937 35.389,34.937C35.391,34.937 35.393,34.938 35.396,34.938C35.4,34.938 35.402,34.937 35.406,34.937C41.05,34.937 45.58,39.811 45.58,45.913C45.404,46.388 46.336,51.011 38.679,59.088C39.021,61.787 41.233,63.893 43.974,63.962C45.613,63.925 47.215,63.25 48.369,62.087C48.407,62.087 48.407,62.087 48.407,62.05C52.653,57.775 55,52.075 55,46L55,43.375C55,32.687 46.991,23.862 36.561,22.813Z" clip-rule="evenodd" fill-rule="evenodd" fill="#2FB0AB"/>
</svg>
