<svg width="112" height="128" viewBox="0 0 112 128" fill="none" xmlns="http://www.w3.org/2000/svg" xmlns:xlink="http://www.w3.org/1999/xlink">
<path d="M56.124,0C43.78,0 33.773,10.323 33.773,22.75C33.773,35.176 43.78,45.25 56.124,45.25C68.468,45.25 78.474,35.176 78.474,22.75C78.474,10.323 68.467,0 56.124,0Z" clip-rule="evenodd" fill-rule="evenodd" fill="#009EFF"/>
<path d="M72.778,77.375C63.068,77.375 59.747,89.039 59.714,89.156C59.704,89.192 59.667,89.208 59.656,89.243C59.656,89.243 59.657,89.243 59.657,89.242C59.176,90.807 57.768,91.892 56.135,91.899C56.131,91.899 56.128,91.899 56.12,91.899C54.458,91.899 52.995,90.782 52.537,89.17C52.402,88.687 49.088,77.375 39.47,77.375C32.097,77.375 26.538,83.586 26.538,91.826C26.538,101.633 35.323,111.476 49.881,123.846C51.124,124.9 52.402,125.986 53.713,127.107C55.101,128.295 57.143,128.298 58.532,127.111C59.841,125.992 61.117,124.908 62.355,123.853C73.431,114.447 85.71,102.356 85.71,91.825C85.71,83.586 80.151,77.375 72.778,77.375Z" clip-rule="evenodd" fill-rule="evenodd" fill="#009EFF"/>
<path d="M75.122,45.625C69.981,50.05 63.425,52.75 56.124,52.75C48.823,52.75 42.267,50.05 37.126,45.625C16.266,47.725 0.248,65.375 0.248,86.75L0.248,92C0.248,104.15 4.942,115.55 13.435,124.1C13.435,124.175 13.435,124.175 13.509,124.175C15.819,126.5 19.023,127.85 22.301,127.925C27.748,127.787 32.154,123.627 32.879,118.276C25.935,111.095 19.088,101.892 19.088,91.826C19.088,79.015 28.81,69.875 39.436,69.875C39.443,69.875 39.448,69.876 39.456,69.876C39.461,69.876 39.465,69.875 39.47,69.875C46.482,69.875 52.34,73.757 56.128,79.437C59.95,73.703 65.65,69.875 72.778,69.875C72.783,69.875 72.787,69.876 72.792,69.876C72.799,69.876 72.805,69.875 72.812,69.875C84.1,69.875 93.16,79.621 93.16,91.826C92.809,92.775 94.671,102.023 79.358,118.176C80.042,123.574 84.466,127.786 89.948,127.925C93.226,127.85 96.429,126.5 98.739,124.175C98.813,124.175 98.813,124.175 98.813,124.1C107.306,115.55 112,104.15 112,92L112,86.75C112,65.375 95.982,47.725 75.122,45.625Z" clip-rule="evenodd" fill-rule="evenodd" fill="#2FB0AB"/>
</svg>
