<svg width="748" height="412" viewBox="0 0 748 412" fill="none" xmlns="http://www.w3.org/2000/svg" xmlns:xlink="http://www.w3.org/1999/xlink">
<mask id="mask_0_78_2703" style="mask-type:alpha" maskUnits="userSpaceOnUse" x="156" y="5" width="200" height="200">
<circle cx="356" cy="205" r="200" fill="#000000"/>
</mask>
<g mask="url(#mask_0_78_2703)">
<path d="M2.001,0.249L2.001,-0.751L1.001,-0.752L1.001,0.248L2.001,0.249ZM3.001,0.25L3.001,-0.75L3.001,0.25ZM1.999,2.249L0.999,2.248L0.999,3.248L1.999,3.249L1.999,2.249ZM2.999,2.25L3,1.25L3,1.25L2.999,2.25ZM744.499,2.75L744.499,3.75L744.499,3.75L744.499,2.75ZM745.499,2.75L745.499,3.75L746.499,3.751L746.499,2.751L745.499,2.75ZM745.501,0.751L746.501,0.751L746.501,-0.249L745.501,-0.249L745.501,0.751ZM744.501,0.75L744.501,1.75L744.501,0.75ZM2.001,24.249L2.001,23.249L1.001,23.249L1.001,24.249L2.001,24.249ZM3.001,24.25L3.001,23.25L3.001,23.25L3.001,24.25ZM1.999,26.249L0.999,26.249L0.999,27.249L1.999,27.249L1.999,26.249ZM2.999,26.25L2.999,27.25L2.999,27.25L2.999,26.25ZM744.499,26.75L744.499,27.75L744.499,27.75L744.499,26.75ZM745.499,26.751L745.499,27.751L746.499,27.751L746.499,26.751L745.499,26.751ZM745.501,24.751L746.501,24.751L746.501,23.751L745.501,23.751L745.501,24.751ZM744.501,24.75L744.501,23.75L744.501,23.75L744.501,24.75ZM3,48.25L3,49.25L3,49.25L3,48.25ZM2,48.249L2.001,47.249L1.001,47.248L1,48.248L2,48.249ZM744.501,48.75L744.501,47.75L744.501,47.75L744.501,48.75ZM745.501,48.75L746.501,48.751L746.501,47.751L745.501,47.75L745.501,48.75ZM745.499,50.75L745.499,51.75L746.499,51.751L746.499,50.751L745.499,50.75ZM744.499,50.75L744.499,49.75L744.499,49.75L744.499,50.75ZM2.999,50.25L2.998,51.25L2.998,51.25L2.999,50.25ZM1.999,50.249L0.999,50.248L0.998,51.248L1.998,51.249L1.999,50.249ZM2,72.249L2.001,71.249L1.001,71.248L1,72.248L2,72.249ZM3,72.25L3.001,71.25L3.001,71.25L3,72.25ZM1.999,74.249L0.999,74.248L0.998,75.248L1.998,75.249L1.999,74.249ZM2.999,74.25L3,73.25L3,73.25L2.999,74.25ZM744.499,74.75L744.499,75.75L744.499,75.75L744.499,74.75ZM745.499,74.751L745.499,75.751L746.499,75.751L746.499,74.751L745.499,74.751ZM745.501,72.751L746.501,72.751L746.501,71.751L745.501,71.751L745.501,72.751ZM744.501,72.75L744.501,73.75L744.501,73.75L744.501,72.75ZM3.001,96.25L3.002,95.25L3.002,95.25L3.001,96.25ZM2.001,96.25L2.002,95.25L1.002,95.249L1.001,96.249L2.001,96.25ZM744.501,96.75L744.501,97.75L744.501,97.75L744.501,96.75ZM745.501,96.751L746.501,96.752L746.501,95.752L745.501,95.751L745.501,96.751ZM745.499,98.751L745.499,99.751L746.499,99.752L746.499,98.752L745.499,98.751ZM744.499,98.75L744.499,99.75L744.499,99.75L744.499,98.75ZM3,98.25L3,97.25L3,97.25L3,98.25ZM2,98.25L1,98.249L0.999,99.249L1.999,99.25L2,98.25ZM2.001,120.25L2.002,119.25L1.002,119.249L1.001,120.249L2.001,120.25ZM3.001,120.251L3.002,119.251L3.002,119.251L3.001,120.251ZM2,122.25L1,122.249L0.999,123.249L1.999,123.25L2,122.25ZM3,122.251L3,121.251L3,121.251L3,122.251ZM744.499,122.751L744.499,123.751L744.499,123.751L744.499,122.751ZM745.499,122.751L745.499,123.751L746.499,123.752L746.499,122.752L745.499,122.751ZM745.501,120.751L746.501,120.752L746.501,119.752L745.501,119.751L745.501,120.751ZM744.501,120.751L744.501,121.751L744.501,121.751L744.501,120.751ZM3,144.25L3.001,143.25L3.001,143.25L3,144.25ZM2,144.249L2.001,143.249L1.001,143.248L1,144.248L2,144.249ZM744.501,144.75L744.499,145.75L744.499,145.75L744.501,144.75ZM745.501,144.75L746.501,144.751L746.501,143.751L745.501,143.75L745.501,144.75ZM745.499,146.75L745.499,147.75L746.499,147.751L746.499,146.751L745.499,146.75ZM744.499,146.75L744.499,147.75L744.499,147.75L744.499,146.75ZM2.999,146.25L3,145.25L3,145.25L2.999,146.25ZM1.999,146.249L0.999,146.248L0.998,147.248L1.998,147.249L1.999,146.249ZM2.001,168.249L2.001,167.249L1.001,167.249L1.001,168.249L2.001,168.249ZM3.001,168.25L3.001,167.25L3.001,167.25L3.001,168.25ZM1.999,170.249L0.999,170.249L0.998,171.249L1.998,171.249L1.999,170.249ZM2.999,170.25L3,169.25L3,169.25L2.999,170.25ZM744.499,170.75L744.499,171.75L744.499,171.75L744.499,170.75ZM745.499,170.751L745.499,171.751L746.499,171.751L746.499,170.751L745.499,170.751ZM745.501,168.751L746.501,168.751L746.501,167.751L745.501,167.751L745.501,168.751ZM744.501,168.75L744.501,169.75L744.501,169.75L744.501,168.75ZM3.001,192.25L3.001,191.25L3.001,191.25L3.001,192.25ZM2.001,192.249L2.001,191.249L1.001,191.249L1.001,192.249L2.001,192.249ZM744.501,192.75L744.501,193.75L744.501,193.75L744.501,192.75ZM745.501,192.751L746.501,192.751L746.501,191.751L745.501,191.751L745.501,192.751ZM745.499,194.751L745.499,195.751L746.499,195.751L746.499,194.751L745.499,194.751ZM744.499,194.75L744.499,195.75L744.499,195.75L744.499,194.75ZM2.999,194.25L3,193.25L3,193.25L2.999,194.25ZM1.999,194.249L0.999,194.249L0.999,195.249L1.999,195.249L1.999,194.249ZM2,216.249L2.001,215.249L1.001,215.249L1,216.249L2,216.249ZM3,216.249L3.001,215.249L3.001,215.249L3,216.249ZM1.999,218.249L0.999,218.249L0.998,219.249L1.998,219.249L1.999,218.249ZM2.999,218.249L3,217.249L3,217.249L2.999,218.249ZM744.499,218.749L744.499,219.749L744.499,219.749L744.499,218.749ZM745.499,218.751L745.499,219.751L746.499,219.751L746.499,218.751L745.499,218.751ZM745.501,216.751L746.501,216.751L746.501,215.751L745.501,215.751L745.501,216.751ZM744.501,216.749L744.499,217.749L744.499,217.749L744.501,216.749ZM3,240.249L3.001,239.249L3.001,239.249L3,240.249ZM2,240.249L2.001,239.249L1.001,239.247L1,240.247L2,240.249ZM744.501,240.749L744.499,241.749L744.499,241.749L744.501,240.749ZM745.501,240.749L746.501,240.751L746.501,239.751L745.501,239.749L745.501,240.749ZM745.499,242.749L745.499,243.749L746.499,243.751L746.499,242.751L745.499,242.749ZM744.499,242.749L744.499,243.749L744.499,243.749L744.499,242.749ZM2.999,242.249L2.999,241.249L2.999,241.249L2.999,242.249ZM1.999,242.249L0.999,242.247L0.998,243.247L1.998,243.249L1.999,242.249ZM2.001,264.249L2.002,263.249L1.002,263.249L1.001,264.249L2.001,264.249ZM3.001,264.251L3.002,263.251L3.002,263.251L3.001,264.251ZM2,266.249L1,266.249L0.999,267.249L1.999,267.249L2,266.249ZM3,266.251L3,265.251L3,265.251L3,266.251ZM744.499,266.751L744.499,267.751L744.499,267.751L744.499,266.751ZM745.499,266.751L745.499,267.751L746.499,267.751L746.499,266.751L745.499,266.751ZM745.501,264.751L746.501,264.751L746.501,263.751L745.501,263.751L745.501,264.751ZM744.501,264.751L744.501,265.751L744.501,265.751L744.501,264.751ZM3,288.249L3.001,287.249L3.001,287.249L3,288.249ZM2,288.249L2.001,287.249L1.001,287.249L1,288.249L2,288.249ZM744.501,288.749L744.499,289.749L744.499,289.749L744.501,288.749ZM745.501,288.751L746.501,288.751L746.501,287.751L745.501,287.751L745.501,288.751ZM745.499,290.751L745.499,291.751L746.499,291.751L746.499,290.751L745.499,290.751ZM744.499,290.749L744.499,291.749L744.499,291.749L744.499,290.749ZM2.999,290.249L2.999,289.249L2.999,289.249L2.999,290.249ZM1.999,290.249L0.999,290.249L0.998,291.249L1.998,291.249L1.999,290.249ZM2,312.249L2.001,311.249L1.001,311.249L1,312.249L2,312.249ZM3,312.249L3.001,311.249L3.001,311.249L3,312.249ZM1.999,314.249L0.999,314.249L0.998,315.249L1.998,315.249L1.999,314.249ZM2.999,314.249L3,313.249L3,313.249L2.999,314.249ZM744.499,314.749L744.499,315.749L744.499,315.749L744.499,314.749ZM745.499,314.751L745.499,315.751L746.499,315.751L746.499,314.751L745.499,314.751ZM745.501,312.751L746.501,312.751L746.501,311.751L745.501,311.751L745.501,312.751ZM744.501,312.749L744.499,313.749L744.499,313.749L744.501,312.749ZM3.001,336.249L3.001,335.249L3.001,335.249L3.001,336.249ZM2.001,336.249L2.001,335.249L1.001,335.249L1.001,336.249L2.001,336.249ZM744.501,336.749L744.501,337.749L744.501,337.749L744.501,336.749ZM745.501,336.751L746.501,336.751L746.501,335.751L745.501,335.751L745.501,336.751ZM745.499,338.751L745.499,339.751L746.499,339.751L746.499,338.751L745.499,338.751ZM744.499,338.749L744.499,339.749L744.499,339.749L744.499,338.749ZM2.999,338.249L3,337.249L3,337.249L2.999,338.249ZM1.999,338.249L0.999,338.249L0.999,339.249L1.999,339.249L1.999,338.249ZM2.001,360.249L2.001,359.249L1.001,359.249L1.001,360.249L2.001,360.249ZM3.001,360.249L3.001,359.249L3.001,359.249L3.001,360.249ZM1.999,362.249L0.999,362.249L0.999,363.249L1.999,363.249L1.999,362.249ZM2.999,362.249L3,361.249L3,361.249L2.999,362.249ZM744.499,362.749L744.499,363.749L744.499,363.749L744.499,362.749ZM745.499,362.751L745.499,363.751L746.499,363.751L746.499,362.751L745.499,362.751ZM745.501,360.751L746.501,360.751L746.501,359.751L745.501,359.751L745.501,360.751ZM744.501,360.749L744.501,361.749L744.501,361.749L744.501,360.749ZM3.001,384.249L3.001,383.249L3.001,383.249L3.001,384.249ZM2.001,384.249L2.001,383.249L1.001,383.249L1.001,384.249L2.001,384.249ZM744.501,384.749L744.501,385.749L744.501,385.749L744.501,384.749ZM745.501,384.751L746.501,384.751L746.501,383.751L745.501,383.751L745.501,384.751ZM745.499,386.751L745.499,387.751L746.499,387.751L746.499,386.751L745.499,386.751ZM744.499,386.749L744.499,387.749L744.499,387.749L744.499,386.749ZM2.999,386.249L3,385.249L3,385.249L2.999,386.249ZM1.999,386.249L0.999,386.249L0.999,387.249L1.999,387.249L1.999,386.249ZM2.001,408.249L2.001,407.249L1.001,407.249L1.001,408.249L2.001,408.249ZM3.001,408.251L3.001,407.251L3.001,407.251L3.001,408.251ZM1.999,410.249L0.999,410.249L0.999,411.249L1.999,411.249L1.999,410.249ZM2.999,410.251L3,409.251L3,409.251L2.999,410.251ZM744.499,410.751L744.499,411.751L744.499,411.751L744.499,410.751ZM745.499,410.751L745.499,411.751L746.499,411.751L746.499,410.751L745.499,410.751ZM745.501,408.751L746.501,408.751L746.501,407.751L745.501,407.751L745.501,408.751ZM744.501,408.751L744.501,409.751L744.501,409.751L744.501,408.751ZM2,1.249L3,1.25L3.001,-0.75L2.001,-0.751L2,1.249ZM2.999,2.25L3.001,0.25L1.001,0.248L0.999,2.248L2.999,2.25ZM3,1.25L2,1.249L1.999,3.249L2.999,3.25L3,1.25ZM744.501,1.75L3,1.25L2.999,3.25L744.499,3.75L744.501,1.75ZM745.501,1.751L744.501,1.75L744.499,3.75L745.499,3.75L745.501,1.751ZM744.501,0.75L744.499,2.75L746.499,2.751L746.501,0.751L744.501,0.75ZM744.501,1.75L745.501,1.751L745.501,-0.249L744.501,-0.25L744.501,1.75ZM3,1.25L744.501,1.75L744.501,-0.25L3.001,-0.75L3,1.25ZM2,25.249L3,25.25L3.001,23.25L2.001,23.249L2,25.249ZM2.999,26.25L3.001,24.25L1.001,24.249L0.999,26.249L2.999,26.25ZM3,25.25L2,25.249L1.999,27.249L2.999,27.25L3,25.25ZM744.501,25.75L3,25.25L2.999,27.25L744.499,27.75L744.501,25.75ZM745.501,25.751L744.501,25.75L744.499,27.75L745.499,27.751L745.501,25.751ZM744.501,24.75L744.499,26.75L746.499,26.751L746.501,24.751L744.501,24.75ZM744.501,25.75L745.501,25.751L745.501,23.751L744.501,23.75L744.501,25.75ZM3,25.25L744.501,25.75L744.501,23.75L3.001,23.25L3,25.25ZM3.001,47.25L2.001,47.249L2,49.249L3,49.25L3.001,47.25ZM744.501,47.75L3.001,47.25L3,49.25L744.499,49.75L744.501,47.75ZM745.501,47.75L744.501,47.75L744.499,49.75L745.499,49.75L745.501,47.75ZM746.499,50.751L746.501,48.751L744.501,48.75L744.499,50.75L746.499,50.751ZM744.499,51.75L745.499,51.75L745.499,49.75L744.499,49.75L744.499,51.75ZM2.998,51.25L744.499,51.75L744.499,49.75L3,49.25L2.998,51.25ZM1.998,51.249L2.998,51.25L3,49.25L2,49.249L1.998,51.249ZM1,48.248L0.999,50.248L2.999,50.25L3,48.25L1,48.248ZM2,73.249L3,73.25L3.001,71.25L2.001,71.249L2,73.249ZM2.999,74.25L3,72.25L1,72.248L0.999,74.248L2.999,74.25ZM3,73.25L2,73.249L1.998,75.249L2.998,75.25L3,73.25ZM744.501,73.75L3,73.25L2.998,75.25L744.499,75.75L744.501,73.75ZM745.501,73.751L744.501,73.75L744.499,75.75L745.499,75.751L745.501,73.751ZM744.501,72.75L744.499,74.75L746.499,74.751L746.501,72.751L744.501,72.75ZM744.501,73.75L745.501,73.751L745.501,71.751L744.501,71.75L744.501,73.75ZM3,73.25L744.501,73.75L744.501,71.75L3.001,71.25L3,73.25ZM3.002,95.25L2.002,95.25L2,97.25L3,97.25L3.002,95.25ZM744.501,95.75L3.002,95.25L3,97.25L744.501,97.75L744.501,95.75ZM745.501,95.751L744.501,95.75L744.501,97.75L745.501,97.751L745.501,95.751ZM746.499,98.752L746.501,96.752L744.501,96.75L744.499,98.75L746.499,98.752ZM744.499,99.75L745.499,99.751L745.501,97.751L744.501,97.75L744.499,99.75ZM2.999,99.25L744.499,99.75L744.501,97.75L3,97.25L2.999,99.25ZM1.999,99.25L2.999,99.25L3,97.25L2,97.25L1.999,99.25ZM1.001,96.249L1,98.249L3,98.25L3.001,96.25L1.001,96.249ZM2,121.25L3,121.251L3.002,119.251L2.002,119.25L2,121.25ZM3,122.251L3.001,120.251L1.001,120.249L1,122.249L3,122.251ZM3,121.251L2,121.25L1.999,123.25L2.999,123.251L3,121.251ZM744.501,121.751L3,121.251L2.999,123.251L744.499,123.751L744.501,121.751ZM745.501,121.751L744.501,121.751L744.499,123.751L745.499,123.751L745.501,121.751ZM744.501,120.751L744.499,122.751L746.499,122.752L746.501,120.752L744.501,120.751ZM744.501,121.751L745.501,121.751L745.501,119.751L744.501,119.751L744.501,121.751ZM3,121.251L744.501,121.751L744.501,119.751L3.002,119.251L3,121.251ZM3.001,143.25L2.001,143.249L2,145.249L3,145.25L3.001,143.25ZM744.501,143.75L3.001,143.25L3,145.25L744.499,145.75L744.501,143.75ZM745.501,143.75L744.501,143.75L744.499,145.75L745.499,145.75L745.501,143.75ZM746.499,146.751L746.501,144.751L744.501,144.75L744.499,146.75L746.499,146.751ZM744.499,147.75L745.499,147.75L745.499,145.75L744.499,145.75L744.499,147.75ZM2.998,147.25L744.499,147.75L744.499,145.75L3,145.25L2.998,147.25ZM1.998,147.249L2.998,147.25L3,145.25L2,145.249L1.998,147.249ZM1,144.248L0.999,146.248L2.999,146.25L3,144.25L1,144.248ZM2,169.249L3,169.25L3.001,167.25L2.001,167.249L2,169.249ZM2.999,170.25L3.001,168.25L1.001,168.249L0.999,170.249L2.999,170.25ZM3,169.25L2,169.249L1.998,171.249L2.998,171.25L3,169.25ZM744.501,169.75L3,169.25L2.998,171.25L744.499,171.75L744.501,169.75ZM745.501,169.751L744.501,169.75L744.499,171.75L745.499,171.751L745.501,169.751ZM744.501,168.75L744.499,170.75L746.499,170.751L746.501,168.751L744.501,168.75ZM744.501,169.75L745.501,169.751L745.501,167.751L744.501,167.75L744.501,169.75ZM3,169.25L744.501,169.75L744.501,167.75L3.001,167.25L3,169.25ZM3.001,191.25L2.001,191.249L2,193.249L3,193.25L3.001,191.25ZM744.501,191.75L3.001,191.25L3,193.25L744.501,193.75L744.501,191.75ZM745.501,191.751L744.501,191.75L744.501,193.75L745.501,193.751L745.501,191.751ZM746.499,194.751L746.501,192.751L744.501,192.75L744.499,194.75L746.499,194.751ZM744.499,195.75L745.499,195.751L745.501,193.751L744.501,193.75L744.499,195.75ZM2.999,195.25L744.499,195.75L744.501,193.75L3,193.25L2.999,195.25ZM1.999,195.249L2.999,195.25L3,193.25L2,193.249L1.999,195.249ZM1.001,192.249L0.999,194.249L2.999,194.25L3.001,192.25L1.001,192.249ZM2,217.249L3,217.249L3.001,215.249L2.001,215.249L2,217.249ZM2.999,218.249L3,216.249L1,216.249L0.999,218.249L2.999,218.249ZM3,217.249L2,217.249L1.998,219.249L2.998,219.249L3,217.249ZM744.499,217.749L3,217.249L2.998,219.249L744.499,219.749L744.499,217.749ZM745.499,217.751L744.499,217.749L744.499,219.749L745.499,219.751L745.499,217.751ZM744.501,216.749L744.499,218.749L746.499,218.751L746.501,216.751L744.501,216.749ZM744.499,217.749L745.499,217.751L745.501,215.751L744.501,215.749L744.499,217.749ZM3,217.249L744.499,217.749L744.501,215.749L3.001,215.249L3,217.249ZM3.001,239.249L2.001,239.249L1.999,241.249L2.999,241.249L3.001,239.249ZM744.501,239.749L3.001,239.249L2.999,241.249L744.499,241.749L744.501,239.749ZM745.501,239.749L744.501,239.749L744.499,241.749L745.499,241.749L745.501,239.749ZM746.499,242.751L746.501,240.751L744.501,240.749L744.499,242.749L746.499,242.751ZM744.499,243.749L745.499,243.749L745.499,241.749L744.499,241.749L744.499,243.749ZM2.998,243.249L744.499,243.749L744.499,241.749L2.999,241.249L2.998,243.249ZM1.998,243.249L2.998,243.249L2.999,241.249L1.999,241.249L1.998,243.249ZM1,240.247L0.999,242.247L2.999,242.249L3,240.249L1,240.247ZM2,265.249L3,265.251L3.002,263.251L2.002,263.249L2,265.249ZM3,266.251L3.001,264.251L1.001,264.249L1,266.249L3,266.251ZM3,265.251L2,265.249L1.999,267.249L2.999,267.251L3,265.251ZM744.501,265.751L3,265.251L2.999,267.251L744.499,267.751L744.501,265.751ZM745.501,265.751L744.501,265.751L744.499,267.751L745.499,267.751L745.501,265.751ZM744.501,264.751L744.499,266.751L746.499,266.751L746.501,264.751L744.501,264.751ZM744.501,265.751L745.501,265.751L745.501,263.751L744.501,263.751L744.501,265.751ZM3,265.251L744.501,265.751L744.501,263.751L3.002,263.251L3,265.251ZM3.001,287.249L2.001,287.249L1.999,289.249L2.999,289.249L3.001,287.249ZM744.501,287.749L3.001,287.249L2.999,289.249L744.499,289.749L744.501,287.749ZM745.501,287.751L744.501,287.749L744.499,289.749L745.499,289.751L745.501,287.751ZM746.499,290.751L746.501,288.751L744.501,288.749L744.499,290.749L746.499,290.751ZM744.499,291.749L745.499,291.751L745.499,289.751L744.499,289.749L744.499,291.749ZM2.998,291.249L744.499,291.749L744.499,289.749L2.999,289.249L2.998,291.249ZM1.998,291.249L2.998,291.249L2.999,289.249L1.999,289.249L1.998,291.249ZM1,288.249L0.999,290.249L2.999,290.249L3,288.249L1,288.249ZM2,313.249L3,313.249L3.001,311.249L2.001,311.249L2,313.249ZM2.999,314.249L3,312.249L1,312.249L0.999,314.249L2.999,314.249ZM3,313.249L2,313.249L1.998,315.249L2.998,315.249L3,313.249ZM744.499,313.749L3,313.249L2.998,315.249L744.499,315.749L744.499,313.749ZM745.499,313.751L744.499,313.749L744.499,315.749L745.499,315.751L745.499,313.751ZM744.501,312.749L744.499,314.749L746.499,314.751L746.501,312.751L744.501,312.749ZM744.499,313.749L745.499,313.751L745.501,311.751L744.501,311.749L744.499,313.749ZM3,313.249L744.499,313.749L744.501,311.749L3.001,311.249L3,313.249ZM3.001,335.249L2.001,335.249L2,337.249L3,337.249L3.001,335.249ZM744.501,335.749L3.001,335.249L3,337.249L744.501,337.749L744.501,335.749ZM745.501,335.751L744.501,335.749L744.501,337.749L745.501,337.751L745.501,335.751ZM746.499,338.751L746.501,336.751L744.501,336.749L744.499,338.749L746.499,338.751ZM744.499,339.749L745.499,339.751L745.501,337.751L744.501,337.749L744.499,339.749ZM2.999,339.249L744.499,339.749L744.501,337.749L3,337.249L2.999,339.249ZM1.999,339.249L2.999,339.249L3,337.249L2,337.249L1.999,339.249ZM1.001,336.249L0.999,338.249L2.999,338.249L3.001,336.249L1.001,336.249ZM2,361.249L3,361.249L3.001,359.249L2.001,359.249L2,361.249ZM2.999,362.249L3.001,360.249L1.001,360.249L0.999,362.249L2.999,362.249ZM3,361.249L2,361.249L1.999,363.249L2.999,363.249L3,361.249ZM744.501,361.749L3,361.249L2.999,363.249L744.499,363.749L744.501,361.749ZM745.501,361.751L744.501,361.749L744.499,363.749L745.499,363.751L745.501,361.751ZM744.501,360.749L744.499,362.749L746.499,362.751L746.501,360.751L744.501,360.749ZM744.501,361.749L745.501,361.751L745.501,359.751L744.501,359.749L744.501,361.749ZM3,361.249L744.501,361.749L744.501,359.749L3.001,359.249L3,361.249ZM3.001,383.249L2.001,383.249L2,385.249L3,385.249L3.001,383.249ZM744.501,383.749L3.001,383.249L3,385.249L744.501,385.749L744.501,383.749ZM745.501,383.751L744.501,383.749L744.501,385.749L745.501,385.751L745.501,383.751ZM746.499,386.751L746.501,384.751L744.501,384.749L744.499,386.749L746.499,386.751ZM744.499,387.749L745.499,387.751L745.501,385.751L744.501,385.749L744.499,387.749ZM2.999,387.249L744.499,387.749L744.501,385.749L3,385.249L2.999,387.249ZM1.999,387.249L2.999,387.249L3,385.249L2,385.249L1.999,387.249ZM1.001,384.249L0.999,386.249L2.999,386.249L3.001,384.249L1.001,384.249ZM2,409.249L3,409.251L3.001,407.251L2.001,407.249L2,409.249ZM2.999,410.251L3.001,408.251L1.001,408.249L0.999,410.249L2.999,410.251ZM3,409.251L2,409.249L1.999,411.249L2.999,411.251L3,409.251ZM744.501,409.751L3,409.251L2.999,411.251L744.499,411.751L744.501,409.751ZM745.501,409.751L744.501,409.751L744.499,411.751L745.499,411.751L745.501,409.751ZM744.501,408.751L744.499,410.751L746.499,410.751L746.501,408.751L744.501,408.751ZM744.501,409.751L745.501,409.751L745.501,407.751L744.501,407.751L744.501,409.751ZM3,409.251L744.501,409.751L744.501,407.751L3.001,407.251L3,409.251Z" transform="rotate(90 373.75 205.5)" fill="#000000"/>
</g>
</svg>
