<svg width="858" height="478" viewBox="0 0 858 478" fill="none" xmlns="http://www.w3.org/2000/svg" xmlns:xlink="http://www.w3.org/1999/xlink">
<mask id="mask_0_54_2524" style="mask-type:alpha" maskUnits="userSpaceOnUse" x="219.999512" y="10.001425" width="229.067647" height="229.067647">
<circle cx="449.067" cy="239.069" r="229.068" transform="rotate(-360 449.067 239.069)" fill="#000000"/>
</mask>
<g mask="url(#mask_0_54_2524)">
<path d="M2.106,2.56L2.107,0.56L0.107,0.558L0.106,2.558L2.106,2.56ZM4.106,2.561L4.107,0.561L4.106,2.561ZM2.103,6.56L0.103,6.558L0.102,8.558L2.102,8.56L2.103,6.56ZM4.103,6.561L4.104,4.561L4.104,4.561L4.103,6.561ZM853.371,7.134L853.369,9.134L853.369,9.134L853.371,7.134ZM855.371,7.135L855.369,9.135L857.369,9.137L857.371,7.137L855.371,7.135ZM855.375,3.135L857.375,3.137L857.375,1.137L855.375,1.135L855.375,3.135ZM853.375,3.134L853.373,5.134L853.375,3.134ZM2.106,30.049L2.107,28.049L0.107,28.047L0.106,30.047L2.106,30.049ZM4.106,30.05L4.107,28.05L4.107,28.05L4.106,30.05ZM2.103,34.049L0.103,34.047L0.102,36.047L2.102,36.049L2.103,34.049ZM4.103,34.05L4.102,36.05L4.102,36.05L4.103,34.05ZM853.371,34.623L853.373,32.623L853.373,32.623L853.371,34.623ZM855.371,34.624L855.369,36.624L857.369,36.625L857.371,34.625L855.371,34.624ZM855.375,30.624L857.375,30.625L857.375,28.625L855.375,28.624L855.375,30.624ZM853.375,30.623L853.373,32.623L853.373,32.623L853.375,30.623ZM4.104,57.537L4.103,59.537L4.103,59.537L4.104,57.537ZM2.104,57.536L2.106,55.536L0.106,55.535L0.104,57.535L2.104,57.536ZM853.373,58.11L853.371,60.11L853.371,60.11L853.373,58.11ZM855.373,58.111L857.373,58.113L857.373,56.113L855.373,56.111L855.373,58.111ZM855.369,62.111L855.369,64.111L857.369,64.113L857.369,62.113L855.369,62.111ZM853.369,62.11L853.371,60.11L853.371,60.11L853.369,62.11ZM4.102,61.537L4.1,63.537L4.1,63.537L4.102,61.537ZM2.102,61.536L0.102,61.535L0.1,63.535L2.1,63.536L2.102,61.536ZM2.105,85.024L2.106,83.024L0.106,83.023L0.105,85.023L2.105,85.024ZM4.105,85.025L4.104,87.025L4.104,87.025L4.105,85.025ZM2.102,89.024L0.102,89.023L0.101,91.023L2.101,91.024L2.102,89.024ZM4.102,89.025L4.104,87.025L4.104,87.025L4.102,89.025ZM853.371,89.598L853.371,87.598L853.371,87.598L853.371,89.598ZM855.371,89.599L855.369,91.599L857.369,91.601L857.371,89.601L855.371,89.599ZM855.373,85.599L857.373,85.601L857.375,83.601L855.375,83.599L855.373,85.599ZM853.373,85.598L853.375,83.598L853.375,83.598L853.373,85.598ZM4.105,112.514L4.107,110.514L4.106,110.514L4.105,112.514ZM2.105,112.513L2.106,110.513L0.106,110.511L0.105,112.511L2.105,112.513ZM853.373,113.087L853.375,111.087L853.375,111.087L853.373,113.087ZM855.373,113.088L857.373,113.09L857.375,111.09L855.375,111.088L855.373,113.088ZM855.371,117.088L855.369,119.088L857.369,119.09L857.371,117.09L855.371,117.088ZM853.371,117.087L853.371,115.087L853.371,115.087L853.371,117.087ZM4.102,116.514L4.104,114.514L4.104,114.514L4.102,116.514ZM2.102,116.513L0.102,116.511L0.101,118.511L2.101,118.513L2.102,116.513ZM2.106,140.001L2.107,138.001L0.107,138L0.106,140L2.106,140.001ZM4.106,140.002L4.107,138.002L4.107,138.002L4.106,140.002ZM2.103,144.001L0.103,144L0.102,146L2.102,146.001L2.103,144.001ZM4.103,144.002L4.105,142.002L4.104,142.002L4.103,144.002ZM853.371,144.575L853.369,146.575L853.369,146.575L853.371,144.575ZM855.371,144.576L855.369,146.576L857.369,146.578L857.371,144.578L855.371,144.576ZM855.375,140.576L857.375,140.578L857.375,138.578L855.375,138.576L855.375,140.576ZM853.375,140.575L853.373,142.575L853.373,142.575L853.375,140.575ZM4.105,167.489L4.107,165.489L4.107,165.489L4.105,167.489ZM2.105,167.488L2.106,165.488L0.107,165.486L0.105,167.486L2.105,167.488ZM853.373,168.062L853.371,170.062L853.371,170.062L853.373,168.062ZM855.373,168.063L857.373,168.064L857.375,166.064L855.375,166.063L855.373,168.063ZM855.371,172.063L855.369,174.063L857.369,174.064L857.371,172.064L855.371,172.063ZM853.371,172.062L853.369,174.062L853.369,174.062L853.371,172.062ZM4.102,171.489L4.104,169.489L4.104,169.489L4.102,171.489ZM2.102,171.488L0.102,171.486L0.101,173.486L2.101,173.488L2.102,171.488ZM2.105,194.976L2.106,192.976L0.107,192.975L0.105,194.975L2.105,194.976ZM4.105,194.978L4.107,192.978L4.107,192.978L4.105,194.978ZM2.102,198.976L0.102,198.975L0.101,200.975L2.101,200.976L2.102,198.976ZM4.102,198.978L4.104,196.978L4.104,196.978L4.102,198.978ZM853.371,199.55L853.369,201.55L853.369,201.55L853.371,199.55ZM855.371,199.552L855.369,201.552L857.369,201.553L857.371,199.553L855.371,199.552ZM855.373,195.552L857.373,195.553L857.375,193.553L855.375,193.552L855.373,195.552ZM853.373,195.55L853.371,197.55L853.371,197.55L853.373,195.55ZM4.105,222.466L4.107,220.466L4.107,220.466L4.105,222.466ZM2.105,222.466L2.107,220.466L0.107,220.464L0.105,222.464L2.105,222.466ZM853.373,223.04L853.371,225.04L853.371,225.04L853.373,223.04ZM855.373,223.04L857.373,223.042L857.375,221.042L855.375,221.04L855.373,223.04ZM855.371,227.04L855.369,229.04L857.369,229.042L857.371,227.042L855.371,227.04ZM853.371,227.04L853.369,229.04L853.369,229.04L853.371,227.04ZM4.102,226.466L4.104,224.466L4.104,224.466L4.102,226.466ZM2.102,226.466L0.102,226.464L0.101,228.464L2.101,228.466L2.102,226.466ZM2.104,249.952L2.105,247.952L0.105,247.952L0.104,249.952L2.104,249.952ZM4.104,249.954L4.105,247.954L4.105,247.954L4.104,249.954ZM2.101,253.952L0.101,253.952L0.1,255.952L2.1,255.952L2.101,253.952ZM4.101,253.954L4.102,251.954L4.102,251.954L4.101,253.954ZM853.369,254.526L853.367,256.526L853.367,256.526L853.369,254.526ZM855.369,254.528L855.367,256.528L857.367,256.53L857.369,254.53L855.369,254.528ZM855.371,250.528L857.371,250.53L857.373,248.53L855.373,248.528L855.371,250.528ZM853.371,250.526L853.371,252.526L853.371,252.526L853.371,250.526ZM4.104,277.442L4.103,279.442L4.103,279.442L4.104,277.442ZM2.104,277.44L2.106,275.44L0.106,275.44L0.104,277.44L2.104,277.44ZM853.373,278.014L853.371,280.014L853.371,280.014L853.373,278.014ZM855.373,278.016L857.373,278.018L857.375,276.018L855.375,276.016L855.373,278.016ZM855.369,282.016L855.369,284.016L857.369,284.018L857.369,282.018L855.369,282.016ZM853.369,282.014L853.369,284.014L853.369,284.014L853.369,282.014ZM4.102,281.442L4.1,283.442L4.1,283.442L4.102,281.442ZM2.102,281.44L0.102,281.44L0.1,283.44L2.1,283.44L2.102,281.44ZM2.105,304.928L2.107,302.928L0.107,302.928L0.105,304.928L2.105,304.928ZM4.105,304.93L4.104,306.93L4.104,306.93L4.105,304.93ZM2.102,308.928L0.102,308.928L0.101,310.928L2.101,310.928L2.102,308.928ZM4.102,308.93L4.101,310.93L4.101,310.93L4.102,308.93ZM853.371,309.502L853.369,311.502L853.369,311.502L853.371,309.502ZM855.371,309.504L855.369,311.504L857.369,311.506L857.371,309.506L855.371,309.504ZM855.373,305.504L857.373,305.506L857.375,303.506L855.375,303.504L855.373,305.504ZM853.373,305.502L853.371,307.502L853.371,307.502L853.373,305.502ZM4.105,332.42L4.104,334.42L4.104,334.42L4.105,332.42ZM2.105,332.418L2.107,330.418L0.107,330.416L0.105,332.416L2.105,332.418ZM853.373,332.992L853.371,334.992L853.371,334.992L853.373,332.992ZM855.373,332.994L857.373,332.994L857.375,330.994L855.375,330.994L855.373,332.994ZM855.371,336.994L855.369,338.994L857.369,338.994L857.371,336.994L855.371,336.994ZM853.371,336.992L853.369,338.992L853.369,338.992L853.371,336.992ZM4.102,336.42L4.101,338.42L4.101,338.42L4.102,336.42ZM2.102,336.418L0.102,336.416L0.101,338.416L2.101,338.418L2.102,336.418ZM2.106,359.906L2.107,357.906L0.107,357.904L0.106,359.904L2.106,359.906ZM4.106,359.908L4.104,361.908L4.105,361.908L4.106,359.908ZM2.103,363.906L0.103,363.904L0.102,365.904L2.102,365.906L2.103,363.906ZM4.103,363.908L4.102,365.908L4.102,365.908L4.103,363.908ZM853.371,364.48L853.369,366.48L853.369,366.48L853.371,364.48ZM855.371,364.482L855.369,366.482L857.369,366.482L857.371,364.482L855.371,364.482ZM855.375,360.482L857.375,360.482L857.375,358.482L855.375,358.482L855.375,360.482ZM853.375,360.48L853.373,362.48L853.373,362.48L853.375,360.48ZM4.104,387.394L4.103,389.394L4.103,389.394L4.104,387.394ZM2.104,387.394L2.106,385.394L0.106,385.392L0.104,387.392L2.104,387.394ZM853.373,387.968L853.371,389.968L853.371,389.968L853.373,387.968ZM855.373,387.968L857.373,387.97L857.375,385.97L855.375,385.968L855.373,387.968ZM855.369,391.968L855.369,393.968L857.369,393.97L857.369,391.97L855.369,391.968ZM853.369,391.968L853.369,393.968L853.369,393.968L853.369,391.968ZM4.102,391.394L4.1,393.394L4.1,393.394L4.102,391.394ZM2.102,391.394L0.102,391.392L0.1,393.392L2.1,393.394L2.102,391.394ZM2.105,414.882L2.107,412.882L0.107,412.88L0.105,414.88L2.105,414.882ZM4.105,414.882L4.104,416.882L4.104,416.882L4.105,414.882ZM2.102,418.882L0.102,418.88L0.101,420.88L2.101,420.882L2.102,418.882ZM4.102,418.882L4.101,420.882L4.101,420.882L4.102,418.882ZM853.371,419.456L853.369,421.456L853.369,421.456L853.371,419.456ZM855.371,419.456L855.369,421.456L857.369,421.458L857.371,419.458L855.371,419.456ZM855.373,415.456L857.373,415.458L857.375,413.458L855.375,413.456L855.373,415.456ZM853.373,415.456L853.371,417.456L853.371,417.456L853.373,415.456ZM4.105,442.372L4.104,444.372L4.104,444.372L4.105,442.372ZM2.105,442.37L2.107,440.37L0.107,440.368L0.105,442.368L2.105,442.37ZM853.373,442.944L853.371,444.944L853.371,444.944L853.373,442.944ZM855.373,442.946L857.373,442.946L857.375,440.946L855.375,440.946L855.373,442.946ZM855.371,446.946L855.369,448.946L857.369,448.946L857.371,446.946L855.371,446.946ZM853.371,446.944L853.369,448.944L853.369,448.944L853.371,446.944ZM4.102,446.372L4.101,448.372L4.101,448.372L4.102,446.372ZM2.102,446.37L0.102,446.368L0.101,448.368L2.101,448.37L2.102,446.37ZM2.106,469.858L2.107,467.858L0.107,467.856L0.106,469.856L2.106,469.858ZM4.106,469.86L4.105,471.86L4.105,471.86L4.106,469.86ZM2.103,473.858L0.103,473.856L0.102,475.856L2.102,475.858L2.103,473.858ZM4.103,473.86L4.102,475.86L4.102,475.86L4.103,473.86ZM853.371,474.432L853.369,476.432L853.369,476.432L853.371,474.432ZM855.371,474.434L855.369,476.434L857.369,476.434L857.371,474.434L855.371,474.434ZM855.375,470.434L857.375,470.434L857.375,468.434L855.375,468.434L855.375,470.434ZM853.375,470.432L853.373,472.432L853.373,472.432L853.375,470.432ZM2.104,4.56L4.104,4.561L4.107,0.561L2.107,0.56L2.104,4.56ZM4.103,6.561L4.106,2.561L0.106,2.558L0.103,6.558L4.103,6.561ZM4.104,4.561L2.104,4.56L2.102,8.56L4.102,8.561L4.104,4.561ZM853.373,5.134L4.104,4.561L4.102,8.561L853.369,9.134L853.373,5.134ZM855.373,5.135L853.373,5.134L853.369,9.134L855.369,9.135L855.373,5.135ZM853.375,3.134L853.371,7.134L857.371,7.137L857.375,3.137L853.375,3.134ZM853.373,5.134L855.373,5.135L855.375,1.135L853.375,1.134L853.373,5.134ZM4.104,4.561L853.373,5.134L853.375,1.134L4.107,0.561L4.104,4.561ZM2.104,32.049L4.104,32.05L4.107,28.05L2.107,28.049L2.104,32.049ZM4.103,34.05L4.106,30.05L0.106,30.047L0.103,34.047L4.103,34.05ZM4.104,32.05L2.104,32.049L2.102,36.049L4.102,36.05L4.104,32.05ZM853.373,32.623L4.104,32.05L4.102,36.05L853.369,36.623L853.373,32.623ZM855.373,32.624L853.373,32.623L853.369,36.623L855.369,36.624L855.373,32.624ZM853.375,30.623L853.371,34.623L857.371,34.625L857.375,30.625L853.375,30.623ZM853.373,32.623L855.373,32.624L855.375,28.624L853.375,28.623L853.373,32.623ZM4.104,32.05L853.373,32.623L853.375,28.623L4.107,28.05L4.104,32.05ZM4.106,55.537L2.106,55.536L2.103,59.536L4.103,59.537L4.106,55.537ZM853.373,56.11L4.106,55.537L4.103,59.537L853.371,60.11L853.373,56.11ZM855.373,56.111L853.373,56.11L853.371,60.11L855.371,60.111L855.373,56.111ZM857.369,62.113L857.373,58.113L853.373,58.11L853.369,62.11L857.369,62.113ZM853.369,64.11L855.369,64.111L855.371,60.111L853.371,60.11L853.369,64.11ZM4.1,63.537L853.369,64.11L853.371,60.11L4.103,59.537L4.1,63.537ZM2.1,63.536L4.1,63.537L4.103,59.537L2.103,59.536L2.1,63.536ZM0.104,57.535L0.102,61.535L4.102,61.537L4.104,57.537L0.104,57.535ZM2.104,87.024L4.104,87.025L4.107,83.025L2.106,83.024L2.104,87.024ZM4.102,89.025L4.105,85.025L0.105,85.023L0.102,89.023L4.102,89.025ZM4.104,87.025L2.104,87.024L2.101,91.024L4.101,91.025L4.104,87.025ZM853.371,87.598L4.104,87.025L4.101,91.025L853.369,91.598L853.371,87.598ZM855.371,87.599L853.371,87.598L853.369,91.598L855.369,91.599L855.371,87.599ZM853.373,85.598L853.371,89.598L857.371,89.601L857.373,85.601L853.373,85.598ZM853.371,87.598L855.371,87.599L855.375,83.599L853.375,83.598L853.371,87.598ZM4.104,87.025L853.371,87.598L853.375,83.598L4.107,83.025L4.104,87.025ZM4.106,110.514L2.106,110.513L2.104,114.513L4.104,114.514L4.106,110.514ZM853.375,111.087L4.107,110.514L4.104,114.514L853.371,115.087L853.375,111.087ZM855.375,111.088L853.375,111.087L853.371,115.087L855.371,115.088L855.375,111.088ZM857.371,117.09L857.373,113.09L853.373,113.087L853.371,117.087L857.371,117.09ZM853.369,119.087L855.369,119.088L855.371,115.088L853.371,115.087L853.369,119.087ZM4.101,118.514L853.369,119.087L853.371,115.087L4.104,114.514L4.101,118.514ZM2.101,118.513L4.101,118.514L4.104,114.514L2.104,114.513L2.101,118.513ZM0.105,112.511L0.102,116.511L4.102,116.514L4.105,112.514L0.105,112.511ZM2.104,142.001L4.105,142.002L4.107,138.002L2.107,138.001L2.104,142.001ZM4.103,144.002L4.106,140.002L0.106,140L0.103,144L4.103,144.002ZM4.104,142.002L2.104,142.001L2.102,146.001L4.102,146.002L4.104,142.002ZM853.373,142.575L4.105,142.002L4.102,146.002L853.369,146.575L853.373,142.575ZM855.373,142.576L853.373,142.575L853.369,146.575L855.369,146.576L855.373,142.576ZM853.375,140.575L853.371,144.575L857.371,144.578L857.375,140.578L853.375,140.575ZM853.373,142.575L855.373,142.576L855.375,138.576L853.375,138.575L853.373,142.575ZM4.105,142.002L853.373,142.575L853.375,138.575L4.107,138.002L4.105,142.002ZM4.107,165.489L2.106,165.488L2.104,169.488L4.104,169.489L4.107,165.489ZM853.375,166.062L4.107,165.489L4.104,169.489L853.371,170.062L853.375,166.062ZM855.375,166.063L853.375,166.062L853.371,170.062L855.371,170.063L855.375,166.063ZM857.371,172.064L857.373,168.064L853.373,168.062L853.371,172.062L857.371,172.064ZM853.369,174.062L855.369,174.063L855.371,170.063L853.371,170.062L853.369,174.062ZM4.101,173.489L853.369,174.062L853.371,170.062L4.104,169.489L4.101,173.489ZM2.101,173.488L4.101,173.489L4.104,169.489L2.104,169.488L2.101,173.488ZM0.105,167.486L0.102,171.486L4.102,171.489L4.105,167.489L0.105,167.486ZM2.104,196.976L4.104,196.978L4.107,192.978L2.106,192.976L2.104,196.976ZM4.102,198.978L4.105,194.978L0.105,194.975L0.102,198.975L4.102,198.978ZM4.104,196.978L2.104,196.976L2.101,200.976L4.101,200.978L4.104,196.978ZM853.371,197.55L4.104,196.978L4.101,200.978L853.369,201.55L853.371,197.55ZM855.371,197.552L853.371,197.55L853.369,201.55L855.369,201.552L855.371,197.552ZM853.373,195.55L853.371,199.55L857.371,199.553L857.373,195.553L853.373,195.55ZM853.371,197.55L855.371,197.552L855.375,193.552L853.375,193.55L853.371,197.55ZM4.104,196.978L853.371,197.55L853.375,193.55L4.107,192.978L4.104,196.978ZM4.107,220.466L2.107,220.466L2.104,224.466L4.104,224.466L4.107,220.466ZM853.375,221.04L4.107,220.466L4.104,224.466L853.371,225.04L853.375,221.04ZM855.375,221.04L853.375,221.04L853.371,225.04L855.371,225.04L855.375,221.04ZM857.371,227.042L857.373,223.042L853.373,223.04L853.371,227.04L857.371,227.042ZM853.369,229.04L855.369,229.04L855.371,225.04L853.371,225.04L853.369,229.04ZM4.101,228.466L853.369,229.04L853.371,225.04L4.104,224.466L4.101,228.466ZM2.101,228.466L4.101,228.466L4.104,224.466L2.104,224.466L2.101,228.466ZM0.105,222.464L0.102,226.464L4.102,226.466L4.105,222.466L0.105,222.464ZM2.102,251.952L4.102,251.954L4.105,247.954L2.105,247.952L2.102,251.952ZM4.101,253.954L4.104,249.954L0.104,249.952L0.101,253.952L4.101,253.954ZM4.102,251.954L2.102,251.952L2.1,255.952L4.1,255.954L4.102,251.954ZM853.371,252.526L4.102,251.954L4.1,255.954L853.367,256.526L853.371,252.526ZM855.371,252.528L853.371,252.526L853.367,256.526L855.367,256.528L855.371,252.528ZM853.371,250.526L853.369,254.526L857.369,254.53L857.371,250.53L853.371,250.526ZM853.371,252.526L855.371,252.528L855.373,248.528L853.373,248.526L853.371,252.526ZM4.102,251.954L853.371,252.526L853.373,248.526L4.105,247.954L4.102,251.954ZM4.106,275.442L2.106,275.44L2.103,279.44L4.103,279.442L4.106,275.442ZM853.375,276.014L4.106,275.442L4.103,279.442L853.371,280.014L853.375,276.014ZM855.375,276.016L853.375,276.014L853.371,280.014L855.371,280.016L855.375,276.016ZM857.369,282.018L857.373,278.018L853.373,278.014L853.369,282.014L857.369,282.018ZM853.369,284.014L855.369,284.016L855.371,280.016L853.371,280.014L853.369,284.014ZM4.1,283.442L853.369,284.014L853.371,280.014L4.103,279.442L4.1,283.442ZM2.1,283.44L4.1,283.442L4.103,279.442L2.103,279.44L2.1,283.44ZM0.104,277.44L0.102,281.44L4.102,281.442L4.104,277.442L0.104,277.44ZM2.104,306.928L4.104,306.93L4.107,302.93L2.107,302.928L2.104,306.928ZM4.102,308.93L4.105,304.93L0.105,304.928L0.102,308.928L4.102,308.93ZM4.104,306.93L2.104,306.928L2.101,310.928L4.101,310.93L4.104,306.93ZM853.371,307.502L4.104,306.93L4.101,310.93L853.369,311.502L853.371,307.502ZM855.371,307.504L853.371,307.502L853.369,311.502L855.369,311.504L855.371,307.504ZM853.373,305.502L853.371,309.502L857.371,309.506L857.373,305.506L853.373,305.502ZM853.371,307.502L855.371,307.504L855.375,303.504L853.375,303.502L853.371,307.502ZM4.104,306.93L853.371,307.502L853.375,303.502L4.107,302.93L4.104,306.93ZM4.107,330.42L2.107,330.418L2.104,334.418L4.104,334.42L4.107,330.42ZM853.375,330.992L4.107,330.42L4.104,334.42L853.371,334.992L853.375,330.992ZM855.375,330.994L853.375,330.992L853.371,334.992L855.371,334.994L855.375,330.994ZM857.371,336.994L857.373,332.994L853.373,332.992L853.371,336.992L857.371,336.994ZM853.369,338.992L855.369,338.994L855.371,334.994L853.371,334.992L853.369,338.992ZM4.101,338.42L853.369,338.992L853.371,334.992L4.104,334.42L4.101,338.42ZM2.101,338.418L4.101,338.42L4.104,334.42L2.104,334.418L2.101,338.418ZM0.105,332.416L0.102,336.416L4.102,336.42L4.105,332.42L0.105,332.416ZM2.104,361.906L4.104,361.908L4.107,357.908L2.107,357.906L2.104,361.906ZM4.103,363.908L4.106,359.908L0.106,359.904L0.103,363.904L4.103,363.908ZM4.105,361.908L2.105,361.906L2.102,365.906L4.102,365.908L4.105,361.908ZM853.373,362.48L4.105,361.908L4.102,365.908L853.369,366.48L853.373,362.48ZM855.373,362.482L853.373,362.48L853.369,366.48L855.369,366.482L855.373,362.482ZM853.375,360.48L853.371,364.48L857.371,364.482L857.375,360.482L853.375,360.48ZM853.373,362.48L855.373,362.482L855.375,358.482L853.375,358.48L853.373,362.48ZM4.105,361.908L853.373,362.48L853.375,358.48L4.107,357.908L4.105,361.908ZM4.106,385.394L2.106,385.394L2.103,389.394L4.103,389.394L4.106,385.394ZM853.375,385.968L4.106,385.394L4.103,389.394L853.371,389.968L853.375,385.968ZM855.375,385.968L853.375,385.968L853.371,389.968L855.371,389.968L855.375,385.968ZM857.369,391.97L857.373,387.97L853.373,387.968L853.369,391.968L857.369,391.97ZM853.369,393.968L855.369,393.968L855.371,389.968L853.371,389.968L853.369,393.968ZM4.1,393.394L853.369,393.968L853.371,389.968L4.103,389.394L4.1,393.394ZM2.1,393.394L4.1,393.394L4.103,389.394L2.103,389.394L2.1,393.394ZM0.104,387.392L0.102,391.392L4.102,391.394L4.104,387.394L0.104,387.392ZM2.104,416.882L4.104,416.882L4.107,412.882L2.107,412.882L2.104,416.882ZM4.102,418.882L4.105,414.882L0.105,414.88L0.102,418.88L4.102,418.882ZM4.104,416.882L2.104,416.882L2.101,420.882L4.101,420.882L4.104,416.882ZM853.371,417.456L4.104,416.882L4.101,420.882L853.369,421.456L853.371,417.456ZM855.371,417.456L853.371,417.456L853.369,421.456L855.369,421.456L855.371,417.456ZM853.373,415.456L853.371,419.456L857.371,419.458L857.373,415.458L853.373,415.456ZM853.371,417.456L855.371,417.456L855.375,413.456L853.375,413.456L853.371,417.456ZM4.104,416.882L853.371,417.456L853.375,413.456L4.107,412.882L4.104,416.882ZM4.107,440.372L2.107,440.37L2.104,444.37L4.104,444.372L4.107,440.372ZM853.375,440.944L4.107,440.372L4.104,444.372L853.371,444.944L853.375,440.944ZM855.375,440.946L853.375,440.944L853.371,444.944L855.371,444.946L855.375,440.946ZM857.371,446.946L857.373,442.946L853.373,442.944L853.371,446.944L857.371,446.946ZM853.369,448.944L855.369,448.946L855.371,444.946L853.371,444.944L853.369,448.944ZM4.101,448.372L853.369,448.944L853.371,444.944L4.104,444.372L4.101,448.372ZM2.101,448.37L4.101,448.372L4.104,444.372L2.104,444.37L2.101,448.37ZM0.105,442.368L0.102,446.368L4.102,446.372L4.105,442.372L0.105,442.368ZM2.104,471.858L4.105,471.86L4.107,467.86L2.107,467.858L2.104,471.858ZM4.103,473.86L4.106,469.86L0.106,469.856L0.103,473.856L4.103,473.86ZM4.105,471.86L2.105,471.858L2.102,475.858L4.102,475.86L4.105,471.86ZM853.373,472.432L4.105,471.86L4.102,475.86L853.369,476.432L853.373,472.432ZM855.373,472.434L853.373,472.432L853.369,476.432L855.369,476.434L855.373,472.434ZM853.375,470.432L853.371,474.432L857.371,474.434L857.375,470.434L853.375,470.432ZM853.373,472.432L855.373,472.434L855.375,468.434L853.375,468.432L853.373,472.432ZM4.105,471.86L853.373,472.432L853.375,468.432L4.107,467.86L4.105,471.86Z" transform="rotate(-270 428.738 238.496)" fill="#000000"/>
</g>
</svg>
