<svg width="858" height="478" viewBox="0 0 858 478" fill="none" xmlns="http://www.w3.org/2000/svg" xmlns:xlink="http://www.w3.org/1999/xlink">
<mask id="mask_0_54_2497" style="mask-type:alpha" maskUnits="userSpaceOnUse" x="219.864746" y="9.901815" width="229.067647" height="229.067647">
<circle cx="448.932" cy="238.969" r="229.068" transform="rotate(-360 448.932 238.969)" fill="#000000"/>
</mask>
<g mask="url(#mask_0_54_2497)">
<path d="M1.971,2.46L1.972,0.46L-0.028,0.459L-0.029,2.459L1.971,2.46ZM3.971,2.462L3.972,0.462L3.971,2.462ZM1.968,6.46L-0.032,6.459L-0.033,8.459L1.967,8.46L1.968,6.46ZM3.968,6.462L3.97,4.462L3.97,4.462L3.968,6.462ZM853.236,7.034L853.234,9.034L853.234,9.034L853.236,7.034ZM855.236,7.036L855.234,9.036L857.234,9.037L857.236,7.037L855.236,7.036ZM855.24,3.036L857.24,3.037L857.24,1.037L855.24,1.036L855.24,3.036ZM853.24,3.034L853.238,5.034L853.24,3.034ZM1.971,29.949L1.972,27.949L-0.028,27.948L-0.029,29.948L1.971,29.949ZM3.971,29.95L3.972,27.95L3.972,27.95L3.971,29.95ZM1.968,33.949L-0.032,33.948L-0.033,35.948L1.967,35.949L1.968,33.949ZM3.968,33.95L3.967,35.95L3.967,35.95L3.968,33.95ZM853.236,34.523L853.238,32.523L853.238,32.523L853.236,34.523ZM855.236,34.524L855.234,36.524L857.234,36.526L857.236,34.526L855.236,34.524ZM855.24,30.524L857.24,30.526L857.24,28.526L855.24,28.524L855.24,30.524ZM853.24,30.523L853.238,32.523L853.238,32.523L853.24,30.523ZM3.97,57.438L3.968,59.438L3.968,59.438L3.97,57.438ZM1.97,57.436L1.971,55.436L-0.029,55.435L-0.03,57.435L1.97,57.436ZM853.238,58.01L853.236,60.01L853.236,60.01L853.238,58.01ZM855.238,58.012L857.238,58.013L857.238,56.013L855.238,56.012L855.238,58.012ZM855.234,62.012L855.234,64.012L857.234,64.013L857.234,62.013L855.234,62.012ZM853.234,62.01L853.236,60.01L853.236,60.01L853.234,62.01ZM3.967,61.438L3.966,63.438L3.966,63.438L3.967,61.438ZM1.967,61.436L-0.033,61.435L-0.034,63.435L1.966,63.436L1.967,61.436ZM1.97,84.924L1.972,82.924L-0.028,82.923L-0.03,84.923L1.97,84.924ZM3.97,84.926L3.969,86.926L3.969,86.926L3.97,84.926ZM1.968,88.924L-0.032,88.923L-0.034,90.923L1.966,90.924L1.968,88.924ZM3.968,88.926L3.969,86.926L3.969,86.926L3.968,88.926ZM853.236,89.498L853.236,87.498L853.236,87.498L853.236,89.498ZM855.236,89.5L855.234,91.5L857.234,91.501L857.236,89.501L855.236,89.5ZM855.238,85.5L857.238,85.501L857.24,83.501L855.24,83.5L855.238,85.5ZM853.238,85.498L853.24,83.498L853.24,83.498L853.238,85.498ZM3.97,112.415L3.972,110.415L3.972,110.415L3.97,112.415ZM1.97,112.413L1.972,110.413L-0.028,110.412L-0.03,112.412L1.97,112.413ZM853.238,112.987L853.24,110.987L853.24,110.987L853.238,112.987ZM855.238,112.989L857.238,112.99L857.24,110.99L855.24,110.989L855.238,112.989ZM855.236,116.989L855.234,118.989L857.234,118.99L857.236,116.99L855.236,116.989ZM853.236,116.987L853.236,114.987L853.236,114.987L853.236,116.987ZM3.968,116.415L3.969,114.415L3.969,114.415L3.968,116.415ZM1.968,116.413L-0.032,116.412L-0.034,118.412L1.966,118.413L1.968,116.413ZM1.971,139.901L1.972,137.901L-0.028,137.9L-0.029,139.9L1.971,139.901ZM3.971,139.903L3.972,137.903L3.972,137.903L3.971,139.903ZM1.968,143.901L-0.032,143.9L-0.033,145.9L1.967,145.901L1.968,143.901ZM3.968,143.903L3.97,141.903L3.97,141.903L3.968,143.903ZM853.236,144.475L853.234,146.475L853.234,146.475L853.236,144.475ZM855.236,144.477L855.234,146.477L857.234,146.478L857.236,144.478L855.236,144.477ZM855.24,140.477L857.24,140.478L857.24,138.478L855.24,138.477L855.24,140.477ZM853.24,140.475L853.238,142.475L853.238,142.475L853.24,140.475ZM3.97,167.389L3.972,165.389L3.972,165.389L3.97,167.389ZM1.97,167.388L1.972,165.388L-0.028,165.387L-0.03,167.387L1.97,167.388ZM853.238,167.962L853.236,169.962L853.236,169.962L853.238,167.962ZM855.238,167.963L857.238,167.965L857.24,165.965L855.24,165.963L855.238,167.963ZM855.236,171.963L855.234,173.963L857.234,173.965L857.236,171.965L855.236,171.963ZM853.236,171.962L853.234,173.962L853.234,173.962L853.236,171.962ZM3.968,171.389L3.969,169.389L3.969,169.389L3.968,171.389ZM1.968,171.388L-0.032,171.387L-0.034,173.387L1.966,173.388L1.968,171.388ZM1.97,194.877L1.972,192.877L-0.028,192.875L-0.03,194.875L1.97,194.877ZM3.97,194.878L3.972,192.878L3.972,192.878L3.97,194.878ZM1.968,198.877L-0.032,198.875L-0.034,200.875L1.966,200.877L1.968,198.877ZM3.968,198.878L3.969,196.878L3.969,196.878L3.968,198.878ZM853.236,199.451L853.234,201.451L853.234,201.451L853.236,199.451ZM855.236,199.452L855.234,201.452L857.234,201.454L857.236,199.454L855.236,199.452ZM855.238,195.452L857.238,195.454L857.24,193.454L855.24,193.452L855.238,195.452ZM853.238,195.451L853.236,197.451L853.236,197.451L853.238,195.451ZM3.97,222.366L3.972,220.366L3.972,220.366L3.97,222.366ZM1.97,222.366L1.972,220.366L-0.028,220.364L-0.03,222.364L1.97,222.366ZM853.238,222.94L853.236,224.94L853.236,224.94L853.238,222.94ZM855.238,222.94L857.238,222.942L857.24,220.942L855.24,220.94L855.238,222.94ZM855.236,226.94L855.234,228.94L857.234,228.942L857.236,226.942L855.236,226.94ZM853.236,226.94L853.234,228.94L853.234,228.94L853.236,226.94ZM3.968,226.366L3.969,224.366L3.969,224.366L3.968,226.366ZM1.968,226.366L-0.032,226.364L-0.034,228.364L1.966,228.366L1.968,226.366ZM1.969,249.852L1.97,247.852L-0.03,247.852L-0.031,249.852L1.969,249.852ZM3.969,249.854L3.97,247.854L3.97,247.854L3.969,249.854ZM1.966,253.852L-0.034,253.852L-0.035,255.852L1.965,255.852L1.966,253.852ZM3.966,253.854L3.968,251.854L3.968,251.854L3.966,253.854ZM853.234,254.426L853.232,256.426L853.232,256.426L853.234,254.426ZM855.234,254.428L855.232,256.428L857.232,256.43L857.234,254.43L855.234,254.428ZM855.236,250.428L857.236,250.43L857.238,248.43L855.238,248.428L855.236,250.428ZM853.236,250.426L853.236,252.426L853.236,252.426L853.236,250.426ZM3.97,277.342L3.968,279.342L3.968,279.342L3.97,277.342ZM1.97,277.34L1.971,275.34L-0.029,275.34L-0.03,277.34L1.97,277.34ZM853.238,277.914L853.236,279.914L853.236,279.914L853.238,277.914ZM855.238,277.916L857.238,277.918L857.24,275.918L855.24,275.916L855.238,277.916ZM855.234,281.916L855.234,283.916L857.234,283.918L857.234,281.918L855.234,281.916ZM853.234,281.914L853.234,283.914L853.234,283.914L853.234,281.914ZM3.967,281.342L3.966,283.342L3.966,283.342L3.967,281.342ZM1.967,281.34L-0.033,281.34L-0.034,283.34L1.966,283.34L1.967,281.34ZM1.97,304.828L1.972,302.828L-0.028,302.828L-0.03,304.828L1.97,304.828ZM3.97,304.83L3.969,306.83L3.969,306.83L3.97,304.83ZM1.968,308.828L-0.032,308.828L-0.034,310.828L1.966,310.828L1.968,308.828ZM3.968,308.83L3.966,310.83L3.966,310.83L3.968,308.83ZM853.236,309.402L853.234,311.402L853.234,311.402L853.236,309.402ZM855.236,309.404L855.234,311.404L857.234,311.406L857.236,309.406L855.236,309.404ZM855.238,305.404L857.238,305.406L857.24,303.406L855.24,303.404L855.238,305.404ZM853.238,305.402L853.236,307.402L853.236,307.402L853.238,305.402ZM3.97,332.32L3.969,334.32L3.969,334.32L3.97,332.32ZM1.97,332.318L1.972,330.318L-0.028,330.316L-0.03,332.316L1.97,332.318ZM853.238,332.892L853.236,334.892L853.236,334.892L853.238,332.892ZM855.238,332.894L857.238,332.894L857.24,330.894L855.24,330.894L855.238,332.894ZM855.236,336.894L855.234,338.894L857.234,338.894L857.236,336.894L855.236,336.894ZM853.236,336.892L853.234,338.892L853.234,338.892L853.236,336.892ZM3.968,336.32L3.966,338.32L3.966,338.32L3.968,336.32ZM1.968,336.318L-0.032,336.316L-0.034,338.316L1.966,338.318L1.968,336.318ZM1.971,359.806L1.972,357.806L-0.028,357.804L-0.029,359.804L1.971,359.806ZM3.971,359.808L3.97,361.808L3.97,361.808L3.971,359.808ZM1.968,363.806L-0.032,363.804L-0.033,365.804L1.967,365.806L1.968,363.806ZM3.968,363.808L3.967,365.808L3.967,365.808L3.968,363.808ZM853.236,364.38L853.234,366.38L853.234,366.38L853.236,364.38ZM855.236,364.382L855.234,366.382L857.234,366.382L857.236,364.382L855.236,364.382ZM855.24,360.382L857.24,360.382L857.24,358.382L855.24,358.382L855.24,360.382ZM853.24,360.38L853.238,362.38L853.238,362.38L853.24,360.38ZM3.97,387.294L3.968,389.294L3.968,389.294L3.97,387.294ZM1.97,387.294L1.971,385.294L-0.029,385.292L-0.03,387.292L1.97,387.294ZM853.238,387.868L853.236,389.868L853.236,389.868L853.238,387.868ZM855.238,387.868L857.238,387.87L857.24,385.87L855.24,385.868L855.238,387.868ZM855.234,391.868L855.234,393.868L857.234,393.87L857.234,391.87L855.234,391.868ZM853.234,391.868L853.234,393.868L853.234,393.868L853.234,391.868ZM3.967,391.294L3.966,393.294L3.966,393.294L3.967,391.294ZM1.967,391.294L-0.033,391.292L-0.034,393.292L1.966,393.294L1.967,391.294ZM1.97,414.782L1.972,412.782L-0.028,412.78L-0.03,414.78L1.97,414.782ZM3.97,414.782L3.969,416.782L3.969,416.782L3.97,414.782ZM1.968,418.782L-0.032,418.78L-0.034,420.78L1.966,420.782L1.968,418.782ZM3.968,418.782L3.966,420.782L3.966,420.782L3.968,418.782ZM853.236,419.356L853.234,421.356L853.234,421.356L853.236,419.356ZM855.236,419.356L855.234,421.356L857.234,421.358L857.236,419.358L855.236,419.356ZM855.238,415.356L857.238,415.358L857.24,413.358L855.24,413.356L855.238,415.356ZM853.238,415.356L853.236,417.356L853.236,417.356L853.238,415.356ZM3.97,442.272L3.969,444.272L3.969,444.272L3.97,442.272ZM1.97,442.27L1.972,440.27L-0.028,440.268L-0.03,442.268L1.97,442.27ZM853.238,442.844L853.236,444.844L853.236,444.844L853.238,442.844ZM855.238,442.846L857.238,442.846L857.24,440.846L855.24,440.846L855.238,442.846ZM855.236,446.846L855.234,448.846L857.234,448.846L857.236,446.846L855.236,446.846ZM853.236,446.844L853.234,448.844L853.234,448.844L853.236,446.844ZM3.968,446.272L3.966,448.272L3.966,448.272L3.968,446.272ZM1.968,446.27L-0.032,446.268L-0.034,448.268L1.966,448.27L1.968,446.27ZM1.971,469.758L1.972,467.758L-0.028,467.756L-0.029,469.756L1.971,469.758ZM3.971,469.76L3.97,471.76L3.97,471.76L3.971,469.76ZM1.968,473.758L-0.032,473.756L-0.033,475.756L1.967,475.758L1.968,473.758ZM3.968,473.76L3.967,475.76L3.967,475.76L3.968,473.76ZM853.236,474.332L853.234,476.332L853.234,476.332L853.236,474.332ZM855.236,474.334L855.234,476.334L857.234,476.334L857.236,474.334L855.236,474.334ZM855.24,470.334L857.24,470.334L857.24,468.334L855.24,468.334L855.24,470.334ZM853.24,470.332L853.238,472.332L853.238,472.332L853.24,470.332ZM1.97,4.46L3.97,4.462L3.972,0.462L1.972,0.46L1.97,4.46ZM3.968,6.462L3.971,2.462L-0.029,2.459L-0.032,6.459L3.968,6.462ZM3.97,4.462L1.97,4.46L1.967,8.46L3.967,8.462L3.97,4.462ZM853.238,5.034L3.97,4.462L3.967,8.462L853.234,9.034L853.238,5.034ZM855.238,5.036L853.238,5.034L853.234,9.034L855.234,9.036L855.238,5.036ZM853.24,3.034L853.236,7.034L857.236,7.037L857.24,3.037L853.24,3.034ZM853.238,5.034L855.238,5.036L855.24,1.036L853.24,1.034L853.238,5.034ZM3.97,4.462L853.238,5.034L853.24,1.034L3.972,0.462L3.97,4.462ZM1.97,31.949L3.97,31.95L3.972,27.95L1.972,27.949L1.97,31.949ZM3.968,33.95L3.971,29.95L-0.029,29.948L-0.032,33.948L3.968,33.95ZM3.97,31.95L1.97,31.949L1.967,35.949L3.967,35.95L3.97,31.95ZM853.238,32.523L3.97,31.95L3.967,35.95L853.234,36.523L853.238,32.523ZM855.238,32.524L853.238,32.523L853.234,36.523L855.234,36.524L855.238,32.524ZM853.24,30.523L853.236,34.523L857.236,34.526L857.24,30.526L853.24,30.523ZM853.238,32.523L855.238,32.524L855.24,28.524L853.24,28.523L853.238,32.523ZM3.97,31.95L853.238,32.523L853.24,28.523L3.972,27.95L3.97,31.95ZM3.971,55.438L1.971,55.436L1.968,59.436L3.968,59.438L3.971,55.438ZM853.238,56.01L3.971,55.438L3.968,59.438L853.236,60.01L853.238,56.01ZM855.238,56.012L853.238,56.01L853.236,60.01L855.236,60.012L855.238,56.012ZM857.234,62.013L857.238,58.013L853.238,58.01L853.234,62.01L857.234,62.013ZM853.234,64.01L855.234,64.012L855.236,60.012L853.236,60.01L853.234,64.01ZM3.966,63.438L853.234,64.01L853.236,60.01L3.968,59.438L3.966,63.438ZM1.966,63.436L3.966,63.438L3.968,59.438L1.968,59.436L1.966,63.436ZM-0.03,57.435L-0.033,61.435L3.967,61.438L3.97,57.438L-0.03,57.435ZM1.969,86.924L3.969,86.926L3.972,82.926L1.972,82.924L1.969,86.924ZM3.968,88.926L3.97,84.926L-0.03,84.923L-0.032,88.923L3.968,88.926ZM3.969,86.926L1.969,86.924L1.966,90.924L3.966,90.926L3.969,86.926ZM853.236,87.498L3.969,86.926L3.966,90.926L853.234,91.498L853.236,87.498ZM855.236,87.5L853.236,87.498L853.234,91.498L855.234,91.5L855.236,87.5ZM853.238,85.498L853.236,89.498L857.236,89.501L857.238,85.501L853.238,85.498ZM853.236,87.498L855.236,87.5L855.24,83.5L853.24,83.498L853.236,87.498ZM3.969,86.926L853.236,87.498L853.24,83.498L3.972,82.926L3.969,86.926ZM3.972,110.415L1.972,110.413L1.969,114.413L3.969,114.415L3.972,110.415ZM853.24,110.987L3.972,110.415L3.969,114.415L853.236,114.987L853.24,110.987ZM855.24,110.989L853.24,110.987L853.236,114.987L855.236,114.989L855.24,110.989ZM857.236,116.99L857.238,112.99L853.238,112.987L853.236,116.987L857.236,116.99ZM853.234,118.987L855.234,118.989L855.236,114.989L853.236,114.987L853.234,118.987ZM3.966,118.415L853.234,118.987L853.236,114.987L3.969,114.415L3.966,118.415ZM1.966,118.413L3.966,118.415L3.969,114.415L1.969,114.413L1.966,118.413ZM-0.03,112.412L-0.032,116.412L3.968,116.415L3.97,112.415L-0.03,112.412ZM1.97,141.901L3.97,141.903L3.972,137.903L1.972,137.901L1.97,141.901ZM3.968,143.903L3.971,139.903L-0.029,139.9L-0.032,143.9L3.968,143.903ZM3.97,141.903L1.97,141.901L1.967,145.901L3.967,145.903L3.97,141.903ZM853.238,142.475L3.97,141.903L3.967,145.903L853.234,146.475L853.238,142.475ZM855.238,142.477L853.238,142.475L853.234,146.475L855.234,146.477L855.238,142.477ZM853.24,140.475L853.236,144.475L857.236,144.478L857.24,140.478L853.24,140.475ZM853.238,142.475L855.238,142.477L855.24,138.477L853.24,138.475L853.238,142.475ZM3.97,141.903L853.238,142.475L853.24,138.475L3.972,137.903L3.97,141.903ZM3.972,165.389L1.972,165.388L1.969,169.388L3.969,169.389L3.972,165.389ZM853.24,165.962L3.972,165.389L3.969,169.389L853.236,169.962L853.24,165.962ZM855.24,165.963L853.24,165.962L853.236,169.962L855.236,169.963L855.24,165.963ZM857.236,171.965L857.238,167.965L853.238,167.962L853.236,171.962L857.236,171.965ZM853.234,173.962L855.234,173.963L855.236,169.963L853.236,169.962L853.234,173.962ZM3.966,173.389L853.234,173.962L853.236,169.962L3.969,169.389L3.966,173.389ZM1.966,173.388L3.966,173.389L3.969,169.389L1.969,169.388L1.966,173.388ZM-0.03,167.387L-0.032,171.387L3.968,171.389L3.97,167.389L-0.03,167.387ZM1.969,196.877L3.969,196.878L3.972,192.878L1.972,192.877L1.969,196.877ZM3.968,198.878L3.97,194.878L-0.03,194.875L-0.032,198.875L3.968,198.878ZM3.969,196.878L1.969,196.877L1.966,200.877L3.966,200.878L3.969,196.878ZM853.236,197.451L3.969,196.878L3.966,200.878L853.234,201.451L853.236,197.451ZM855.236,197.452L853.236,197.451L853.234,201.451L855.234,201.452L855.236,197.452ZM853.238,195.451L853.236,199.451L857.236,199.454L857.238,195.454L853.238,195.451ZM853.236,197.451L855.236,197.452L855.24,193.452L853.24,193.451L853.236,197.451ZM3.969,196.878L853.236,197.451L853.24,193.451L3.972,192.878L3.969,196.878ZM3.972,220.366L1.972,220.366L1.969,224.366L3.969,224.366L3.972,220.366ZM853.24,220.94L3.972,220.366L3.969,224.366L853.236,224.94L853.24,220.94ZM855.24,220.94L853.24,220.94L853.236,224.94L855.236,224.94L855.24,220.94ZM857.236,226.942L857.238,222.942L853.238,222.94L853.236,226.94L857.236,226.942ZM853.234,228.94L855.234,228.94L855.236,224.94L853.236,224.94L853.234,228.94ZM3.966,228.366L853.234,228.94L853.236,224.94L3.969,224.366L3.966,228.366ZM1.966,228.366L3.966,228.366L3.969,224.366L1.969,224.366L1.966,228.366ZM-0.03,222.364L-0.032,226.364L3.968,226.366L3.97,222.366L-0.03,222.364ZM1.968,251.852L3.968,251.854L3.97,247.854L1.97,247.852L1.968,251.852ZM3.966,253.854L3.969,249.854L-0.031,249.852L-0.034,253.852L3.966,253.854ZM3.968,251.854L1.968,251.852L1.965,255.852L3.965,255.854L3.968,251.854ZM853.236,252.426L3.968,251.854L3.965,255.854L853.232,256.426L853.236,252.426ZM855.236,252.428L853.236,252.426L853.232,256.426L855.232,256.428L855.236,252.428ZM853.236,250.426L853.234,254.426L857.234,254.43L857.236,250.43L853.236,250.426ZM853.236,252.426L855.236,252.428L855.238,248.428L853.238,248.426L853.236,252.426ZM3.968,251.854L853.236,252.426L853.238,248.426L3.97,247.854L3.968,251.854ZM3.971,275.342L1.971,275.34L1.968,279.34L3.968,279.342L3.971,275.342ZM853.24,275.914L3.971,275.342L3.968,279.342L853.236,279.914L853.24,275.914ZM855.24,275.916L853.24,275.914L853.236,279.914L855.236,279.916L855.24,275.916ZM857.234,281.918L857.238,277.918L853.238,277.914L853.234,281.914L857.234,281.918ZM853.234,283.914L855.234,283.916L855.236,279.916L853.236,279.914L853.234,283.914ZM3.966,283.342L853.234,283.914L853.236,279.914L3.968,279.342L3.966,283.342ZM1.966,283.34L3.966,283.342L3.968,279.342L1.968,279.34L1.966,283.34ZM-0.03,277.34L-0.033,281.34L3.967,281.342L3.97,277.342L-0.03,277.34ZM1.969,306.828L3.969,306.83L3.972,302.83L1.972,302.828L1.969,306.828ZM3.968,308.83L3.97,304.83L-0.03,304.828L-0.032,308.828L3.968,308.83ZM3.969,306.83L1.969,306.828L1.966,310.828L3.966,310.83L3.969,306.83ZM853.236,307.402L3.969,306.83L3.966,310.83L853.234,311.402L853.236,307.402ZM855.236,307.404L853.236,307.402L853.234,311.402L855.234,311.404L855.236,307.404ZM853.238,305.402L853.236,309.402L857.236,309.406L857.238,305.406L853.238,305.402ZM853.236,307.402L855.236,307.404L855.24,303.404L853.24,303.402L853.236,307.402ZM3.969,306.83L853.236,307.402L853.24,303.402L3.972,302.83L3.969,306.83ZM3.972,330.32L1.972,330.318L1.969,334.318L3.969,334.32L3.972,330.32ZM853.24,330.892L3.972,330.32L3.969,334.32L853.236,334.892L853.24,330.892ZM855.24,330.894L853.24,330.892L853.236,334.892L855.236,334.894L855.24,330.894ZM857.236,336.894L857.238,332.894L853.238,332.892L853.236,336.892L857.236,336.894ZM853.234,338.892L855.234,338.894L855.236,334.894L853.236,334.892L853.234,338.892ZM3.966,338.32L853.234,338.892L853.236,334.892L3.969,334.32L3.966,338.32ZM1.966,338.318L3.966,338.32L3.969,334.32L1.969,334.318L1.966,338.318ZM-0.03,332.316L-0.032,336.316L3.968,336.32L3.97,332.32L-0.03,332.316ZM1.97,361.806L3.97,361.808L3.972,357.808L1.972,357.806L1.97,361.806ZM3.968,363.808L3.971,359.808L-0.029,359.804L-0.032,363.804L3.968,363.808ZM3.97,361.808L1.97,361.806L1.967,365.806L3.967,365.808L3.97,361.808ZM853.238,362.38L3.97,361.808L3.967,365.808L853.234,366.38L853.238,362.38ZM855.238,362.382L853.238,362.38L853.234,366.38L855.234,366.382L855.238,362.382ZM853.24,360.38L853.236,364.38L857.236,364.382L857.24,360.382L853.24,360.38ZM853.238,362.38L855.238,362.382L855.24,358.382L853.24,358.38L853.238,362.38ZM3.97,361.808L853.238,362.38L853.24,358.38L3.972,357.808L3.97,361.808ZM3.971,385.294L1.971,385.294L1.968,389.294L3.968,389.294L3.971,385.294ZM853.24,385.868L3.971,385.294L3.968,389.294L853.236,389.868L853.24,385.868ZM855.24,385.868L853.24,385.868L853.236,389.868L855.236,389.868L855.24,385.868ZM857.234,391.87L857.238,387.87L853.238,387.868L853.234,391.868L857.234,391.87ZM853.234,393.868L855.234,393.868L855.236,389.868L853.236,389.868L853.234,393.868ZM3.966,393.294L853.234,393.868L853.236,389.868L3.968,389.294L3.966,393.294ZM1.966,393.294L3.966,393.294L3.968,389.294L1.968,389.294L1.966,393.294ZM-0.03,387.292L-0.033,391.292L3.967,391.294L3.97,387.294L-0.03,387.292ZM1.969,416.782L3.969,416.782L3.972,412.782L1.972,412.782L1.969,416.782ZM3.968,418.782L3.97,414.782L-0.03,414.78L-0.032,418.78L3.968,418.782ZM3.969,416.782L1.969,416.782L1.966,420.782L3.966,420.782L3.969,416.782ZM853.236,417.356L3.969,416.782L3.966,420.782L853.234,421.356L853.236,417.356ZM855.236,417.356L853.236,417.356L853.234,421.356L855.234,421.356L855.236,417.356ZM853.238,415.356L853.236,419.356L857.236,419.358L857.238,415.358L853.238,415.356ZM853.236,417.356L855.236,417.356L855.24,413.356L853.24,413.356L853.236,417.356ZM3.969,416.782L853.236,417.356L853.24,413.356L3.972,412.782L3.969,416.782ZM3.972,440.272L1.972,440.27L1.969,444.27L3.969,444.272L3.972,440.272ZM853.24,440.844L3.972,440.272L3.969,444.272L853.236,444.844L853.24,440.844ZM855.24,440.846L853.24,440.844L853.236,444.844L855.236,444.846L855.24,440.846ZM857.236,446.846L857.238,442.846L853.238,442.844L853.236,446.844L857.236,446.846ZM853.234,448.844L855.234,448.846L855.236,444.846L853.236,444.844L853.234,448.844ZM3.966,448.272L853.234,448.844L853.236,444.844L3.969,444.272L3.966,448.272ZM1.966,448.27L3.966,448.272L3.969,444.272L1.969,444.27L1.966,448.27ZM-0.03,442.268L-0.032,446.268L3.968,446.272L3.97,442.272L-0.03,442.268ZM1.97,471.758L3.97,471.76L3.972,467.76L1.972,467.758L1.97,471.758ZM3.968,473.76L3.971,469.76L-0.029,469.756L-0.032,473.756L3.968,473.76ZM3.97,471.76L1.97,471.758L1.967,475.758L3.967,475.76L3.97,471.76ZM853.238,472.332L3.97,471.76L3.967,475.76L853.234,476.332L853.238,472.332ZM855.238,472.334L853.238,472.332L853.234,476.332L855.234,476.334L855.238,472.334ZM853.24,470.332L853.236,474.332L857.236,474.334L857.24,470.334L853.24,470.332ZM853.238,472.332L855.238,472.334L855.24,468.334L853.24,468.332L853.238,472.332ZM3.97,471.76L853.238,472.332L853.24,468.332L3.972,467.76L3.97,471.76Z" transform="rotate(-270 428.603 238.397)" fill="#000000"/>
</g>
</svg>
