<svg width="1492" height="826" viewBox="0 0 1492 826" fill="none" xmlns="http://www.w3.org/2000/svg" xmlns:xlink="http://www.w3.org/1999/xlink">
<mask id="mask_0_33_805" style="mask-type:alpha" maskUnits="userSpaceOnUse" x="310" y="12" width="400" height="400">
<circle cx="710" cy="412" r="400" fill="#000000"/>
</mask>
<g mask="url(#mask_0_33_805)">
<path d="M2.001,2.499L2.002,0.499L0.002,0.497L0.001,2.497L2.001,2.499ZM4.001,2.5L4.002,0.5L4.001,2.5ZM1.998,6.499L-0.002,6.497L-0.003,8.497L1.997,8.499L1.998,6.499ZM3.998,6.5L4,4.5L4,4.5L3.998,6.5ZM1486.998,7.5L1487,5.5L1487,5.5L1486.998,7.5ZM1488.998,7.502L1488.996,9.502L1490.996,9.503L1490.998,7.503L1488.998,7.502ZM1489,3.502L1491,3.503L1491.002,1.503L1489.002,1.502L1489,3.502ZM1487,3.5L1487,5.5L1487,3.5ZM2.001,50.499L2.002,48.499L0.002,48.497L0.001,50.497L2.001,50.499ZM4.001,50.5L4.002,48.5L4.002,48.5L4.001,50.5ZM1.998,54.499L-0.002,54.497L-0.003,56.497L1.997,56.499L1.998,54.499ZM3.998,54.5L3.997,56.5L3.997,56.5L3.998,54.5ZM1486.998,55.5L1486.996,57.5L1486.996,57.5L1486.998,55.5ZM1488.998,55.501L1488.996,57.501L1490.996,57.503L1490.998,55.503L1488.998,55.501ZM1489,51.501L1491,51.503L1491.002,49.503L1489.002,49.501L1489,51.501ZM1487,51.5L1487.002,49.5L1487.002,49.5L1487,51.5ZM4.001,98.5L4,100.5L4,100.5L4.001,98.5ZM2.001,98.499L2.002,96.499L0.002,96.497L0.001,98.497L2.001,98.499ZM1487,99.5L1487.002,97.5L1487.002,97.5L1487,99.5ZM1489,99.502L1491,99.503L1491.002,97.503L1489.002,97.502L1489,99.502ZM1488.998,103.502L1488.996,105.502L1490.996,105.503L1490.998,103.503L1488.998,103.502ZM1486.998,103.5L1487,101.5L1487,101.5L1486.998,103.5ZM3.998,102.5L3.997,104.5L3.997,104.5L3.998,102.5ZM1.998,102.499L-0.002,102.497L-0.003,104.497L1.997,104.499L1.998,102.499ZM2.001,146.499L2.002,144.499L0.002,144.497L0.001,146.497L2.001,146.499ZM4.001,146.5L4.002,144.5L4.002,144.5L4.001,146.5ZM1.998,150.499L-0.002,150.497L-0.003,152.497L1.997,152.499L1.998,150.499ZM3.998,150.5L4,148.5L4,148.5L3.998,150.5ZM1486.998,151.5L1486.996,153.5L1486.996,153.5L1486.998,151.5ZM1488.998,151.501L1488.996,153.501L1490.996,153.503L1490.998,151.503L1488.998,151.501ZM1489,147.501L1491,147.503L1491.002,145.503L1489.002,145.501L1489,147.501ZM1487,147.5L1487,149.5L1487,149.5L1487,147.5ZM4.001,194.5L4.002,192.5L4.002,192.5L4.001,194.5ZM2.001,194.499L2.002,192.499L0.002,192.497L0.001,194.497L2.001,194.499ZM1487,195.5L1487,197.5L1487,197.5L1487,195.5ZM1489,195.501L1491,195.503L1491.002,193.503L1489.002,193.501L1489,195.501ZM1488.998,199.501L1488.996,201.501L1490.996,201.503L1490.998,199.503L1488.998,199.501ZM1486.998,199.5L1486.996,201.5L1486.996,201.5L1486.998,199.5ZM3.998,198.5L4,196.5L4,196.5L3.998,198.5ZM1.998,198.499L-0.002,198.497L-0.003,200.497L1.997,200.499L1.998,198.499ZM2.001,242.499L2.002,240.499L0.002,240.497L0.001,242.497L2.001,242.499ZM4.001,242.501L4.002,240.501L4.002,240.501L4.001,242.501ZM1.998,246.499L-0.002,246.497L-0.003,248.497L1.997,248.499L1.998,246.499ZM3.998,246.501L4,244.501L4,244.501L3.998,246.501ZM1486.998,247.501L1486.996,249.501L1486.996,249.501L1486.998,247.501ZM1488.998,247.501L1488.996,249.501L1490.996,249.503L1490.998,247.503L1488.998,247.501ZM1489,243.501L1491,243.503L1491.002,241.503L1489.002,241.501L1489,243.501ZM1487,243.501L1487,245.501L1487,245.501L1487,243.501ZM4.001,290.501L4.002,288.501L4.002,288.501L4.001,290.501ZM2.001,290.499L2.002,288.499L0.002,288.497L0.001,290.497L2.001,290.499ZM1487,291.501L1487,293.501L1487,293.501L1487,291.501ZM1489,291.501L1491,291.503L1491.002,289.503L1489.002,289.501L1489,291.501ZM1488.998,295.501L1488.996,297.501L1490.996,297.503L1490.998,295.503L1488.998,295.501ZM1486.998,295.501L1486.996,297.501L1486.996,297.501L1486.998,295.501ZM3.998,294.501L4,292.501L4,292.501L3.998,294.501ZM1.998,294.499L-0.002,294.497L-0.003,296.497L1.997,296.499L1.998,294.499ZM2.001,338.499L2.002,336.499L0.002,336.497L0.001,338.497L2.001,338.499ZM4.001,338.501L4.002,336.501L4.002,336.501L4.001,338.501ZM1.998,342.499L-0.002,342.497L-0.003,344.497L1.997,344.499L1.998,342.499ZM3.998,342.501L4,340.501L4,340.501L3.998,342.501ZM1486.998,343.501L1486.996,345.501L1486.996,345.501L1486.998,343.501ZM1488.998,343.501L1488.996,345.501L1490.996,345.503L1490.998,343.503L1488.998,343.501ZM1489,339.501L1491,339.503L1491.002,337.503L1489.002,337.501L1489,339.501ZM1487,339.501L1487,341.501L1487,341.501L1487,339.501ZM4.001,386.501L4.002,384.501L4.002,384.501L4.001,386.501ZM2.001,386.499L2.002,384.499L0.002,384.497L0.001,386.497L2.001,386.499ZM1487,387.501L1487,389.501L1487,389.501L1487,387.501ZM1489,387.501L1491,387.503L1491.002,385.503L1489.002,385.501L1489,387.501ZM1488.998,391.501L1488.996,393.501L1490.996,393.503L1490.998,391.503L1488.998,391.501ZM1486.998,391.501L1486.996,393.501L1486.996,393.501L1486.998,391.501ZM3.998,390.501L4,388.501L4,388.501L3.998,390.501ZM1.998,390.499L-0.002,390.497L-0.003,392.497L1.997,392.499L1.998,390.499ZM2.001,434.499L2.002,432.499L0.002,432.497L0.001,434.497L2.001,434.499ZM4.001,434.501L4.002,432.501L4.002,432.501L4.001,434.501ZM1.998,438.499L-0.002,438.497L-0.003,440.497L1.997,440.499L1.998,438.499ZM3.998,438.501L4,436.501L4,436.501L3.998,438.501ZM1486.998,439.501L1486.996,441.501L1486.996,441.501L1486.998,439.501ZM1488.998,439.501L1488.996,441.501L1490.996,441.503L1490.998,439.503L1488.998,439.501ZM1489,435.501L1491,435.503L1491.002,433.503L1489.002,433.501L1489,435.501ZM1487,435.501L1487,437.501L1487,437.501L1487,435.501ZM4.001,482.501L4.002,480.501L4.002,480.501L4.001,482.501ZM2.001,482.499L2.002,480.499L0.002,480.497L0.001,482.497L2.001,482.499ZM1487,483.501L1487,485.501L1487,485.501L1487,483.501ZM1489,483.501L1491,483.503L1491.002,481.503L1489.002,481.501L1489,483.501ZM1488.998,487.501L1488.996,489.501L1490.996,489.503L1490.998,487.503L1488.998,487.501ZM1486.998,487.501L1486.996,489.501L1486.996,489.501L1486.998,487.501ZM3.998,486.501L4,484.501L4,484.501L3.998,486.501ZM1.998,486.499L-0.002,486.497L-0.003,488.497L1.997,488.499L1.998,486.499ZM2.001,530.499L2.002,528.499L0.002,528.497L0.001,530.497L2.001,530.499ZM4.001,530.501L4.002,528.501L4.002,528.501L4.001,530.501ZM1.998,534.499L-0.002,534.497L-0.003,536.497L1.997,536.499L1.998,534.499ZM3.998,534.501L4,532.501L4,532.501L3.998,534.501ZM1486.998,535.501L1486.996,537.501L1486.996,537.501L1486.998,535.501ZM1488.998,535.501L1488.996,537.501L1490.996,537.503L1490.998,535.503L1488.998,535.501ZM1489,531.501L1491,531.503L1491.002,529.503L1489.002,529.501L1489,531.501ZM1487,531.501L1487,533.501L1487,533.501L1487,531.501ZM4.001,578.501L4.002,576.501L4.002,576.501L4.001,578.501ZM2.001,578.499L2.002,576.499L0.002,576.497L0.001,578.497L2.001,578.499ZM1487,579.501L1487,581.501L1487,581.501L1487,579.501ZM1489,579.501L1491,579.503L1491.002,577.503L1489.002,577.501L1489,579.501ZM1488.998,583.501L1488.996,585.501L1490.996,585.503L1490.998,583.503L1488.998,583.501ZM1486.998,583.501L1486.996,585.501L1486.996,585.501L1486.998,583.501ZM3.998,582.501L4,580.501L4,580.501L3.998,582.501ZM1.998,582.499L-0.002,582.497L-0.003,584.497L1.997,584.499L1.998,582.499ZM2.001,626.499L2.002,624.499L0.002,624.497L0.001,626.497L2.001,626.499ZM4.001,626.501L4.002,624.501L4.002,624.501L4.001,626.501ZM1.998,630.499L-0.002,630.497L-0.003,632.497L1.997,632.499L1.998,630.499ZM3.998,630.501L4,628.501L4,628.501L3.998,630.501ZM1486.998,631.501L1486.996,633.501L1486.996,633.501L1486.998,631.501ZM1488.998,631.501L1488.996,633.501L1490.996,633.503L1490.998,631.503L1488.998,631.501ZM1489,627.501L1491,627.503L1491.002,625.503L1489.002,625.501L1489,627.501ZM1487,627.501L1487,629.501L1487,629.501L1487,627.501ZM4.001,674.501L4.002,672.501L4.002,672.501L4.001,674.501ZM2.001,674.499L2.002,672.499L0.002,672.497L0.001,674.497L2.001,674.499ZM1487,675.501L1487,677.501L1487,677.501L1487,675.501ZM1489,675.501L1491,675.503L1491.002,673.503L1489.002,673.501L1489,675.501ZM1488.998,679.501L1488.996,681.501L1490.996,681.503L1490.998,679.503L1488.998,679.501ZM1486.998,679.501L1486.996,681.501L1486.996,681.501L1486.998,679.501ZM3.998,678.501L4,676.501L4,676.501L3.998,678.501ZM1.998,678.499L-0.002,678.497L-0.003,680.497L1.997,680.499L1.998,678.499ZM2.001,722.499L2.002,720.499L0.002,720.497L0.001,722.497L2.001,722.499ZM4.001,722.501L4.002,720.501L4.002,720.501L4.001,722.501ZM1.998,726.499L-0.002,726.497L-0.003,728.497L1.997,728.499L1.998,726.499ZM3.998,726.501L4,724.501L4,724.501L3.998,726.501ZM1486.998,727.501L1486.996,729.501L1486.996,729.501L1486.998,727.501ZM1488.998,727.501L1488.996,729.501L1490.996,729.503L1490.998,727.503L1488.998,727.501ZM1489,723.501L1491,723.503L1491.002,721.503L1489.002,721.501L1489,723.501ZM1487,723.501L1487,725.501L1487,725.501L1487,723.501ZM4.001,770.501L4.002,768.501L4.002,768.501L4.001,770.501ZM2.001,770.499L2.002,768.499L0.002,768.497L0.001,770.497L2.001,770.499ZM1487,771.501L1487,773.501L1487,773.501L1487,771.501ZM1489,771.501L1491,771.503L1491.002,769.503L1489.002,769.501L1489,771.501ZM1488.998,775.501L1488.996,777.501L1490.996,777.503L1490.998,775.503L1488.998,775.501ZM1486.998,775.501L1486.996,777.501L1486.996,777.501L1486.998,775.501ZM3.998,774.501L4,772.501L4,772.501L3.998,774.501ZM1.998,774.499L-0.002,774.497L-0.003,776.497L1.997,776.499L1.998,774.499ZM2.001,818.499L2.002,816.499L0.002,816.497L0.001,818.497L2.001,818.499ZM4.001,818.501L4.002,816.501L4.002,816.501L4.001,818.501ZM1.998,822.499L-0.002,822.497L-0.003,824.497L1.997,824.499L1.998,822.499ZM3.998,822.501L4,820.501L4,820.501L3.998,822.501ZM1486.998,823.501L1486.996,825.501L1486.996,825.501L1486.998,823.501ZM1488.998,823.501L1488.996,825.501L1490.996,825.503L1490.998,823.503L1488.998,823.501ZM1489,819.501L1491,819.503L1491.002,817.503L1489.002,817.501L1489,819.501ZM1487,819.501L1487,821.501L1487,821.501L1487,819.501ZM2,4.499L4,4.5L4.002,0.5L2.002,0.499L2,4.499ZM3.998,6.5L4.001,2.5L0.001,2.497L-0.002,6.497L3.998,6.5ZM4,4.5L2,4.499L1.997,8.499L3.997,8.5L4,4.5ZM1487,5.5L4,4.5L3.997,8.5L1486.996,9.5L1487,5.5ZM1489,5.502L1487,5.5L1486.996,9.5L1488.996,9.502L1489,5.502ZM1487,3.5L1486.998,7.5L1490.998,7.503L1491,3.503L1487,3.5ZM1487,5.5L1489,5.502L1489.002,1.502L1487.002,1.5L1487,5.5ZM4,4.5L1487,5.5L1487.002,1.5L4.002,0.5L4,4.5ZM2,52.499L4,52.5L4.002,48.5L2.002,48.499L2,52.499ZM3.998,54.5L4.001,50.5L0.001,50.497L-0.002,54.497L3.998,54.5ZM4,52.5L2,52.499L1.997,56.499L3.997,56.5L4,52.5ZM1487,53.5L4,52.5L3.997,56.5L1486.996,57.5L1487,53.5ZM1489,53.501L1487,53.5L1486.996,57.5L1488.996,57.501L1489,53.501ZM1487,51.5L1486.998,55.5L1490.998,55.503L1491,51.503L1487,51.5ZM1487,53.5L1489,53.501L1489.002,49.501L1487.002,49.5L1487,53.5ZM4,52.5L1487,53.5L1487.002,49.5L4.002,48.5L4,52.5ZM4.002,96.5L2.002,96.499L2,100.499L4,100.5L4.002,96.5ZM1487.002,97.5L4.002,96.5L4,100.5L1487,101.5L1487.002,97.5ZM1489.002,97.502L1487.002,97.5L1487,101.5L1489,101.502L1489.002,97.502ZM1490.998,103.503L1491,99.503L1487,99.5L1486.998,103.5L1490.998,103.503ZM1486.996,105.5L1488.996,105.502L1489,101.502L1487,101.5L1486.996,105.5ZM3.997,104.5L1486.996,105.5L1487,101.5L4,100.5L3.997,104.5ZM1.997,104.499L3.997,104.5L4,100.5L2,100.499L1.997,104.499ZM0.001,98.497L-0.002,102.497L3.998,102.5L4.001,98.5L0.001,98.497ZM2,148.499L4,148.5L4.002,144.5L2.002,144.499L2,148.499ZM3.998,150.5L4.001,146.5L0.001,146.497L-0.002,150.497L3.998,150.5ZM4,148.5L2,148.499L1.997,152.499L3.997,152.5L4,148.5ZM1487,149.5L4,148.5L3.997,152.5L1486.996,153.5L1487,149.5ZM1489,149.501L1487,149.5L1486.996,153.5L1488.996,153.501L1489,149.501ZM1487,147.5L1486.998,151.5L1490.998,151.503L1491,147.503L1487,147.5ZM1487,149.5L1489,149.501L1489.002,145.501L1487.002,145.5L1487,149.5ZM4,148.5L1487,149.5L1487.002,145.5L4.002,144.5L4,148.5ZM4.002,192.5L2.002,192.499L2,196.499L4,196.5L4.002,192.5ZM1487.002,193.5L4.002,192.5L4,196.5L1487,197.5L1487.002,193.5ZM1489.002,193.501L1487.002,193.5L1487,197.5L1489,197.501L1489.002,193.501ZM1490.998,199.503L1491,195.503L1487,195.5L1486.998,199.5L1490.998,199.503ZM1486.996,201.5L1488.996,201.501L1489,197.501L1487,197.5L1486.996,201.5ZM3.997,200.5L1486.996,201.5L1487,197.5L4,196.5L3.997,200.5ZM1.997,200.499L3.997,200.5L4,196.5L2,196.499L1.997,200.499ZM0.001,194.497L-0.002,198.497L3.998,198.5L4.001,194.5L0.001,194.497ZM2,244.499L4,244.501L4.002,240.501L2.002,240.499L2,244.499ZM3.998,246.501L4.001,242.501L0.001,242.497L-0.002,246.497L3.998,246.501ZM4,244.501L2,244.499L1.997,248.499L3.997,248.501L4,244.501ZM1487,245.501L4,244.501L3.997,248.501L1486.996,249.501L1487,245.501ZM1489,245.501L1487,245.501L1486.996,249.501L1488.996,249.501L1489,245.501ZM1487,243.501L1486.998,247.501L1490.998,247.503L1491,243.503L1487,243.501ZM1487,245.501L1489,245.501L1489.002,241.501L1487.002,241.501L1487,245.501ZM4,244.501L1487,245.501L1487.002,241.501L4.002,240.501L4,244.501ZM4.002,288.501L2.002,288.499L2,292.499L4,292.501L4.002,288.501ZM1487.002,289.501L4.002,288.501L4,292.501L1487,293.501L1487.002,289.501ZM1489.002,289.501L1487.002,289.501L1487,293.501L1489,293.501L1489.002,289.501ZM1490.998,295.503L1491,291.503L1487,291.501L1486.998,295.501L1490.998,295.503ZM1486.996,297.501L1488.996,297.501L1489,293.501L1487,293.501L1486.996,297.501ZM3.997,296.501L1486.996,297.501L1487,293.501L4,292.501L3.997,296.501ZM1.997,296.499L3.997,296.501L4,292.501L2,292.499L1.997,296.499ZM0.001,290.497L-0.002,294.497L3.998,294.501L4.001,290.501L0.001,290.497ZM2,340.499L4,340.501L4.002,336.501L2.002,336.499L2,340.499ZM3.998,342.501L4.001,338.501L0.001,338.497L-0.002,342.497L3.998,342.501ZM4,340.501L2,340.499L1.997,344.499L3.997,344.501L4,340.501ZM1487,341.501L4,340.501L3.997,344.501L1486.996,345.501L1487,341.501ZM1489,341.501L1487,341.501L1486.996,345.501L1488.996,345.501L1489,341.501ZM1487,339.501L1486.998,343.501L1490.998,343.503L1491,339.503L1487,339.501ZM1487,341.501L1489,341.501L1489.002,337.501L1487.002,337.501L1487,341.501ZM4,340.501L1487,341.501L1487.002,337.501L4.002,336.501L4,340.501ZM4.002,384.501L2.002,384.499L2,388.499L4,388.501L4.002,384.501ZM1487.002,385.501L4.002,384.501L4,388.501L1487,389.501L1487.002,385.501ZM1489.002,385.501L1487.002,385.501L1487,389.501L1489,389.501L1489.002,385.501ZM1490.998,391.503L1491,387.503L1487,387.501L1486.998,391.501L1490.998,391.503ZM1486.996,393.501L1488.996,393.501L1489,389.501L1487,389.501L1486.996,393.501ZM3.997,392.501L1486.996,393.501L1487,389.501L4,388.501L3.997,392.501ZM1.997,392.499L3.997,392.501L4,388.501L2,388.499L1.997,392.499ZM0.001,386.497L-0.002,390.497L3.998,390.501L4.001,386.501L0.001,386.497ZM2,436.499L4,436.501L4.002,432.501L2.002,432.499L2,436.499ZM3.998,438.501L4.001,434.501L0.001,434.497L-0.002,438.497L3.998,438.501ZM4,436.501L2,436.499L1.997,440.499L3.997,440.501L4,436.501ZM1487,437.501L4,436.501L3.997,440.501L1486.996,441.501L1487,437.501ZM1489,437.501L1487,437.501L1486.996,441.501L1488.996,441.501L1489,437.501ZM1487,435.501L1486.998,439.501L1490.998,439.503L1491,435.503L1487,435.501ZM1487,437.501L1489,437.501L1489.002,433.501L1487.002,433.501L1487,437.501ZM4,436.501L1487,437.501L1487.002,433.501L4.002,432.501L4,436.501ZM4.002,480.501L2.002,480.499L2,484.499L4,484.501L4.002,480.501ZM1487.002,481.501L4.002,480.501L4,484.501L1487,485.501L1487.002,481.501ZM1489.002,481.501L1487.002,481.501L1487,485.501L1489,485.501L1489.002,481.501ZM1490.998,487.503L1491,483.503L1487,483.501L1486.998,487.501L1490.998,487.503ZM1486.996,489.501L1488.996,489.501L1489,485.501L1487,485.501L1486.996,489.501ZM3.997,488.501L1486.996,489.501L1487,485.501L4,484.501L3.997,488.501ZM1.997,488.499L3.997,488.501L4,484.501L2,484.499L1.997,488.499ZM0.001,482.497L-0.002,486.497L3.998,486.501L4.001,482.501L0.001,482.497ZM2,532.499L4,532.501L4.002,528.501L2.002,528.499L2,532.499ZM3.998,534.501L4.001,530.501L0.001,530.497L-0.002,534.497L3.998,534.501ZM4,532.501L2,532.499L1.997,536.499L3.997,536.501L4,532.501ZM1487,533.501L4,532.501L3.997,536.501L1486.996,537.501L1487,533.501ZM1489,533.501L1487,533.501L1486.996,537.501L1488.996,537.501L1489,533.501ZM1487,531.501L1486.998,535.501L1490.998,535.503L1491,531.503L1487,531.501ZM1487,533.501L1489,533.501L1489.002,529.501L1487.002,529.501L1487,533.501ZM4,532.501L1487,533.501L1487.002,529.501L4.002,528.501L4,532.501ZM4.002,576.501L2.002,576.499L2,580.499L4,580.501L4.002,576.501ZM1487.002,577.501L4.002,576.501L4,580.501L1487,581.501L1487.002,577.501ZM1489.002,577.501L1487.002,577.501L1487,581.501L1489,581.501L1489.002,577.501ZM1490.998,583.503L1491,579.503L1487,579.501L1486.998,583.501L1490.998,583.503ZM1486.996,585.501L1488.996,585.501L1489,581.501L1487,581.501L1486.996,585.501ZM3.997,584.501L1486.996,585.501L1487,581.501L4,580.501L3.997,584.501ZM1.997,584.499L3.997,584.501L4,580.501L2,580.499L1.997,584.499ZM0.001,578.497L-0.002,582.497L3.998,582.501L4.001,578.501L0.001,578.497ZM2,628.499L4,628.501L4.002,624.501L2.002,624.499L2,628.499ZM3.998,630.501L4.001,626.501L0.001,626.497L-0.002,630.497L3.998,630.501ZM4,628.501L2,628.499L1.997,632.499L3.997,632.501L4,628.501ZM1487,629.501L4,628.501L3.997,632.501L1486.996,633.501L1487,629.501ZM1489,629.501L1487,629.501L1486.996,633.501L1488.996,633.501L1489,629.501ZM1487,627.501L1486.998,631.501L1490.998,631.503L1491,627.503L1487,627.501ZM1487,629.501L1489,629.501L1489.002,625.501L1487.002,625.501L1487,629.501ZM4,628.501L1487,629.501L1487.002,625.501L4.002,624.501L4,628.501ZM4.002,672.501L2.002,672.499L2,676.499L4,676.501L4.002,672.501ZM1487.002,673.501L4.002,672.501L4,676.501L1487,677.501L1487.002,673.501ZM1489.002,673.501L1487.002,673.501L1487,677.501L1489,677.501L1489.002,673.501ZM1490.998,679.503L1491,675.503L1487,675.501L1486.998,679.501L1490.998,679.503ZM1486.996,681.501L1488.996,681.501L1489,677.501L1487,677.501L1486.996,681.501ZM3.997,680.501L1486.996,681.501L1487,677.501L4,676.501L3.997,680.501ZM1.997,680.499L3.997,680.501L4,676.501L2,676.499L1.997,680.499ZM0.001,674.497L-0.002,678.497L3.998,678.501L4.001,674.501L0.001,674.497ZM2,724.499L4,724.501L4.002,720.501L2.002,720.499L2,724.499ZM3.998,726.501L4.001,722.501L0.001,722.497L-0.002,726.497L3.998,726.501ZM4,724.501L2,724.499L1.997,728.499L3.997,728.501L4,724.501ZM1487,725.501L4,724.501L3.997,728.501L1486.996,729.501L1487,725.501ZM1489,725.501L1487,725.501L1486.996,729.501L1488.996,729.501L1489,725.501ZM1487,723.501L1486.998,727.501L1490.998,727.503L1491,723.503L1487,723.501ZM1487,725.501L1489,725.501L1489.002,721.501L1487.002,721.501L1487,725.501ZM4,724.501L1487,725.501L1487.002,721.501L4.002,720.501L4,724.501ZM4.002,768.501L2.002,768.499L2,772.499L4,772.501L4.002,768.501ZM1487.002,769.501L4.002,768.501L4,772.501L1487,773.501L1487.002,769.501ZM1489.002,769.501L1487.002,769.501L1487,773.501L1489,773.501L1489.002,769.501ZM1490.998,775.503L1491,771.503L1487,771.501L1486.998,775.501L1490.998,775.503ZM1486.996,777.501L1488.996,777.501L1489,773.501L1487,773.501L1486.996,777.501ZM3.997,776.501L1486.996,777.501L1487,773.501L4,772.501L3.997,776.501ZM1.997,776.499L3.997,776.501L4,772.501L2,772.499L1.997,776.499ZM0.001,770.497L-0.002,774.497L3.998,774.501L4.001,770.501L0.001,770.497ZM2,820.499L4,820.501L4.002,816.501L2.002,816.499L2,820.499ZM3.998,822.501L4.001,818.501L0.001,818.497L-0.002,822.497L3.998,822.501ZM4,820.501L2,820.499L1.997,824.499L3.997,824.501L4,820.501ZM1487,821.501L4,820.501L3.997,824.501L1486.996,825.501L1487,821.501ZM1489,821.501L1487,821.501L1486.996,825.501L1488.996,825.501L1489,821.501ZM1487,819.501L1486.998,823.501L1490.998,823.503L1491,819.503L1487,819.501ZM1487,821.501L1489,821.501L1489.002,817.501L1487.002,817.501L1487,821.501ZM4,820.501L1487,821.501L1487.002,817.501L4.002,816.501L4,820.501Z" transform="rotate(90 745.5 413)" fill="#000000"/>
</g>
</svg>
