<svg width="1492" height="826" viewBox="0 0 1492 826" fill="none" xmlns="http://www.w3.org/2000/svg" xmlns:xlink="http://www.w3.org/1999/xlink">
<mask id="mask_0_33_1133" style="mask-type:alpha" maskUnits="userSpaceOnUse" x="310" y="11.999023" width="400" height="400">
<circle cx="710" cy="411.999" r="400" fill="#000000"/>
</mask>
<g mask="url(#mask_0_33_1133)">
<path d="M2.001,2.498L2.002,0.498L0.002,0.497L0.001,2.497L2.001,2.498ZM4.001,2.499L4.002,0.499L4.001,2.499ZM1.998,6.498L-0.002,6.497L-0.003,8.497L1.997,8.498L1.998,6.498ZM3.998,6.499L4,4.499L4,4.499L3.998,6.499ZM1486.998,7.499L1487,5.499L1487,5.499L1486.998,7.499ZM1488.998,7.501L1488.996,9.501L1490.996,9.502L1490.998,7.502L1488.998,7.501ZM1489,3.501L1491,3.502L1491.002,1.502L1489.002,1.501L1489,3.501ZM1487,3.499L1487,5.499L1487,3.499ZM2.001,50.498L2.002,48.498L0.002,48.496L0.001,50.496L2.001,50.498ZM4.001,50.499L4.002,48.499L4.002,48.499L4.001,50.499ZM1.998,54.498L-0.002,54.496L-0.003,56.496L1.997,56.498L1.998,54.498ZM3.998,54.499L3.997,56.499L3.997,56.499L3.998,54.499ZM1486.998,55.499L1486.996,57.499L1486.996,57.499L1486.998,55.499ZM1488.998,55.5L1488.996,57.5L1490.996,57.502L1490.998,55.502L1488.998,55.5ZM1489,51.5L1491,51.502L1491.002,49.502L1489.002,49.5L1489,51.5ZM1487,51.499L1487.002,49.499L1487.002,49.499L1487,51.499ZM4.001,98.499L4,100.499L4,100.499L4.001,98.499ZM2.001,98.498L2.002,96.498L0.002,96.496L0.001,98.496L2.001,98.498ZM1487,99.499L1487.002,97.499L1487.002,97.499L1487,99.499ZM1489,99.501L1491,99.502L1491.002,97.502L1489.002,97.501L1489,99.501ZM1488.998,103.501L1488.996,105.501L1490.996,105.502L1490.998,103.502L1488.998,103.501ZM1486.998,103.499L1487,101.499L1487,101.499L1486.998,103.499ZM3.998,102.499L3.997,104.499L3.997,104.499L3.998,102.499ZM1.998,102.498L-0.002,102.496L-0.003,104.496L1.997,104.498L1.998,102.498ZM2.001,146.498L2.002,144.498L0.002,144.496L0.001,146.496L2.001,146.498ZM4.001,146.499L4.002,144.499L4.002,144.499L4.001,146.499ZM1.998,150.498L-0.002,150.496L-0.003,152.496L1.997,152.498L1.998,150.498ZM3.998,150.499L4,148.499L4,148.499L3.998,150.499ZM1486.998,151.499L1486.996,153.499L1486.996,153.499L1486.998,151.499ZM1488.998,151.5L1488.996,153.5L1490.996,153.502L1490.998,151.502L1488.998,151.5ZM1489,147.5L1491,147.502L1491.002,145.502L1489.002,145.5L1489,147.5ZM1487,147.499L1487,149.499L1487,149.499L1487,147.499ZM4.001,194.499L4.002,192.499L4.002,192.499L4.001,194.499ZM2.001,194.498L2.002,192.498L0.002,192.496L0.001,194.496L2.001,194.498ZM1487,195.499L1487,197.499L1487,197.499L1487,195.499ZM1489,195.5L1491,195.502L1491.002,193.502L1489.002,193.5L1489,195.5ZM1488.998,199.5L1488.996,201.5L1490.996,201.502L1490.998,199.502L1488.998,199.5ZM1486.998,199.499L1486.996,201.499L1486.996,201.499L1486.998,199.499ZM3.998,198.499L4,196.499L4,196.499L3.998,198.499ZM1.998,198.498L-0.002,198.496L-0.003,200.496L1.997,200.498L1.998,198.498ZM2.001,242.498L2.002,240.498L0.002,240.496L0.001,242.496L2.001,242.498ZM4.001,242.5L4.002,240.5L4.002,240.5L4.001,242.5ZM1.998,246.498L-0.002,246.496L-0.003,248.496L1.997,248.498L1.998,246.498ZM3.998,246.5L4,244.5L4,244.5L3.998,246.5ZM1486.998,247.5L1486.996,249.5L1486.996,249.5L1486.998,247.5ZM1488.998,247.5L1488.996,249.5L1490.996,249.502L1490.998,247.502L1488.998,247.5ZM1489,243.5L1491,243.502L1491.002,241.502L1489.002,241.5L1489,243.5ZM1487,243.5L1487,245.5L1487,245.5L1487,243.5ZM4.001,290.5L4.002,288.5L4.002,288.5L4.001,290.5ZM2.001,290.498L2.002,288.498L0.002,288.496L0.001,290.496L2.001,290.498ZM1487,291.5L1487,293.5L1487,293.5L1487,291.5ZM1489,291.5L1491,291.502L1491.002,289.502L1489.002,289.5L1489,291.5ZM1488.998,295.5L1488.996,297.5L1490.996,297.502L1490.998,295.502L1488.998,295.5ZM1486.998,295.5L1486.996,297.5L1486.996,297.5L1486.998,295.5ZM3.998,294.5L4,292.5L4,292.5L3.998,294.5ZM1.998,294.498L-0.002,294.496L-0.003,296.496L1.997,296.498L1.998,294.498ZM2.001,338.498L2.002,336.498L0.002,336.496L0.001,338.496L2.001,338.498ZM4.001,338.5L4.002,336.5L4.002,336.5L4.001,338.5ZM1.998,342.498L-0.002,342.496L-0.003,344.496L1.997,344.498L1.998,342.498ZM3.998,342.5L4,340.5L4,340.5L3.998,342.5ZM1486.998,343.5L1486.996,345.5L1486.996,345.5L1486.998,343.5ZM1488.998,343.5L1488.996,345.5L1490.996,345.502L1490.998,343.502L1488.998,343.5ZM1489,339.5L1491,339.502L1491.002,337.502L1489.002,337.5L1489,339.5ZM1487,339.5L1487,341.5L1487,341.5L1487,339.5ZM4.001,386.5L4.002,384.5L4.002,384.5L4.001,386.5ZM2.001,386.498L2.002,384.498L0.002,384.496L0.001,386.496L2.001,386.498ZM1487,387.5L1487,389.5L1487,389.5L1487,387.5ZM1489,387.5L1491,387.502L1491.002,385.502L1489.002,385.5L1489,387.5ZM1488.998,391.5L1488.996,393.5L1490.996,393.502L1490.998,391.502L1488.998,391.5ZM1486.998,391.5L1486.996,393.5L1486.996,393.5L1486.998,391.5ZM3.998,390.5L4,388.5L4,388.5L3.998,390.5ZM1.998,390.498L-0.002,390.496L-0.003,392.496L1.997,392.498L1.998,390.498ZM2.001,434.498L2.002,432.498L0.002,432.496L0.001,434.496L2.001,434.498ZM4.001,434.5L4.002,432.5L4.002,432.5L4.001,434.5ZM1.998,438.498L-0.002,438.496L-0.003,440.496L1.997,440.498L1.998,438.498ZM3.998,438.5L4,436.5L4,436.5L3.998,438.5ZM1486.998,439.5L1486.996,441.5L1486.996,441.5L1486.998,439.5ZM1488.998,439.5L1488.996,441.5L1490.996,441.502L1490.998,439.502L1488.998,439.5ZM1489,435.5L1491,435.502L1491.002,433.502L1489.002,433.5L1489,435.5ZM1487,435.5L1487,437.5L1487,437.5L1487,435.5ZM4.001,482.5L4.002,480.5L4.002,480.5L4.001,482.5ZM2.001,482.498L2.002,480.498L0.002,480.496L0.001,482.496L2.001,482.498ZM1487,483.5L1487,485.5L1487,485.5L1487,483.5ZM1489,483.5L1491,483.502L1491.002,481.502L1489.002,481.5L1489,483.5ZM1488.998,487.5L1488.996,489.5L1490.996,489.502L1490.998,487.502L1488.998,487.5ZM1486.998,487.5L1486.996,489.5L1486.996,489.5L1486.998,487.5ZM3.998,486.5L4,484.5L4,484.5L3.998,486.5ZM1.998,486.498L-0.002,486.496L-0.003,488.496L1.997,488.498L1.998,486.498ZM2.001,530.498L2.002,528.498L0.002,528.496L0.001,530.496L2.001,530.498ZM4.001,530.5L4.002,528.5L4.002,528.5L4.001,530.5ZM1.998,534.498L-0.002,534.496L-0.003,536.496L1.997,536.498L1.998,534.498ZM3.998,534.5L4,532.5L4,532.5L3.998,534.5ZM1486.998,535.5L1486.996,537.5L1486.996,537.5L1486.998,535.5ZM1488.998,535.5L1488.996,537.5L1490.996,537.502L1490.998,535.502L1488.998,535.5ZM1489,531.5L1491,531.502L1491.002,529.502L1489.002,529.5L1489,531.5ZM1487,531.5L1487,533.5L1487,533.5L1487,531.5ZM4.001,578.5L4.002,576.5L4.002,576.5L4.001,578.5ZM2.001,578.498L2.002,576.498L0.002,576.496L0.001,578.496L2.001,578.498ZM1487,579.5L1487,581.5L1487,581.5L1487,579.5ZM1489,579.5L1491,579.502L1491.002,577.502L1489.002,577.5L1489,579.5ZM1488.998,583.5L1488.996,585.5L1490.996,585.502L1490.998,583.502L1488.998,583.5ZM1486.998,583.5L1486.996,585.5L1486.996,585.5L1486.998,583.5ZM3.998,582.5L4,580.5L4,580.5L3.998,582.5ZM1.998,582.498L-0.002,582.496L-0.003,584.496L1.997,584.498L1.998,582.498ZM2.001,626.498L2.002,624.498L0.002,624.496L0.001,626.496L2.001,626.498ZM4.001,626.5L4.002,624.5L4.002,624.5L4.001,626.5ZM1.998,630.498L-0.002,630.496L-0.003,632.496L1.997,632.498L1.998,630.498ZM3.998,630.5L4,628.5L4,628.5L3.998,630.5ZM1486.998,631.5L1486.996,633.5L1486.996,633.5L1486.998,631.5ZM1488.998,631.5L1488.996,633.5L1490.996,633.502L1490.998,631.502L1488.998,631.5ZM1489,627.5L1491,627.502L1491.002,625.502L1489.002,625.5L1489,627.5ZM1487,627.5L1487,629.5L1487,629.5L1487,627.5ZM4.001,674.5L4.002,672.5L4.002,672.5L4.001,674.5ZM2.001,674.498L2.002,672.498L0.002,672.496L0.001,674.496L2.001,674.498ZM1487,675.5L1487,677.5L1487,677.5L1487,675.5ZM1489,675.5L1491,675.502L1491.002,673.502L1489.002,673.5L1489,675.5ZM1488.998,679.5L1488.996,681.5L1490.996,681.502L1490.998,679.502L1488.998,679.5ZM1486.998,679.5L1486.996,681.5L1486.996,681.5L1486.998,679.5ZM3.998,678.5L4,676.5L4,676.5L3.998,678.5ZM1.998,678.498L-0.002,678.496L-0.003,680.496L1.997,680.498L1.998,678.498ZM2.001,722.498L2.002,720.498L0.002,720.496L0.001,722.496L2.001,722.498ZM4.001,722.5L4.002,720.5L4.002,720.5L4.001,722.5ZM1.998,726.498L-0.002,726.496L-0.003,728.496L1.997,728.498L1.998,726.498ZM3.998,726.5L4,724.5L4,724.5L3.998,726.5ZM1486.998,727.5L1486.996,729.5L1486.996,729.5L1486.998,727.5ZM1488.998,727.5L1488.996,729.5L1490.996,729.502L1490.998,727.502L1488.998,727.5ZM1489,723.5L1491,723.502L1491.002,721.502L1489.002,721.5L1489,723.5ZM1487,723.5L1487,725.5L1487,725.5L1487,723.5ZM4.001,770.5L4.002,768.5L4.002,768.5L4.001,770.5ZM2.001,770.498L2.002,768.498L0.002,768.496L0.001,770.496L2.001,770.498ZM1487,771.5L1487,773.5L1487,773.5L1487,771.5ZM1489,771.5L1491,771.502L1491.002,769.502L1489.002,769.5L1489,771.5ZM1488.998,775.5L1488.996,777.5L1490.996,777.502L1490.998,775.502L1488.998,775.5ZM1486.998,775.5L1486.996,777.5L1486.996,777.5L1486.998,775.5ZM3.998,774.5L4,772.5L4,772.5L3.998,774.5ZM1.998,774.498L-0.002,774.496L-0.003,776.496L1.997,776.498L1.998,774.498ZM2.001,818.498L2.002,816.498L0.002,816.496L0.001,818.496L2.001,818.498ZM4.001,818.5L4.002,816.5L4.002,816.5L4.001,818.5ZM1.998,822.498L-0.002,822.496L-0.003,824.496L1.997,824.498L1.998,822.498ZM3.998,822.5L4,820.5L4,820.5L3.998,822.5ZM1486.998,823.5L1486.996,825.5L1486.996,825.5L1486.998,823.5ZM1488.998,823.5L1488.996,825.5L1490.996,825.502L1490.998,823.502L1488.998,823.5ZM1489,819.5L1491,819.502L1491.002,817.502L1489.002,817.5L1489,819.5ZM1487,819.5L1487,821.5L1487,821.5L1487,819.5ZM2,4.498L4,4.499L4.002,0.499L2.002,0.498L2,4.498ZM3.998,6.499L4.001,2.499L0.001,2.497L-0.002,6.497L3.998,6.499ZM4,4.499L2,4.498L1.997,8.498L3.997,8.499L4,4.499ZM1487,5.499L4,4.499L3.997,8.499L1486.996,9.499L1487,5.499ZM1489,5.501L1487,5.499L1486.996,9.499L1488.996,9.501L1489,5.501ZM1487,3.499L1486.998,7.499L1490.998,7.502L1491,3.502L1487,3.499ZM1487,5.499L1489,5.501L1489.002,1.501L1487.002,1.499L1487,5.499ZM4,4.499L1487,5.499L1487.002,1.499L4.002,0.499L4,4.499ZM2,52.498L4,52.499L4.002,48.499L2.002,48.498L2,52.498ZM3.998,54.499L4.001,50.499L0.001,50.496L-0.002,54.496L3.998,54.499ZM4,52.499L2,52.498L1.997,56.498L3.997,56.499L4,52.499ZM1487,53.499L4,52.499L3.997,56.499L1486.996,57.499L1487,53.499ZM1489,53.5L1487,53.499L1486.996,57.499L1488.996,57.5L1489,53.5ZM1487,51.499L1486.998,55.499L1490.998,55.502L1491,51.502L1487,51.499ZM1487,53.499L1489,53.5L1489.002,49.5L1487.002,49.499L1487,53.499ZM4,52.499L1487,53.499L1487.002,49.499L4.002,48.499L4,52.499ZM4.002,96.499L2.002,96.498L2,100.498L4,100.499L4.002,96.499ZM1487.002,97.499L4.002,96.499L4,100.499L1487,101.499L1487.002,97.499ZM1489.002,97.501L1487.002,97.499L1487,101.499L1489,101.501L1489.002,97.501ZM1490.998,103.502L1491,99.502L1487,99.499L1486.998,103.499L1490.998,103.502ZM1486.996,105.499L1488.996,105.501L1489,101.501L1487,101.499L1486.996,105.499ZM3.997,104.499L1486.996,105.499L1487,101.499L4,100.499L3.997,104.499ZM1.997,104.498L3.997,104.499L4,100.499L2,100.498L1.997,104.498ZM0.001,98.496L-0.002,102.496L3.998,102.499L4.001,98.499L0.001,98.496ZM2,148.498L4,148.499L4.002,144.499L2.002,144.498L2,148.498ZM3.998,150.499L4.001,146.499L0.001,146.496L-0.002,150.496L3.998,150.499ZM4,148.499L2,148.498L1.997,152.498L3.997,152.499L4,148.499ZM1487,149.499L4,148.499L3.997,152.499L1486.996,153.499L1487,149.499ZM1489,149.5L1487,149.499L1486.996,153.499L1488.996,153.5L1489,149.5ZM1487,147.499L1486.998,151.499L1490.998,151.502L1491,147.502L1487,147.499ZM1487,149.499L1489,149.5L1489.002,145.5L1487.002,145.499L1487,149.499ZM4,148.499L1487,149.499L1487.002,145.499L4.002,144.499L4,148.499ZM4.002,192.499L2.002,192.498L2,196.498L4,196.499L4.002,192.499ZM1487.002,193.499L4.002,192.499L4,196.499L1487,197.499L1487.002,193.499ZM1489.002,193.5L1487.002,193.499L1487,197.499L1489,197.5L1489.002,193.5ZM1490.998,199.502L1491,195.502L1487,195.499L1486.998,199.499L1490.998,199.502ZM1486.996,201.499L1488.996,201.5L1489,197.5L1487,197.499L1486.996,201.499ZM3.997,200.499L1486.996,201.499L1487,197.499L4,196.499L3.997,200.499ZM1.997,200.498L3.997,200.499L4,196.499L2,196.498L1.997,200.498ZM0.001,194.496L-0.002,198.496L3.998,198.499L4.001,194.499L0.001,194.496ZM2,244.498L4,244.5L4.002,240.5L2.002,240.498L2,244.498ZM3.998,246.5L4.001,242.5L0.001,242.496L-0.002,246.496L3.998,246.5ZM4,244.5L2,244.498L1.997,248.498L3.997,248.5L4,244.5ZM1487,245.5L4,244.5L3.997,248.5L1486.996,249.5L1487,245.5ZM1489,245.5L1487,245.5L1486.996,249.5L1488.996,249.5L1489,245.5ZM1487,243.5L1486.998,247.5L1490.998,247.502L1491,243.502L1487,243.5ZM1487,245.5L1489,245.5L1489.002,241.5L1487.002,241.5L1487,245.5ZM4,244.5L1487,245.5L1487.002,241.5L4.002,240.5L4,244.5ZM4.002,288.5L2.002,288.498L2,292.498L4,292.5L4.002,288.5ZM1487.002,289.5L4.002,288.5L4,292.5L1487,293.5L1487.002,289.5ZM1489.002,289.5L1487.002,289.5L1487,293.5L1489,293.5L1489.002,289.5ZM1490.998,295.502L1491,291.502L1487,291.5L1486.998,295.5L1490.998,295.502ZM1486.996,297.5L1488.996,297.5L1489,293.5L1487,293.5L1486.996,297.5ZM3.997,296.5L1486.996,297.5L1487,293.5L4,292.5L3.997,296.5ZM1.997,296.498L3.997,296.5L4,292.5L2,292.498L1.997,296.498ZM0.001,290.496L-0.002,294.496L3.998,294.5L4.001,290.5L0.001,290.496ZM2,340.498L4,340.5L4.002,336.5L2.002,336.498L2,340.498ZM3.998,342.5L4.001,338.5L0.001,338.496L-0.002,342.496L3.998,342.5ZM4,340.5L2,340.498L1.997,344.498L3.997,344.5L4,340.5ZM1487,341.5L4,340.5L3.997,344.5L1486.996,345.5L1487,341.5ZM1489,341.5L1487,341.5L1486.996,345.5L1488.996,345.5L1489,341.5ZM1487,339.5L1486.998,343.5L1490.998,343.502L1491,339.502L1487,339.5ZM1487,341.5L1489,341.5L1489.002,337.5L1487.002,337.5L1487,341.5ZM4,340.5L1487,341.5L1487.002,337.5L4.002,336.5L4,340.5ZM4.002,384.5L2.002,384.498L2,388.498L4,388.5L4.002,384.5ZM1487.002,385.5L4.002,384.5L4,388.5L1487,389.5L1487.002,385.5ZM1489.002,385.5L1487.002,385.5L1487,389.5L1489,389.5L1489.002,385.5ZM1490.998,391.502L1491,387.502L1487,387.5L1486.998,391.5L1490.998,391.502ZM1486.996,393.5L1488.996,393.5L1489,389.5L1487,389.5L1486.996,393.5ZM3.997,392.5L1486.996,393.5L1487,389.5L4,388.5L3.997,392.5ZM1.997,392.498L3.997,392.5L4,388.5L2,388.498L1.997,392.498ZM0.001,386.496L-0.002,390.496L3.998,390.5L4.001,386.5L0.001,386.496ZM2,436.498L4,436.5L4.002,432.5L2.002,432.498L2,436.498ZM3.998,438.5L4.001,434.5L0.001,434.496L-0.002,438.496L3.998,438.5ZM4,436.5L2,436.498L1.997,440.498L3.997,440.5L4,436.5ZM1487,437.5L4,436.5L3.997,440.5L1486.996,441.5L1487,437.5ZM1489,437.5L1487,437.5L1486.996,441.5L1488.996,441.5L1489,437.5ZM1487,435.5L1486.998,439.5L1490.998,439.502L1491,435.502L1487,435.5ZM1487,437.5L1489,437.5L1489.002,433.5L1487.002,433.5L1487,437.5ZM4,436.5L1487,437.5L1487.002,433.5L4.002,432.5L4,436.5ZM4.002,480.5L2.002,480.498L2,484.498L4,484.5L4.002,480.5ZM1487.002,481.5L4.002,480.5L4,484.5L1487,485.5L1487.002,481.5ZM1489.002,481.5L1487.002,481.5L1487,485.5L1489,485.5L1489.002,481.5ZM1490.998,487.502L1491,483.502L1487,483.5L1486.998,487.5L1490.998,487.502ZM1486.996,489.5L1488.996,489.5L1489,485.5L1487,485.5L1486.996,489.5ZM3.997,488.5L1486.996,489.5L1487,485.5L4,484.5L3.997,488.5ZM1.997,488.498L3.997,488.5L4,484.5L2,484.498L1.997,488.498ZM0.001,482.496L-0.002,486.496L3.998,486.5L4.001,482.5L0.001,482.496ZM2,532.498L4,532.5L4.002,528.5L2.002,528.498L2,532.498ZM3.998,534.5L4.001,530.5L0.001,530.496L-0.002,534.496L3.998,534.5ZM4,532.5L2,532.498L1.997,536.498L3.997,536.5L4,532.5ZM1487,533.5L4,532.5L3.997,536.5L1486.996,537.5L1487,533.5ZM1489,533.5L1487,533.5L1486.996,537.5L1488.996,537.5L1489,533.5ZM1487,531.5L1486.998,535.5L1490.998,535.502L1491,531.502L1487,531.5ZM1487,533.5L1489,533.5L1489.002,529.5L1487.002,529.5L1487,533.5ZM4,532.5L1487,533.5L1487.002,529.5L4.002,528.5L4,532.5ZM4.002,576.5L2.002,576.498L2,580.498L4,580.5L4.002,576.5ZM1487.002,577.5L4.002,576.5L4,580.5L1487,581.5L1487.002,577.5ZM1489.002,577.5L1487.002,577.5L1487,581.5L1489,581.5L1489.002,577.5ZM1490.998,583.502L1491,579.502L1487,579.5L1486.998,583.5L1490.998,583.502ZM1486.996,585.5L1488.996,585.5L1489,581.5L1487,581.5L1486.996,585.5ZM3.997,584.5L1486.996,585.5L1487,581.5L4,580.5L3.997,584.5ZM1.997,584.498L3.997,584.5L4,580.5L2,580.498L1.997,584.498ZM0.001,578.496L-0.002,582.496L3.998,582.5L4.001,578.5L0.001,578.496ZM2,628.498L4,628.5L4.002,624.5L2.002,624.498L2,628.498ZM3.998,630.5L4.001,626.5L0.001,626.496L-0.002,630.496L3.998,630.5ZM4,628.5L2,628.498L1.997,632.498L3.997,632.5L4,628.5ZM1487,629.5L4,628.5L3.997,632.5L1486.996,633.5L1487,629.5ZM1489,629.5L1487,629.5L1486.996,633.5L1488.996,633.5L1489,629.5ZM1487,627.5L1486.998,631.5L1490.998,631.502L1491,627.502L1487,627.5ZM1487,629.5L1489,629.5L1489.002,625.5L1487.002,625.5L1487,629.5ZM4,628.5L1487,629.5L1487.002,625.5L4.002,624.5L4,628.5ZM4.002,672.5L2.002,672.498L2,676.498L4,676.5L4.002,672.5ZM1487.002,673.5L4.002,672.5L4,676.5L1487,677.5L1487.002,673.5ZM1489.002,673.5L1487.002,673.5L1487,677.5L1489,677.5L1489.002,673.5ZM1490.998,679.502L1491,675.502L1487,675.5L1486.998,679.5L1490.998,679.502ZM1486.996,681.5L1488.996,681.5L1489,677.5L1487,677.5L1486.996,681.5ZM3.997,680.5L1486.996,681.5L1487,677.5L4,676.5L3.997,680.5ZM1.997,680.498L3.997,680.5L4,676.5L2,676.498L1.997,680.498ZM0.001,674.496L-0.002,678.496L3.998,678.5L4.001,674.5L0.001,674.496ZM2,724.498L4,724.5L4.002,720.5L2.002,720.498L2,724.498ZM3.998,726.5L4.001,722.5L0.001,722.496L-0.002,726.496L3.998,726.5ZM4,724.5L2,724.498L1.997,728.498L3.997,728.5L4,724.5ZM1487,725.5L4,724.5L3.997,728.5L1486.996,729.5L1487,725.5ZM1489,725.5L1487,725.5L1486.996,729.5L1488.996,729.5L1489,725.5ZM1487,723.5L1486.998,727.5L1490.998,727.502L1491,723.502L1487,723.5ZM1487,725.5L1489,725.5L1489.002,721.5L1487.002,721.5L1487,725.5ZM4,724.5L1487,725.5L1487.002,721.5L4.002,720.5L4,724.5ZM4.002,768.5L2.002,768.498L2,772.498L4,772.5L4.002,768.5ZM1487.002,769.5L4.002,768.5L4,772.5L1487,773.5L1487.002,769.5ZM1489.002,769.5L1487.002,769.5L1487,773.5L1489,773.5L1489.002,769.5ZM1490.998,775.502L1491,771.502L1487,771.5L1486.998,775.5L1490.998,775.502ZM1486.996,777.5L1488.996,777.5L1489,773.5L1487,773.5L1486.996,777.5ZM3.997,776.5L1486.996,777.5L1487,773.5L4,772.5L3.997,776.5ZM1.997,776.498L3.997,776.5L4,772.5L2,772.498L1.997,776.498ZM0.001,770.496L-0.002,774.496L3.998,774.5L4.001,770.5L0.001,770.496ZM2,820.498L4,820.5L4.002,816.5L2.002,816.498L2,820.498ZM3.998,822.5L4.001,818.5L0.001,818.496L-0.002,822.496L3.998,822.5ZM4,820.5L2,820.498L1.997,824.498L3.997,824.5L4,820.5ZM1487,821.5L4,820.5L3.997,824.5L1486.996,825.5L1487,821.5ZM1489,821.5L1487,821.5L1486.996,825.5L1488.996,825.5L1489,821.5ZM1487,819.5L1486.998,823.5L1490.998,823.502L1491,819.502L1487,819.5ZM1487,821.5L1489,821.5L1489.002,817.5L1487.002,817.5L1487,821.5ZM4,820.5L1487,821.5L1487.002,817.5L4.002,816.5L4,820.5Z" transform="rotate(90 745.5 412.999)" fill="#000000"/>
</g>
</svg>
