<svg width="882" height="490" viewBox="0 0 882 490" fill="none" xmlns="http://www.w3.org/2000/svg" xmlns:xlink="http://www.w3.org/1999/xlink">
<mask id="mask_0_54_2588" style="mask-type:alpha" maskUnits="userSpaceOnUse" x="184" y="8.121094" width="235.711792" height="235.711792">
<circle cx="419.712" cy="243.833" r="235.712" fill="#000000"/>
</mask>
<g mask="url(#mask_0_54_2588)">
<path d="M1.681,1.7L1.682,-0.3L-0.318,-0.301L-0.319,1.699L1.681,1.7ZM3.681,1.702L3.682,-0.298L3.681,1.702ZM1.678,5.7L-0.322,5.699L-0.323,7.699L1.677,7.7L1.678,5.7ZM3.678,5.702L3.677,7.702L3.677,7.702L3.678,5.702ZM877.58,6.291L877.578,8.291L877.578,8.291L877.58,6.291ZM879.58,6.292L879.578,8.292L881.578,8.294L881.58,6.294L879.58,6.292ZM879.582,2.292L881.582,2.294L881.584,0.294L879.584,0.292L879.582,2.292ZM877.582,2.291L877.58,4.291L877.582,2.291ZM1.684,29.987L1.685,27.987L-0.315,27.986L-0.316,29.986L1.684,29.987ZM3.684,29.989L3.685,27.989L3.685,27.989L3.684,29.989ZM1.681,33.987L-0.319,33.986L-0.32,35.986L1.68,35.987L1.681,33.987ZM3.681,33.989L3.68,35.989L3.68,35.989L3.681,33.989ZM877.582,34.578L877.58,36.578L877.58,36.578L877.582,34.578ZM879.582,34.579L879.58,36.579L881.58,36.581L881.582,34.581L879.582,34.579ZM879.584,30.579L881.584,30.581L881.586,28.581L879.586,28.579L879.584,30.579ZM877.584,30.578L877.586,28.578L877.586,28.578L877.584,30.578ZM3.682,58.274L3.684,56.274L3.684,56.274L3.682,58.274ZM1.682,58.273L1.684,56.273L-0.316,56.272L-0.318,58.272L1.682,58.273ZM877.584,58.864L877.584,56.864L877.584,56.864L877.584,58.864ZM879.584,58.865L881.584,58.866L881.584,56.866L879.584,56.865L879.584,58.865ZM879.58,62.865L879.58,64.865L881.58,64.866L881.58,62.866L879.58,62.865ZM877.58,62.864L877.58,64.864L877.58,64.864L877.58,62.864ZM3.68,62.274L3.678,64.274L3.678,64.274L3.68,62.274ZM1.68,62.273L-0.32,62.272L-0.322,64.272L1.678,64.273L1.68,62.273ZM1.682,86.557L1.684,84.557L-0.316,84.556L-0.318,86.556L1.682,86.557ZM3.682,86.559L3.681,88.559L3.681,88.559L3.682,86.559ZM1.68,90.557L-0.32,90.556L-0.322,92.556L1.678,92.557L1.68,90.557ZM3.68,90.559L3.678,92.559L3.678,92.559L3.68,90.559ZM877.58,91.148L877.582,89.148L877.582,89.148L877.58,91.148ZM879.58,91.149L879.58,93.149L881.58,93.151L881.58,91.151L879.58,91.149ZM879.584,87.149L881.584,87.151L881.584,85.151L879.584,85.149L879.584,87.149ZM877.584,87.148L877.584,85.148L877.584,85.148L877.584,87.148ZM3.682,114.844L3.68,116.844L3.68,116.844L3.682,114.844ZM1.682,114.842L1.683,112.842L-0.317,112.841L-0.318,114.841L1.682,114.842ZM877.582,115.433L877.584,113.433L877.584,113.433L877.582,115.433ZM879.582,115.434L881.582,115.436L881.584,113.436L879.584,113.434L879.582,115.434ZM879.58,119.434L879.578,121.434L881.578,121.436L881.58,119.436L879.58,119.434ZM877.58,119.433L877.582,117.433L877.582,117.433L877.58,119.433ZM3.679,118.844L3.678,120.844L3.678,120.844L3.679,118.844ZM1.679,118.842L-0.321,118.841L-0.322,120.841L1.678,120.842L1.679,118.842ZM1.681,143.127L1.682,141.127L-0.318,141.126L-0.319,143.126L1.681,143.127ZM3.681,143.129L3.68,145.129L3.68,145.129L3.681,143.129ZM1.678,147.127L-0.322,147.126L-0.323,149.126L1.677,149.127L1.678,147.127ZM3.678,147.129L3.68,145.129L3.68,145.129L3.678,147.129ZM877.58,147.718L877.578,149.718L877.578,149.718L877.58,147.718ZM879.58,147.719L879.578,149.719L881.578,149.721L881.58,147.721L879.58,147.719ZM879.582,143.719L881.582,143.721L881.584,141.721L879.584,141.719L879.582,143.719ZM877.582,143.718L877.58,145.718L877.58,145.718L877.582,143.718ZM3.683,171.416L3.682,173.416L3.682,173.416L3.683,171.416ZM1.683,171.415L1.685,169.415L-0.315,169.414L-0.317,171.414L1.683,171.415ZM877.584,172.006L877.582,174.006L877.582,174.006L877.584,172.006ZM879.584,172.007L881.584,172.008L881.586,170.008L879.586,170.007L879.584,172.007ZM879.582,176.007L879.58,178.007L881.58,178.008L881.582,176.008L879.582,176.007ZM877.582,176.006L877.58,178.006L877.58,178.006L877.582,176.006ZM3.68,175.416L3.682,173.416L3.682,173.416L3.68,175.416ZM1.68,175.415L-0.32,175.414L-0.321,177.414L1.679,177.415L1.68,175.415ZM1.682,199.7L1.684,197.7L-0.316,197.699L-0.318,199.699L1.682,199.7ZM3.682,199.701L3.681,201.7L3.681,201.7L3.682,199.701ZM1.68,203.7L-0.32,203.698L-0.322,205.698L1.678,205.7L1.68,203.7ZM3.68,203.7L3.681,201.7L3.681,201.7L3.68,203.7ZM877.58,204.29L877.582,202.29L877.582,202.29L877.58,204.29ZM879.58,204.292L879.58,206.292L881.58,206.292L881.58,204.292L879.58,204.292ZM879.584,200.292L881.584,200.293L881.584,198.293L879.584,198.292L879.584,200.292ZM877.584,200.291L877.582,202.29L877.582,202.29L877.584,200.291ZM3.682,227.986L3.681,229.986L3.681,229.986L3.682,227.986ZM1.682,227.984L1.684,225.984L-0.316,225.982L-0.318,227.982L1.682,227.984ZM877.584,228.574L877.582,230.574L877.582,230.574L877.584,228.574ZM879.584,228.576L881.584,228.578L881.584,226.578L879.584,226.576L879.584,228.576ZM879.58,232.576L879.58,234.576L881.58,234.578L881.58,232.578L879.58,232.576ZM877.58,232.574L877.58,234.574L877.58,234.574L877.58,232.574ZM3.68,231.986L3.681,229.986L3.681,229.986L3.68,231.986ZM1.68,231.984L-0.32,231.982L-0.322,233.982L1.678,233.984L1.68,231.984ZM1.682,256.268L1.683,254.268L-0.317,254.268L-0.318,256.268L1.682,256.268ZM3.682,256.27L3.68,258.27L3.68,258.27L3.682,256.27ZM1.679,260.268L-0.321,260.268L-0.322,262.268L1.678,262.268L1.679,260.268ZM3.679,260.27L3.68,258.27L3.68,258.27L3.679,260.27ZM877.58,260.86L877.578,262.86L877.578,262.86L877.58,260.86ZM879.58,260.86L879.578,262.86L881.578,262.862L881.58,260.862L879.58,260.86ZM879.582,256.86L881.582,256.862L881.584,254.862L879.584,254.86L879.582,256.86ZM877.582,256.86L877.582,258.86L877.582,258.86L877.582,256.86ZM3.681,284.556L3.682,282.556L3.682,282.556L3.681,284.556ZM1.681,284.554L1.682,282.554L-0.318,282.552L-0.319,284.552L1.681,284.554ZM877.582,285.144L877.58,287.144L877.58,287.144L877.582,285.144ZM879.582,285.146L881.582,285.148L881.584,283.148L879.584,283.146L879.582,285.146ZM879.58,289.146L879.578,291.146L881.578,291.148L881.58,289.148L879.58,289.146ZM877.58,289.144L877.578,291.144L877.578,291.144L877.58,289.144ZM3.678,288.556L3.68,286.556L3.68,286.556L3.678,288.556ZM1.678,288.554L-0.322,288.552L-0.323,290.552L1.677,290.554L1.678,288.554ZM1.683,312.842L1.685,310.842L-0.315,310.84L-0.317,312.84L1.683,312.842ZM3.683,312.842L3.685,310.842L3.685,310.842L3.683,312.842ZM1.68,316.842L-0.32,316.84L-0.321,318.84L1.679,318.842L1.68,316.842ZM3.68,316.842L3.682,314.842L3.682,314.842L3.68,316.842ZM877.582,317.432L877.58,319.432L877.58,319.432L877.582,317.432ZM879.582,317.434L879.58,319.434L881.58,319.434L881.582,317.434L879.582,317.434ZM879.584,313.434L881.584,313.434L881.586,311.434L879.586,311.434L879.584,313.434ZM877.584,313.432L877.582,315.432L877.582,315.432L877.584,313.432ZM3.682,341.128L3.684,339.128L3.684,339.128L3.682,341.128ZM1.682,341.126L1.684,339.126L-0.316,339.126L-0.318,341.126L1.682,341.126ZM877.584,341.718L877.582,343.718L877.582,343.718L877.584,341.718ZM879.584,341.718L881.584,341.72L881.584,339.72L879.584,339.718L879.584,341.718ZM879.58,345.718L879.58,347.718L881.58,347.72L881.58,345.72L879.58,345.718ZM877.58,345.718L877.58,347.718L877.58,347.718L877.58,345.718ZM3.68,345.128L3.681,343.128L3.681,343.128L3.68,345.128ZM1.68,345.126L-0.32,345.126L-0.322,347.126L1.678,347.126L1.68,345.126ZM1.682,369.412L1.683,367.412L-0.317,367.41L-0.318,369.41L1.682,369.412ZM3.682,369.412L3.683,367.412L3.683,367.412L3.682,369.412ZM1.679,373.412L-0.321,373.41L-0.322,375.41L1.678,375.412L1.679,373.412ZM3.679,373.412L3.68,371.412L3.68,371.412L3.679,373.412ZM877.58,374.002L877.578,376.002L877.578,376.002L877.58,374.002ZM879.58,374.004L879.578,376.004L881.578,376.004L881.58,374.004L879.58,374.004ZM879.582,370.004L881.582,370.004L881.584,368.004L879.584,368.004L879.582,370.004ZM877.582,370.002L877.582,372.002L877.582,372.002L877.582,370.002ZM3.682,397.698L3.683,395.698L3.683,395.698L3.682,397.698ZM1.682,397.696L1.683,395.696L-0.317,395.694L-0.318,397.694L1.682,397.696ZM877.582,398.286L877.582,400.286L877.582,400.286L877.582,398.286ZM879.582,398.288L881.582,398.29L881.584,396.288L879.584,396.288L879.582,398.288ZM879.58,402.288L879.578,404.288L881.578,404.288L881.58,402.29L879.58,402.288ZM877.58,402.286L877.578,404.286L877.578,404.286L877.58,402.286ZM3.679,401.698L3.68,399.698L3.68,399.698L3.679,401.698ZM1.679,401.696L-0.321,401.694L-0.322,403.694L1.678,403.696L1.679,401.696ZM1.684,425.984L1.685,423.984L-0.315,423.982L-0.316,425.982L1.684,425.984ZM3.684,425.984L3.685,423.984L3.685,423.984L3.684,425.984ZM1.681,429.984L-0.319,429.982L-0.32,431.982L1.68,431.984L1.681,429.984ZM3.681,429.984L3.683,427.984L3.683,427.984L3.681,429.984ZM877.582,430.574L877.58,432.574L877.58,432.574L877.582,430.574ZM879.582,430.576L879.58,432.576L881.58,432.576L881.582,430.576L879.582,430.576ZM879.584,426.576L881.584,426.576L881.586,424.576L879.586,424.576L879.584,426.576ZM877.584,426.574L877.584,428.574L877.584,428.574L877.584,426.574ZM3.683,454.27L3.685,452.27L3.685,452.27L3.683,454.27ZM1.683,454.268L1.685,452.268L-0.315,452.268L-0.317,454.268L1.683,454.268ZM877.584,454.858L877.582,456.858L877.582,456.858L877.584,454.858ZM879.584,454.86L881.584,454.862L881.586,452.862L879.586,452.86L879.584,454.86ZM879.582,458.86L879.58,460.86L881.58,460.862L881.582,458.862L879.582,458.86ZM877.582,458.858L877.58,460.858L877.58,460.858L877.582,458.858ZM3.68,458.27L3.682,456.27L3.682,456.27L3.68,458.27ZM1.68,458.268L-0.32,458.268L-0.321,460.268L1.679,460.268L1.68,458.268ZM1.682,482.554L1.684,480.554L-0.316,480.552L-0.318,482.552L1.682,482.554ZM3.682,482.554L3.684,480.554L3.684,480.554L3.682,482.554ZM1.68,486.554L-0.32,486.552L-0.322,488.552L1.678,488.554L1.68,486.554ZM3.68,486.554L3.681,484.554L3.681,484.554L3.68,486.554ZM877.58,487.144L877.58,489.144L877.58,489.144L877.58,487.144ZM879.58,487.146L879.58,489.146L881.58,489.146L881.58,487.146L879.58,487.146ZM879.584,483.146L881.584,483.146L881.584,481.146L879.584,481.146L879.584,483.146ZM877.584,483.144L877.582,485.144L877.582,485.144L877.584,483.144ZM1.68,3.7L3.68,3.702L3.682,-0.298L1.682,-0.3L1.68,3.7ZM3.678,5.702L3.681,1.702L-0.319,1.699L-0.322,5.699L3.678,5.702ZM3.68,3.702L1.68,3.7L1.677,7.7L3.677,7.702L3.68,3.702ZM877.58,4.291L3.68,3.702L3.677,7.702L877.578,8.291L877.58,4.291ZM879.58,4.292L877.58,4.291L877.578,8.291L879.578,8.292L879.58,4.292ZM877.582,2.291L877.58,6.291L881.58,6.294L881.582,2.294L877.582,2.291ZM877.58,4.291L879.58,4.292L879.584,0.292L877.584,0.291L877.58,4.291ZM3.68,3.702L877.58,4.291L877.584,0.291L3.682,-0.298L3.68,3.702ZM1.683,31.987L3.683,31.989L3.685,27.989L1.685,27.987L1.683,31.987ZM3.681,33.989L3.684,29.989L-0.316,29.986L-0.319,33.986L3.681,33.989ZM3.683,31.989L1.683,31.987L1.68,35.987L3.68,35.989L3.683,31.989ZM877.584,32.578L3.683,31.989L3.68,35.989L877.58,36.578L877.584,32.578ZM879.584,32.579L877.584,32.578L877.58,36.578L879.58,36.579L879.584,32.579ZM877.584,30.578L877.582,34.578L881.582,34.581L881.584,30.581L877.584,30.578ZM877.584,32.578L879.584,32.579L879.586,28.579L877.586,28.578L877.584,32.578ZM3.683,31.989L877.584,32.578L877.586,28.578L3.685,27.989L3.683,31.989ZM3.684,56.274L1.684,56.273L1.681,60.273L3.681,60.274L3.684,56.274ZM877.584,56.864L3.684,56.274L3.681,60.274L877.582,60.864L877.584,56.864ZM879.584,56.865L877.584,56.864L877.582,60.864L879.582,60.865L879.584,56.865ZM881.58,62.866L881.584,58.866L877.584,58.864L877.58,62.864L881.58,62.866ZM877.58,64.864L879.58,64.865L879.582,60.865L877.582,60.864L877.58,64.864ZM3.678,64.274L877.58,64.864L877.582,60.864L3.681,60.274L3.678,64.274ZM1.678,64.273L3.678,64.274L3.681,60.274L1.681,60.273L1.678,64.273ZM-0.318,58.272L-0.32,62.272L3.68,62.274L3.682,58.274L-0.318,58.272ZM1.681,88.557L3.681,88.559L3.684,84.559L1.684,84.557L1.681,88.557ZM3.68,90.559L3.682,86.559L-0.318,86.556L-0.32,90.556L3.68,90.559ZM3.681,88.559L1.681,88.557L1.678,92.557L3.678,92.559L3.681,88.559ZM877.582,89.148L3.681,88.559L3.678,92.559L877.58,93.148L877.582,89.148ZM879.582,89.149L877.582,89.148L877.58,93.148L879.58,93.149L879.582,89.149ZM877.584,87.148L877.58,91.148L881.58,91.151L881.584,87.151L877.584,87.148ZM877.582,89.148L879.582,89.149L879.584,85.149L877.584,85.148L877.582,89.148ZM3.681,88.559L877.582,89.148L877.584,85.148L3.684,84.559L3.681,88.559ZM3.683,112.844L1.683,112.842L1.68,116.842L3.68,116.844L3.683,112.844ZM877.584,113.433L3.683,112.844L3.68,116.844L877.582,117.433L877.584,113.433ZM879.584,113.434L877.584,113.433L877.582,117.433L879.582,117.434L879.584,113.434ZM881.58,119.436L881.582,115.436L877.582,115.433L877.58,119.433L881.58,119.436ZM877.578,121.433L879.578,121.434L879.582,117.434L877.582,117.433L877.578,121.433ZM3.678,120.844L877.578,121.433L877.582,117.433L3.68,116.844L3.678,120.844ZM1.678,120.842L3.678,120.844L3.68,116.844L1.68,116.842L1.678,120.842ZM-0.318,114.841L-0.321,118.841L3.679,118.844L3.682,114.844L-0.318,114.841ZM1.68,145.127L3.68,145.129L3.682,141.129L1.682,141.127L1.68,145.127ZM3.678,147.129L3.681,143.129L-0.319,143.126L-0.322,147.126L3.678,147.129ZM3.68,145.129L1.68,145.127L1.677,149.127L3.677,149.129L3.68,145.129ZM877.58,145.718L3.68,145.129L3.677,149.129L877.578,149.718L877.58,145.718ZM879.58,145.719L877.58,145.718L877.578,149.718L879.578,149.719L879.58,145.719ZM877.582,143.718L877.58,147.718L881.58,147.721L881.582,143.721L877.582,143.718ZM877.58,145.718L879.58,145.719L879.584,141.719L877.584,141.718L877.58,145.718ZM3.68,145.129L877.58,145.718L877.584,141.718L3.682,141.129L3.68,145.129ZM3.685,169.416L1.685,169.415L1.682,173.415L3.682,173.416L3.685,169.416ZM877.586,170.006L3.685,169.416L3.682,173.416L877.582,174.006L877.586,170.006ZM879.586,170.007L877.586,170.006L877.582,174.006L879.582,174.007L879.586,170.007ZM881.582,176.008L881.584,172.008L877.584,172.006L877.582,176.006L881.582,176.008ZM877.58,178.006L879.58,178.007L879.582,174.007L877.582,174.006L877.58,178.006ZM3.679,177.416L877.58,178.006L877.582,174.006L3.682,173.416L3.679,177.416ZM1.679,177.415L3.679,177.416L3.682,173.416L1.682,173.415L1.679,177.415ZM-0.317,171.414L-0.32,175.414L3.68,175.416L3.683,171.416L-0.317,171.414ZM1.681,201.7L3.681,201.7L3.684,197.701L1.684,197.7L1.681,201.7ZM3.68,203.7L3.682,199.701L-0.318,199.699L-0.32,203.698L3.68,203.7ZM3.681,201.7L1.681,201.7L1.678,205.7L3.678,205.7L3.681,201.7ZM877.582,202.29L3.681,201.7L3.678,205.7L877.58,206.29L877.582,202.29ZM879.582,202.292L877.582,202.29L877.58,206.29L879.58,206.292L879.582,202.292ZM877.584,200.291L877.58,204.29L881.58,204.292L881.584,200.293L877.584,200.291ZM877.582,202.29L879.582,202.292L879.584,198.292L877.584,198.291L877.582,202.29ZM3.681,201.7L877.582,202.29L877.584,198.291L3.684,197.701L3.681,201.7ZM3.684,225.986L1.684,225.984L1.681,229.984L3.681,229.986L3.684,225.986ZM877.584,226.574L3.684,225.986L3.681,229.986L877.582,230.574L877.584,226.574ZM879.584,226.576L877.584,226.574L877.582,230.574L879.582,230.576L879.584,226.576ZM881.58,232.578L881.584,228.578L877.584,228.574L877.58,232.574L881.58,232.578ZM877.58,234.574L879.58,234.576L879.582,230.576L877.582,230.574L877.58,234.574ZM3.678,233.986L877.58,234.574L877.582,230.574L3.681,229.986L3.678,233.986ZM1.678,233.984L3.678,233.986L3.681,229.986L1.681,229.984L1.678,233.984ZM-0.318,227.982L-0.32,231.982L3.68,231.986L3.682,227.986L-0.318,227.982ZM1.68,258.268L3.68,258.27L3.683,254.27L1.683,254.268L1.68,258.268ZM3.679,260.27L3.682,256.27L-0.318,256.268L-0.321,260.268L3.679,260.27ZM3.68,258.27L1.68,258.268L1.678,262.268L3.678,262.27L3.68,258.27ZM877.582,258.86L3.68,258.27L3.678,262.27L877.578,262.86L877.582,258.86ZM879.582,258.86L877.582,258.86L877.578,262.86L879.578,262.86L879.582,258.86ZM877.582,256.86L877.58,260.86L881.58,260.862L881.582,256.862L877.582,256.86ZM877.582,258.86L879.582,258.86L879.584,254.86L877.584,254.86L877.582,258.86ZM3.68,258.27L877.582,258.86L877.584,254.86L3.683,254.27L3.68,258.27ZM3.682,282.556L1.682,282.554L1.68,286.554L3.68,286.556L3.682,282.556ZM877.584,283.144L3.682,282.556L3.68,286.556L877.58,287.144L877.584,283.144ZM879.584,283.146L877.584,283.144L877.58,287.144L879.58,287.146L879.584,283.146ZM881.58,289.148L881.582,285.148L877.582,285.144L877.58,289.144L881.58,289.148ZM877.578,291.144L879.578,291.146L879.58,287.146L877.58,287.144L877.578,291.144ZM3.677,290.556L877.578,291.144L877.58,287.144L3.68,286.556L3.677,290.556ZM1.677,290.554L3.677,290.556L3.68,286.556L1.68,286.554L1.677,290.554ZM-0.319,284.552L-0.322,288.552L3.678,288.556L3.681,284.556L-0.319,284.552ZM1.682,314.842L3.682,314.842L3.685,310.842L1.685,310.842L1.682,314.842ZM3.68,316.842L3.683,312.842L-0.317,312.84L-0.32,316.84L3.68,316.842ZM3.682,314.842L1.682,314.842L1.679,318.842L3.679,318.842L3.682,314.842ZM877.582,315.432L3.682,314.842L3.679,318.842L877.58,319.432L877.582,315.432ZM879.582,315.434L877.582,315.432L877.58,319.432L879.58,319.434L879.582,315.434ZM877.584,313.432L877.582,317.432L881.582,317.434L881.584,313.434L877.584,313.432ZM877.582,315.432L879.582,315.434L879.586,311.434L877.586,311.432L877.582,315.432ZM3.682,314.842L877.582,315.432L877.586,311.432L3.685,310.842L3.682,314.842ZM3.684,339.128L1.684,339.126L1.681,343.126L3.681,343.128L3.684,339.128ZM877.584,339.718L3.684,339.128L3.681,343.128L877.582,343.718L877.584,339.718ZM879.584,339.718L877.584,339.718L877.582,343.718L879.582,343.718L879.584,339.718ZM881.58,345.72L881.584,341.72L877.584,341.718L877.58,345.718L881.58,345.72ZM877.58,347.718L879.58,347.718L879.582,343.718L877.582,343.718L877.58,347.718ZM3.678,347.128L877.58,347.718L877.582,343.718L3.681,343.128L3.678,347.128ZM1.678,347.126L3.678,347.128L3.681,343.128L1.681,343.126L1.678,347.126ZM-0.318,341.126L-0.32,345.126L3.68,345.128L3.682,341.128L-0.318,341.126ZM1.68,371.412L3.68,371.412L3.683,367.412L1.683,367.412L1.68,371.412ZM3.679,373.412L3.682,369.412L-0.318,369.41L-0.321,373.41L3.679,373.412ZM3.68,371.412L1.68,371.412L1.678,375.412L3.678,375.412L3.68,371.412ZM877.582,372.002L3.68,371.412L3.678,375.412L877.578,376.002L877.582,372.002ZM879.582,372.004L877.582,372.002L877.578,376.002L879.578,376.004L879.582,372.004ZM877.582,370.002L877.58,374.002L881.58,374.004L881.582,370.004L877.582,370.002ZM877.582,372.002L879.582,372.004L879.584,368.004L877.584,368.002L877.582,372.002ZM3.68,371.412L877.582,372.002L877.584,368.002L3.683,367.412L3.68,371.412ZM3.683,395.698L1.683,395.696L1.68,399.696L3.68,399.698L3.683,395.698ZM877.584,396.286L3.683,395.698L3.68,399.698L877.582,400.286L877.584,396.286ZM879.584,396.288L877.584,396.286L877.582,400.286L879.582,400.288L879.584,396.288ZM881.58,402.29L881.582,398.29L877.582,398.286L877.58,402.286L881.58,402.29ZM877.578,404.286L879.578,404.288L879.582,400.288L877.582,400.286L877.578,404.286ZM3.678,403.698L877.578,404.286L877.582,400.286L3.68,399.698L3.678,403.698ZM1.678,403.696L3.678,403.698L3.68,399.698L1.68,399.696L1.678,403.696ZM-0.318,397.694L-0.321,401.694L3.679,401.698L3.682,397.698L-0.318,397.694ZM1.683,427.984L3.683,427.984L3.685,423.984L1.685,423.984L1.683,427.984ZM3.681,429.984L3.684,425.984L-0.316,425.982L-0.319,429.982L3.681,429.984ZM3.683,427.984L1.683,427.984L1.68,431.984L3.68,431.984L3.683,427.984ZM877.584,428.574L3.683,427.984L3.68,431.984L877.58,432.574L877.584,428.574ZM879.584,428.576L877.584,428.574L877.58,432.574L879.58,432.576L879.584,428.576ZM877.584,426.574L877.582,430.574L881.582,430.576L881.584,426.576L877.584,426.574ZM877.584,428.574L879.584,428.576L879.586,424.576L877.586,424.574L877.584,428.574ZM3.683,427.984L877.584,428.574L877.586,424.574L3.685,423.984L3.683,427.984ZM3.685,452.27L1.685,452.268L1.682,456.268L3.682,456.27L3.685,452.27ZM877.586,452.858L3.685,452.27L3.682,456.27L877.582,456.858L877.586,452.858ZM879.586,452.86L877.586,452.858L877.582,456.858L879.582,456.86L879.586,452.86ZM881.582,458.862L881.584,454.862L877.584,454.858L877.582,458.858L881.582,458.862ZM877.58,460.858L879.58,460.86L879.582,456.86L877.582,456.858L877.58,460.858ZM3.679,460.27L877.58,460.858L877.582,456.858L3.682,456.27L3.679,460.27ZM1.679,460.268L3.679,460.27L3.682,456.27L1.682,456.268L1.679,460.268ZM-0.317,454.268L-0.32,458.268L3.68,458.27L3.683,454.27L-0.317,454.268ZM1.681,484.554L3.681,484.554L3.684,480.554L1.684,480.554L1.681,484.554ZM3.68,486.554L3.682,482.554L-0.318,482.552L-0.32,486.552L3.68,486.554ZM3.681,484.554L1.681,484.554L1.678,488.554L3.678,488.554L3.681,484.554ZM877.582,485.144L3.681,484.554L3.678,488.554L877.58,489.144L877.582,485.144ZM879.582,485.146L877.582,485.144L877.58,489.144L879.58,489.146L879.582,485.146ZM877.584,483.144L877.58,487.144L881.58,487.146L881.584,483.146L877.584,483.144ZM877.582,485.144L879.582,485.146L879.584,481.146L877.584,481.144L877.582,485.144ZM3.681,484.554L877.582,485.144L877.584,481.144L3.684,480.554L3.681,484.554Z" transform="rotate(90 440.632 244.423)" fill="#000000"/>
</g>
</svg>
