<svg width="728" height="406" viewBox="0 0 728 406" fill="none" xmlns="http://www.w3.org/2000/svg" xmlns:xlink="http://www.w3.org/1999/xlink">
<mask id="mask_0_54_2457" style="mask-type:alpha" maskUnits="userSpaceOnUse" x="152" y="8" width="194" height="194">
<circle cx="346" cy="202" r="194" fill="#000000"/>
</mask>
<g mask="url(#mask_0_54_2457)">
<path d="M1.591,2.36L1.592,0.36L-0.408,0.359L-0.409,2.359L1.591,2.36ZM3.591,2.362L3.592,0.362L3.591,2.362ZM1.588,6.36L-0.412,6.359L-0.413,8.359L1.587,8.36L1.588,6.36ZM3.588,6.362L3.59,4.362L3.59,4.362L3.588,6.362ZM722.844,6.847L722.844,4.847L722.844,4.847L722.844,6.847ZM724.844,6.848L724.842,8.848L726.842,8.849L726.844,6.849L724.844,6.848ZM724.846,2.848L726.846,2.849L726.848,0.849L724.848,0.848L724.846,2.848ZM722.846,2.847L722.844,4.847L722.846,2.847ZM1.592,25.641L1.593,23.641L-0.407,23.64L-0.408,25.64L1.592,25.641ZM3.592,25.643L3.593,23.643L3.593,23.643L3.592,25.643ZM1.589,29.641L-0.411,29.64L-0.413,31.64L1.587,31.641L1.589,29.641ZM3.589,29.643L3.59,27.643L3.59,27.643L3.589,29.643ZM722.844,30.128L722.842,32.128L722.842,32.128L722.844,30.128ZM724.844,30.129L724.842,32.129L726.842,32.131L726.844,30.131L724.844,30.129ZM724.846,26.129L726.846,26.131L726.848,24.131L724.848,24.129L724.846,26.129ZM722.846,26.128L722.846,28.128L722.846,28.128L722.846,26.128ZM3.592,48.922L3.593,46.922L3.593,46.922L3.592,48.922ZM1.592,48.921L1.593,46.921L-0.407,46.92L-0.408,48.92L1.592,48.921ZM722.846,49.407L722.846,51.407L722.846,51.407L722.846,49.407ZM724.846,49.409L726.846,49.41L726.848,47.41L724.848,47.409L724.846,49.409ZM724.844,53.409L724.842,55.409L726.842,55.41L726.844,53.41L724.844,53.409ZM722.844,53.407L722.842,55.407L722.842,55.407L722.844,53.407ZM3.589,52.922L3.588,54.922L3.588,54.922L3.589,52.922ZM1.589,52.921L-0.411,52.92L-0.412,54.92L1.588,54.921L1.589,52.921ZM1.591,72.201L1.592,70.201L-0.408,70.199L-0.409,72.199L1.591,72.201ZM3.591,72.202L3.589,74.202L3.589,74.202L3.591,72.202ZM1.588,76.201L-0.412,76.199L-0.413,78.199L1.587,78.201L1.588,76.201ZM3.588,76.202L3.587,78.202L3.587,78.202L3.588,76.202ZM722.844,76.687L722.844,74.687L722.844,74.687L722.844,76.687ZM724.844,76.688L724.842,78.688L726.842,78.69L726.844,76.69L724.844,76.688ZM724.846,72.688L726.846,72.69L726.848,70.69L724.848,70.688L724.846,72.688ZM722.846,72.687L722.848,70.687L722.848,70.687L722.846,72.687ZM3.591,95.482L3.59,97.482L3.59,97.482L3.591,95.482ZM1.591,95.48L1.592,93.48L-0.408,93.479L-0.409,95.479L1.591,95.48ZM722.846,95.967L722.848,93.967L722.848,93.967L722.846,95.967ZM724.846,95.968L726.846,95.969L726.848,93.969L724.848,93.968L724.846,95.968ZM724.844,99.968L724.842,101.968L726.842,101.969L726.844,99.969L724.844,99.968ZM722.844,99.967L722.844,97.967L722.844,97.967L722.844,99.967ZM3.588,99.482L3.587,101.482L3.587,101.482L3.588,99.482ZM1.588,99.48L-0.412,99.479L-0.413,101.479L1.587,101.48L1.588,99.48ZM1.592,118.761L1.593,116.761L-0.407,116.76L-0.408,118.76L1.592,118.761ZM3.592,118.763L3.59,120.763L3.59,120.763L3.592,118.763ZM1.589,122.761L-0.411,122.76L-0.413,124.76L1.587,124.761L1.589,122.761ZM3.589,122.763L3.587,124.763L3.587,124.763L3.589,122.763ZM722.844,123.248L722.846,121.248L722.846,121.248L722.844,123.248ZM724.844,123.249L724.842,125.249L726.842,125.25L726.844,123.25L724.844,123.249ZM724.846,119.249L726.846,119.25L726.848,117.25L724.848,117.249L724.846,119.249ZM722.846,119.248L722.848,117.248L722.848,117.248L722.846,119.248ZM3.592,142.042L3.59,144.042L3.59,144.042L3.592,142.042ZM1.592,142.041L1.593,140.041L-0.407,140.04L-0.408,142.04L1.592,142.041ZM722.846,142.527L722.848,140.527L722.848,140.527L722.846,142.527ZM724.846,142.529L726.846,142.53L726.848,140.53L724.848,140.529L724.846,142.529ZM724.844,146.529L724.842,148.529L726.842,148.53L726.844,146.53L724.844,146.529ZM722.844,146.527L722.846,144.527L722.846,144.527L722.844,146.527ZM3.589,146.042L3.59,144.042L3.59,144.042L3.589,146.042ZM1.589,146.041L-0.411,146.04L-0.412,148.04L1.588,148.041L1.589,146.041ZM1.591,165.321L1.592,163.321L-0.408,163.319L-0.409,165.319L1.591,165.321ZM3.591,165.322L3.589,167.322L3.589,167.322L3.591,165.322ZM1.588,169.321L-0.412,169.319L-0.413,171.319L1.587,171.321L1.588,169.321ZM3.588,169.322L3.589,167.322L3.589,167.322L3.588,169.322ZM722.844,169.807L722.844,167.807L722.844,167.807L722.844,169.807ZM724.844,169.808L724.842,171.808L726.842,171.81L726.844,169.81L724.844,169.808ZM724.846,165.808L726.846,165.81L726.848,163.81L724.848,163.808L724.846,165.808ZM722.846,165.807L722.848,163.807L722.848,163.807L722.846,165.807ZM3.591,188.602L3.59,190.602L3.59,190.602L3.591,188.602ZM1.591,188.6L1.592,186.6L-0.408,186.599L-0.409,188.599L1.591,188.6ZM722.846,189.087L722.848,187.087L722.848,187.087L722.846,189.087ZM724.846,189.088L726.846,189.089L726.848,187.089L724.848,187.088L724.846,189.088ZM724.844,193.088L724.842,195.088L726.842,195.089L726.844,193.089L724.844,193.088ZM722.844,193.087L722.844,191.087L722.844,191.087L722.844,193.087ZM3.588,192.602L3.59,190.602L3.59,190.602L3.588,192.602ZM1.588,192.6L-0.412,192.599L-0.413,194.599L1.587,194.6L1.588,192.6ZM1.592,211.88L1.593,209.88L-0.407,209.88L-0.408,211.88L1.592,211.88ZM3.592,211.882L3.59,213.882L3.59,213.882L3.592,211.882ZM1.589,215.88L-0.411,215.88L-0.413,217.88L1.587,217.88L1.589,215.88ZM3.589,215.882L3.59,213.882L3.59,213.882L3.589,215.882ZM722.844,216.368L722.846,214.368L722.846,214.368L722.844,216.368ZM724.844,216.368L724.842,218.368L726.842,218.37L726.844,216.37L724.844,216.368ZM724.846,212.368L726.846,212.37L726.848,210.37L724.848,210.368L724.846,212.368ZM722.846,212.368L722.848,210.368L722.848,210.368L722.846,212.368ZM3.592,235.162L3.59,237.162L3.59,237.162L3.592,235.162ZM1.592,235.16L1.593,233.16L-0.407,233.16L-0.408,235.16L1.592,235.16ZM722.846,235.646L722.848,233.646L722.848,233.646L722.846,235.646ZM724.846,235.648L726.846,235.65L726.848,233.65L724.848,233.648L724.846,235.648ZM724.844,239.648L724.842,241.648L726.842,241.65L726.844,239.65L724.844,239.648ZM722.844,239.646L722.846,237.646L722.846,237.646L722.844,239.646ZM3.589,239.162L3.59,237.162L3.59,237.162L3.589,239.162ZM1.589,239.16L-0.411,239.16L-0.412,241.16L1.588,241.16L1.589,239.16ZM1.591,258.44L1.592,256.44L-0.408,256.438L-0.409,258.438L1.591,258.44ZM3.591,258.442L3.592,256.442L3.592,256.442L3.591,258.442ZM1.588,262.44L-0.412,262.438L-0.413,264.438L1.587,264.44L1.588,262.44ZM3.588,262.442L3.589,260.442L3.589,260.442L3.588,262.442ZM722.844,262.926L722.842,264.926L722.842,264.926L722.844,262.926ZM724.844,262.928L724.842,264.928L726.842,264.93L726.844,262.93L724.844,262.928ZM724.846,258.928L726.846,258.93L726.848,256.93L724.848,256.928L724.846,258.928ZM722.846,258.926L722.844,260.926L722.844,260.926L722.846,258.926ZM3.592,281.722L3.594,279.722L3.594,279.722L3.592,281.722ZM1.592,281.722L1.594,279.722L-0.406,279.72L-0.408,281.72L1.592,281.722ZM722.848,282.208L722.846,284.208L722.846,284.208L722.848,282.208ZM724.848,282.208L726.848,282.21L726.848,280.21L724.848,280.208L724.848,282.208ZM724.844,286.208L724.844,288.208L726.844,288.21L726.844,286.21L724.844,286.208ZM722.844,286.208L722.844,288.208L722.844,288.208L722.844,286.208ZM3.59,285.722L3.591,283.722L3.591,283.722L3.59,285.722ZM1.59,285.722L-0.41,285.72L-0.412,287.72L1.588,287.722L1.59,285.722ZM1.592,305L1.593,303L-0.407,303L-0.408,305L1.592,305ZM3.592,305.002L3.593,303.002L3.593,303.002L3.592,305.002ZM1.589,309L-0.411,309L-0.413,311L1.587,311L1.589,309ZM3.589,309.002L3.59,307.002L3.59,307.002L3.589,309.002ZM722.844,309.488L722.842,311.488L722.842,311.488L722.844,309.488ZM724.844,309.488L724.842,311.488L726.842,311.49L726.844,309.49L724.844,309.488ZM724.846,305.488L726.846,305.49L726.848,303.49L724.848,303.488L724.846,305.488ZM722.846,305.488L722.846,307.488L722.846,307.488L722.846,305.488ZM3.592,328.282L3.593,326.282L3.593,326.282L3.592,328.282ZM1.592,328.28L1.593,326.28L-0.407,326.278L-0.408,328.278L1.592,328.28ZM722.846,328.766L722.846,330.766L722.846,330.766L722.846,328.766ZM724.846,328.768L726.846,328.77L726.848,326.77L724.848,326.768L724.846,328.768ZM724.844,332.768L724.842,334.768L726.842,334.77L726.844,332.77L724.844,332.768ZM722.844,332.766L722.842,334.766L722.842,334.766L722.844,332.766ZM3.589,332.282L3.59,330.282L3.59,330.282L3.589,332.282ZM1.589,332.28L-0.411,332.278L-0.412,334.278L1.588,334.28L1.589,332.28ZM1.591,351.56L1.592,349.56L-0.408,349.558L-0.409,351.558L1.591,351.56ZM3.591,351.562L3.592,349.562L3.592,349.562L3.591,351.562ZM1.588,355.56L-0.412,355.558L-0.413,357.558L1.587,357.56L1.588,355.56ZM3.588,355.562L3.589,353.562L3.589,353.562L3.588,355.562ZM722.844,356.046L722.842,358.046L722.842,358.046L722.844,356.046ZM724.844,356.048L724.842,358.048L726.842,358.05L726.844,356.05L724.844,356.048ZM724.846,352.048L726.846,352.05L726.848,350.05L724.848,350.048L724.846,352.048ZM722.846,352.046L722.844,354.046L722.844,354.046L722.846,352.046ZM3.592,374.842L3.593,372.842L3.593,372.842L3.592,374.842ZM1.592,374.842L1.593,372.842L-0.407,372.84L-0.408,374.84L1.592,374.842ZM722.846,375.328L722.846,377.328L722.846,377.328L722.846,375.328ZM724.846,375.33L726.846,375.33L726.848,373.33L724.848,373.33L724.846,375.33ZM724.844,379.33L724.842,381.33L726.842,381.33L726.844,379.33L724.844,379.33ZM722.844,379.328L722.842,381.328L722.842,381.328L722.844,379.328ZM3.589,378.842L3.59,376.842L3.59,376.842L3.589,378.842ZM1.589,378.842L-0.411,378.84L-0.413,380.84L1.587,380.842L1.589,378.842ZM1.592,398.12L1.593,396.12L-0.407,396.12L-0.408,398.12L1.592,398.12ZM3.592,398.122L3.593,396.122L3.593,396.122L3.592,398.122ZM1.589,402.12L-0.411,402.12L-0.413,404.12L1.587,404.12L1.589,402.12ZM3.589,402.122L3.59,400.122L3.59,400.122L3.589,402.122ZM722.844,402.606L722.842,404.606L722.842,404.606L722.844,402.606ZM724.844,402.608L724.842,404.608L726.842,404.61L726.844,402.61L724.844,402.608ZM724.846,398.608L726.846,398.61L726.848,396.61L724.848,396.608L724.846,398.608ZM722.846,398.606L722.846,400.606L722.846,400.606L722.846,398.606ZM1.59,4.36L3.59,4.362L3.592,0.362L1.592,0.36L1.59,4.36ZM3.588,6.362L3.591,2.362L-0.409,2.359L-0.412,6.359L3.588,6.362ZM3.59,4.362L1.59,4.36L1.587,8.36L3.587,8.362L3.59,4.362ZM722.844,4.847L3.59,4.362L3.587,8.362L722.842,8.847L722.844,4.847ZM724.844,4.848L722.844,4.847L722.842,8.847L724.842,8.848L724.844,4.848ZM722.846,2.847L722.844,6.847L726.844,6.849L726.846,2.849L722.846,2.847ZM722.844,4.847L724.844,4.848L724.848,0.848L722.848,0.847L722.844,4.847ZM3.59,4.362L722.844,4.847L722.848,0.847L3.592,0.362L3.59,4.362ZM1.59,27.641L3.59,27.643L3.593,23.643L1.593,23.641L1.59,27.641ZM3.589,29.643L3.592,25.643L-0.408,25.64L-0.411,29.64L3.589,29.643ZM3.59,27.643L1.59,27.641L1.587,31.641L3.587,31.643L3.59,27.643ZM722.846,28.128L3.59,27.643L3.587,31.643L722.842,32.128L722.846,28.128ZM724.846,28.129L722.846,28.128L722.842,32.128L724.842,32.129L724.846,28.129ZM722.846,26.128L722.844,30.128L726.844,30.131L726.846,26.131L722.846,26.128ZM722.846,28.128L724.846,28.129L724.848,24.129L722.848,24.128L722.846,28.128ZM3.59,27.643L722.846,28.128L722.848,24.128L3.593,23.643L3.59,27.643ZM3.593,46.922L1.593,46.921L1.59,50.921L3.59,50.922L3.593,46.922ZM722.848,47.407L3.593,46.922L3.59,50.922L722.846,51.407L722.848,47.407ZM724.848,47.409L722.848,47.407L722.846,51.407L724.846,51.409L724.848,47.409ZM726.844,53.41L726.846,49.41L722.846,49.407L722.844,53.407L726.844,53.41ZM722.842,55.407L724.842,55.409L724.846,51.409L722.846,51.407L722.842,55.407ZM3.588,54.922L722.842,55.407L722.846,51.407L3.59,50.922L3.588,54.922ZM1.588,54.921L3.588,54.922L3.59,50.922L1.59,50.921L1.588,54.921ZM-0.408,48.92L-0.411,52.92L3.589,52.922L3.592,48.922L-0.408,48.92ZM1.589,74.201L3.589,74.202L3.592,70.202L1.592,70.201L1.589,74.201ZM3.588,76.202L3.591,72.202L-0.409,72.199L-0.412,76.199L3.588,76.202ZM3.589,74.202L1.589,74.201L1.587,78.201L3.587,78.202L3.589,74.202ZM722.844,74.687L3.589,74.202L3.587,78.202L722.842,78.687L722.844,74.687ZM724.844,74.688L722.844,74.687L722.842,78.687L724.842,78.688L724.844,74.688ZM722.846,72.687L722.844,76.687L726.844,76.69L726.846,72.69L722.846,72.687ZM722.844,74.687L724.844,74.688L724.848,70.688L722.848,70.687L722.844,74.687ZM3.589,74.202L722.844,74.687L722.848,70.687L3.592,70.202L3.589,74.202ZM3.592,93.482L1.592,93.48L1.59,97.48L3.59,97.482L3.592,93.482ZM722.848,93.967L3.592,93.482L3.59,97.482L722.844,97.967L722.848,93.967ZM724.848,93.968L722.848,93.967L722.844,97.967L724.844,97.968L724.848,93.968ZM726.844,99.969L726.846,95.969L722.846,95.967L722.844,99.967L726.844,99.969ZM722.842,101.967L724.842,101.968L724.844,97.968L722.844,97.967L722.842,101.967ZM3.587,101.482L722.842,101.967L722.844,97.967L3.59,97.482L3.587,101.482ZM1.587,101.48L3.587,101.482L3.59,97.482L1.59,97.48L1.587,101.48ZM-0.409,95.479L-0.412,99.479L3.588,99.482L3.591,95.482L-0.409,95.479ZM1.59,120.761L3.59,120.763L3.593,116.763L1.593,116.761L1.59,120.761ZM3.589,122.763L3.592,118.763L-0.408,118.76L-0.411,122.76L3.589,122.763ZM3.59,120.763L1.59,120.761L1.587,124.761L3.587,124.763L3.59,120.763ZM722.846,121.248L3.59,120.763L3.587,124.763L722.842,125.248L722.846,121.248ZM724.846,121.249L722.846,121.248L722.842,125.248L724.842,125.249L724.846,121.249ZM722.846,119.248L722.844,123.248L726.844,123.25L726.846,119.25L722.846,119.248ZM722.846,121.248L724.846,121.249L724.848,117.249L722.848,117.248L722.846,121.248ZM3.59,120.763L722.846,121.248L722.848,117.248L3.593,116.763L3.59,120.763ZM3.593,140.042L1.593,140.041L1.59,144.041L3.59,144.042L3.593,140.042ZM722.848,140.527L3.593,140.042L3.59,144.042L722.846,144.527L722.848,140.527ZM724.848,140.529L722.848,140.527L722.846,144.527L724.846,144.529L724.848,140.529ZM726.844,146.53L726.846,142.53L722.846,142.527L722.844,146.527L726.844,146.53ZM722.842,148.527L724.842,148.529L724.846,144.529L722.846,144.527L722.842,148.527ZM3.588,148.042L722.842,148.527L722.846,144.527L3.59,144.042L3.588,148.042ZM1.588,148.041L3.588,148.042L3.59,144.042L1.59,144.041L1.588,148.041ZM-0.408,142.04L-0.411,146.04L3.589,146.042L3.592,142.042L-0.408,142.04ZM1.589,167.321L3.589,167.322L3.592,163.322L1.592,163.321L1.589,167.321ZM3.588,169.322L3.591,165.322L-0.409,165.319L-0.412,169.319L3.588,169.322ZM3.589,167.322L1.589,167.321L1.587,171.321L3.587,171.322L3.589,167.322ZM722.844,167.807L3.589,167.322L3.587,171.322L722.842,171.807L722.844,167.807ZM724.844,167.808L722.844,167.807L722.842,171.807L724.842,171.808L724.844,167.808ZM722.846,165.807L722.844,169.807L726.844,169.81L726.846,165.81L722.846,165.807ZM722.844,167.807L724.844,167.808L724.848,163.808L722.848,163.807L722.844,167.807ZM3.589,167.322L722.844,167.807L722.848,163.807L3.592,163.322L3.589,167.322ZM3.592,186.602L1.592,186.6L1.59,190.6L3.59,190.602L3.592,186.602ZM722.848,187.087L3.592,186.602L3.59,190.602L722.844,191.087L722.848,187.087ZM724.848,187.088L722.848,187.087L722.844,191.087L724.844,191.088L724.848,187.088ZM726.844,193.089L726.846,189.089L722.846,189.087L722.844,193.087L726.844,193.089ZM722.842,195.087L724.842,195.088L724.844,191.088L722.844,191.087L722.842,195.087ZM3.587,194.602L722.842,195.087L722.844,191.087L3.59,190.602L3.587,194.602ZM1.587,194.6L3.587,194.602L3.59,190.602L1.59,190.6L1.587,194.6ZM-0.409,188.599L-0.412,192.599L3.588,192.602L3.591,188.602L-0.409,188.599ZM1.59,213.88L3.59,213.882L3.593,209.882L1.593,209.88L1.59,213.88ZM3.589,215.882L3.592,211.882L-0.408,211.88L-0.411,215.88L3.589,215.882ZM3.59,213.882L1.59,213.88L1.587,217.88L3.587,217.882L3.59,213.882ZM722.846,214.368L3.59,213.882L3.587,217.882L722.842,218.368L722.846,214.368ZM724.846,214.368L722.846,214.368L722.842,218.368L724.842,218.368L724.846,214.368ZM722.846,212.368L722.844,216.368L726.844,216.37L726.846,212.37L722.846,212.368ZM722.846,214.368L724.846,214.368L724.848,210.368L722.848,210.368L722.846,214.368ZM3.59,213.882L722.846,214.368L722.848,210.368L3.593,209.882L3.59,213.882ZM3.593,233.162L1.593,233.16L1.59,237.16L3.59,237.162L3.593,233.162ZM722.848,233.646L3.593,233.162L3.59,237.162L722.846,237.646L722.848,233.646ZM724.848,233.648L722.848,233.646L722.846,237.646L724.846,237.648L724.848,233.648ZM726.844,239.65L726.846,235.65L722.846,235.646L722.844,239.646L726.844,239.65ZM722.842,241.646L724.842,241.648L724.846,237.648L722.846,237.646L722.842,241.646ZM3.588,241.162L722.842,241.646L722.846,237.646L3.59,237.162L3.588,241.162ZM1.588,241.16L3.588,241.162L3.59,237.162L1.59,237.16L1.588,241.16ZM-0.408,235.16L-0.411,239.16L3.589,239.162L3.592,235.162L-0.408,235.16ZM1.589,260.44L3.589,260.442L3.592,256.442L1.592,256.44L1.589,260.44ZM3.588,262.442L3.591,258.442L-0.409,258.438L-0.412,262.438L3.588,262.442ZM3.589,260.442L1.589,260.44L1.587,264.44L3.587,264.442L3.589,260.442ZM722.844,260.926L3.589,260.442L3.587,264.442L722.842,264.926L722.844,260.926ZM724.844,260.928L722.844,260.926L722.842,264.926L724.842,264.928L724.844,260.928ZM722.846,258.926L722.844,262.926L726.844,262.93L726.846,258.93L722.846,258.926ZM722.844,260.926L724.844,260.928L724.848,256.928L722.848,256.926L722.844,260.926ZM3.589,260.442L722.844,260.926L722.848,256.926L3.592,256.442L3.589,260.442ZM3.594,279.722L1.594,279.722L1.591,283.722L3.591,283.722L3.594,279.722ZM722.848,280.208L3.594,279.722L3.591,283.722L722.846,284.208L722.848,280.208ZM724.848,280.208L722.848,280.208L722.846,284.208L724.846,284.208L724.848,280.208ZM726.844,286.21L726.848,282.21L722.848,282.208L722.844,286.208L726.844,286.21ZM722.844,288.208L724.844,288.208L724.846,284.208L722.846,284.208L722.844,288.208ZM3.588,287.722L722.844,288.208L722.846,284.208L3.591,283.722L3.588,287.722ZM1.588,287.722L3.588,287.722L3.591,283.722L1.591,283.722L1.588,287.722ZM-0.408,281.72L-0.41,285.72L3.59,285.722L3.592,281.722L-0.408,281.72ZM1.59,307L3.59,307.002L3.593,303.002L1.593,303L1.59,307ZM3.589,309.002L3.592,305.002L-0.408,305L-0.411,309L3.589,309.002ZM3.59,307.002L1.59,307L1.587,311L3.587,311.002L3.59,307.002ZM722.846,307.488L3.59,307.002L3.587,311.002L722.842,311.488L722.846,307.488ZM724.846,307.488L722.846,307.488L722.842,311.488L724.842,311.488L724.846,307.488ZM722.846,305.488L722.844,309.488L726.844,309.49L726.846,305.49L722.846,305.488ZM722.846,307.488L724.846,307.488L724.848,303.488L722.848,303.488L722.846,307.488ZM3.59,307.002L722.846,307.488L722.848,303.488L3.593,303.002L3.59,307.002ZM3.593,326.282L1.593,326.28L1.59,330.28L3.59,330.282L3.593,326.282ZM722.848,326.766L3.593,326.282L3.59,330.282L722.846,330.766L722.848,326.766ZM724.848,326.768L722.848,326.766L722.846,330.766L724.846,330.768L724.848,326.768ZM726.844,332.77L726.846,328.77L722.846,328.766L722.844,332.766L726.844,332.77ZM722.842,334.766L724.842,334.768L724.846,330.768L722.846,330.766L722.842,334.766ZM3.588,334.282L722.842,334.766L722.846,330.766L3.59,330.282L3.588,334.282ZM1.588,334.28L3.588,334.282L3.59,330.282L1.59,330.28L1.588,334.28ZM-0.408,328.278L-0.411,332.278L3.589,332.282L3.592,328.282L-0.408,328.278ZM1.589,353.56L3.589,353.562L3.592,349.562L1.592,349.56L1.589,353.56ZM3.588,355.562L3.591,351.562L-0.409,351.558L-0.412,355.558L3.588,355.562ZM3.589,353.562L1.589,353.56L1.587,357.56L3.587,357.562L3.589,353.562ZM722.844,354.046L3.589,353.562L3.587,357.562L722.842,358.046L722.844,354.046ZM724.844,354.048L722.844,354.046L722.842,358.046L724.842,358.048L724.844,354.048ZM722.846,352.046L722.844,356.046L726.844,356.05L726.846,352.05L722.846,352.046ZM722.844,354.046L724.844,354.048L724.848,350.048L722.848,350.046L722.844,354.046ZM3.589,353.562L722.844,354.046L722.848,350.046L3.592,349.562L3.589,353.562ZM3.593,372.842L1.593,372.842L1.59,376.842L3.59,376.842L3.593,372.842ZM722.848,373.328L3.593,372.842L3.59,376.842L722.846,377.328L722.848,373.328ZM724.848,373.33L722.848,373.328L722.846,377.328L724.846,377.33L724.848,373.33ZM726.844,379.33L726.846,375.33L722.846,375.328L722.844,379.328L726.844,379.33ZM722.842,381.328L724.842,381.33L724.846,377.33L722.846,377.328L722.842,381.328ZM3.587,380.842L722.842,381.328L722.846,377.328L3.59,376.842L3.587,380.842ZM1.587,380.842L3.587,380.842L3.59,376.842L1.59,376.842L1.587,380.842ZM-0.408,374.84L-0.411,378.84L3.589,378.842L3.592,374.842L-0.408,374.84ZM1.59,400.12L3.59,400.122L3.593,396.122L1.593,396.12L1.59,400.12ZM3.589,402.122L3.592,398.122L-0.408,398.12L-0.411,402.12L3.589,402.122ZM3.59,400.122L1.59,400.12L1.587,404.12L3.587,404.122L3.59,400.122ZM722.846,400.606L3.59,400.122L3.587,404.122L722.842,404.606L722.846,400.606ZM724.846,400.608L722.846,400.606L722.842,404.606L724.842,404.608L724.846,400.608ZM722.846,398.606L722.844,402.606L726.844,402.61L726.846,398.61L722.846,398.606ZM722.846,400.606L724.846,400.608L724.848,396.608L722.848,396.606L722.846,400.606ZM3.59,400.122L722.846,400.606L722.848,396.606L3.593,396.122L3.59,400.122Z" transform="rotate(90 363.218 202.484)" fill="#000000"/>
</g>
</svg>
