<svg width="840" height="466" viewBox="0 0 840 466" fill="none" xmlns="http://www.w3.org/2000/svg" xmlns:xlink="http://www.w3.org/1999/xlink">
<mask id="mask_0_60_4500" style="mask-type:alpha" maskUnits="userSpaceOnUse" x="176" y="8" width="224" height="224">
<circle cx="400" cy="232" r="224" fill="#000000"/>
</mask>
<g mask="url(#mask_0_60_4500)">
<path d="M2.64,1.798L2.642,-0.202L0.642,-0.203L0.64,1.797L2.64,1.798ZM4.64,1.799L4.642,-0.201L4.64,1.799ZM2.638,5.798L0.638,5.797L0.636,7.797L2.636,7.798L2.638,5.798ZM4.638,5.799L4.639,3.799L4.639,3.799L4.638,5.799ZM835.117,6.359L835.119,4.359L835.119,4.359L835.117,6.359ZM837.117,6.361L837.117,8.361L839.117,8.362L839.117,6.362L837.117,6.361ZM837.121,2.361L839.121,2.362L839.121,0.362L837.121,0.361L837.121,2.361ZM835.121,2.359L835.119,4.359L835.121,2.359ZM2.64,28.678L2.642,26.678L0.642,26.677L0.64,28.677L2.64,28.678ZM4.64,28.68L4.642,26.68L4.642,26.68L4.64,28.68ZM2.638,32.678L0.638,32.677L0.636,34.677L2.636,34.678L2.638,32.678ZM4.638,32.68L4.639,30.68L4.639,30.68L4.638,32.68ZM835.117,33.24L835.117,35.24L835.117,35.24L835.117,33.24ZM837.117,33.241L837.117,35.241L839.117,35.242L839.117,33.242L837.117,33.241ZM837.121,29.241L839.121,29.242L839.121,27.242L837.121,27.241L837.121,29.241ZM835.121,29.24L835.119,31.24L835.119,31.24L835.121,29.24ZM4.642,55.561L4.643,53.561L4.643,53.561L4.642,55.561ZM2.642,55.559L2.643,53.559L0.643,53.558L0.642,55.558L2.642,55.559ZM835.121,56.121L835.123,54.121L835.123,54.121L835.121,56.121ZM837.121,56.122L839.121,56.123L839.123,54.123L837.123,54.122L837.121,56.122ZM837.119,60.122L837.117,62.122L839.117,62.123L839.119,60.123L837.119,60.122ZM835.119,60.121L835.117,62.121L835.117,62.121L835.119,60.121ZM4.639,59.561L4.64,57.561L4.64,57.561L4.639,59.561ZM2.639,59.559L0.639,59.558L0.637,61.558L2.637,61.559L2.639,59.559ZM2.642,82.44L2.644,80.44L0.644,80.438L0.642,82.438L2.642,82.44ZM4.642,82.441L4.641,84.441L4.641,84.441L4.642,82.441ZM2.64,86.44L0.64,86.438L0.638,88.438L2.638,88.44L2.64,86.44ZM4.64,86.441L4.638,88.441L4.638,88.441L4.64,86.441ZM835.119,87.001L835.121,85.001L835.121,85.001L835.119,87.001ZM837.119,87.002L837.119,89.002L839.119,89.004L839.119,87.004L837.119,87.002ZM837.123,83.002L839.123,83.004L839.123,81.004L837.123,81.002L837.123,83.002ZM835.123,83.001L835.121,85.001L835.121,85.001L835.123,83.001ZM4.639,109.319L4.638,111.319L4.638,111.319L4.639,109.319ZM2.639,109.318L2.641,107.318L0.641,107.317L0.639,109.317L2.639,109.318ZM835.119,109.879L835.119,111.879L835.119,111.879L835.119,109.879ZM837.119,109.881L839.119,109.882L839.121,107.882L837.121,107.881L837.119,109.881ZM837.117,113.881L837.115,115.881L839.115,115.882L839.117,113.882L837.117,113.881ZM835.117,113.879L835.119,111.879L835.119,111.879L835.117,113.879ZM4.637,113.319L4.635,115.319L4.635,115.319L4.637,113.319ZM2.637,113.318L0.637,113.317L0.635,115.317L2.635,115.318L2.637,113.318ZM2.64,136.198L2.641,134.198L0.641,134.197L0.64,136.197L2.64,136.198ZM4.64,136.2L4.641,134.2L4.641,134.2L4.64,136.2ZM2.637,140.198L0.637,140.197L0.636,142.197L2.636,142.198L2.637,140.198ZM4.637,140.2L4.639,138.2L4.639,138.2L4.637,140.2ZM835.117,140.76L835.119,138.76L835.119,138.76L835.117,140.76ZM837.117,140.761L837.117,142.761L839.117,142.762L839.117,140.762L837.117,140.761ZM837.121,136.761L839.121,136.762L839.121,134.762L837.121,134.761L837.121,136.761ZM835.121,136.76L835.121,134.76L835.121,134.76L835.121,136.76ZM4.641,163.08L4.643,161.08L4.643,161.08L4.641,163.08ZM2.641,163.079L2.643,161.079L0.643,161.077L0.641,163.077L2.641,163.079ZM835.121,163.64L835.123,161.64L835.123,161.64L835.121,163.64ZM837.121,163.641L839.121,163.643L839.123,161.643L837.123,161.641L837.121,163.641ZM837.119,167.641L837.117,169.641L839.117,169.643L839.119,167.643L837.119,167.641ZM835.119,167.64L835.121,165.64L835.121,165.64L835.119,167.64ZM4.638,167.08L4.64,165.08L4.64,165.08L4.638,167.08ZM2.638,167.079L0.638,167.077L0.637,169.077L2.637,169.079L2.638,167.079ZM2.641,189.959L2.643,187.959L0.643,187.958L0.641,189.958L2.641,189.959ZM4.641,189.96L4.643,187.96L4.643,187.96L4.641,189.96ZM2.638,193.959L0.638,193.958L0.637,195.958L2.637,195.959L2.638,193.959ZM4.638,193.96L4.64,191.96L4.64,191.96L4.638,193.96ZM835.119,194.52L835.121,192.52L835.121,192.52L835.119,194.52ZM837.119,194.522L837.117,196.522L839.117,196.523L839.119,194.523L837.119,194.522ZM837.121,190.522L839.121,190.523L839.123,188.523L837.123,188.522L837.121,190.522ZM835.121,190.52L835.123,188.52L835.123,188.52L835.121,190.52ZM4.639,216.838L4.641,214.838L4.641,214.838L4.639,216.838ZM2.639,216.836L2.641,214.836L0.641,214.836L0.639,216.836L2.639,216.836ZM835.119,217.398L835.121,215.398L835.121,215.398L835.119,217.398ZM837.119,217.4L839.119,217.4L839.121,215.4L837.121,215.4L837.119,217.4ZM837.117,221.4L837.115,223.4L839.115,223.4L839.117,221.4L837.117,221.4ZM835.117,221.398L835.119,219.398L835.119,219.398L835.117,221.398ZM4.637,220.838L4.638,218.838L4.638,218.838L4.637,220.838ZM2.637,220.836L0.637,220.836L0.635,222.836L2.635,222.836L2.637,220.836ZM2.64,243.718L2.641,241.718L0.641,241.716L0.64,243.716L2.64,243.718ZM4.64,243.718L4.641,241.718L4.641,241.718L4.64,243.718ZM2.637,247.718L0.637,247.716L0.636,249.716L2.636,249.718L2.637,247.718ZM4.637,247.718L4.639,245.718L4.639,245.718L4.637,247.718ZM835.117,248.278L835.119,246.278L835.119,246.278L835.117,248.278ZM837.117,248.28L837.117,250.28L839.117,250.282L839.117,248.282L837.117,248.28ZM837.121,244.28L839.121,244.282L839.121,242.282L837.121,242.28L837.121,244.28ZM835.121,244.278L835.121,242.278L835.121,242.278L835.121,244.278ZM4.64,270.6L4.641,268.6L4.641,268.6L4.64,270.6ZM2.64,270.598L2.641,268.598L0.641,268.596L0.64,270.596L2.64,270.598ZM835.121,271.16L835.119,273.16L835.119,273.16L835.121,271.16ZM837.121,271.16L839.121,271.162L839.121,269.162L837.121,269.16L837.121,271.16ZM837.117,275.16L837.117,277.16L839.117,277.162L839.117,275.162L837.117,275.16ZM835.117,275.16L835.117,277.16L835.117,277.16L835.117,275.16ZM4.637,274.6L4.639,272.6L4.639,272.6L4.637,274.6ZM2.637,274.598L0.637,274.596L0.636,276.596L2.636,276.598L2.637,274.598ZM2.641,297.478L2.642,295.478L0.642,295.478L0.641,297.478L2.641,297.478ZM4.641,297.48L4.642,295.48L4.642,295.48L4.641,297.48ZM2.638,301.478L0.638,301.478L0.637,303.478L2.637,303.478L2.638,301.478ZM4.638,301.48L4.639,299.48L4.639,299.48L4.638,301.48ZM835.119,302.04L835.117,304.04L835.117,304.04L835.119,302.04ZM837.119,302.042L837.117,304.042L839.117,304.042L839.119,302.042L837.119,302.042ZM837.121,298.042L839.121,298.042L839.123,296.042L837.123,296.042L837.121,298.042ZM835.121,298.04L835.119,300.04L835.119,300.04L835.121,298.04ZM4.642,324.36L4.643,322.36L4.643,322.36L4.642,324.36ZM2.642,324.36L2.643,322.36L0.643,322.358L0.642,324.358L2.642,324.36ZM835.121,324.92L835.121,326.92L835.121,326.92L835.121,324.92ZM837.121,324.922L839.121,324.924L839.123,322.924L837.123,322.922L837.121,324.922ZM837.119,328.922L837.117,330.922L839.117,330.924L839.119,328.924L837.119,328.922ZM835.119,328.92L835.117,330.92L835.117,330.92L835.119,328.92ZM4.639,328.36L4.64,326.36L4.64,326.36L4.639,328.36ZM2.639,328.36L0.639,328.358L0.637,330.358L2.637,330.36L2.639,328.36ZM2.639,351.236L2.641,349.236L0.641,349.236L0.639,351.236L2.639,351.236ZM4.639,351.238L4.641,349.238L4.641,349.238L4.639,351.238ZM2.637,355.236L0.637,355.236L0.635,357.236L2.635,357.236L2.637,355.236ZM4.637,355.238L4.638,353.238L4.638,353.238L4.637,355.238ZM835.117,355.798L835.115,357.798L835.115,357.798L835.117,355.798ZM837.117,355.8L837.115,357.8L839.115,357.8L839.117,355.8L837.117,355.8ZM837.119,351.8L839.119,351.8L839.121,349.8L837.121,349.8L837.119,351.8ZM835.119,351.798L835.119,353.798L835.119,353.798L835.119,351.798ZM4.639,378.12L4.641,376.12L4.641,376.12L4.639,378.12ZM2.639,378.118L2.641,376.118L0.641,376.116L0.639,378.116L2.639,378.118ZM835.119,378.68L835.119,380.68L835.119,380.68L835.119,378.68ZM837.119,378.68L839.119,378.682L839.121,376.682L837.121,376.68L837.119,378.68ZM837.117,382.68L837.115,384.68L839.115,384.682L839.117,382.682L837.117,382.68ZM835.117,382.68L835.115,384.68L835.115,384.68L835.117,382.68ZM4.637,382.12L4.638,380.12L4.638,380.12L4.637,382.12ZM2.637,382.118L0.637,382.116L0.635,384.116L2.635,384.118L2.637,382.118ZM2.64,404.998L2.642,402.998L0.642,402.996L0.64,404.996L2.64,404.998ZM4.64,405L4.642,403L4.642,403L4.64,405ZM2.638,408.998L0.638,408.996L0.636,410.996L2.636,410.998L2.638,408.998ZM4.638,409L4.639,407L4.639,407L4.638,409ZM835.117,409.56L835.117,411.56L835.117,411.56L835.117,409.56ZM837.117,409.56L837.117,411.56L839.117,411.562L839.117,409.562L837.117,409.56ZM837.121,405.56L839.121,405.562L839.121,403.562L837.121,403.56L837.121,405.56ZM835.121,405.56L835.119,407.56L835.119,407.56L835.121,405.56ZM4.641,431.88L4.642,429.88L4.642,429.88L4.641,431.88ZM2.641,431.878L2.642,429.878L0.642,429.878L0.641,431.878L2.641,431.878ZM835.121,432.44L835.119,434.44L835.119,434.44L835.121,432.44ZM837.121,432.442L839.121,432.442L839.123,430.442L837.123,430.442L837.121,432.442ZM837.119,436.442L837.117,438.442L839.117,438.442L839.119,436.442L837.119,436.442ZM835.119,436.44L835.117,438.44L835.117,438.44L835.119,436.44ZM4.638,435.88L4.639,433.88L4.639,433.88L4.638,435.88ZM2.638,435.878L0.638,435.878L0.637,437.878L2.637,437.878L2.638,435.878ZM2.642,458.76L2.643,456.76L0.643,456.758L0.642,458.758L2.642,458.76ZM4.642,458.76L4.643,456.76L4.643,456.76L4.642,458.76ZM2.639,462.76L0.639,462.758L0.637,464.758L2.637,464.76L2.639,462.76ZM4.639,462.76L4.64,460.76L4.64,460.76L4.639,462.76ZM835.119,463.32L835.117,465.32L835.117,465.32L835.119,463.32ZM837.119,463.322L837.117,465.322L839.117,465.324L839.119,463.324L837.119,463.322ZM837.121,459.322L839.121,459.324L839.123,457.324L837.123,457.322L837.121,459.322ZM835.121,459.32L835.121,461.32L835.121,461.32L835.121,459.32ZM2.639,3.798L4.639,3.799L4.642,-0.201L2.642,-0.202L2.639,3.798ZM4.638,5.799L4.64,1.799L0.64,1.797L0.638,5.797L4.638,5.799ZM4.639,3.799L2.639,3.798L2.636,7.798L4.636,7.799L4.639,3.799ZM835.119,4.359L4.639,3.799L4.636,7.799L835.117,8.359L835.119,4.359ZM837.119,4.361L835.119,4.359L835.117,8.359L837.117,8.361L837.119,4.361ZM835.121,2.359L835.117,6.359L839.117,6.362L839.121,2.362L835.121,2.359ZM835.119,4.359L837.119,4.361L837.121,0.361L835.121,0.359L835.119,4.359ZM4.639,3.799L835.119,4.359L835.121,0.359L4.642,-0.201L4.639,3.799ZM2.639,30.678L4.639,30.68L4.642,26.68L2.642,26.678L2.639,30.678ZM4.638,32.68L4.64,28.68L0.64,28.677L0.638,32.677L4.638,32.68ZM4.639,30.68L2.639,30.678L2.636,34.678L4.636,34.68L4.639,30.68ZM835.119,31.24L4.639,30.68L4.636,34.68L835.117,35.24L835.119,31.24ZM837.119,31.241L835.119,31.24L835.117,35.24L837.117,35.241L837.119,31.241ZM835.121,29.24L835.117,33.24L839.117,33.242L839.121,29.242L835.121,29.24ZM835.119,31.24L837.119,31.241L837.121,27.241L835.121,27.24L835.119,31.24ZM4.639,30.68L835.119,31.24L835.121,27.24L4.642,26.68L4.639,30.68ZM4.643,53.561L2.643,53.559L2.64,57.559L4.64,57.561L4.643,53.561ZM835.123,54.121L4.643,53.561L4.64,57.561L835.121,58.121L835.123,54.121ZM837.123,54.122L835.123,54.121L835.121,58.121L837.121,58.122L837.123,54.122ZM839.119,60.123L839.121,56.123L835.121,56.121L835.119,60.121L839.119,60.123ZM835.117,62.121L837.117,62.122L837.121,58.122L835.121,58.121L835.117,62.121ZM4.637,61.561L835.117,62.121L835.121,58.121L4.64,57.561L4.637,61.561ZM2.637,61.559L4.637,61.561L4.64,57.561L2.64,57.559L2.637,61.559ZM0.642,55.558L0.639,59.558L4.639,59.561L4.642,55.561L0.642,55.558ZM2.641,84.44L4.641,84.441L4.644,80.441L2.644,80.44L2.641,84.44ZM4.64,86.441L4.642,82.441L0.642,82.438L0.64,86.438L4.64,86.441ZM4.641,84.441L2.641,84.44L2.638,88.44L4.638,88.441L4.641,84.441ZM835.121,85.001L4.641,84.441L4.638,88.441L835.119,89.001L835.121,85.001ZM837.121,85.002L835.121,85.001L835.119,89.001L837.119,89.002L837.121,85.002ZM835.123,83.001L835.119,87.001L839.119,87.004L839.123,83.004L835.123,83.001ZM835.121,85.001L837.121,85.002L837.123,81.002L835.123,81.001L835.121,85.001ZM4.641,84.441L835.121,85.001L835.123,81.001L4.644,80.441L4.641,84.441ZM4.641,107.319L2.641,107.318L2.638,111.318L4.638,111.319L4.641,107.319ZM835.121,107.879L4.641,107.319L4.638,111.319L835.119,111.879L835.121,107.879ZM837.121,107.881L835.121,107.879L835.119,111.879L837.119,111.881L837.121,107.881ZM839.117,113.882L839.119,109.882L835.119,109.879L835.117,113.879L839.117,113.882ZM835.115,115.879L837.115,115.881L837.119,111.881L835.119,111.879L835.115,115.879ZM4.635,115.319L835.115,115.879L835.119,111.879L4.638,111.319L4.635,115.319ZM2.635,115.318L4.635,115.319L4.638,111.319L2.638,111.318L2.635,115.318ZM0.639,109.317L0.637,113.317L4.637,113.319L4.639,109.319L0.639,109.317ZM2.639,138.198L4.639,138.2L4.641,134.2L2.641,134.198L2.639,138.198ZM4.637,140.2L4.64,136.2L0.64,136.197L0.637,140.197L4.637,140.2ZM4.639,138.2L2.639,138.198L2.636,142.198L4.636,142.2L4.639,138.2ZM835.119,138.76L4.639,138.2L4.636,142.2L835.117,142.76L835.119,138.76ZM837.119,138.761L835.119,138.76L835.117,142.76L837.117,142.761L837.119,138.761ZM835.121,136.76L835.117,140.76L839.117,140.762L839.121,136.762L835.121,136.76ZM835.119,138.76L837.119,138.761L837.121,134.761L835.121,134.76L835.119,138.76ZM4.639,138.2L835.119,138.76L835.121,134.76L4.641,134.2L4.639,138.2ZM4.643,161.08L2.643,161.079L2.64,165.079L4.64,165.08L4.643,161.08ZM835.123,161.64L4.643,161.08L4.64,165.08L835.121,165.64L835.123,161.64ZM837.123,161.641L835.123,161.64L835.121,165.64L837.121,165.641L837.123,161.641ZM839.119,167.643L839.121,163.643L835.121,163.64L835.119,167.64L839.119,167.643ZM835.117,169.64L837.117,169.641L837.121,165.641L835.121,165.64L835.117,169.64ZM4.637,169.08L835.117,169.64L835.121,165.64L4.64,165.08L4.637,169.08ZM2.637,169.079L4.637,169.08L4.64,165.08L2.64,165.079L2.637,169.079ZM0.641,163.077L0.638,167.077L4.638,167.08L4.641,163.08L0.641,163.077ZM2.64,191.959L4.64,191.96L4.643,187.96L2.643,187.959L2.64,191.959ZM4.638,193.96L4.641,189.96L0.641,189.958L0.638,193.958L4.638,193.96ZM4.64,191.96L2.64,191.959L2.637,195.959L4.637,195.96L4.64,191.96ZM835.121,192.52L4.64,191.96L4.637,195.96L835.117,196.52L835.121,192.52ZM837.121,192.522L835.121,192.52L835.117,196.52L837.117,196.522L837.121,192.522ZM835.121,190.52L835.119,194.52L839.119,194.523L839.121,190.523L835.121,190.52ZM835.121,192.52L837.121,192.522L837.123,188.522L835.123,188.52L835.121,192.52ZM4.64,191.96L835.121,192.52L835.123,188.52L4.643,187.96L4.64,191.96ZM4.641,214.838L2.641,214.836L2.638,218.836L4.638,218.838L4.641,214.838ZM835.121,215.398L4.641,214.838L4.638,218.838L835.119,219.398L835.121,215.398ZM837.121,215.4L835.121,215.398L835.119,219.398L837.119,219.4L837.121,215.4ZM839.117,221.4L839.119,217.4L835.119,217.398L835.117,221.398L839.117,221.4ZM835.115,223.398L837.115,223.4L837.119,219.4L835.119,219.398L835.115,223.398ZM4.635,222.838L835.115,223.398L835.119,219.398L4.638,218.838L4.635,222.838ZM2.635,222.836L4.635,222.838L4.638,218.838L2.638,218.836L2.635,222.836ZM0.639,216.836L0.637,220.836L4.637,220.838L4.639,216.838L0.639,216.836ZM2.639,245.718L4.639,245.718L4.641,241.718L2.641,241.718L2.639,245.718ZM4.637,247.718L4.64,243.718L0.64,243.716L0.637,247.716L4.637,247.718ZM4.639,245.718L2.639,245.718L2.636,249.718L4.636,249.718L4.639,245.718ZM835.119,246.278L4.639,245.718L4.636,249.718L835.117,250.278L835.119,246.278ZM837.119,246.28L835.119,246.278L835.117,250.278L837.117,250.28L837.119,246.28ZM835.121,244.278L835.117,248.278L839.117,248.282L839.121,244.282L835.121,244.278ZM835.119,246.278L837.119,246.28L837.121,242.28L835.121,242.278L835.119,246.278ZM4.639,245.718L835.119,246.278L835.121,242.278L4.641,241.718L4.639,245.718ZM4.641,268.6L2.641,268.598L2.639,272.598L4.639,272.6L4.641,268.6ZM835.121,269.16L4.641,268.6L4.639,272.6L835.119,273.16L835.121,269.16ZM837.121,269.16L835.121,269.16L835.119,273.16L837.119,273.16L837.121,269.16ZM839.117,275.162L839.121,271.162L835.121,271.16L835.117,275.16L839.117,275.162ZM835.117,277.16L837.117,277.16L837.119,273.16L835.119,273.16L835.117,277.16ZM4.636,276.6L835.117,277.16L835.119,273.16L4.639,272.6L4.636,276.6ZM2.636,276.598L4.636,276.6L4.639,272.6L2.639,272.598L2.636,276.598ZM0.64,270.596L0.637,274.596L4.637,274.6L4.64,270.6L0.64,270.596ZM2.639,299.478L4.639,299.48L4.642,295.48L2.642,295.478L2.639,299.478ZM4.638,301.48L4.641,297.48L0.641,297.478L0.638,301.478L4.638,301.48ZM4.639,299.48L2.639,299.478L2.637,303.478L4.637,303.48L4.639,299.48ZM835.119,300.04L4.639,299.48L4.637,303.48L835.117,304.04L835.119,300.04ZM837.119,300.042L835.119,300.04L835.117,304.04L837.117,304.042L837.119,300.042ZM835.121,298.04L835.119,302.04L839.119,302.042L839.121,298.042L835.121,298.04ZM835.119,300.04L837.119,300.042L837.123,296.042L835.123,296.04L835.119,300.04ZM4.639,299.48L835.119,300.04L835.123,296.04L4.642,295.48L4.639,299.48ZM4.643,322.36L2.643,322.36L2.64,326.36L4.64,326.36L4.643,322.36ZM835.123,322.92L4.643,322.36L4.64,326.36L835.121,326.92L835.123,322.92ZM837.123,322.922L835.123,322.92L835.121,326.92L837.121,326.922L837.123,322.922ZM839.119,328.924L839.121,324.924L835.121,324.92L835.119,328.92L839.119,328.924ZM835.117,330.92L837.117,330.922L837.121,326.922L835.121,326.92L835.117,330.92ZM4.637,330.36L835.117,330.92L835.121,326.92L4.64,326.36L4.637,330.36ZM2.637,330.36L4.637,330.36L4.64,326.36L2.64,326.36L2.637,330.36ZM0.642,324.358L0.639,328.358L4.639,328.36L4.642,324.36L0.642,324.358ZM2.638,353.236L4.638,353.238L4.641,349.238L2.641,349.236L2.638,353.236ZM4.637,355.238L4.639,351.238L0.639,351.236L0.637,355.236L4.637,355.238ZM4.638,353.238L2.638,353.236L2.635,357.236L4.635,357.238L4.638,353.238ZM835.119,353.798L4.638,353.238L4.635,357.238L835.115,357.798L835.119,353.798ZM837.119,353.8L835.119,353.798L835.115,357.798L837.115,357.8L837.119,353.8ZM835.119,351.798L835.117,355.798L839.117,355.8L839.119,351.8L835.119,351.798ZM835.119,353.798L837.119,353.8L837.121,349.8L835.121,349.798L835.119,353.798ZM4.638,353.238L835.119,353.798L835.121,349.798L4.641,349.238L4.638,353.238ZM4.641,376.12L2.641,376.118L2.638,380.118L4.638,380.12L4.641,376.12ZM835.121,376.68L4.641,376.12L4.638,380.12L835.119,380.68L835.121,376.68ZM837.121,376.68L835.121,376.68L835.119,380.68L837.119,380.68L837.121,376.68ZM839.117,382.682L839.119,378.682L835.119,378.68L835.117,382.68L839.117,382.682ZM835.115,384.68L837.115,384.68L837.119,380.68L835.119,380.68L835.115,384.68ZM4.635,384.12L835.115,384.68L835.119,380.68L4.638,380.12L4.635,384.12ZM2.635,384.118L4.635,384.12L4.638,380.12L2.638,380.118L2.635,384.118ZM0.639,378.116L0.637,382.116L4.637,382.12L4.639,378.12L0.639,378.116ZM2.639,406.998L4.639,407L4.642,403L2.642,402.998L2.639,406.998ZM4.638,409L4.64,405L0.64,404.996L0.638,408.996L4.638,409ZM4.639,407L2.639,406.998L2.636,410.998L4.636,411L4.639,407ZM835.119,407.56L4.639,407L4.636,411L835.117,411.56L835.119,407.56ZM837.119,407.56L835.119,407.56L835.117,411.56L837.117,411.56L837.119,407.56ZM835.121,405.56L835.117,409.56L839.117,409.562L839.121,405.562L835.121,405.56ZM835.119,407.56L837.119,407.56L837.121,403.56L835.121,403.56L835.119,407.56ZM4.639,407L835.119,407.56L835.121,403.56L4.642,403L4.639,407ZM4.642,429.88L2.642,429.878L2.639,433.878L4.639,433.88L4.642,429.88ZM835.123,430.44L4.642,429.88L4.639,433.88L835.119,434.44L835.123,430.44ZM837.123,430.442L835.123,430.44L835.119,434.44L837.119,434.442L837.123,430.442ZM839.119,436.442L839.121,432.442L835.121,432.44L835.119,436.44L839.119,436.442ZM835.117,438.44L837.117,438.442L837.119,434.442L835.119,434.44L835.117,438.44ZM4.637,437.88L835.117,438.44L835.119,434.44L4.639,433.88L4.637,437.88ZM2.637,437.878L4.637,437.88L4.639,433.88L2.639,433.878L2.637,437.878ZM0.641,431.878L0.638,435.878L4.638,435.88L4.641,431.88L0.641,431.878ZM2.64,460.76L4.64,460.76L4.643,456.76L2.643,456.76L2.64,460.76ZM4.639,462.76L4.642,458.76L0.642,458.758L0.639,462.758L4.639,462.76ZM4.64,460.76L2.64,460.76L2.637,464.76L4.637,464.76L4.64,460.76ZM835.121,461.32L4.64,460.76L4.637,464.76L835.117,465.32L835.121,461.32ZM837.121,461.322L835.121,461.32L835.117,465.32L837.117,465.322L837.121,461.322ZM835.121,459.32L835.119,463.32L839.119,463.324L839.121,459.324L835.121,459.32ZM835.121,461.32L837.121,461.322L837.123,457.322L835.123,457.32L835.121,461.32ZM4.64,460.76L835.121,461.32L835.123,457.32L4.643,456.76L4.64,460.76Z" transform="rotate(90 419.879 232.56)" fill="#000000"/>
</g>
</svg>
