<svg width="746" height="414" viewBox="0 0 746 414" fill="none" xmlns="http://www.w3.org/2000/svg" xmlns:xlink="http://www.w3.org/1999/xlink">
<mask id="mask_0_78_3030" style="mask-type:alpha" maskUnits="userSpaceOnUse" x="155" y="6" width="200" height="200">
<circle cx="355" cy="206" r="200" fill="#000000"/>
</mask>
<g mask="url(#mask_0_78_3030)">
<path d="M1,1.249L1.001,0.249L0.001,0.249L0,1.249L1,1.249ZM2,1.25L2.001,0.25L2,1.25ZM0.999,3.249L-0.001,3.249L-0.002,4.248L0.998,4.249L0.999,3.249ZM1.999,3.25L2,2.25L2,2.25L1.999,3.25ZM743.499,3.75L743.501,2.75L743.501,2.75L743.499,3.75ZM744.499,3.751L744.499,4.751L745.499,4.751L745.499,3.751L744.499,3.751ZM744.501,1.751L745.501,1.751L745.501,0.751L744.501,0.751L744.501,1.751ZM743.501,1.75L743.501,2.75L743.501,1.75ZM1.001,25.249L1.001,24.249L0.001,24.249L0.001,25.249L1.001,25.249ZM2.001,25.25L2.001,24.25L2.001,24.25L2.001,25.25ZM0.999,27.249L-0.001,27.249L-0.001,28.249L0.999,28.249L0.999,27.249ZM1.999,27.25L1.999,28.25L1.999,28.25L1.999,27.25ZM743.499,27.75L743.499,28.75L743.499,28.75L743.499,27.75ZM744.499,27.751L744.499,28.751L745.499,28.751L745.499,27.751L744.499,27.751ZM744.501,25.751L745.501,25.751L745.501,24.751L744.501,24.751L744.501,25.751ZM743.501,25.75L743.501,24.75L743.501,24.75L743.501,25.75ZM2.001,49.25L2,50.25L2,50.25L2.001,49.25ZM1.001,49.249L1.001,48.249L0.001,48.249L0.001,49.249L1.001,49.249ZM743.501,49.75L743.501,48.75L743.501,48.75L743.501,49.75ZM744.501,49.751L745.501,49.751L745.501,48.751L744.501,48.751L744.501,49.751ZM744.499,51.751L744.499,52.751L745.499,52.751L745.499,51.751L744.499,51.751ZM743.499,51.75L743.501,50.75L743.501,50.75L743.499,51.75ZM1.999,51.25L1.999,52.25L1.999,52.25L1.999,51.25ZM0.999,51.249L-0.001,51.249L-0.001,52.249L0.999,52.249L0.999,51.249ZM1.001,73.25L1.001,72.25L0.001,72.249L0.001,73.249L1.001,73.25ZM2.001,73.25L2.001,72.25L2.001,72.25L2.001,73.25ZM0.999,75.25L-0.001,75.249L-0.001,76.249L0.999,76.25L0.999,75.25ZM1.999,75.25L2,74.25L2,74.25L1.999,75.25ZM743.499,75.75L743.499,76.75L743.499,76.75L743.499,75.75ZM744.499,75.751L744.499,76.751L745.499,76.752L745.499,75.752L744.499,75.751ZM744.501,73.751L745.501,73.752L745.501,72.752L744.501,72.751L744.501,73.751ZM743.501,73.75L743.501,74.75L743.501,74.75L743.501,73.75ZM2.001,97.25L2.002,96.25L2.002,96.25L2.001,97.25ZM1.001,97.25L1.002,96.25L0.002,96.249L0.001,97.249L1.001,97.25ZM743.501,97.75L743.501,98.75L743.501,98.75L743.501,97.75ZM744.501,97.751L745.501,97.752L745.501,96.752L744.501,96.751L744.501,97.751ZM744.499,99.751L744.499,100.751L745.499,100.752L745.499,99.752L744.499,99.751ZM743.499,99.75L743.499,100.75L743.499,100.75L743.499,99.75ZM2,99.25L2,98.25L2,98.25L2,99.25ZM1,99.25L0,99.249L-0.001,100.249L0.999,100.25L1,99.25ZM1.001,121.25L1.001,120.25L0.001,120.249L0.001,121.249L1.001,121.25ZM2.001,121.251L2.001,120.251L2.001,120.251L2.001,121.251ZM0.999,123.25L-0.001,123.249L-0.001,124.249L0.999,124.25L0.999,123.25ZM1.999,123.251L2,122.251L2,122.251L1.999,123.251ZM743.499,123.751L743.499,124.751L743.499,124.751L743.499,123.751ZM744.499,123.751L744.499,124.751L745.499,124.752L745.499,123.752L744.499,123.751ZM744.501,121.751L745.501,121.752L745.501,120.752L744.501,120.751L744.501,121.751ZM743.501,121.751L743.501,122.751L743.501,122.751L743.501,121.751ZM2.001,145.25L2.002,144.25L2.002,144.25L2.001,145.25ZM1.001,145.25L1.002,144.25L0.002,144.249L0.001,145.249L1.001,145.25ZM743.501,145.75L743.501,146.75L743.501,146.75L743.501,145.75ZM744.501,145.751L745.501,145.752L745.501,144.752L744.501,144.751L744.501,145.751ZM744.499,147.751L744.499,148.751L745.499,148.752L745.499,147.752L744.499,147.751ZM743.499,147.75L743.499,148.75L743.499,148.75L743.499,147.75ZM2,147.25L2,146.25L2,146.25L2,147.25ZM1,147.25L0,147.249L-0.001,148.249L0.999,148.25L1,147.25ZM1,169.249L1.001,168.249L0.001,168.249L0,169.249L1,169.249ZM2,169.25L2.001,168.25L2.001,168.25L2,169.25ZM0.999,171.249L-0.001,171.249L-0.002,172.249L0.998,172.249L0.999,171.249ZM1.999,171.25L2,170.25L2,170.25L1.999,171.25ZM743.499,171.75L743.499,172.75L743.499,172.75L743.499,171.75ZM744.499,171.751L744.499,172.751L745.499,172.751L745.499,171.751L744.499,171.751ZM744.501,169.751L745.501,169.751L745.501,168.751L744.501,168.751L744.501,169.751ZM743.501,169.75L743.501,170.75L743.501,170.75L743.501,169.75ZM2.001,193.25L2.001,192.25L2.001,192.25L2.001,193.25ZM1.001,193.249L1.001,192.249L0.001,192.249L0.001,193.249L1.001,193.249ZM743.501,193.75L743.501,194.75L743.501,194.75L743.501,193.75ZM744.501,193.751L745.501,193.751L745.501,192.751L744.501,192.751L744.501,193.751ZM744.499,195.751L744.499,196.751L745.499,196.751L745.499,195.751L744.499,195.751ZM743.499,195.75L743.499,196.75L743.499,196.75L743.499,195.75ZM1.999,195.25L2,194.25L2,194.25L1.999,195.25ZM0.999,195.249L-0.001,195.249L-0.001,196.249L0.999,196.249L0.999,195.249ZM1.001,217.249L1.001,216.249L0.001,216.249L0.001,217.249L1.001,217.249ZM2.001,217.249L2.001,216.249L2.001,216.249L2.001,217.249ZM0.999,219.249L-0.001,219.249L-0.001,220.249L0.999,220.249L0.999,219.249ZM1.999,219.249L2,218.249L2,218.249L1.999,219.249ZM743.499,219.749L743.499,220.749L743.499,220.749L743.499,219.749ZM744.499,219.751L744.499,220.751L745.499,220.751L745.499,219.751L744.499,219.751ZM744.501,217.751L745.501,217.751L745.501,216.751L744.501,216.751L744.501,217.751ZM743.501,217.749L743.501,218.749L743.501,218.749L743.501,217.749ZM2.001,241.249L2.001,240.249L2.001,240.249L2.001,241.249ZM1.001,241.249L1.001,240.249L0.001,240.249L0.001,241.249L1.001,241.249ZM743.501,241.749L743.501,242.749L743.501,242.749L743.501,241.749ZM744.501,241.751L745.501,241.751L745.501,240.751L744.501,240.751L744.501,241.751ZM744.499,243.751L744.499,244.751L745.499,244.751L745.499,243.751L744.499,243.751ZM743.499,243.749L743.499,244.749L743.499,244.749L743.499,243.749ZM1.999,243.249L2,242.249L2,242.249L1.999,243.249ZM0.999,243.249L-0.001,243.249L-0.001,244.249L0.999,244.249L0.999,243.249ZM1.001,265.249L1.002,264.249L0.002,264.249L0.001,265.249L1.001,265.249ZM2.001,265.251L2.002,264.251L2.002,264.251L2.001,265.251ZM1,267.249L0,267.249L-0.001,268.249L0.999,268.249L1,267.249ZM2,267.251L2,266.251L2,266.251L2,267.251ZM743.499,267.751L743.499,268.751L743.499,268.751L743.499,267.751ZM744.499,267.751L744.499,268.751L745.499,268.751L745.499,267.751L744.499,267.751ZM744.501,265.751L745.501,265.751L745.501,264.751L744.501,264.751L744.501,265.751ZM743.501,265.751L743.501,266.751L743.501,266.751L743.501,265.751ZM2,289.249L2.001,288.249L2.001,288.249L2,289.249ZM1,289.249L1.001,288.249L0.001,288.249L0,289.249L1,289.249ZM743.501,289.749L743.499,290.749L743.499,290.749L743.501,289.749ZM744.501,289.751L745.501,289.751L745.501,288.751L744.501,288.751L744.501,289.751ZM744.499,291.751L744.499,292.751L745.499,292.751L745.499,291.751L744.499,291.751ZM743.499,291.749L743.499,292.749L743.499,292.749L743.499,291.749ZM1.999,291.249L1.999,290.249L1.999,290.249L1.999,291.249ZM0.999,291.249L-0.001,291.249L-0.002,292.249L0.998,292.249L0.999,291.249ZM1.001,313.249L1.002,312.249L0.002,312.249L0.001,313.249L1.001,313.249ZM2.001,313.251L2.002,312.251L2.002,312.251L2.001,313.251ZM1,315.249L0,315.249L-0.001,316.249L0.999,316.249L1,315.249ZM2,315.251L2,314.251L2,314.251L2,315.251ZM743.499,315.751L743.499,316.751L743.499,316.751L743.499,315.751ZM744.499,315.751L744.499,316.751L745.499,316.751L745.499,315.751L744.499,315.751ZM744.501,313.751L745.501,313.751L745.501,312.751L744.501,312.751L744.501,313.751ZM743.501,313.751L743.501,314.751L743.501,314.751L743.501,313.751ZM2,337.249L2.001,336.249L2.001,336.249L2,337.249ZM1,337.249L1.001,336.249L0.001,336.249L0,337.249L1,337.249ZM743.501,337.749L743.501,338.749L743.501,338.749L743.501,337.749ZM744.501,337.751L745.501,337.751L745.501,336.751L744.501,336.751L744.501,337.751ZM744.499,339.751L744.499,340.751L745.499,340.751L745.499,339.751L744.499,339.751ZM743.499,339.749L743.499,340.749L743.499,340.749L743.499,339.749ZM1.999,339.249L2,338.249L2,338.249L1.999,339.249ZM0.999,339.249L-0.001,339.249L-0.002,340.249L0.998,340.249L0.999,339.249ZM1.001,361.249L1.001,360.249L0.001,360.249L0.001,361.249L1.001,361.249ZM2.001,361.249L2.001,360.249L2.001,360.249L2.001,361.249ZM0.999,363.249L-0.001,363.249L-0.001,364.249L0.999,364.249L0.999,363.249ZM1.999,363.249L2,362.249L2,362.249L1.999,363.249ZM743.499,363.749L743.499,364.749L743.499,364.749L743.499,363.749ZM744.499,363.751L744.499,364.751L745.499,364.751L745.499,363.751L744.499,363.751ZM744.501,361.751L745.501,361.751L745.501,360.751L744.501,360.751L744.501,361.751ZM743.501,361.749L743.501,362.749L743.501,362.749L743.501,361.749ZM2.001,385.249L2.001,384.249L2.001,384.249L2.001,385.249ZM1.001,385.249L1.001,384.249L0.001,384.249L0.001,385.249L1.001,385.249ZM743.501,385.749L743.501,386.749L743.501,386.749L743.501,385.749ZM744.501,385.751L745.501,385.751L745.501,384.751L744.501,384.751L744.501,385.751ZM744.499,387.751L744.499,388.751L745.499,388.751L745.499,387.751L744.499,387.751ZM743.499,387.749L743.499,388.749L743.499,388.749L743.499,387.749ZM1.999,387.249L2,386.249L2,386.249L1.999,387.249ZM0.999,387.249L-0.001,387.249L-0.001,388.249L0.999,388.249L0.999,387.249ZM1.001,409.249L1.001,408.249L0.001,408.249L0.001,409.249L1.001,409.249ZM2.001,409.249L2.001,408.249L2.001,408.249L2.001,409.249ZM0.999,411.249L-0.001,411.249L-0.001,412.249L0.999,412.249L0.999,411.249ZM1.999,411.249L2,410.249L2,410.249L1.999,411.249ZM743.499,411.749L743.499,412.749L743.499,412.749L743.499,411.749ZM744.499,411.751L744.499,412.751L745.499,412.751L745.499,411.751L744.499,411.751ZM744.501,409.751L745.501,409.751L745.501,408.751L744.501,408.751L744.501,409.751ZM743.501,409.749L743.501,410.749L743.501,410.749L743.501,409.749ZM1,2.249L2,2.25L2.001,0.25L1.001,0.249L1,2.249ZM1.999,3.25L2,1.25L0,1.249L-0.001,3.249L1.999,3.25ZM2,2.25L1,2.249L0.998,4.249L1.998,4.25L2,2.25ZM743.501,2.75L2,2.25L1.998,4.25L743.499,4.75L743.501,2.75ZM744.501,2.751L743.501,2.75L743.499,4.75L744.499,4.751L744.501,2.751ZM743.501,1.75L743.499,3.75L745.499,3.751L745.501,1.751L743.501,1.75ZM743.501,2.75L744.501,2.751L744.501,0.751L743.501,0.75L743.501,2.75ZM2,2.25L743.501,2.75L743.501,0.75L2.001,0.25L2,2.25ZM1,26.249L2,26.25L2.001,24.25L1.001,24.249L1,26.249ZM1.999,27.25L2.001,25.25L0.001,25.249L-0.001,27.249L1.999,27.25ZM2,26.25L1,26.249L0.999,28.249L1.999,28.25L2,26.25ZM743.501,26.75L2,26.25L1.999,28.25L743.499,28.75L743.501,26.75ZM744.501,26.751L743.501,26.75L743.499,28.75L744.499,28.751L744.501,26.751ZM743.501,25.75L743.499,27.75L745.499,27.751L745.501,25.751L743.501,25.75ZM743.501,26.75L744.501,26.751L744.501,24.751L743.501,24.75L743.501,26.75ZM2,26.25L743.501,26.75L743.501,24.75L2.001,24.25L2,26.25ZM2.001,48.25L1.001,48.249L1,50.249L2,50.25L2.001,48.25ZM743.501,48.75L2.001,48.25L2,50.25L743.501,50.75L743.501,48.75ZM744.501,48.751L743.501,48.75L743.501,50.75L744.501,50.751L744.501,48.751ZM745.499,51.751L745.501,49.751L743.501,49.75L743.499,51.75L745.499,51.751ZM743.499,52.75L744.499,52.751L744.501,50.751L743.501,50.75L743.499,52.75ZM1.999,52.25L743.499,52.75L743.501,50.75L2,50.25L1.999,52.25ZM0.999,52.249L1.999,52.25L2,50.25L1,50.249L0.999,52.249ZM0.001,49.249L-0.001,51.249L1.999,51.25L2.001,49.25L0.001,49.249ZM1,74.25L2,74.25L2.001,72.25L1.001,72.25L1,74.25ZM1.999,75.25L2.001,73.25L0.001,73.249L-0.001,75.249L1.999,75.25ZM2,74.25L1,74.25L0.999,76.25L1.999,76.25L2,74.25ZM743.501,74.75L2,74.25L1.999,76.25L743.499,76.75L743.501,74.75ZM744.501,74.751L743.501,74.75L743.499,76.75L744.499,76.751L744.501,74.751ZM743.501,73.75L743.499,75.75L745.499,75.752L745.501,73.752L743.501,73.75ZM743.501,74.75L744.501,74.751L744.501,72.751L743.501,72.75L743.501,74.75ZM2,74.25L743.501,74.75L743.501,72.75L2.001,72.25L2,74.25ZM2.002,96.25L1.002,96.25L1,98.25L2,98.25L2.002,96.25ZM743.501,96.75L2.002,96.25L2,98.25L743.501,98.75L743.501,96.75ZM744.501,96.751L743.501,96.75L743.501,98.75L744.501,98.751L744.501,96.751ZM745.499,99.752L745.501,97.752L743.501,97.75L743.499,99.75L745.499,99.752ZM743.499,100.75L744.499,100.751L744.501,98.751L743.501,98.75L743.499,100.75ZM1.999,100.25L743.499,100.75L743.501,98.75L2,98.25L1.999,100.25ZM0.999,100.25L1.999,100.25L2,98.25L1,98.25L0.999,100.25ZM0.001,97.249L0,99.249L2,99.25L2.001,97.25L0.001,97.249ZM1,122.25L2,122.251L2.001,120.251L1.001,120.25L1,122.25ZM1.999,123.251L2.001,121.251L0.001,121.249L-0.001,123.249L1.999,123.251ZM2,122.251L1,122.25L0.999,124.25L1.999,124.251L2,122.251ZM743.501,122.751L2,122.251L1.999,124.251L743.499,124.751L743.501,122.751ZM744.501,122.751L743.501,122.751L743.499,124.751L744.499,124.751L744.501,122.751ZM743.501,121.751L743.499,123.751L745.499,123.752L745.501,121.752L743.501,121.751ZM743.501,122.751L744.501,122.751L744.501,120.751L743.501,120.751L743.501,122.751ZM2,122.251L743.501,122.751L743.501,120.751L2.001,120.251L2,122.251ZM2.002,144.25L1.002,144.25L1,146.25L2,146.25L2.002,144.25ZM743.501,144.75L2.002,144.25L2,146.25L743.501,146.75L743.501,144.75ZM744.501,144.751L743.501,144.75L743.501,146.75L744.501,146.751L744.501,144.751ZM745.499,147.752L745.501,145.752L743.501,145.75L743.499,147.75L745.499,147.752ZM743.499,148.75L744.499,148.751L744.501,146.751L743.501,146.75L743.499,148.75ZM1.999,148.25L743.499,148.75L743.501,146.75L2,146.25L1.999,148.25ZM0.999,148.25L1.999,148.25L2,146.25L1,146.25L0.999,148.25ZM0.001,145.249L0,147.249L2,147.25L2.001,145.25L0.001,145.249ZM1,170.249L2,170.25L2.001,168.25L1.001,168.249L1,170.249ZM1.999,171.25L2,169.25L0,169.249L-0.001,171.249L1.999,171.25ZM2,170.25L1,170.249L0.998,172.249L1.998,172.25L2,170.25ZM743.501,170.75L2,170.25L1.998,172.25L743.499,172.75L743.501,170.75ZM744.501,170.751L743.501,170.75L743.499,172.75L744.499,172.751L744.501,170.751ZM743.501,169.75L743.499,171.75L745.499,171.751L745.501,169.751L743.501,169.75ZM743.501,170.75L744.501,170.751L744.501,168.751L743.501,168.75L743.501,170.75ZM2,170.25L743.501,170.75L743.501,168.75L2.001,168.25L2,170.25ZM2.001,192.25L1.001,192.249L1,194.249L2,194.25L2.001,192.25ZM743.501,192.75L2.001,192.25L2,194.25L743.501,194.75L743.501,192.75ZM744.501,192.751L743.501,192.75L743.501,194.75L744.501,194.751L744.501,192.751ZM745.499,195.751L745.501,193.751L743.501,193.75L743.499,195.75L745.499,195.751ZM743.499,196.75L744.499,196.751L744.501,194.751L743.501,194.75L743.499,196.75ZM1.999,196.25L743.499,196.75L743.501,194.75L2,194.25L1.999,196.25ZM0.999,196.249L1.999,196.25L2,194.25L1,194.249L0.999,196.249ZM0.001,193.249L-0.001,195.249L1.999,195.25L2.001,193.25L0.001,193.249ZM1,218.249L2,218.249L2.001,216.249L1.001,216.249L1,218.249ZM1.999,219.249L2.001,217.249L0.001,217.249L-0.001,219.249L1.999,219.249ZM2,218.249L1,218.249L0.999,220.249L1.999,220.249L2,218.249ZM743.501,218.749L2,218.249L1.999,220.249L743.499,220.749L743.501,218.749ZM744.501,218.751L743.501,218.749L743.499,220.749L744.499,220.751L744.501,218.751ZM743.501,217.749L743.499,219.749L745.499,219.751L745.501,217.751L743.501,217.749ZM743.501,218.749L744.501,218.751L744.501,216.751L743.501,216.749L743.501,218.749ZM2,218.249L743.501,218.749L743.501,216.749L2.001,216.249L2,218.249ZM2.001,240.249L1.001,240.249L1,242.249L2,242.249L2.001,240.249ZM743.501,240.749L2.001,240.249L2,242.249L743.501,242.749L743.501,240.749ZM744.501,240.751L743.501,240.749L743.501,242.749L744.501,242.751L744.501,240.751ZM745.499,243.751L745.501,241.751L743.501,241.749L743.499,243.749L745.499,243.751ZM743.499,244.749L744.499,244.751L744.501,242.751L743.501,242.749L743.499,244.749ZM1.999,244.249L743.499,244.749L743.501,242.749L2,242.249L1.999,244.249ZM0.999,244.249L1.999,244.249L2,242.249L1,242.249L0.999,244.249ZM0.001,241.249L-0.001,243.249L1.999,243.251L2.001,241.251L0.001,241.249ZM1,266.249L2,266.251L2.002,264.251L1.002,264.249L1,266.249ZM2,267.251L2.001,265.251L0.001,265.249L0,267.249L2,267.251ZM2,266.251L1,266.249L0.999,268.249L1.999,268.251L2,266.251ZM743.501,266.751L2,266.251L1.999,268.251L743.499,268.751L743.501,266.751ZM744.501,266.751L743.501,266.751L743.499,268.751L744.499,268.751L744.501,266.751ZM743.501,265.751L743.499,267.751L745.499,267.751L745.501,265.751L743.501,265.751ZM743.501,266.751L744.501,266.751L744.501,264.751L743.501,264.751L743.501,266.751ZM2,266.251L743.501,266.751L743.501,264.751L2.002,264.251L2,266.251ZM2.001,288.249L1.001,288.249L0.999,290.249L1.999,290.249L2.001,288.249ZM743.501,288.749L2.001,288.249L1.999,290.249L743.499,290.749L743.501,288.749ZM744.501,288.751L743.501,288.749L743.499,290.749L744.499,290.751L744.501,288.751ZM745.499,291.751L745.501,289.751L743.501,289.749L743.499,291.749L745.499,291.751ZM743.499,292.749L744.499,292.751L744.499,290.751L743.499,290.749L743.499,292.749ZM1.998,292.249L743.499,292.749L743.499,290.749L1.999,290.249L1.998,292.249ZM0.998,292.249L1.998,292.249L1.999,290.249L0.999,290.249L0.998,292.249ZM0,289.249L-0.001,291.249L1.999,291.249L2,289.249L0,289.249ZM1,314.249L2,314.251L2.002,312.251L1.002,312.249L1,314.249ZM2,315.251L2.001,313.251L0.001,313.249L0,315.249L2,315.251ZM2,314.251L1,314.249L0.999,316.249L1.999,316.251L2,314.251ZM743.501,314.751L2,314.251L1.999,316.251L743.499,316.751L743.501,314.751ZM744.501,314.751L743.501,314.751L743.499,316.751L744.499,316.751L744.501,314.751ZM743.501,313.751L743.499,315.751L745.499,315.751L745.501,313.751L743.501,313.751ZM743.501,314.751L744.501,314.751L744.501,312.751L743.501,312.751L743.501,314.751ZM2,314.251L743.501,314.751L743.501,312.751L2.002,312.251L2,314.251ZM2.001,336.249L1.001,336.249L1,338.249L2,338.249L2.001,336.249ZM743.501,336.749L2.001,336.249L2,338.249L743.501,338.749L743.501,336.749ZM744.501,336.751L743.501,336.749L743.501,338.749L744.501,338.751L744.501,336.751ZM745.499,339.751L745.501,337.751L743.501,337.749L743.499,339.749L745.499,339.751ZM743.499,340.749L744.499,340.751L744.501,338.751L743.501,338.749L743.499,340.749ZM1.998,340.249L743.499,340.749L743.501,338.749L2,338.249L1.998,340.249ZM0.998,340.249L1.998,340.249L2,338.249L1,338.249L0.998,340.249ZM0,337.249L-0.001,339.249L1.999,339.249L2,337.249L0,337.249ZM1,362.249L2,362.249L2.001,360.249L1.001,360.249L1,362.249ZM1.999,363.249L2.001,361.249L0.001,361.249L-0.001,363.249L1.999,363.249ZM2,362.249L1,362.249L0.999,364.249L1.999,364.249L2,362.249ZM743.501,362.749L2,362.249L1.999,364.249L743.499,364.749L743.501,362.749ZM744.501,362.751L743.501,362.749L743.499,364.749L744.499,364.751L744.501,362.751ZM743.501,361.749L743.499,363.749L745.499,363.751L745.501,361.751L743.501,361.749ZM743.501,362.749L744.501,362.751L744.501,360.751L743.501,360.749L743.501,362.749ZM2,362.249L743.501,362.749L743.501,360.749L2.001,360.249L2,362.249ZM2.001,384.249L1.001,384.249L1,386.249L2,386.249L2.001,384.249ZM743.501,384.749L2.001,384.249L2,386.249L743.501,386.749L743.501,384.749ZM744.501,384.751L743.501,384.749L743.501,386.749L744.501,386.751L744.501,384.751ZM745.499,387.751L745.501,385.751L743.501,385.749L743.499,387.749L745.499,387.751ZM743.499,388.749L744.499,388.751L744.501,386.751L743.501,386.749L743.499,388.749ZM1.999,388.249L743.499,388.749L743.501,386.749L2,386.249L1.999,388.249ZM0.999,388.249L1.999,388.249L2,386.249L1,386.249L0.999,388.249ZM0.001,385.249L-0.001,387.249L1.999,387.249L2.001,385.249L0.001,385.249ZM1,410.249L2,410.249L2.001,408.249L1.001,408.249L1,410.249ZM1.999,411.249L2.001,409.249L0.001,409.249L-0.001,411.249L1.999,411.249ZM2,410.249L1,410.249L0.999,412.249L1.999,412.249L2,410.249ZM743.501,410.749L2,410.249L1.999,412.249L743.499,412.749L743.501,410.749ZM744.501,410.751L743.501,410.749L743.499,412.749L744.499,412.751L744.501,410.751ZM743.501,409.749L743.499,411.749L745.499,411.751L745.501,409.751L743.501,409.749ZM743.501,410.749L744.501,410.751L744.501,408.751L743.501,408.749L743.501,410.749ZM2,410.249L743.501,410.749L743.501,408.749L2.001,408.249L2,410.249Z" transform="rotate(90 372.75 206.5)" fill="#000000"/>
</g>
</svg>
