<svg width="3124" height="3124" viewBox="0 0 3124 3124" fill="none" xmlns="http://www.w3.org/2000/svg" xmlns:xlink="http://www.w3.org/1999/xlink">
<mask id="mask_0_33_1060" style="mask-type:alpha" maskUnits="userSpaceOnUse" x="122" y="1256" width="1440" height="304">
<rect  x="122" y="1256" width="2880" height="608" fill="#E29F72"/>
</mask>
<mask id="mask_0_33_1064" style="mask-type:alpha" maskUnits="userSpaceOnUse" x="962" y="1324" width="400" height="400">
<circle cx="1362" cy="1724" r="400" fill="#000000"/>
</mask>
<rect  x="1890.804" y="0" width="1742" height="2674" rx="160" transform="rotate(90 1890.804 0)" fill="#009EFF"/>
<g mask="url(#mask_0_33_1064)">
<path d="M654.001,1314.499L654.002,1312.499L652.002,1312.497L652.001,1314.497L654.001,1314.499ZM656.001,1314.5L656.002,1312.5L656.001,1314.5ZM653.998,1318.499L651.998,1318.497L651.997,1320.497L653.997,1320.499L653.998,1318.499ZM655.998,1318.5L656,1316.5L656,1316.5L655.998,1318.5ZM2138.998,1319.5L2139,1317.5L2139,1317.5L2138.998,1319.5ZM2140.998,1319.501L2140.996,1321.501L2142.996,1321.503L2142.998,1319.503L2140.998,1319.501ZM2141,1315.501L2143,1315.503L2143.002,1313.503L2141.002,1313.501L2141,1315.501ZM2139,1315.5L2139,1317.5L2139,1315.5ZM654.001,1362.499L654.002,1360.499L652.002,1360.497L652.001,1362.497L654.001,1362.499ZM656.001,1362.5L656.002,1360.5L656.002,1360.5L656.001,1362.5ZM653.998,1366.499L651.998,1366.497L651.997,1368.497L653.997,1368.499L653.998,1366.499ZM655.998,1366.5L655.997,1368.5L655.997,1368.5L655.998,1366.5ZM2138.998,1367.5L2138.996,1369.5L2138.996,1369.5L2138.998,1367.5ZM2140.998,1367.501L2140.996,1369.501L2142.996,1369.503L2142.998,1367.503L2140.998,1367.501ZM2141,1363.501L2143,1363.503L2143.002,1361.503L2141.002,1361.501L2141,1363.501ZM2139,1363.5L2139.002,1361.5L2139.002,1361.5L2139,1363.5ZM656.001,1410.5L656,1412.5L656,1412.5L656.001,1410.5ZM654.001,1410.499L654.002,1408.499L652.002,1408.497L652.001,1410.497L654.001,1410.499ZM2139,1411.5L2139.002,1409.5L2139.002,1409.5L2139,1411.5ZM2141,1411.501L2143,1411.503L2143.002,1409.503L2141.002,1409.501L2141,1411.501ZM2140.998,1415.501L2140.996,1417.501L2142.996,1417.503L2142.998,1415.503L2140.998,1415.501ZM2138.998,1415.5L2139,1413.5L2139,1413.5L2138.998,1415.5ZM655.998,1414.5L655.997,1416.5L655.997,1416.5L655.998,1414.5ZM653.998,1414.499L651.998,1414.497L651.997,1416.497L653.997,1416.499L653.998,1414.499ZM654.001,1458.499L654.002,1456.499L652.002,1456.497L652.001,1458.497L654.001,1458.499ZM656.001,1458.5L656.002,1456.5L656.002,1456.5L656.001,1458.5ZM653.998,1462.499L651.998,1462.497L651.997,1464.497L653.997,1464.499L653.998,1462.499ZM655.998,1462.5L656,1460.5L656,1460.5L655.998,1462.5ZM2138.998,1463.5L2138.996,1465.5L2138.996,1465.5L2138.998,1463.5ZM2140.998,1463.501L2140.996,1465.501L2142.996,1465.503L2142.998,1463.503L2140.998,1463.501ZM2141,1459.501L2143,1459.503L2143.002,1457.503L2141.002,1457.501L2141,1459.501ZM2139,1459.5L2139,1461.5L2139,1461.5L2139,1459.5ZM656.001,1506.5L656.002,1504.5L656.002,1504.5L656.001,1506.5ZM654.001,1506.499L654.002,1504.499L652.002,1504.497L652.001,1506.497L654.001,1506.499ZM2139,1507.5L2139,1509.5L2139,1509.5L2139,1507.5ZM2141,1507.501L2143,1507.503L2143.002,1505.503L2141.002,1505.501L2141,1507.501ZM2140.998,1511.501L2140.996,1513.501L2142.996,1513.503L2142.998,1511.503L2140.998,1511.501ZM2138.998,1511.5L2138.996,1513.5L2138.996,1513.5L2138.998,1511.5ZM655.998,1510.5L656,1508.5L656,1508.5L655.998,1510.5ZM653.998,1510.499L651.998,1510.497L651.997,1512.497L653.997,1512.499L653.998,1510.499ZM654.001,1554.499L654.002,1552.499L652.002,1552.497L652.001,1554.497L654.001,1554.499ZM656.001,1554.501L656.002,1552.501L656.002,1552.501L656.001,1554.501ZM653.998,1558.499L651.998,1558.497L651.997,1560.497L653.997,1560.499L653.998,1558.499ZM655.998,1558.501L656,1556.501L656,1556.501L655.998,1558.501ZM2138.998,1559.501L2138.996,1561.501L2138.996,1561.501L2138.998,1559.501ZM2140.998,1559.501L2140.996,1561.501L2142.996,1561.503L2142.998,1559.503L2140.998,1559.501ZM2141,1555.501L2143,1555.503L2143.002,1553.503L2141.002,1553.501L2141,1555.501ZM2139,1555.501L2139,1557.501L2139,1557.501L2139,1555.501ZM656.001,1602.501L656.002,1600.501L656.002,1600.501L656.001,1602.501ZM654.001,1602.499L654.002,1600.499L652.002,1600.497L652.001,1602.497L654.001,1602.499ZM2139,1603.501L2139,1605.501L2139,1605.501L2139,1603.501ZM2141,1603.501L2143,1603.503L2143.002,1601.503L2141.002,1601.501L2141,1603.501ZM2140.998,1607.501L2140.996,1609.501L2142.996,1609.503L2142.998,1607.503L2140.998,1607.501ZM2138.998,1607.501L2138.996,1609.501L2138.996,1609.501L2138.998,1607.501ZM655.998,1606.501L656,1604.501L656,1604.501L655.998,1606.501ZM653.998,1606.499L651.998,1606.497L651.997,1608.497L653.997,1608.499L653.998,1606.499ZM654.001,1650.499L654.002,1648.499L652.002,1648.497L652.001,1650.497L654.001,1650.499ZM656.001,1650.501L656.002,1648.501L656.002,1648.501L656.001,1650.501ZM653.998,1654.499L651.998,1654.497L651.997,1656.497L653.997,1656.499L653.998,1654.499ZM655.998,1654.501L656,1652.501L656,1652.501L655.998,1654.501ZM2138.998,1655.501L2138.996,1657.501L2138.996,1657.501L2138.998,1655.501ZM2140.998,1655.501L2140.996,1657.501L2142.996,1657.503L2142.998,1655.503L2140.998,1655.501ZM2141,1651.501L2143,1651.503L2143.002,1649.503L2141.002,1649.501L2141,1651.501ZM2139,1651.501L2139,1653.501L2139,1653.501L2139,1651.501ZM656.001,1698.501L656.002,1696.501L656.002,1696.501L656.001,1698.501ZM654.001,1698.499L654.002,1696.499L652.002,1696.497L652.001,1698.497L654.001,1698.499ZM2139,1699.501L2139,1701.501L2139,1701.501L2139,1699.501ZM2141,1699.501L2143,1699.503L2143.002,1697.503L2141.002,1697.501L2141,1699.501ZM2140.998,1703.501L2140.996,1705.501L2142.996,1705.503L2142.998,1703.503L2140.998,1703.501ZM2138.998,1703.501L2138.996,1705.501L2138.996,1705.501L2138.998,1703.501ZM655.998,1702.501L656,1700.501L656,1700.501L655.998,1702.501ZM653.998,1702.499L651.998,1702.497L651.997,1704.497L653.997,1704.499L653.998,1702.499ZM654.001,1746.499L654.002,1744.499L652.002,1744.497L652.001,1746.497L654.001,1746.499ZM656.001,1746.501L656.002,1744.501L656.002,1744.501L656.001,1746.501ZM653.998,1750.499L651.998,1750.497L651.997,1752.497L653.997,1752.499L653.998,1750.499ZM655.998,1750.501L656,1748.501L656,1748.501L655.998,1750.501ZM2138.998,1751.501L2138.996,1753.501L2138.996,1753.501L2138.998,1751.501ZM2140.998,1751.501L2140.996,1753.501L2142.996,1753.503L2142.998,1751.503L2140.998,1751.501ZM2141,1747.501L2143,1747.503L2143.002,1745.503L2141.002,1745.501L2141,1747.501ZM2139,1747.501L2139,1749.501L2139,1749.501L2139,1747.501ZM656.001,1794.501L656.002,1792.501L656.002,1792.501L656.001,1794.501ZM654.001,1794.499L654.002,1792.499L652.002,1792.497L652.001,1794.497L654.001,1794.499ZM2139,1795.501L2139,1797.501L2139,1797.501L2139,1795.501ZM2141,1795.501L2143,1795.503L2143.002,1793.503L2141.002,1793.501L2141,1795.501ZM2140.998,1799.501L2140.996,1801.501L2142.996,1801.503L2142.998,1799.503L2140.998,1799.501ZM2138.998,1799.501L2138.996,1801.501L2138.996,1801.501L2138.998,1799.501ZM655.998,1798.501L656,1796.501L656,1796.501L655.998,1798.501ZM653.998,1798.499L651.998,1798.497L651.997,1800.497L653.997,1800.499L653.998,1798.499ZM654.001,1842.499L654.002,1840.499L652.002,1840.497L652.001,1842.497L654.001,1842.499ZM656.001,1842.501L656.002,1840.501L656.002,1840.501L656.001,1842.501ZM653.998,1846.499L651.998,1846.497L651.997,1848.497L653.997,1848.499L653.998,1846.499ZM655.998,1846.501L656,1844.501L656,1844.501L655.998,1846.501ZM2138.998,1847.501L2138.996,1849.501L2138.996,1849.501L2138.998,1847.501ZM2140.998,1847.501L2140.996,1849.501L2142.996,1849.503L2142.998,1847.503L2140.998,1847.501ZM2141,1843.501L2143,1843.503L2143.002,1841.503L2141.002,1841.501L2141,1843.501ZM2139,1843.501L2139,1845.501L2139,1845.501L2139,1843.501ZM656.001,1890.501L656.002,1888.501L656.002,1888.501L656.001,1890.501ZM654.001,1890.499L654.002,1888.499L652.002,1888.497L652.001,1890.497L654.001,1890.499ZM2139,1891.501L2139,1893.501L2139,1893.501L2139,1891.501ZM2141,1891.501L2143,1891.503L2143.002,1889.503L2141.002,1889.501L2141,1891.501ZM2140.998,1895.501L2140.996,1897.501L2142.996,1897.503L2142.998,1895.503L2140.998,1895.501ZM2138.998,1895.501L2138.996,1897.501L2138.996,1897.501L2138.998,1895.501ZM655.998,1894.501L656,1892.501L656,1892.501L655.998,1894.501ZM653.998,1894.499L651.998,1894.497L651.997,1896.497L653.997,1896.499L653.998,1894.499ZM654.001,1938.499L654.002,1936.499L652.002,1936.497L652.001,1938.497L654.001,1938.499ZM656.001,1938.501L656.002,1936.501L656.002,1936.501L656.001,1938.501ZM653.998,1942.499L651.998,1942.497L651.997,1944.497L653.997,1944.499L653.998,1942.499ZM655.998,1942.501L656,1940.501L656,1940.501L655.998,1942.501ZM2138.998,1943.501L2138.996,1945.501L2138.996,1945.501L2138.998,1943.501ZM2140.998,1943.501L2140.996,1945.501L2142.996,1945.503L2142.998,1943.503L2140.998,1943.501ZM2141,1939.501L2143,1939.503L2143.002,1937.503L2141.002,1937.501L2141,1939.501ZM2139,1939.501L2139,1941.501L2139,1941.501L2139,1939.501ZM656.001,1986.501L656.002,1984.501L656.002,1984.501L656.001,1986.501ZM654.001,1986.499L654.002,1984.499L652.002,1984.497L652.001,1986.497L654.001,1986.499ZM2139,1987.501L2139,1989.501L2139,1989.501L2139,1987.501ZM2141,1987.501L2143,1987.503L2143.002,1985.503L2141.002,1985.501L2141,1987.501ZM2140.998,1991.501L2140.996,1993.501L2142.996,1993.503L2142.998,1991.503L2140.998,1991.501ZM2138.998,1991.501L2138.996,1993.501L2138.996,1993.501L2138.998,1991.501ZM655.998,1990.501L656,1988.501L656,1988.501L655.998,1990.501ZM653.998,1990.499L651.998,1990.497L651.997,1992.497L653.997,1992.499L653.998,1990.499ZM654.001,2034.499L654.002,2032.499L652.002,2032.497L652.001,2034.497L654.001,2034.499ZM656.001,2034.501L656.002,2032.501L656.002,2032.501L656.001,2034.501ZM653.998,2038.499L651.998,2038.497L651.997,2040.497L653.997,2040.499L653.998,2038.499ZM655.998,2038.501L656,2036.501L656,2036.501L655.998,2038.501ZM2138.998,2039.501L2138.996,2041.501L2138.996,2041.501L2138.998,2039.501ZM2140.998,2039.501L2140.996,2041.501L2142.996,2041.503L2142.998,2039.503L2140.998,2039.501ZM2141,2035.501L2143,2035.503L2143.002,2033.503L2141.002,2033.501L2141,2035.501ZM2139,2035.501L2139,2037.501L2139,2037.501L2139,2035.501ZM656.001,2082.501L656.002,2080.501L656.002,2080.501L656.001,2082.501ZM654.001,2082.499L654.002,2080.499L652.002,2080.497L652.001,2082.497L654.001,2082.499ZM2139,2083.501L2139,2085.501L2139,2085.501L2139,2083.501ZM2141,2083.501L2143,2083.503L2143.002,2081.503L2141.002,2081.501L2141,2083.501ZM2140.998,2087.501L2140.996,2089.501L2142.996,2089.503L2142.998,2087.503L2140.998,2087.501ZM2138.998,2087.501L2138.996,2089.501L2138.996,2089.501L2138.998,2087.501ZM655.998,2086.501L656,2084.501L656,2084.501L655.998,2086.501ZM653.998,2086.499L651.998,2086.497L651.997,2088.497L653.997,2088.499L653.998,2086.499ZM654.001,2130.499L654.002,2128.499L652.002,2128.497L652.001,2130.497L654.001,2130.499ZM656.001,2130.501L656.002,2128.501L656.002,2128.501L656.001,2130.501ZM653.998,2134.499L651.998,2134.497L651.997,2136.497L653.997,2136.499L653.998,2134.499ZM655.998,2134.501L656,2132.501L656,2132.501L655.998,2134.501ZM2138.998,2135.501L2138.996,2137.501L2138.996,2137.501L2138.998,2135.501ZM2140.998,2135.501L2140.996,2137.501L2142.996,2137.503L2142.998,2135.503L2140.998,2135.501ZM2141,2131.501L2143,2131.503L2143.002,2129.503L2141.002,2129.501L2141,2131.501ZM2139,2131.501L2139,2133.501L2139,2133.501L2139,2131.501ZM654,1316.499L656,1316.5L656.002,1312.5L654.002,1312.499L654,1316.499ZM655.998,1318.5L656.001,1314.5L652.001,1314.497L651.998,1318.497L655.998,1318.5ZM656,1316.5L654,1316.499L653.997,1320.499L655.997,1320.5L656,1316.5ZM2139,1317.5L656,1316.5L655.997,1320.5L2138.996,1321.5L2139,1317.5ZM2141,1317.501L2139,1317.5L2138.996,1321.5L2140.996,1321.501L2141,1317.501ZM2139,1315.5L2138.998,1319.5L2142.998,1319.503L2143,1315.503L2139,1315.5ZM2139,1317.5L2141,1317.501L2141.002,1313.501L2139.002,1313.5L2139,1317.5ZM656,1316.5L2139,1317.5L2139.002,1313.5L656.002,1312.5L656,1316.5ZM654,1364.499L656,1364.5L656.002,1360.5L654.002,1360.499L654,1364.499ZM655.998,1366.5L656.001,1362.5L652.001,1362.497L651.998,1366.497L655.998,1366.5ZM656,1364.5L654,1364.499L653.997,1368.499L655.997,1368.5L656,1364.5ZM2139,1365.5L656,1364.5L655.997,1368.5L2138.996,1369.5L2139,1365.5ZM2141,1365.501L2139,1365.5L2138.996,1369.5L2140.996,1369.501L2141,1365.501ZM2139,1363.5L2138.998,1367.5L2142.998,1367.503L2143,1363.503L2139,1363.5ZM2139,1365.5L2141,1365.501L2141.002,1361.501L2139.002,1361.5L2139,1365.5ZM656,1364.5L2139,1365.5L2139.002,1361.5L656.002,1360.5L656,1364.5ZM656.002,1408.5L654.002,1408.499L654,1412.499L656,1412.5L656.002,1408.5ZM2139.002,1409.5L656.002,1408.5L656,1412.5L2139,1413.5L2139.002,1409.5ZM2141.002,1409.501L2139.002,1409.5L2139,1413.5L2141,1413.501L2141.002,1409.501ZM2142.998,1415.503L2143,1411.503L2139,1411.5L2138.998,1415.5L2142.998,1415.503ZM2138.996,1417.5L2140.996,1417.501L2141,1413.501L2139,1413.5L2138.996,1417.5ZM655.997,1416.5L2138.996,1417.5L2139,1413.5L656,1412.5L655.997,1416.5ZM653.997,1416.499L655.997,1416.5L656,1412.5L654,1412.499L653.997,1416.499ZM652.001,1410.497L651.998,1414.497L655.998,1414.5L656.001,1410.5L652.001,1410.497ZM654,1460.499L656,1460.5L656.002,1456.5L654.002,1456.499L654,1460.499ZM655.998,1462.5L656.001,1458.5L652.001,1458.497L651.998,1462.497L655.998,1462.5ZM656,1460.5L654,1460.499L653.997,1464.499L655.997,1464.5L656,1460.5ZM2139,1461.5L656,1460.5L655.997,1464.5L2138.996,1465.5L2139,1461.5ZM2141,1461.501L2139,1461.5L2138.996,1465.5L2140.996,1465.501L2141,1461.501ZM2139,1459.5L2138.998,1463.5L2142.998,1463.503L2143,1459.503L2139,1459.5ZM2139,1461.5L2141,1461.501L2141.002,1457.501L2139.002,1457.5L2139,1461.5ZM656,1460.5L2139,1461.5L2139.002,1457.5L656.002,1456.5L656,1460.5ZM656.002,1504.5L654.002,1504.499L654,1508.499L656,1508.5L656.002,1504.5ZM2139.002,1505.5L656.002,1504.5L656,1508.5L2139,1509.5L2139.002,1505.5ZM2141.002,1505.501L2139.002,1505.5L2139,1509.5L2141,1509.501L2141.002,1505.501ZM2142.998,1511.503L2143,1507.503L2139,1507.5L2138.998,1511.5L2142.998,1511.503ZM2138.996,1513.5L2140.996,1513.501L2141,1509.501L2139,1509.5L2138.996,1513.5ZM655.997,1512.5L2138.996,1513.5L2139,1509.5L656,1508.5L655.997,1512.5ZM653.997,1512.499L655.997,1512.5L656,1508.5L654,1508.499L653.997,1512.499ZM652.001,1506.497L651.998,1510.497L655.998,1510.5L656.001,1506.5L652.001,1506.497ZM654,1556.499L656,1556.501L656.002,1552.501L654.002,1552.499L654,1556.499ZM655.998,1558.501L656.001,1554.501L652.001,1554.497L651.998,1558.497L655.998,1558.501ZM656,1556.501L654,1556.499L653.997,1560.499L655.997,1560.501L656,1556.501ZM2139,1557.501L656,1556.501L655.997,1560.501L2138.996,1561.501L2139,1557.501ZM2141,1557.501L2139,1557.501L2138.996,1561.501L2140.996,1561.501L2141,1557.501ZM2139,1555.501L2138.998,1559.501L2142.998,1559.503L2143,1555.503L2139,1555.501ZM2139,1557.501L2141,1557.501L2141.002,1553.501L2139.002,1553.501L2139,1557.501ZM656,1556.501L2139,1557.501L2139.002,1553.501L656.002,1552.501L656,1556.501ZM656.002,1600.501L654.002,1600.499L654,1604.499L656,1604.501L656.002,1600.501ZM2139.002,1601.501L656.002,1600.501L656,1604.501L2139,1605.501L2139.002,1601.501ZM2141.002,1601.501L2139.002,1601.501L2139,1605.501L2141,1605.501L2141.002,1601.501ZM2142.998,1607.503L2143,1603.503L2139,1603.501L2138.998,1607.501L2142.998,1607.503ZM2138.996,1609.501L2140.996,1609.501L2141,1605.501L2139,1605.501L2138.996,1609.501ZM655.997,1608.501L2138.996,1609.501L2139,1605.501L656,1604.501L655.997,1608.501ZM653.997,1608.499L655.997,1608.501L656,1604.501L654,1604.499L653.997,1608.499ZM652.001,1602.497L651.998,1606.497L655.998,1606.501L656.001,1602.501L652.001,1602.497ZM654,1652.499L656,1652.501L656.002,1648.501L654.002,1648.499L654,1652.499ZM655.998,1654.501L656.001,1650.501L652.001,1650.497L651.998,1654.497L655.998,1654.501ZM656,1652.501L654,1652.499L653.997,1656.499L655.997,1656.501L656,1652.501ZM2139,1653.501L656,1652.501L655.997,1656.501L2138.996,1657.501L2139,1653.501ZM2141,1653.501L2139,1653.501L2138.996,1657.501L2140.996,1657.501L2141,1653.501ZM2139,1651.501L2138.998,1655.501L2142.998,1655.503L2143,1651.503L2139,1651.501ZM2139,1653.501L2141,1653.501L2141.002,1649.501L2139.002,1649.501L2139,1653.501ZM656,1652.501L2139,1653.501L2139.002,1649.501L656.002,1648.501L656,1652.501ZM656.002,1696.501L654.002,1696.499L654,1700.499L656,1700.501L656.002,1696.501ZM2139.002,1697.501L656.002,1696.501L656,1700.501L2139,1701.501L2139.002,1697.501ZM2141.002,1697.501L2139.002,1697.501L2139,1701.501L2141,1701.501L2141.002,1697.501ZM2142.998,1703.503L2143,1699.503L2139,1699.501L2138.998,1703.501L2142.998,1703.503ZM2138.996,1705.501L2140.996,1705.501L2141,1701.501L2139,1701.501L2138.996,1705.501ZM655.997,1704.501L2138.996,1705.501L2139,1701.501L656,1700.501L655.997,1704.501ZM653.997,1704.499L655.997,1704.501L656,1700.501L654,1700.499L653.997,1704.499ZM652.001,1698.497L651.998,1702.497L655.998,1702.501L656.001,1698.501L652.001,1698.497ZM654,1748.499L656,1748.501L656.002,1744.501L654.002,1744.499L654,1748.499ZM655.998,1750.501L656.001,1746.501L652.001,1746.497L651.998,1750.497L655.998,1750.501ZM656,1748.501L654,1748.499L653.997,1752.499L655.997,1752.501L656,1748.501ZM2139,1749.501L656,1748.501L655.997,1752.501L2138.996,1753.501L2139,1749.501ZM2141,1749.501L2139,1749.501L2138.996,1753.501L2140.996,1753.501L2141,1749.501ZM2139,1747.501L2138.998,1751.501L2142.998,1751.503L2143,1747.503L2139,1747.501ZM2139,1749.501L2141,1749.501L2141.002,1745.501L2139.002,1745.501L2139,1749.501ZM656,1748.501L2139,1749.501L2139.002,1745.501L656.002,1744.501L656,1748.501ZM656.002,1792.501L654.002,1792.499L654,1796.499L656,1796.501L656.002,1792.501ZM2139.002,1793.501L656.002,1792.501L656,1796.501L2139,1797.501L2139.002,1793.501ZM2141.002,1793.501L2139.002,1793.501L2139,1797.501L2141,1797.501L2141.002,1793.501ZM2142.998,1799.503L2143,1795.503L2139,1795.501L2138.998,1799.501L2142.998,1799.503ZM2138.996,1801.501L2140.996,1801.501L2141,1797.501L2139,1797.501L2138.996,1801.501ZM655.997,1800.501L2138.996,1801.501L2139,1797.501L656,1796.501L655.997,1800.501ZM653.997,1800.499L655.997,1800.501L656,1796.501L654,1796.499L653.997,1800.499ZM652.001,1794.497L651.998,1798.497L655.998,1798.501L656.001,1794.501L652.001,1794.497ZM654,1844.499L656,1844.501L656.002,1840.501L654.002,1840.499L654,1844.499ZM655.998,1846.501L656.001,1842.501L652.001,1842.497L651.998,1846.497L655.998,1846.501ZM656,1844.501L654,1844.499L653.997,1848.499L655.997,1848.501L656,1844.501ZM2139,1845.501L656,1844.501L655.997,1848.501L2138.996,1849.501L2139,1845.501ZM2141,1845.501L2139,1845.501L2138.996,1849.501L2140.996,1849.501L2141,1845.501ZM2139,1843.501L2138.998,1847.501L2142.998,1847.503L2143,1843.503L2139,1843.501ZM2139,1845.501L2141,1845.501L2141.002,1841.501L2139.002,1841.501L2139,1845.501ZM656,1844.501L2139,1845.501L2139.002,1841.501L656.002,1840.501L656,1844.501ZM656.002,1888.501L654.002,1888.499L654,1892.499L656,1892.501L656.002,1888.501ZM2139.002,1889.501L656.002,1888.501L656,1892.501L2139,1893.501L2139.002,1889.501ZM2141.002,1889.501L2139.002,1889.501L2139,1893.501L2141,1893.501L2141.002,1889.501ZM2142.998,1895.503L2143,1891.503L2139,1891.501L2138.998,1895.501L2142.998,1895.503ZM2138.996,1897.501L2140.996,1897.501L2141,1893.501L2139,1893.501L2138.996,1897.501ZM655.997,1896.501L2138.996,1897.501L2139,1893.501L656,1892.501L655.997,1896.501ZM653.997,1896.499L655.997,1896.501L656,1892.501L654,1892.499L653.997,1896.499ZM652.001,1890.497L651.998,1894.497L655.998,1894.501L656.001,1890.501L652.001,1890.497ZM654,1940.499L656,1940.501L656.002,1936.501L654.002,1936.499L654,1940.499ZM655.998,1942.501L656.001,1938.501L652.001,1938.497L651.998,1942.497L655.998,1942.501ZM656,1940.501L654,1940.499L653.997,1944.499L655.997,1944.501L656,1940.501ZM2139,1941.501L656,1940.501L655.997,1944.501L2138.996,1945.501L2139,1941.501ZM2141,1941.501L2139,1941.501L2138.996,1945.501L2140.996,1945.501L2141,1941.501ZM2139,1939.501L2138.998,1943.501L2142.998,1943.503L2143,1939.503L2139,1939.501ZM2139,1941.501L2141,1941.501L2141.002,1937.501L2139.002,1937.501L2139,1941.501ZM656,1940.501L2139,1941.501L2139.002,1937.501L656.002,1936.501L656,1940.501ZM656.002,1984.501L654.002,1984.499L654,1988.499L656,1988.501L656.002,1984.501ZM2139.002,1985.501L656.002,1984.501L656,1988.501L2139,1989.501L2139.002,1985.501ZM2141.002,1985.501L2139.002,1985.501L2139,1989.501L2141,1989.501L2141.002,1985.501ZM2142.998,1991.503L2143,1987.503L2139,1987.501L2138.998,1991.501L2142.998,1991.503ZM2138.996,1993.501L2140.996,1993.501L2141,1989.501L2139,1989.501L2138.996,1993.501ZM655.997,1992.501L2138.996,1993.501L2139,1989.501L656,1988.501L655.997,1992.501ZM653.997,1992.499L655.997,1992.501L656,1988.501L654,1988.499L653.997,1992.499ZM652.001,1986.497L651.998,1990.497L655.998,1990.501L656.001,1986.501L652.001,1986.497ZM654,2036.499L656,2036.501L656.002,2032.501L654.002,2032.499L654,2036.499ZM655.998,2038.501L656.001,2034.501L652.001,2034.497L651.998,2038.497L655.998,2038.501ZM656,2036.501L654,2036.499L653.997,2040.499L655.997,2040.501L656,2036.501ZM2139,2037.501L656,2036.501L655.997,2040.501L2138.996,2041.501L2139,2037.501ZM2141,2037.501L2139,2037.501L2138.996,2041.501L2140.996,2041.501L2141,2037.501ZM2139,2035.501L2138.998,2039.501L2142.998,2039.503L2143,2035.503L2139,2035.501ZM2139,2037.501L2141,2037.501L2141.002,2033.501L2139.002,2033.501L2139,2037.501ZM656,2036.501L2139,2037.501L2139.002,2033.501L656.002,2032.501L656,2036.501ZM656.002,2080.501L654.002,2080.499L654,2084.499L656,2084.501L656.002,2080.501ZM2139.002,2081.501L656.002,2080.501L656,2084.501L2139,2085.501L2139.002,2081.501ZM2141.002,2081.501L2139.002,2081.501L2139,2085.501L2141,2085.501L2141.002,2081.501ZM2142.998,2087.503L2143,2083.503L2139,2083.501L2138.998,2087.501L2142.998,2087.503ZM2138.996,2089.501L2140.996,2089.501L2141,2085.501L2139,2085.501L2138.996,2089.501ZM655.997,2088.501L2138.996,2089.501L2139,2085.501L656,2084.501L655.997,2088.501ZM653.997,2088.499L655.997,2088.501L656,2084.501L654,2084.499L653.997,2088.499ZM652.001,2082.497L651.998,2086.497L655.998,2086.501L656.001,2082.501L652.001,2082.497ZM654,2132.499L656,2132.501L656.002,2128.501L654.002,2128.499L654,2132.499ZM655.998,2134.501L656.001,2130.501L652.001,2130.497L651.998,2134.497L655.998,2134.501ZM656,2132.501L654,2132.499L653.997,2136.499L655.997,2136.501L656,2132.501ZM2139,2133.501L656,2132.501L655.997,2136.501L2138.996,2137.501L2139,2133.501ZM2141,2133.501L2139,2133.501L2138.996,2137.501L2140.996,2137.501L2141,2133.501ZM2139,2131.501L2138.998,2135.501L2142.998,2135.503L2143,2131.503L2139,2131.501ZM2139,2133.501L2141,2133.501L2141.002,2129.501L2139.002,2129.501L2139,2133.501ZM656,2132.501L2139,2133.501L2139.002,2129.501L656.002,2128.501L656,2132.501Z" transform="rotate(90 1397.5 1725)" fill="#000000"/>
</g>
<circle cx="1934" cy="1958" r="228" fill="#009EFF"/>
</svg>
