<svg width="1562" height="1562" viewBox="0 0 1562 1562" fill="none" xmlns="http://www.w3.org/2000/svg" xmlns:xlink="http://www.w3.org/1999/xlink">
<mask id="mask_0_78_2957" style="mask-type:alpha" maskUnits="userSpaceOnUse" x="60" y="628" width="720" height="152">
<rect  x="60" y="628" width="1440" height="304" fill="#E29F72"/>
</mask>
<mask id="mask_0_78_2961" style="mask-type:alpha" maskUnits="userSpaceOnUse" x="480" y="662" width="200" height="200">
<circle cx="680" cy="862" r="200" fill="#000000"/>
</mask>
<rect  x="944.402" y="0" width="871" height="1337" rx="80" transform="rotate(90 944.402 0)" fill="#009EFF"/>
<g mask="url(#mask_0_78_2961)">
<path d="M326.001,657.249L326.002,656.249L325.002,656.248L325.001,657.248L326.001,657.249ZM327.001,657.25L327.002,656.25L327.001,657.25ZM326,659.249L325,659.248L324.999,660.248L325.999,660.249L326,659.249ZM327,659.25L327,658.25L327,658.25L327,659.25ZM1068.499,659.75L1068.501,658.75L1068.501,658.75L1068.499,659.75ZM1069.499,659.75L1069.499,660.75L1070.499,660.751L1070.499,659.751L1069.499,659.75ZM1069.501,657.75L1070.501,657.751L1070.501,656.751L1069.501,656.75L1069.501,657.75ZM1068.501,657.75L1068.501,658.75L1068.501,657.75ZM326.001,681.249L326.001,680.249L325.001,680.248L325.001,681.248L326.001,681.249ZM327.001,681.249L327.001,680.249L327.001,680.249L327.001,681.249ZM325.999,683.249L324.999,683.248L324.999,684.248L325.999,684.249L325.999,683.249ZM326.999,683.249L326.999,684.249L326.999,684.249L326.999,683.249ZM1068.499,683.749L1068.499,684.749L1068.499,684.749L1068.499,683.749ZM1069.499,683.75L1069.499,684.75L1070.499,684.751L1070.499,683.751L1069.499,683.75ZM1069.501,681.75L1070.501,681.751L1070.501,680.751L1069.501,680.75L1069.501,681.75ZM1068.501,681.749L1068.501,680.749L1068.501,680.749L1068.501,681.749ZM327.001,705.25L327,706.25L327,706.25L327.001,705.25ZM326.001,705.249L326.001,704.249L325.001,704.248L325.001,705.248L326.001,705.249ZM1068.501,705.75L1068.501,704.75L1068.501,704.75L1068.501,705.75ZM1069.501,705.75L1070.501,705.751L1070.501,704.751L1069.501,704.75L1069.501,705.75ZM1069.499,707.75L1069.499,708.75L1070.499,708.751L1070.499,707.751L1069.499,707.75ZM1068.499,707.75L1068.501,706.75L1068.501,706.75L1068.499,707.75ZM326.999,707.25L326.999,708.25L326.999,708.25L326.999,707.25ZM325.999,707.249L324.999,707.248L324.999,708.248L325.999,708.249L325.999,707.249ZM326.001,729.249L326.002,728.249L325.002,728.248L325.001,729.248L326.001,729.249ZM327.001,729.25L327.002,728.25L327.002,728.25L327.001,729.25ZM326,731.249L325,731.248L324.999,732.248L325.999,732.249L326,731.249ZM327,731.25L327,730.25L327,730.25L327,731.25ZM1068.499,731.75L1068.499,732.75L1068.499,732.75L1068.499,731.75ZM1069.499,731.75L1069.499,732.75L1070.499,732.751L1070.499,731.751L1069.499,731.75ZM1069.501,729.75L1070.501,729.751L1070.501,728.751L1069.501,728.75L1069.501,729.75ZM1068.501,729.75L1068.501,730.75L1068.501,730.75L1068.501,729.75ZM327.001,753.25L327.002,752.25L327.002,752.25L327.001,753.25ZM326.001,753.249L326.002,752.249L325.002,752.248L325.001,753.248L326.001,753.249ZM1068.501,753.75L1068.501,754.75L1068.501,754.75L1068.501,753.75ZM1069.501,753.75L1070.501,753.751L1070.501,752.751L1069.501,752.75L1069.501,753.75ZM1069.499,755.75L1069.499,756.75L1070.499,756.751L1070.499,755.751L1069.499,755.75ZM1068.499,755.75L1068.499,756.75L1068.499,756.75L1068.499,755.75ZM327,755.25L327,754.25L327,754.25L327,755.25ZM326,755.249L325,755.248L324.999,756.248L325.999,756.249L326,755.249ZM326,777.248L326.001,776.248L325.001,776.248L325,777.248L326,777.248ZM327,777.249L327.001,776.249L327.001,776.249L327,777.249ZM325.999,779.248L324.999,779.248L324.998,780.248L325.998,780.248L325.999,779.248ZM326.999,779.249L327,778.249L327,778.249L326.999,779.249ZM1068.499,779.749L1068.499,780.749L1068.499,780.749L1068.499,779.749ZM1069.499,779.75L1069.499,780.75L1070.499,780.75L1070.499,779.75L1069.499,779.75ZM1069.501,777.75L1070.501,777.75L1070.501,776.75L1069.501,776.75L1069.501,777.75ZM1068.501,777.749L1068.499,778.749L1068.499,778.749L1068.501,777.749ZM327.001,801.25L327.001,800.25L327.001,800.25L327.001,801.25ZM326.001,801.249L326.001,800.249L325.001,800.248L325.001,801.248L326.001,801.249ZM1068.501,801.75L1068.501,802.75L1068.501,802.75L1068.501,801.75ZM1069.501,801.75L1070.501,801.751L1070.501,800.751L1069.501,800.75L1069.501,801.75ZM1069.499,803.75L1069.499,804.75L1070.499,804.751L1070.499,803.751L1069.499,803.75ZM1068.499,803.75L1068.499,804.75L1068.499,804.75L1068.499,803.75ZM326.999,803.25L327,802.25L327,802.25L326.999,803.25ZM325.999,803.249L324.999,803.248L324.999,804.248L325.999,804.249L325.999,803.249ZM326.001,825.249L326.002,824.249L325.002,824.248L325.001,825.248L326.001,825.249ZM327.001,825.25L327.002,824.25L327.002,824.25L327.001,825.25ZM326,827.249L325,827.248L324.999,828.248L325.999,828.249L326,827.249ZM327,827.25L327,826.25L327,826.25L327,827.25ZM1068.499,827.75L1068.499,828.75L1068.499,828.75L1068.499,827.75ZM1069.499,827.75L1069.499,828.75L1070.499,828.751L1070.499,827.751L1069.499,827.75ZM1069.501,825.75L1070.501,825.751L1070.501,824.751L1069.501,824.75L1069.501,825.75ZM1068.501,825.75L1068.501,826.75L1068.501,826.75L1068.501,825.75ZM327.001,849.249L327.001,848.249L327.001,848.249L327.001,849.249ZM326.001,849.249L326.001,848.249L325.001,848.248L325.001,849.248L326.001,849.249ZM1068.501,849.749L1068.499,850.749L1068.499,850.749L1068.501,849.749ZM1069.501,849.75L1070.501,849.751L1070.501,848.751L1069.501,848.75L1069.501,849.75ZM1069.499,851.75L1069.499,852.75L1070.499,852.751L1070.499,851.751L1069.499,851.75ZM1068.499,851.749L1068.499,852.749L1068.499,852.749L1068.499,851.749ZM326.999,851.249L327,850.249L327,850.249L326.999,851.249ZM325.999,851.249L324.999,851.248L324.999,852.248L325.999,852.249L325.999,851.249ZM326.001,873.249L326.001,872.249L325.001,872.249L325.001,873.249L326.001,873.249ZM327.001,873.249L327.001,872.249L327.001,872.249L327.001,873.249ZM325.999,875.249L324.999,875.249L324.999,876.249L325.999,876.249L325.999,875.249ZM326.999,875.249L327,874.249L327,874.249L326.999,875.249ZM1068.499,875.749L1068.499,876.749L1068.499,876.749L1068.499,875.749ZM1069.499,875.751L1069.499,876.751L1070.499,876.751L1070.499,875.751L1069.499,875.751ZM1069.501,873.751L1070.501,873.751L1070.501,872.751L1069.501,872.751L1069.501,873.751ZM1068.501,873.749L1068.501,874.749L1068.501,874.749L1068.501,873.749ZM327.001,897.249L327.002,896.249L327.002,896.249L327.001,897.249ZM326.001,897.249L326.002,896.249L325.002,896.249L325.001,897.249L326.001,897.249ZM1068.501,897.749L1068.501,898.749L1068.501,898.749L1068.501,897.749ZM1069.501,897.751L1070.501,897.751L1070.501,896.751L1069.501,896.751L1069.501,897.751ZM1069.499,899.751L1069.499,900.751L1070.499,900.751L1070.499,899.751L1069.499,899.751ZM1068.499,899.749L1068.499,900.749L1068.499,900.749L1068.499,899.749ZM327,899.249L327,898.249L327,898.249L327,899.249ZM326,899.249L325,899.249L324.999,900.249L325.999,900.249L326,899.249ZM326.001,921.249L326.002,920.249L325.002,920.249L325.001,921.249L326.001,921.249ZM327.001,921.249L327.002,920.249L327.002,920.249L327.001,921.249ZM326,923.249L325,923.249L324.999,924.249L325.999,924.249L326,923.249ZM327,923.249L327,922.249L327,922.249L327,923.249ZM1068.499,923.749L1068.499,924.749L1068.499,924.749L1068.499,923.749ZM1069.499,923.751L1069.499,924.751L1070.499,924.751L1070.499,923.751L1069.499,923.751ZM1069.501,921.751L1070.501,921.751L1070.501,920.751L1069.501,920.751L1069.501,921.751ZM1068.501,921.749L1068.501,922.749L1068.501,922.749L1068.501,921.749ZM327,945.249L327.001,944.249L327.001,944.249L327,945.249ZM326,945.249L326.001,944.249L325.001,944.247L325,945.247L326,945.249ZM1068.501,945.749L1068.499,946.749L1068.499,946.749L1068.501,945.749ZM1069.501,945.749L1070.501,945.751L1070.501,944.751L1069.501,944.749L1069.501,945.749ZM1069.499,947.749L1069.499,948.749L1070.499,948.751L1070.499,947.751L1069.499,947.749ZM1068.499,947.749L1068.499,948.749L1068.499,948.749L1068.499,947.749ZM326.999,947.249L327,946.249L327,946.249L326.999,947.249ZM325.999,947.249L324.999,947.247L324.998,948.247L325.998,948.249L325.999,947.249ZM326.001,969.249L326.002,968.249L325.002,968.249L325.001,969.249L326.001,969.249ZM327.001,969.249L327.002,968.249L327.002,968.249L327.001,969.249ZM325.999,971.249L324.999,971.249L324.999,972.249L325.999,972.249L325.999,971.249ZM326.999,971.249L327,970.249L327,970.249L326.999,971.249ZM1068.499,971.749L1068.499,972.749L1068.499,972.749L1068.499,971.749ZM1069.499,971.751L1069.499,972.751L1070.499,972.751L1070.499,971.751L1069.499,971.751ZM1069.501,969.751L1070.501,969.751L1070.501,968.751L1069.501,968.751L1069.501,969.751ZM1068.501,969.749L1068.501,970.749L1068.501,970.749L1068.501,969.749ZM327.001,993.249L327.002,992.249L327.002,992.249L327.001,993.249ZM326.001,993.249L326.002,992.249L325.002,992.249L325.001,993.249L326.001,993.249ZM1068.501,993.749L1068.501,994.749L1068.501,994.749L1068.501,993.749ZM1069.501,993.751L1070.501,993.751L1070.501,992.751L1069.501,992.751L1069.501,993.751ZM1069.499,995.751L1069.499,996.751L1070.499,996.751L1070.499,995.751L1069.499,995.751ZM1068.499,995.749L1068.499,996.749L1068.499,996.749L1068.499,995.749ZM327,995.249L327,994.249L327,994.249L327,995.249ZM326,995.249L325,995.249L324.999,996.249L325.999,996.249L326,995.249ZM326.001,1017.249L326.001,1016.249L325.001,1016.249L325.001,1017.249L326.001,1017.249ZM327.001,1017.249L327.001,1016.249L327.001,1016.249L327.001,1017.249ZM325.999,1019.249L324.999,1019.249L324.999,1020.249L325.999,1020.249L325.999,1019.249ZM326.999,1019.249L327,1018.249L327,1018.249L326.999,1019.249ZM1068.499,1019.749L1068.499,1020.749L1068.499,1020.749L1068.499,1019.749ZM1069.499,1019.751L1069.499,1020.751L1070.499,1020.751L1070.499,1019.751L1069.499,1019.751ZM1069.501,1017.751L1070.501,1017.751L1070.501,1016.751L1069.501,1016.751L1069.501,1017.751ZM1068.501,1017.749L1068.499,1018.749L1068.499,1018.749L1068.501,1017.749ZM327.001,1041.249L327.001,1040.249L327.001,1040.249L327.001,1041.249ZM326.001,1041.249L326.001,1040.249L325.001,1040.249L325.001,1041.249L326.001,1041.249ZM1068.501,1041.749L1068.501,1042.749L1068.501,1042.749L1068.501,1041.749ZM1069.501,1041.751L1070.501,1041.751L1070.501,1040.751L1069.501,1040.751L1069.501,1041.751ZM1069.499,1043.751L1069.499,1044.751L1070.499,1044.751L1070.499,1043.751L1069.499,1043.751ZM1068.499,1043.749L1068.499,1044.749L1068.499,1044.749L1068.499,1043.749ZM326.999,1043.249L327,1042.249L327,1042.249L326.999,1043.249ZM325.999,1043.249L324.999,1043.249L324.999,1044.249L325.999,1044.249L325.999,1043.249ZM326.001,1065.249L326.002,1064.249L325.002,1064.249L325.001,1065.249L326.001,1065.249ZM327.001,1065.249L327.002,1064.249L327.002,1064.249L327.001,1065.249ZM326,1067.249L325,1067.249L324.999,1068.249L325.999,1068.249L326,1067.249ZM327,1067.249L327,1066.249L327,1066.249L327,1067.249ZM1068.499,1067.749L1068.499,1068.749L1068.499,1068.749L1068.499,1067.749ZM1069.499,1067.751L1069.499,1068.751L1070.499,1068.751L1070.499,1067.751L1069.499,1067.751ZM1069.501,1065.751L1070.501,1065.751L1070.501,1064.751L1069.501,1064.751L1069.501,1065.751ZM1068.501,1065.749L1068.501,1066.749L1068.501,1066.749L1068.501,1065.749ZM326,658.249L327,658.25L327.002,656.25L326.002,656.249L326,658.249ZM327,659.25L327.001,657.25L325.001,657.248L325,659.248L327,659.25ZM327,658.25L326,658.249L325.999,660.249L326.999,660.25L327,658.25ZM1068.501,658.75L327,658.25L326.999,660.25L1068.499,660.75L1068.501,658.75ZM1069.501,658.75L1068.501,658.75L1068.499,660.75L1069.499,660.75L1069.501,658.75ZM1068.501,657.75L1068.499,659.75L1070.499,659.751L1070.501,657.751L1068.501,657.75ZM1068.501,658.75L1069.501,658.75L1069.501,656.75L1068.501,656.75L1068.501,658.75ZM327,658.25L1068.501,658.75L1068.501,656.75L327.002,656.25L327,658.25ZM326,682.249L327,682.249L327.001,680.249L326.001,680.249L326,682.249ZM326.999,683.249L327.001,681.249L325.001,681.248L324.999,683.248L326.999,683.249ZM327,682.249L326,682.249L325.999,684.249L326.999,684.249L327,682.249ZM1068.499,682.749L327,682.249L326.999,684.249L1068.499,684.749L1068.499,682.749ZM1069.499,682.75L1068.499,682.749L1068.499,684.749L1069.499,684.75L1069.499,682.75ZM1068.501,681.749L1068.499,683.749L1070.499,683.751L1070.501,681.751L1068.501,681.749ZM1068.499,682.749L1069.499,682.75L1069.501,680.75L1068.501,680.749L1068.499,682.749ZM327,682.249L1068.499,682.749L1068.501,680.749L327.001,680.249L327,682.249ZM327.001,704.25L326.001,704.249L326,706.249L327,706.25L327.001,704.25ZM1068.501,704.75L327.001,704.25L327,706.25L1068.501,706.75L1068.501,704.75ZM1069.501,704.75L1068.501,704.75L1068.501,706.75L1069.501,706.75L1069.501,704.75ZM1070.499,707.751L1070.501,705.751L1068.501,705.75L1068.499,707.75L1070.499,707.751ZM1068.499,708.75L1069.499,708.75L1069.501,706.75L1068.501,706.75L1068.499,708.75ZM326.999,708.25L1068.499,708.75L1068.501,706.75L327,706.25L326.999,708.25ZM325.999,708.249L326.999,708.25L327,706.25L326,706.249L325.999,708.249ZM325.001,705.248L324.999,707.248L326.999,707.25L327.001,705.25L325.001,705.248ZM326,730.249L327,730.25L327.002,728.25L326.002,728.249L326,730.249ZM327,731.25L327.001,729.25L325.001,729.248L325,731.248L327,731.25ZM327,730.25L326,730.249L325.999,732.249L326.999,732.25L327,730.25ZM1068.501,730.75L327,730.25L326.999,732.25L1068.499,732.75L1068.501,730.75ZM1069.501,730.75L1068.501,730.75L1068.499,732.75L1069.499,732.75L1069.501,730.75ZM1068.501,729.75L1068.499,731.75L1070.499,731.751L1070.501,729.751L1068.501,729.75ZM1068.501,730.75L1069.501,730.75L1069.501,728.75L1068.501,728.75L1068.501,730.75ZM327,730.25L1068.501,730.75L1068.501,728.75L327.002,728.25L327,730.25ZM327.002,752.25L326.002,752.249L326,754.249L327,754.25L327.002,752.25ZM1068.501,752.75L327.002,752.25L327,754.25L1068.501,754.75L1068.501,752.75ZM1069.501,752.75L1068.501,752.75L1068.501,754.75L1069.501,754.75L1069.501,752.75ZM1070.499,755.751L1070.501,753.751L1068.501,753.75L1068.499,755.75L1070.499,755.751ZM1068.499,756.75L1069.499,756.75L1069.501,754.75L1068.501,754.75L1068.499,756.75ZM326.999,756.25L1068.499,756.75L1068.501,754.75L327,754.25L326.999,756.25ZM325.999,756.249L326.999,756.25L327,754.25L326,754.249L325.999,756.249ZM325.001,753.248L325,755.248L327,755.25L327.001,753.25L325.001,753.248ZM326,778.248L327,778.249L327.001,776.249L326.001,776.248L326,778.248ZM326.999,779.249L327,777.249L325,777.248L324.999,779.248L326.999,779.249ZM327,778.249L326,778.248L325.998,780.248L326.998,780.249L327,778.249ZM1068.499,778.749L327,778.249L326.998,780.249L1068.499,780.749L1068.499,778.749ZM1069.499,778.75L1068.499,778.749L1068.499,780.749L1069.499,780.75L1069.499,778.75ZM1068.501,777.749L1068.499,779.749L1070.499,779.75L1070.501,777.75L1068.501,777.749ZM1068.499,778.749L1069.499,778.75L1069.501,776.75L1068.501,776.749L1068.499,778.749ZM327,778.249L1068.499,778.749L1068.501,776.749L327.001,776.249L327,778.249ZM327.001,800.25L326.001,800.249L326,802.249L327,802.25L327.001,800.25ZM1068.501,800.75L327.001,800.25L327,802.25L1068.501,802.75L1068.501,800.75ZM1069.501,800.75L1068.501,800.75L1068.501,802.75L1069.501,802.75L1069.501,800.75ZM1070.499,803.751L1070.501,801.751L1068.501,801.75L1068.499,803.75L1070.499,803.751ZM1068.499,804.75L1069.499,804.75L1069.501,802.75L1068.501,802.75L1068.499,804.75ZM326.999,804.25L1068.499,804.75L1068.501,802.75L327,802.25L326.999,804.25ZM325.999,804.249L326.999,804.25L327,802.25L326,802.249L325.999,804.249ZM325.001,801.248L324.999,803.248L326.999,803.25L327.001,801.25L325.001,801.248ZM326,826.249L327,826.25L327.002,824.25L326.002,824.249L326,826.249ZM327,827.25L327.001,825.25L325.001,825.248L325,827.248L327,827.25ZM327,826.25L326,826.249L325.999,828.249L326.999,828.25L327,826.25ZM1068.501,826.75L327,826.25L326.999,828.25L1068.499,828.75L1068.501,826.75ZM1069.501,826.75L1068.501,826.75L1068.499,828.75L1069.499,828.75L1069.501,826.75ZM1068.501,825.75L1068.499,827.75L1070.499,827.751L1070.501,825.751L1068.501,825.75ZM1068.501,826.75L1069.501,826.75L1069.501,824.75L1068.501,824.75L1068.501,826.75ZM327,826.25L1068.501,826.75L1068.501,824.75L327.002,824.25L327,826.25ZM327.001,848.249L326.001,848.249L326,850.249L327,850.249L327.001,848.249ZM1068.501,848.749L327.001,848.249L327,850.249L1068.499,850.749L1068.501,848.749ZM1069.501,848.75L1068.501,848.749L1068.499,850.749L1069.499,850.75L1069.501,848.75ZM1070.499,851.751L1070.501,849.751L1068.501,849.749L1068.499,851.749L1070.499,851.751ZM1068.499,852.749L1069.499,852.75L1069.499,850.75L1068.499,850.749L1068.499,852.749ZM326.999,852.249L1068.499,852.749L1068.499,850.749L327,850.249L326.999,852.249ZM325.999,852.249L326.999,852.249L327,850.249L326,850.249L325.999,852.249ZM325.001,849.248L324.999,851.248L326.999,851.249L327.001,849.249L325.001,849.248ZM326,874.249L327,874.249L327.001,872.249L326.001,872.249L326,874.249ZM326.999,875.249L327.001,873.249L325.001,873.249L324.999,875.249L326.999,875.249ZM327,874.249L326,874.249L325.999,876.249L326.999,876.249L327,874.249ZM1068.501,874.749L327,874.249L326.999,876.249L1068.499,876.749L1068.501,874.749ZM1069.501,874.751L1068.501,874.749L1068.499,876.749L1069.499,876.751L1069.501,874.751ZM1068.501,873.749L1068.499,875.749L1070.499,875.751L1070.501,873.751L1068.501,873.749ZM1068.501,874.749L1069.501,874.751L1069.501,872.751L1068.501,872.749L1068.501,874.749ZM327,874.249L1068.501,874.749L1068.501,872.749L327.001,872.249L327,874.249ZM327.002,896.249L326.002,896.249L326,898.249L327,898.249L327.002,896.249ZM1068.501,896.749L327.002,896.249L327,898.249L1068.501,898.749L1068.501,896.749ZM1069.501,896.751L1068.501,896.749L1068.501,898.749L1069.501,898.751L1069.501,896.751ZM1070.499,899.751L1070.501,897.751L1068.501,897.749L1068.499,899.749L1070.499,899.751ZM1068.499,900.749L1069.499,900.751L1069.501,898.751L1068.501,898.749L1068.499,900.749ZM326.999,900.249L1068.499,900.749L1068.501,898.749L327,898.249L326.999,900.249ZM325.999,900.249L326.999,900.249L327,898.249L326,898.249L325.999,900.249ZM325.001,897.249L325,899.249L327,899.249L327.001,897.249L325.001,897.249ZM326,922.249L327,922.249L327.002,920.249L326.002,920.249L326,922.249ZM327,923.249L327.001,921.249L325.001,921.249L325,923.249L327,923.249ZM327,922.249L326,922.249L325.999,924.249L326.999,924.249L327,922.249ZM1068.501,922.749L327,922.249L326.999,924.249L1068.499,924.749L1068.501,922.749ZM1069.501,922.751L1068.501,922.749L1068.499,924.749L1069.499,924.751L1069.501,922.751ZM1068.501,921.749L1068.499,923.749L1070.499,923.751L1070.501,921.751L1068.501,921.749ZM1068.501,922.749L1069.501,922.751L1069.501,920.751L1068.501,920.749L1068.501,922.749ZM327,922.249L1068.501,922.749L1068.501,920.749L327.002,920.249L327,922.249ZM327.001,944.249L326.001,944.249L326,946.249L327,946.249L327.001,944.249ZM1068.501,944.749L327.001,944.249L327,946.249L1068.499,946.749L1068.501,944.749ZM1069.501,944.749L1068.501,944.749L1068.499,946.749L1069.499,946.749L1069.501,944.749ZM1070.499,947.751L1070.501,945.751L1068.501,945.749L1068.499,947.749L1070.499,947.751ZM1068.499,948.749L1069.499,948.749L1069.499,946.749L1068.499,946.749L1068.499,948.749ZM326.998,948.249L1068.499,948.749L1068.499,946.749L327,946.249L326.998,948.249ZM325.998,948.249L326.998,948.249L327,946.249L326,946.249L325.998,948.249ZM325,945.247L324.999,947.247L326.999,947.249L327,945.249L325,945.247ZM326,970.249L327,970.249L327.002,968.249L326.002,968.249L326,970.249ZM326.999,971.249L327.001,969.249L325.001,969.249L324.999,971.249L326.999,971.249ZM327,970.249L326,970.249L325.999,972.249L326.999,972.249L327,970.249ZM1068.501,970.749L327,970.249L326.999,972.249L1068.499,972.749L1068.501,970.749ZM1069.501,970.751L1068.501,970.749L1068.499,972.749L1069.499,972.751L1069.501,970.751ZM1068.501,969.749L1068.499,971.749L1070.499,971.751L1070.501,969.751L1068.501,969.749ZM1068.501,970.749L1069.501,970.751L1069.501,968.751L1068.501,968.749L1068.501,970.749ZM327,970.249L1068.501,970.749L1068.501,968.749L327.002,968.249L327,970.249ZM327.002,992.249L326.002,992.249L326,994.249L327,994.249L327.002,992.249ZM1068.501,992.749L327.002,992.249L327,994.249L1068.501,994.749L1068.501,992.749ZM1069.501,992.751L1068.501,992.749L1068.501,994.749L1069.501,994.751L1069.501,992.751ZM1070.499,995.751L1070.501,993.751L1068.501,993.749L1068.499,995.749L1070.499,995.751ZM1068.499,996.749L1069.499,996.751L1069.501,994.751L1068.501,994.749L1068.499,996.749ZM326.999,996.249L1068.499,996.749L1068.501,994.749L327,994.249L326.999,996.249ZM325.999,996.249L326.999,996.249L327,994.249L326,994.249L325.999,996.249ZM325.001,993.249L325,995.249L327,995.249L327.001,993.249L325.001,993.249ZM326,1018.249L327,1018.249L327.001,1016.249L326.001,1016.249L326,1018.249ZM326.999,1019.249L327.001,1017.249L325.001,1017.249L324.999,1019.249L326.999,1019.249ZM327,1018.249L326,1018.249L325.999,1020.249L326.999,1020.249L327,1018.249ZM1068.499,1018.749L327,1018.249L326.999,1020.249L1068.499,1020.749L1068.499,1018.749ZM1069.499,1018.751L1068.499,1018.749L1068.499,1020.749L1069.499,1020.751L1069.499,1018.751ZM1068.501,1017.749L1068.499,1019.749L1070.499,1019.751L1070.501,1017.751L1068.501,1017.749ZM1068.499,1018.749L1069.499,1018.751L1069.501,1016.751L1068.501,1016.749L1068.499,1018.749ZM327,1018.249L1068.499,1018.749L1068.501,1016.749L327.001,1016.249L327,1018.249ZM327.001,1040.249L326.001,1040.249L326,1042.249L327,1042.249L327.001,1040.249ZM1068.501,1040.749L327.001,1040.249L327,1042.249L1068.501,1042.749L1068.501,1040.749ZM1069.501,1040.751L1068.501,1040.749L1068.501,1042.749L1069.501,1042.751L1069.501,1040.751ZM1070.499,1043.751L1070.501,1041.751L1068.501,1041.749L1068.499,1043.749L1070.499,1043.751ZM1068.499,1044.749L1069.499,1044.751L1069.501,1042.751L1068.501,1042.749L1068.499,1044.749ZM326.999,1044.249L1068.499,1044.749L1068.501,1042.749L327,1042.249L326.999,1044.249ZM325.999,1044.249L326.999,1044.249L327,1042.249L326,1042.249L325.999,1044.249ZM325.001,1041.249L324.999,1043.249L326.999,1043.249L327.001,1041.249L325.001,1041.249ZM326,1066.249L327,1066.249L327.002,1064.249L326.002,1064.249L326,1066.249ZM327,1067.249L327.001,1065.249L325.001,1065.249L325,1067.249L327,1067.249ZM327,1066.249L326,1066.249L325.999,1068.249L326.999,1068.249L327,1066.249ZM1068.501,1066.749L327,1066.249L326.999,1068.249L1068.499,1068.749L1068.501,1066.749ZM1069.501,1066.751L1068.501,1066.749L1068.499,1068.749L1069.499,1068.751L1069.501,1066.751ZM1068.501,1065.749L1068.499,1067.749L1070.499,1067.751L1070.501,1065.751L1068.501,1065.749ZM1068.501,1066.749L1069.501,1066.751L1069.501,1064.751L1068.501,1064.749L1068.501,1066.749ZM327,1066.249L1068.501,1066.749L1068.501,1064.749L327.002,1064.249L327,1066.249Z" transform="rotate(90 697.75 862.5)" fill="#000000"/>
</g>
<circle cx="966" cy="979" r="114" fill="#009EFF"/>
</svg>
