<svg width="4138" height="3124" viewBox="0 0 4138 3124" fill="none" xmlns="http://www.w3.org/2000/svg" xmlns:xlink="http://www.w3.org/1999/xlink">
<mask id="mask_0_54_2327" style="mask-type:alpha" maskUnits="userSpaceOnUse" x="1014" y="1256" width="375" height="352">
<rect  x="1014" y="1256" width="750" height="704" fill="#E29F72"/>
</mask>
<mask id="mask_0_54_2332" style="mask-type:alpha" maskUnits="userSpaceOnUse" x="310" y="1324" width="400" height="400">
<circle cx="710" cy="1724" r="400" fill="#000000"/>
</mask>
<rect  x="2904.512" y="-0.291" width="1742" height="2674" rx="160" transform="rotate(90 2904.512 -0.291)" fill="#009EFF"/>
<circle cx="1794" cy="1788" r="122" fill="#E3E2CD"/>
<g mask="url(#mask_0_54_2332)">
<path d="M2.001,1314.498L2.002,1312.498L0.002,1312.496L0.001,1314.496L2.001,1314.498ZM4.001,1314.499L4.002,1312.499L4.001,1314.499ZM1.998,1318.498L-0.002,1318.496L-0.003,1320.496L1.997,1320.498L1.998,1318.498ZM3.998,1318.499L4,1316.499L4,1316.499L3.998,1318.499ZM1486.999,1319.499L1486.997,1321.499L1486.997,1321.499L1486.999,1319.499ZM1488.999,1319.5L1488.997,1321.5L1490.997,1321.502L1490.999,1319.502L1488.999,1319.5ZM1489.001,1315.5L1491.001,1315.502L1491.003,1313.502L1489.003,1313.5L1489.001,1315.5ZM1487.001,1315.499L1486.999,1317.499L1487.001,1315.499ZM2.001,1362.498L2.002,1360.498L0.002,1360.497L0.001,1362.497L2.001,1362.498ZM4.001,1362.5L4.002,1360.5L4.002,1360.5L4.001,1362.5ZM1.998,1366.498L-0.002,1366.497L-0.003,1368.497L1.997,1368.498L1.998,1366.498ZM3.998,1366.5L3.997,1368.5L3.997,1368.5L3.998,1366.5ZM1486.999,1367.5L1486.997,1369.5L1486.997,1369.5L1486.999,1367.5ZM1488.999,1367.501L1488.997,1369.501L1490.997,1369.502L1490.999,1367.502L1488.999,1367.501ZM1489.001,1363.501L1491.001,1363.502L1491.003,1361.502L1489.003,1361.501L1489.001,1363.501ZM1487.001,1363.5L1487.003,1361.5L1487.003,1361.5L1487.001,1363.5ZM4.002,1410.499L4,1412.499L4,1412.499L4.002,1410.499ZM2.002,1410.498L2.003,1408.498L0.003,1408.497L0.002,1410.497L2.002,1410.498ZM1487.001,1411.499L1487.003,1409.499L1487.003,1409.499L1487.001,1411.499ZM1489.001,1411.501L1491.001,1411.502L1491.003,1409.502L1489.003,1409.501L1489.001,1411.501ZM1488.999,1415.501L1488.997,1417.501L1490.997,1417.502L1490.999,1415.502L1488.999,1415.501ZM1486.999,1415.499L1487.001,1413.499L1487.001,1413.499L1486.999,1415.499ZM3.999,1414.499L3.998,1416.499L3.998,1416.499L3.999,1414.499ZM1.999,1414.498L-0.001,1414.497L-0.002,1416.497L1.998,1416.498L1.999,1414.498ZM2.002,1458.498L2.003,1456.498L0.003,1456.497L0.002,1458.497L2.002,1458.498ZM4.002,1458.5L4.003,1456.5L4.003,1456.5L4.002,1458.5ZM1.999,1462.498L-0.001,1462.497L-0.002,1464.497L1.998,1464.498L1.999,1462.498ZM3.999,1462.5L4,1460.5L4,1460.5L3.999,1462.5ZM1486.999,1463.5L1486.997,1465.5L1486.997,1465.5L1486.999,1463.5ZM1488.999,1463.501L1488.997,1465.501L1490.997,1465.502L1490.999,1463.502L1488.999,1463.501ZM1489.001,1459.501L1491.001,1459.502L1491.003,1457.502L1489.003,1457.501L1489.001,1459.501ZM1487.001,1459.5L1487.001,1461.5L1487.001,1461.5L1487.001,1459.5ZM4.002,1506.5L4.003,1504.5L4.003,1504.5L4.002,1506.5ZM2.002,1506.499L2.003,1504.499L0.003,1504.497L0.002,1506.497L2.002,1506.499ZM1487.001,1507.5L1487.001,1509.5L1487.001,1509.5L1487.001,1507.5ZM1489.001,1507.501L1491.001,1507.503L1491.003,1505.503L1489.003,1505.501L1489.001,1507.501ZM1488.999,1511.501L1488.997,1513.501L1490.997,1513.503L1490.999,1511.503L1488.999,1511.501ZM1486.999,1511.5L1486.997,1513.5L1486.997,1513.5L1486.999,1511.5ZM3.999,1510.5L4,1508.5L4,1508.5L3.999,1510.5ZM1.999,1510.499L-0.001,1510.497L-0.002,1512.497L1.998,1512.499L1.999,1510.499ZM2,1554.498L2.002,1552.498L0.002,1552.496L0,1554.496L2,1554.498ZM4,1554.5L4.002,1552.5L4.002,1552.5L4,1554.5ZM1.998,1558.498L-0.002,1558.496L-0.004,1560.496L1.996,1560.498L1.998,1558.498ZM3.998,1558.5L3.999,1556.5L3.999,1556.5L3.998,1558.5ZM1486.997,1559.5L1486.997,1561.5L1486.997,1561.5L1486.997,1559.5ZM1488.997,1559.5L1488.997,1561.5L1490.997,1561.502L1490.997,1559.502L1488.997,1559.5ZM1489.001,1555.5L1491.001,1555.502L1491.001,1553.502L1489.001,1553.5L1489.001,1555.5ZM1487.001,1555.5L1486.999,1557.5L1486.999,1557.5L1487.001,1555.5ZM4.002,1602.5L4.004,1600.5L4.004,1600.5L4.002,1602.5ZM2.002,1602.5L2.004,1600.5L0.004,1600.498L0.002,1602.498L2.002,1602.5ZM1487.003,1603.5L1487.001,1605.5L1487.001,1605.5L1487.003,1603.5ZM1489.003,1603.502L1491.003,1603.504L1491.003,1601.504L1489.003,1601.502L1489.003,1603.502ZM1488.999,1607.502L1488.999,1609.502L1490.999,1609.504L1490.999,1607.504L1488.999,1607.502ZM1486.999,1607.5L1486.999,1609.5L1486.999,1609.5L1486.999,1607.5ZM4,1606.5L4.001,1604.5L4.001,1604.5L4,1606.5ZM2,1606.5L0,1606.498L-0.002,1608.498L1.998,1608.5L2,1606.5ZM2.002,1650.5L2.004,1648.5L0.004,1648.498L0.002,1650.498L2.002,1650.5ZM4.002,1650.5L4.004,1648.5L4.004,1648.5L4.002,1650.5ZM2,1654.5L0,1654.498L-0.002,1656.498L1.998,1656.5L2,1654.5ZM4,1654.5L4.001,1652.5L4.001,1652.5L4,1654.5ZM1486.999,1655.5L1486.999,1657.5L1486.999,1657.5L1486.999,1655.5ZM1488.999,1655.502L1488.999,1657.502L1490.999,1657.504L1490.999,1655.504L1488.999,1655.502ZM1489.003,1651.502L1491.003,1651.504L1491.003,1649.504L1489.003,1649.502L1489.003,1651.502ZM1487.003,1651.5L1487.001,1653.5L1487.001,1653.5L1487.003,1651.5ZM4,1698.498L4.001,1696.498L4.001,1696.498L4,1698.498ZM2,1698.498L2.001,1696.498L0.001,1696.496L0,1698.496L2,1698.498ZM1486.999,1699.498L1486.999,1701.498L1486.999,1701.498L1486.999,1699.498ZM1488.999,1699.5L1490.999,1699.502L1491.001,1697.502L1489.001,1697.5L1488.999,1699.5ZM1488.997,1703.5L1488.995,1705.5L1490.995,1705.502L1490.997,1703.502L1488.997,1703.5ZM1486.997,1703.498L1486.995,1705.498L1486.995,1705.498L1486.997,1703.498ZM3.997,1702.498L3.998,1700.498L3.998,1700.498L3.997,1702.498ZM1.997,1702.498L-0.003,1702.496L-0.005,1704.496L1.995,1704.498L1.997,1702.498ZM2,1746.496L2.002,1744.496L0.002,1744.496L0,1746.496L2,1746.496ZM4,1746.498L4.002,1744.498L4.002,1744.498L4,1746.498ZM1.998,1750.496L-0.002,1750.496L-0.004,1752.496L1.996,1752.496L1.998,1750.496ZM3.998,1750.498L3.999,1748.498L3.999,1748.498L3.998,1750.498ZM1486.997,1751.498L1486.997,1753.498L1486.997,1753.498L1486.997,1751.498ZM1488.997,1751.5L1488.997,1753.5L1490.997,1753.5L1490.997,1751.5L1488.997,1751.5ZM1489.001,1747.5L1491.001,1747.5L1491.001,1745.5L1489.001,1745.5L1489.001,1747.5ZM1487.001,1747.498L1486.999,1749.498L1486.999,1749.498L1487.001,1747.498ZM4,1794.498L4.002,1792.498L4.002,1792.498L4,1794.498ZM2,1794.498L2.002,1792.498L0.002,1792.496L0,1794.496L2,1794.498ZM1487.001,1795.498L1486.999,1797.498L1486.999,1797.498L1487.001,1795.498ZM1489.001,1795.5L1491.001,1795.502L1491.001,1793.502L1489.001,1793.5L1489.001,1795.5ZM1488.997,1799.5L1488.997,1801.5L1490.997,1801.502L1490.997,1799.502L1488.997,1799.5ZM1486.997,1799.498L1486.997,1801.498L1486.997,1801.498L1486.997,1799.498ZM3.998,1798.498L3.999,1796.498L3.999,1796.498L3.998,1798.498ZM1.998,1798.498L-0.002,1798.496L-0.004,1800.496L1.996,1800.498L1.998,1798.498ZM2,1842.498L2.002,1840.498L0.002,1840.496L0,1842.496L2,1842.498ZM4,1842.498L4.002,1840.498L4.002,1840.498L4,1842.498ZM1.998,1846.498L-0.002,1846.496L-0.004,1848.496L1.996,1848.498L1.998,1846.498ZM3.998,1846.498L3.999,1844.498L3.999,1844.498L3.998,1846.498ZM1486.997,1847.498L1486.997,1849.498L1486.997,1849.498L1486.997,1847.498ZM1488.997,1847.5L1488.997,1849.5L1490.997,1849.502L1490.997,1847.502L1488.997,1847.5ZM1489.001,1843.5L1491.001,1843.502L1491.001,1841.502L1489.001,1841.5L1489.001,1843.5ZM1487.001,1843.498L1486.999,1845.498L1486.999,1845.498L1487.001,1843.498ZM4,1890.5L4.002,1888.5L4.002,1888.5L4,1890.5ZM2,1890.498L2.002,1888.498L0.002,1888.496L0,1890.496L2,1890.498ZM1487.001,1891.5L1486.999,1893.5L1486.999,1893.5L1487.001,1891.5ZM1489.001,1891.5L1491.001,1891.502L1491.001,1889.502L1489.001,1889.5L1489.001,1891.5ZM1488.997,1895.5L1488.997,1897.5L1490.997,1897.502L1490.997,1895.502L1488.997,1895.5ZM1486.997,1895.5L1486.997,1897.5L1486.997,1897.5L1486.997,1895.5ZM3.998,1894.5L3.999,1892.5L3.999,1892.5L3.998,1894.5ZM1.998,1894.498L-0.002,1894.496L-0.004,1896.496L1.996,1896.498L1.998,1894.498ZM2.001,1938.498L2.002,1936.498L0.002,1936.496L0.001,1938.496L2.001,1938.498ZM4.001,1938.5L4.002,1936.5L4.002,1936.5L4.001,1938.5ZM1.998,1942.498L-0.002,1942.496L-0.003,1944.496L1.997,1944.498L1.998,1942.498ZM3.998,1942.5L4,1940.5L4,1940.5L3.998,1942.5ZM1486.999,1943.5L1486.997,1945.5L1486.997,1945.5L1486.999,1943.5ZM1488.999,1943.5L1488.997,1945.5L1490.997,1945.502L1490.999,1943.502L1488.999,1943.5ZM1489.001,1939.5L1491.001,1939.502L1491.003,1937.502L1489.003,1937.5L1489.001,1939.5ZM1487.001,1939.5L1486.999,1941.5L1486.999,1941.5L1487.001,1939.5ZM4.001,1986.5L4.002,1984.5L4.002,1984.5L4.001,1986.5ZM2.001,1986.498L2.002,1984.498L0.002,1984.496L0.001,1986.496L2.001,1986.498ZM1487.001,1987.5L1486.999,1989.5L1486.999,1989.5L1487.001,1987.5ZM1489.001,1987.5L1491.001,1987.502L1491.003,1985.502L1489.003,1985.5L1489.001,1987.5ZM1488.999,1991.5L1488.997,1993.5L1490.997,1993.502L1490.999,1991.502L1488.999,1991.5ZM1486.999,1991.5L1486.997,1993.5L1486.997,1993.5L1486.999,1991.5ZM3.998,1990.5L4,1988.5L4,1988.5L3.998,1990.5ZM1.998,1990.498L-0.002,1990.496L-0.003,1992.496L1.997,1992.498L1.998,1990.498ZM2.001,2034.498L2.002,2032.498L0.002,2032.498L0.001,2034.498L2.001,2034.498ZM4.001,2034.5L4.002,2032.5L4.002,2032.5L4.001,2034.5ZM1.998,2038.498L-0.002,2038.498L-0.003,2040.498L1.997,2040.498L1.998,2038.498ZM3.998,2038.5L4,2036.5L4,2036.5L3.998,2038.5ZM1486.999,2039.5L1486.997,2041.5L1486.997,2041.5L1486.999,2039.5ZM1488.999,2039.502L1488.997,2041.502L1490.997,2041.502L1490.999,2039.502L1488.999,2039.502ZM1489.001,2035.502L1491.001,2035.502L1491.003,2033.502L1489.003,2033.502L1489.001,2035.502ZM1487.001,2035.5L1486.999,2037.5L1486.999,2037.5L1487.001,2035.5ZM4.002,2082.5L4.003,2080.5L4.003,2080.5L4.002,2082.5ZM2.002,2082.498L2.003,2080.498L0.003,2080.496L0.002,2082.496L2.002,2082.498ZM1487.001,2083.5L1487.001,2085.5L1487.001,2085.5L1487.001,2083.5ZM1489.001,2083.5L1491.001,2083.502L1491.003,2081.502L1489.003,2081.5L1489.001,2083.5ZM1488.999,2087.5L1488.997,2089.5L1490.997,2089.502L1490.999,2087.502L1488.999,2087.5ZM1486.999,2087.5L1486.997,2089.5L1486.997,2089.5L1486.999,2087.5ZM3.999,2086.5L4,2084.5L4,2084.5L3.999,2086.5ZM1.999,2086.498L-0.001,2086.496L-0.002,2088.496L1.998,2088.498L1.999,2086.498ZM2.002,2130.498L2.003,2128.498L0.003,2128.498L0.002,2130.498L2.002,2130.498ZM4.002,2130.5L4.003,2128.5L4.003,2128.5L4.002,2130.5ZM1.999,2134.498L-0.001,2134.498L-0.002,2136.498L1.998,2136.498L1.999,2134.498ZM3.999,2134.5L4,2132.5L4,2132.5L3.999,2134.5ZM1486.999,2135.5L1486.997,2137.5L1486.997,2137.5L1486.999,2135.5ZM1488.999,2135.502L1488.997,2137.502L1490.997,2137.502L1490.999,2135.502L1488.999,2135.502ZM1489.001,2131.502L1491.001,2131.502L1491.003,2129.502L1489.003,2129.502L1489.001,2131.502ZM1487.001,2131.5L1487.001,2133.5L1487.001,2133.5L1487.001,2131.5ZM2,1316.498L4,1316.499L4.002,1312.499L2.002,1312.498L2,1316.498ZM3.998,1318.499L4.001,1314.499L0.001,1314.496L-0.002,1318.496L3.998,1318.499ZM4,1316.499L2,1316.498L1.997,1320.498L3.997,1320.499L4,1316.499ZM1486.999,1317.499L4,1316.499L3.997,1320.499L1486.997,1321.499L1486.999,1317.499ZM1488.999,1317.5L1486.999,1317.499L1486.997,1321.499L1488.997,1321.5L1488.999,1317.5ZM1487.001,1315.499L1486.999,1319.499L1490.999,1319.502L1491.001,1315.502L1487.001,1315.499ZM1486.999,1317.499L1488.999,1317.5L1489.003,1313.5L1487.003,1313.499L1486.999,1317.499ZM4,1316.499L1486.999,1317.499L1487.003,1313.499L4.002,1312.499L4,1316.499ZM2,1364.498L4,1364.5L4.002,1360.5L2.002,1360.498L2,1364.498ZM3.998,1366.5L4.001,1362.5L0.001,1362.497L-0.002,1366.497L3.998,1366.5ZM4,1364.5L2,1364.498L1.997,1368.498L3.997,1368.5L4,1364.5ZM1486.999,1365.5L4,1364.5L3.997,1368.5L1486.997,1369.5L1486.999,1365.5ZM1488.999,1365.501L1486.999,1365.5L1486.997,1369.5L1488.997,1369.501L1488.999,1365.501ZM1487.001,1363.5L1486.999,1367.5L1490.999,1367.502L1491.001,1363.502L1487.001,1363.5ZM1486.999,1365.5L1488.999,1365.501L1489.003,1361.501L1487.003,1361.5L1486.999,1365.5ZM4,1364.5L1486.999,1365.5L1487.003,1361.5L4.002,1360.5L4,1364.5ZM4.003,1408.499L2.003,1408.498L2,1412.498L4,1412.499L4.003,1408.499ZM1487.003,1409.499L4.003,1408.499L4,1412.499L1487.001,1413.499L1487.003,1409.499ZM1489.003,1409.501L1487.003,1409.499L1487.001,1413.499L1489.001,1413.501L1489.003,1409.501ZM1490.999,1415.502L1491.001,1411.502L1487.001,1411.499L1486.999,1415.499L1490.999,1415.502ZM1486.997,1417.499L1488.997,1417.501L1489.001,1413.501L1487.001,1413.499L1486.997,1417.499ZM3.998,1416.499L1486.997,1417.499L1487.001,1413.499L4,1412.499L3.998,1416.499ZM1.998,1416.498L3.998,1416.499L4,1412.499L2,1412.498L1.998,1416.498ZM0.002,1410.497L-0.001,1414.497L3.999,1414.499L4.002,1410.499L0.002,1410.497ZM2,1460.498L4,1460.5L4.003,1456.5L2.003,1456.498L2,1460.498ZM3.999,1462.5L4.002,1458.5L0.002,1458.497L-0.001,1462.497L3.999,1462.5ZM4,1460.5L2,1460.498L1.998,1464.498L3.998,1464.5L4,1460.5ZM1487.001,1461.5L4,1460.5L3.998,1464.5L1486.997,1465.5L1487.001,1461.5ZM1489.001,1461.501L1487.001,1461.5L1486.997,1465.5L1488.997,1465.501L1489.001,1461.501ZM1487.001,1459.5L1486.999,1463.5L1490.999,1463.502L1491.001,1459.502L1487.001,1459.5ZM1487.001,1461.5L1489.001,1461.501L1489.003,1457.501L1487.003,1457.5L1487.001,1461.5ZM4,1460.5L1487.001,1461.5L1487.003,1457.5L4.003,1456.5L4,1460.5ZM4.003,1504.5L2.003,1504.499L2,1508.499L4,1508.5L4.003,1504.5ZM1487.003,1505.5L4.003,1504.5L4,1508.5L1487.001,1509.5L1487.003,1505.5ZM1489.003,1505.501L1487.003,1505.5L1487.001,1509.5L1489.001,1509.501L1489.003,1505.501ZM1490.999,1511.503L1491.001,1507.503L1487.001,1507.5L1486.999,1511.5L1490.999,1511.503ZM1486.997,1513.5L1488.997,1513.501L1489.001,1509.501L1487.001,1509.5L1486.997,1513.5ZM3.998,1512.5L1486.997,1513.5L1487.001,1509.5L4,1508.5L3.998,1512.5ZM1.998,1512.499L3.998,1512.5L4,1508.5L2,1508.499L1.998,1512.499ZM0.002,1506.497L-0.001,1510.497L3.999,1510.5L4.002,1506.5L0.002,1506.497ZM1.999,1556.498L3.999,1556.5L4.002,1552.5L2.002,1552.498L1.999,1556.498ZM3.998,1558.5L4,1554.5L0,1554.496L-0.002,1558.496L3.998,1558.5ZM3.999,1556.5L1.999,1556.498L1.996,1560.498L3.996,1560.5L3.999,1556.5ZM1486.999,1557.5L3.999,1556.5L3.996,1560.5L1486.997,1561.5L1486.999,1557.5ZM1488.999,1557.5L1486.999,1557.5L1486.997,1561.5L1488.997,1561.5L1488.999,1557.5ZM1487.001,1555.5L1486.997,1559.5L1490.997,1559.502L1491.001,1555.502L1487.001,1555.5ZM1486.999,1557.5L1488.999,1557.5L1489.001,1553.5L1487.001,1553.5L1486.999,1557.5ZM3.999,1556.5L1486.999,1557.5L1487.001,1553.5L4.002,1552.5L3.999,1556.5ZM4.004,1600.5L2.004,1600.5L2.001,1604.5L4.001,1604.5L4.004,1600.5ZM1487.003,1601.5L4.004,1600.5L4.001,1604.5L1487.001,1605.5L1487.003,1601.5ZM1489.003,1601.502L1487.003,1601.5L1487.001,1605.5L1489.001,1605.502L1489.003,1601.502ZM1490.999,1607.504L1491.003,1603.504L1487.003,1603.5L1486.999,1607.5L1490.999,1607.504ZM1486.999,1609.5L1488.999,1609.502L1489.001,1605.502L1487.001,1605.5L1486.999,1609.5ZM3.998,1608.5L1486.999,1609.5L1487.001,1605.5L4.001,1604.5L3.998,1608.5ZM1.998,1608.5L3.998,1608.5L4.001,1604.5L2.001,1604.5L1.998,1608.5ZM0.002,1602.498L0,1606.498L4,1606.5L4.002,1602.5L0.002,1602.498ZM2.001,1652.5L4.001,1652.5L4.004,1648.5L2.004,1648.5L2.001,1652.5ZM4,1654.5L4.002,1650.5L0.002,1650.498L0,1654.498L4,1654.5ZM4.001,1652.5L2.001,1652.5L1.998,1656.5L3.998,1656.5L4.001,1652.5ZM1487.001,1653.5L4.001,1652.5L3.998,1656.5L1486.999,1657.5L1487.001,1653.5ZM1489.001,1653.502L1487.001,1653.5L1486.999,1657.5L1488.999,1657.502L1489.001,1653.502ZM1487.003,1651.5L1486.999,1655.5L1490.999,1655.504L1491.003,1651.504L1487.003,1651.5ZM1487.001,1653.5L1489.001,1653.502L1489.003,1649.502L1487.003,1649.5L1487.001,1653.5ZM4.001,1652.5L1487.001,1653.5L1487.003,1649.5L4.004,1648.5L4.001,1652.5ZM4.001,1696.498L2.001,1696.498L1.998,1700.498L3.998,1700.498L4.001,1696.498ZM1487.001,1697.498L4.001,1696.498L3.998,1700.498L1486.999,1701.498L1487.001,1697.498ZM1489.001,1697.5L1487.001,1697.498L1486.999,1701.498L1488.999,1701.5L1489.001,1697.5ZM1490.997,1703.502L1490.999,1699.502L1486.999,1699.498L1486.997,1703.498L1490.997,1703.502ZM1486.995,1705.498L1488.995,1705.5L1488.999,1701.5L1486.999,1701.498L1486.995,1705.498ZM3.995,1704.498L1486.995,1705.498L1486.999,1701.498L3.998,1700.498L3.995,1704.498ZM1.995,1704.498L3.995,1704.498L3.998,1700.498L1.998,1700.498L1.995,1704.498ZM0,1698.496L-0.003,1702.496L3.997,1702.498L4,1698.498L0,1698.496ZM1.999,1748.496L3.999,1748.498L4.002,1744.498L2.002,1744.496L1.999,1748.496ZM3.998,1750.498L4,1746.498L0,1746.496L-0.002,1750.496L3.998,1750.498ZM3.999,1748.498L1.999,1748.496L1.996,1752.496L3.996,1752.498L3.999,1748.498ZM1486.999,1749.498L3.999,1748.498L3.996,1752.498L1486.997,1753.498L1486.999,1749.498ZM1488.999,1749.5L1486.999,1749.498L1486.997,1753.498L1488.997,1753.5L1488.999,1749.5ZM1487.001,1747.498L1486.997,1751.498L1490.997,1751.5L1491.001,1747.5L1487.001,1747.498ZM1486.999,1749.498L1488.999,1749.5L1489.001,1745.5L1487.001,1745.498L1486.999,1749.498ZM3.999,1748.498L1486.999,1749.498L1487.001,1745.498L4.002,1744.498L3.999,1748.498ZM4.002,1792.498L2.002,1792.498L1.999,1796.498L3.999,1796.498L4.002,1792.498ZM1487.001,1793.498L4.002,1792.498L3.999,1796.498L1486.999,1797.498L1487.001,1793.498ZM1489.001,1793.5L1487.001,1793.498L1486.999,1797.498L1488.999,1797.5L1489.001,1793.5ZM1490.997,1799.502L1491.001,1795.502L1487.001,1795.498L1486.997,1799.498L1490.997,1799.502ZM1486.997,1801.498L1488.997,1801.5L1488.999,1797.5L1486.999,1797.498L1486.997,1801.498ZM3.996,1800.498L1486.997,1801.498L1486.999,1797.498L3.999,1796.498L3.996,1800.498ZM1.996,1800.498L3.996,1800.498L3.999,1796.498L1.999,1796.498L1.996,1800.498ZM0,1794.496L-0.002,1798.496L3.998,1798.498L4,1794.498L0,1794.496ZM1.999,1844.498L3.999,1844.498L4.002,1840.498L2.002,1840.498L1.999,1844.498ZM3.998,1846.498L4,1842.498L0,1842.496L-0.002,1846.496L3.998,1846.498ZM3.999,1844.498L1.999,1844.498L1.996,1848.498L3.996,1848.498L3.999,1844.498ZM1486.999,1845.498L3.999,1844.498L3.996,1848.498L1486.997,1849.498L1486.999,1845.498ZM1488.999,1845.5L1486.999,1845.498L1486.997,1849.498L1488.997,1849.5L1488.999,1845.5ZM1487.001,1843.498L1486.997,1847.498L1490.997,1847.502L1491.001,1843.502L1487.001,1843.498ZM1486.999,1845.498L1488.999,1845.5L1489.001,1841.5L1487.001,1841.498L1486.999,1845.498ZM3.999,1844.498L1486.999,1845.498L1487.001,1841.498L4.002,1840.498L3.999,1844.498ZM4.002,1888.5L2.002,1888.498L1.999,1892.498L3.999,1892.5L4.002,1888.5ZM1487.001,1889.5L4.002,1888.5L3.999,1892.5L1486.999,1893.5L1487.001,1889.5ZM1489.001,1889.5L1487.001,1889.5L1486.999,1893.5L1488.999,1893.5L1489.001,1889.5ZM1490.997,1895.502L1491.001,1891.502L1487.001,1891.5L1486.997,1895.5L1490.997,1895.502ZM1486.997,1897.5L1488.997,1897.5L1488.999,1893.5L1486.999,1893.5L1486.997,1897.5ZM3.996,1896.5L1486.997,1897.5L1486.999,1893.5L3.999,1892.5L3.996,1896.5ZM1.996,1896.498L3.996,1896.5L3.999,1892.5L1.999,1892.498L1.996,1896.498ZM0,1890.496L-0.002,1894.496L3.998,1894.5L4,1890.5L0,1890.496ZM2,1940.498L4,1940.5L4.002,1936.5L2.002,1936.498L2,1940.498ZM3.998,1942.5L4.001,1938.5L0.001,1938.496L-0.002,1942.496L3.998,1942.5ZM4,1940.5L2,1940.498L1.997,1944.498L3.997,1944.5L4,1940.5ZM1486.999,1941.5L4,1940.5L3.997,1944.5L1486.997,1945.5L1486.999,1941.5ZM1488.999,1941.5L1486.999,1941.5L1486.997,1945.5L1488.997,1945.5L1488.999,1941.5ZM1487.001,1939.5L1486.999,1943.5L1490.999,1943.502L1491.001,1939.502L1487.001,1939.5ZM1486.999,1941.5L1488.999,1941.5L1489.003,1937.5L1487.003,1937.5L1486.999,1941.5ZM4,1940.5L1486.999,1941.5L1487.003,1937.5L4.002,1936.5L4,1940.5ZM4.002,1984.5L2.002,1984.498L2,1988.498L4,1988.5L4.002,1984.5ZM1487.003,1985.5L4.002,1984.5L4,1988.5L1486.999,1989.5L1487.003,1985.5ZM1489.003,1985.5L1487.003,1985.5L1486.999,1989.5L1488.999,1989.5L1489.003,1985.5ZM1490.999,1991.502L1491.001,1987.502L1487.001,1987.5L1486.999,1991.5L1490.999,1991.502ZM1486.997,1993.5L1488.997,1993.5L1488.999,1989.5L1486.999,1989.5L1486.997,1993.5ZM3.997,1992.5L1486.997,1993.5L1486.999,1989.5L4,1988.5L3.997,1992.5ZM1.997,1992.498L3.997,1992.5L4,1988.5L2,1988.498L1.997,1992.498ZM0.001,1986.496L-0.002,1990.496L3.998,1990.5L4.001,1986.5L0.001,1986.496ZM2,2036.498L4,2036.5L4.002,2032.5L2.002,2032.498L2,2036.498ZM3.998,2038.5L4.001,2034.5L0.001,2034.498L-0.002,2038.498L3.998,2038.5ZM4,2036.5L2,2036.498L1.997,2040.498L3.997,2040.5L4,2036.5ZM1486.999,2037.5L4,2036.5L3.997,2040.5L1486.997,2041.5L1486.999,2037.5ZM1488.999,2037.502L1486.999,2037.5L1486.997,2041.5L1488.997,2041.502L1488.999,2037.502ZM1487.001,2035.5L1486.999,2039.5L1490.999,2039.502L1491.001,2035.502L1487.001,2035.5ZM1486.999,2037.5L1488.999,2037.502L1489.003,2033.502L1487.003,2033.5L1486.999,2037.5ZM4,2036.5L1486.999,2037.5L1487.003,2033.5L4.002,2032.5L4,2036.5ZM4.003,2080.5L2.003,2080.498L2,2084.498L4,2084.5L4.003,2080.5ZM1487.003,2081.5L4.003,2080.5L4,2084.5L1487.001,2085.5L1487.003,2081.5ZM1489.003,2081.5L1487.003,2081.5L1487.001,2085.5L1489.001,2085.5L1489.003,2081.5ZM1490.999,2087.502L1491.001,2083.502L1487.001,2083.5L1486.999,2087.5L1490.999,2087.502ZM1486.997,2089.5L1488.997,2089.5L1489.001,2085.5L1487.001,2085.5L1486.997,2089.5ZM3.998,2088.5L1486.997,2089.5L1487.001,2085.5L4,2084.5L3.998,2088.5ZM1.998,2088.498L3.998,2088.5L4,2084.5L2,2084.498L1.998,2088.498ZM0.002,2082.496L-0.001,2086.496L3.999,2086.5L4.002,2082.5L0.002,2082.496ZM2,2132.498L4,2132.5L4.003,2128.5L2.003,2128.498L2,2132.498ZM3.999,2134.5L4.002,2130.5L0.002,2130.498L-0.001,2134.498L3.999,2134.5ZM4,2132.5L2,2132.498L1.998,2136.498L3.998,2136.5L4,2132.5ZM1487.001,2133.5L4,2132.5L3.998,2136.5L1486.997,2137.5L1487.001,2133.5ZM1489.001,2133.502L1487.001,2133.5L1486.997,2137.5L1488.997,2137.502L1489.001,2133.502ZM1487.001,2131.5L1486.999,2135.5L1490.999,2135.502L1491.001,2131.502L1487.001,2131.5ZM1487.001,2133.5L1489.001,2133.502L1489.003,2129.502L1487.003,2129.5L1487.001,2133.5ZM4,2132.5L1487.001,2133.5L1487.003,2129.5L4.003,2128.5L4,2132.5Z" transform="rotate(90 745.5 1724.999)" fill="#000000"/>
</g>
<circle cx="1282" cy="1958" r="228" fill="#009EFF"/>
</svg>
