<svg width="128" height="128" viewBox="0 0 128 128" fill="none" xmlns="http://www.w3.org/2000/svg" xmlns:xlink="http://www.w3.org/1999/xlink">
<path d="M40.528,92.228C39.703,83.705 40.94,76.308 44.21,70.238C47.528,64.08 52.72,59.678 59.228,57.505C59.765,57.325 60.308,57.163 60.853,57.018C59.1,54.96 58.125,52.365 58.125,49.627L58.125,34.412C58.125,24.84 51.14,16.871 42.001,15.326C41.88,12.624 41.163,9.081 38.702,6.03C35.476,2.028 30.297,0 23.31,0L23.31,7.5C27.891,7.5 31.095,8.577 32.834,10.701C34.053,12.19 34.435,14.05 34.514,15.524C25.874,17.466 19.401,25.196 19.401,34.412L19.401,49.52C19.401,53.088 17.766,56.485 15.026,58.607C10.368,62.22 6.538,66.917 3.948,72.192C1.226,77.735 -0.099,83.702 0.006,89.923C0.366,111.018 17.708,128 38.765,128C38.923,128 39.083,128 39.243,127.997C44.528,127.932 49.71,126.785 54.478,124.668C52.255,122.208 50.198,119.355 48.34,116.14C44.145,108.88 41.298,100.162 40.528,92.228Z" clip-rule="evenodd" fill-rule="evenodd" fill="#2FB0AB"/>
<path d="M124.966,73.794C122.572,69.349 118.841,66.177 114.177,64.62C106.56,62.077 97.715,64.257 91.005,69.748C91.48,64.561 93.715,58.332 101.099,55.379L98.315,48.415C90.094,51.702 85.059,58.276 83.755,67.425C83.687,67.898 83.632,68.367 83.587,68.828C77.044,64.02 68.777,62.224 61.601,64.62C56.938,66.177 53.207,69.349 50.813,73.794C48.262,78.531 47.313,84.49 47.992,91.505C49.309,105.092 57.734,121.92 69.552,126.564C71.405,127.293 73.647,127.848 76.176,127.848C79.633,127.848 83.625,126.81 87.889,123.758C95.273,129.045 101.841,128.288 106.226,126.565C118.045,121.92 126.469,105.092 127.786,91.506C128.466,84.49 127.517,78.531 124.966,73.794Z" clip-rule="evenodd" fill-rule="evenodd" fill="#009EFF"/>
</svg>
