<svg width="128" height="128" viewBox="0 0 128 128" fill="none" xmlns="http://www.w3.org/2000/svg" xmlns:xlink="http://www.w3.org/1999/xlink">
<path d="M40.528,92.228C39.703,83.705 40.94,76.308 44.21,70.238C47.528,64.08 52.72,59.678 59.228,57.505C59.765,57.325 60.308,57.163 60.853,57.018C59.1,54.96 58.125,52.365 58.125,49.627L58.125,34.412C58.125,24.84 51.14,16.871 42.001,15.326C41.88,12.624 41.163,9.081 38.702,6.03C35.476,2.028 30.297,0 23.31,0L23.31,7.5C27.891,7.5 31.095,8.577 32.834,10.701C34.053,12.19 34.435,14.05 34.514,15.524C25.874,17.466 19.401,25.196 19.401,34.412L19.401,49.52C19.401,53.088 17.766,56.485 15.026,58.607C10.368,62.22 6.538,66.917 3.948,72.192C1.226,77.735 -0.099,83.702 0.006,89.923C0.366,111.018 17.708,128 38.765,128C38.923,128 39.083,128 39.243,127.997C44.528,127.932 49.71,126.785 54.478,124.668C52.255,122.208 50.198,119.355 48.34,116.14C44.145,108.88 41.298,100.162 40.528,92.228Z" clip-rule="evenodd" fill-rule="evenodd" fill="#2FB0AB"/>
<path d="M124.966,73.793C122.572,69.348 118.841,66.176 114.177,64.619C106.56,62.076 97.715,64.256 91.005,69.747C91.48,64.561 93.715,58.331 101.099,55.378L98.315,48.414C90.094,51.701 85.059,58.275 83.755,67.425C83.687,67.898 83.632,68.366 83.587,68.827C77.044,64.02 68.777,62.224 61.601,64.619C56.938,66.176 53.207,69.348 50.813,73.793C48.262,78.53 47.313,84.489 47.992,91.504C49.309,105.091 57.734,121.919 69.552,126.563C71.405,127.292 73.647,127.847 76.176,127.847C79.633,127.847 83.625,126.81 87.889,123.757C95.273,129.044 101.841,128.287 106.226,126.564C118.045,121.919 126.469,105.091 127.786,91.505C128.466,84.489 127.517,78.53 124.966,73.793Z" clip-rule="evenodd" fill-rule="evenodd" fill="#009EFF"/>
</svg>
