<svg width="64" height="64" viewBox="0 0 64 64" fill="none" xmlns="http://www.w3.org/2000/svg" xmlns:xlink="http://www.w3.org/1999/xlink">
<path d="M19.264,46.114C18.851,41.853 19.47,38.154 21.105,35.119C22.764,32.04 25.36,29.839 28.614,28.753C28.883,28.663 29.154,28.581 29.426,28.509C28.55,27.48 28.063,26.182 28.063,24.814L28.063,17.206C28.063,12.42 24.57,8.435 20,7.663C19.94,6.312 19.582,4.541 18.351,3.015C16.738,1.014 14.149,0 10.655,0L10.655,3.75C12.945,3.75 14.548,4.288 15.417,5.35C16.027,6.095 16.217,7.025 16.257,7.762C11.937,8.733 8.7,12.598 8.7,17.206L8.7,24.76C8.7,26.544 7.883,28.242 6.513,29.304C4.184,31.11 2.269,33.459 0.974,36.096C-0.387,38.868 -1.05,41.851 -0.997,44.961C-0.817,55.509 7.854,64 18.383,64C18.461,64 18.541,64 18.621,63.999C21.264,63.966 23.855,63.393 26.239,62.334C25.128,61.104 24.099,59.677 23.17,58.07C21.073,54.44 19.649,50.081 19.264,46.114Z" clip-rule="evenodd" fill-rule="evenodd" fill="#2FB0AB"/>
<path d="M61.483,36.897C60.286,34.674 58.421,33.088 56.089,32.309C52.28,31.038 47.858,32.128 44.503,34.874C44.74,32.28 45.858,29.165 49.55,27.689L48.158,24.207C44.047,25.851 41.53,29.138 40.878,33.712C40.844,33.949 40.816,34.183 40.794,34.414C37.522,32.01 33.389,31.112 29.801,32.31C27.469,33.088 25.604,34.674 24.407,36.897C23.131,39.265 22.657,42.244 22.996,45.752C23.655,52.545 27.867,60.96 33.776,63.282C34.703,63.646 35.824,63.924 37.089,63.924C38.817,63.924 40.813,63.405 42.945,61.878C46.637,64.522 49.921,64.144 52.113,63.282C58.023,60.96 62.235,52.546 62.893,45.752C63.233,42.244 62.759,39.265 61.483,36.897Z" clip-rule="evenodd" fill-rule="evenodd" fill="#009EFF"/>
</svg>
