<svg width="54" height="34" viewBox="0 0 54 34" fill="none" xmlns="http://www.w3.org/2000/svg" xmlns:xlink="http://www.w3.org/1999/xlink">
<path d="M2.971,13.971C1.314,13.971 -0.029,15.314 -0.029,16.971C-0.029,18.628 1.314,19.971 2.971,19.971L2.971,13.971ZM50.971,19.971C52.627,19.971 53.971,18.628 53.971,16.971C53.971,15.314 52.627,13.971 50.971,13.971L50.971,19.971ZM2.971,19.971L50.971,19.971L50.971,13.971L2.971,13.971L2.971,19.971Z" transform="rotate(-90 26.971 16.971)" fill="#009EFF"/>
<path d="M2.971,13.971C1.314,13.971 -0.029,15.314 -0.029,16.971C-0.029,18.627 1.314,19.971 2.971,19.971L2.971,13.971ZM50.971,19.971C52.627,19.971 53.971,18.627 53.971,16.971C53.971,15.314 52.627,13.971 50.971,13.971L50.971,19.971ZM2.971,19.971L50.971,19.971L50.971,13.971L2.971,13.971L2.971,19.971Z" transform="rotate(90 26.971 16.971)" fill="#009EFF"/>
</svg>
