<svg width="128" height="118" viewBox="0 0 128 118" fill="none" xmlns="http://www.w3.org/2000/svg" xmlns:xlink="http://www.w3.org/1999/xlink">
<path d="M33.964,13.687C32.673,15.757 31.514,17.894 30.489,20.086C26.493,18.735 22.654,16.92 19.079,14.671C26.647,7.56 35.73,2.586 45.588,0.051C41.081,3.978 37.159,8.565 33.964,13.687ZM76.377,0.084C82.918,5.796 88.211,12.881 91.811,20.874L92.53,20.158C95.366,17.334 98.718,15.33 102.287,14.142C94.899,7.387 85.992,2.581 76.377,0.084ZM47.641,22.925L53.1,22.925C53.827,21.954 54.63,21.029 55.505,20.157C56.058,19.607 56.63,19.09 57.22,18.602L57.22,0.705C50.395,4.986 44.62,10.758 40.335,17.627C39.444,19.055 38.627,20.52 37.88,22.016C41.093,22.616 44.363,22.925 47.641,22.925ZM32.301,55.207L32.301,45.669C32.301,39.99 33.213,34.385 34.978,29.049C39.132,29.934 43.38,30.394 47.641,30.394L49.279,30.394C48.538,32.772 48.152,35.273 48.152,37.833C48.152,44.369 50.656,50.522 55.21,55.207L32.301,55.207L32.301,55.207ZM32.301,62.676L32.301,72.214C32.301,77.893 33.214,83.498 34.978,88.835C39.132,87.949 43.38,87.49 47.641,87.49L57.22,87.49L57.22,62.676L32.301,62.676ZM74.298,87.489C78.558,87.489 82.806,87.948 86.959,88.833C87.126,88.327 87.286,87.818 87.438,87.306L64.72,64.684L64.72,87.489L74.298,87.489ZM47.641,94.957L57.22,94.957L57.22,117.177C50.395,112.896 44.62,107.124 40.335,100.255C39.444,98.827 38.627,97.362 37.88,95.866C41.093,95.266 44.363,94.957 47.641,94.957ZM64.72,94.957L64.72,117.175C73.046,111.955 79.72,104.574 84.062,95.867C80.848,95.266 77.578,94.957 74.298,94.957L64.72,94.957ZM64.72,0.711C70.109,4.097 74.841,8.417 78.692,13.438C74.067,12.424 69.208,12.722 64.72,14.33L64.72,0.711ZM24.802,45.671C24.802,39.31 25.803,33.029 27.746,27.041C22.858,25.358 18.183,23.064 13.867,20.205C5.604,30.132 0.781,42.286 0,55.209L24.802,55.209L24.802,45.671ZM24.801,62.676L24.801,72.214C24.801,78.575 25.803,84.855 27.745,90.843C22.858,92.526 18.182,94.82 13.867,97.679C5.604,87.753 0.781,75.599 0,62.676L24.801,62.676ZM33.965,104.195C32.674,102.126 31.515,99.989 30.49,97.797C26.493,99.148 22.655,100.963 19.08,103.211C26.647,110.322 35.731,115.297 45.589,117.832C41.081,113.905 37.16,109.317 33.965,104.195ZM91.452,97.798C95.448,99.149 99.286,100.964 102.86,103.212C95.292,110.324 86.207,115.299 76.348,117.834C82.719,112.287 87.869,105.47 91.452,97.798ZM94.897,88.501C94.676,89.288 94.44,90.067 94.189,90.841C99.078,92.525 103.755,94.819 108.071,97.679C116.582,87.455 121.444,74.869 121.999,61.514L94.897,88.501Z" clip-rule="evenodd" fill-rule="evenodd" fill="#2FB0AB"/>
<path d="M127.883,37.833C127.883,42.515 126.052,46.916 122.727,50.227L91.768,81.056L60.808,50.227C57.483,46.916 55.652,42.515 55.652,37.833C55.652,33.151 57.483,28.749 60.808,25.438C64.24,22.021 68.747,20.313 73.255,20.313C77.763,20.313 82.27,22.021 85.702,25.438L91.768,31.478L97.833,25.438C104.697,18.604 115.864,18.604 122.727,25.438C126.052,28.749 127.883,33.151 127.883,37.833L127.883,37.833Z" fill="#009EFF"/>
</svg>
