<svg width="64" height="60" viewBox="0 0 64 60" fill="none" xmlns="http://www.w3.org/2000/svg" xmlns:xlink="http://www.w3.org/1999/xlink">
<path d="M15.982,6.844C15.336,7.878 14.757,8.947 14.244,10.043C12.246,9.367 10.327,8.46 8.54,7.336C12.323,3.78 16.865,1.293 21.794,0.025C19.54,1.989 17.579,4.283 15.982,6.844ZM37.188,0.042C40.459,2.898 43.106,6.441 44.906,10.437L45.265,10.079C46.683,8.667 48.359,7.665 50.144,7.071C46.45,3.694 41.996,1.29 37.188,0.042ZM22.821,11.463L25.55,11.463C25.914,10.978 26.315,10.515 26.753,10.079C27.029,9.804 27.315,9.545 27.61,9.301L27.61,0.353C24.197,2.493 21.31,5.379 19.168,8.814C18.722,9.528 18.313,10.26 17.94,11.008C19.547,11.308 21.181,11.463 22.821,11.463ZM15.151,27.604L15.151,22.835C15.151,19.996 15.607,17.193 16.489,14.525C18.566,14.967 20.69,15.197 22.821,15.197L23.64,15.197C23.269,16.386 23.076,17.637 23.076,18.917C23.076,22.185 24.328,25.261 26.605,27.604L15.151,27.604L15.151,27.604ZM15.151,31.338L15.151,36.107C15.151,38.946 15.607,41.749 16.489,44.417C18.566,43.974 20.69,43.745 22.821,43.745L27.61,43.745L27.61,31.338L15.151,31.338ZM36.149,43.745C38.279,43.745 40.403,43.974 42.479,44.417C42.563,44.164 42.643,43.909 42.719,43.653L31.36,32.342L31.36,43.745L36.149,43.745ZM22.821,47.479L27.61,47.479L27.61,58.589C24.197,56.448 21.31,53.562 19.168,50.128C18.722,49.414 18.314,48.681 17.94,47.934C19.546,47.633 21.181,47.479 22.821,47.479ZM31.36,47.479L31.36,58.588C35.523,55.978 38.86,52.287 41.031,47.934C39.424,47.634 37.789,47.479 36.149,47.479L31.36,47.479ZM31.36,0.355C34.054,2.048 36.42,4.208 38.346,6.719C36.033,6.212 33.604,6.361 31.36,7.165L31.36,0.355ZM11.401,22.835C11.401,19.654 11.901,16.514 12.873,13.52C10.429,12.679 8.091,11.532 5.934,10.102C1.802,15.065 -0.61,21.142 -1,27.604L11.401,27.604L11.401,22.835ZM11.401,31.338L11.401,36.107C11.401,39.287 11.901,42.428 12.873,45.422C10.429,46.263 8.091,47.41 5.934,48.84C1.802,43.876 -0.61,37.799 -1,31.338L11.401,31.338ZM15.982,52.098C15.337,51.063 14.757,49.995 14.245,48.899C12.246,49.574 10.327,50.482 8.54,51.606C12.323,55.162 16.865,57.649 21.794,58.916C19.54,56.953 17.58,54.659 15.982,52.098ZM44.726,48.899C46.724,49.575 48.643,50.482 50.43,51.606C46.646,55.162 42.104,57.649 37.174,58.917C40.359,56.144 42.935,52.735 44.726,48.899ZM46.449,44.251C46.339,44.644 46.22,45.034 46.095,45.421C48.54,46.263 50.878,47.41 53.036,48.84C57.291,43.728 59.722,37.435 60,30.757L46.449,44.251Z" clip-rule="evenodd" fill-rule="evenodd" fill="#2FB0AB"/>
<path d="M62.942,18.917C62.942,21.258 62.026,23.458 60.364,25.114L44.884,40.528L29.404,25.114C27.742,23.458 26.826,21.258 26.826,18.917C26.826,16.576 27.742,14.375 29.404,12.719C31.12,11.011 33.374,10.156 35.628,10.156C37.882,10.156 40.135,11.011 41.851,12.719L44.884,15.739L47.917,12.719C51.349,9.302 56.932,9.302 60.364,12.719C62.026,14.375 62.942,16.576 62.942,18.917L62.942,18.917Z" fill="#009EFF"/>
</svg>
