<svg width="68" height="84" viewBox="0 0 68 84" fill="none" xmlns="http://www.w3.org/2000/svg" xmlns:xlink="http://www.w3.org/1999/xlink">
<path d="M55.364,60.25C48.061,60.25 41.468,63.305 36.727,68.188L36.727,50.732C38.581,49.13 40.415,47.558 42.105,46.123C53.962,36.05 62.53,28.525 62.53,17.843C62.53,7.837 55.23,0 45.904,0C40.166,0 35.868,2.993 33.003,6.808C30.135,2.995 25.836,0 20.096,0C10.771,0 3.47,7.837 3.47,17.843C3.47,28.525 12.038,36.05 23.896,46.123C25.585,47.558 27.419,49.13 29.273,50.732L29.273,68.188C24.532,63.305 17.939,60.25 10.636,60.25L-0.545,60.25L-0.545,64C-0.545,71.338 2.464,77.982 7.307,82.75L58.693,82.75C63.536,77.982 66.546,71.338 66.546,64L66.546,60.25L55.364,60.25Z" clip-rule="evenodd" fill-rule="evenodd" fill="#2FB0AB"/>
</svg>
