<svg width="90" height="76" viewBox="0 0 90 76" fill="none" xmlns="http://www.w3.org/2000/svg" xmlns:xlink="http://www.w3.org/1999/xlink">
<path d="M54.966,37.528L53.695,37.541C52.058,37.558 50.519,36.935 49.356,35.785C48.193,34.635 47.553,33.101 47.553,31.466L47.553,18.824L36.255,18.824L36.255,11.294L55.085,11.294L55.085,3.765L36.255,3.765L36.255,0L28.723,0L28.723,3.765L9.894,3.765L9.894,11.294L28.723,11.294L28.723,18.824L17.425,18.824L17.425,30.535C17.425,34.457 14.234,37.647 10.311,37.647L0.785,37.647C0.993,38.754 1.106,39.894 1.106,41.06L1.106,60.587C1.106,61.753 0.993,62.893 0.785,64L55.085,64C59.238,64 62.617,67.378 62.617,71.529L62.617,75.294L88.979,75.294L88.979,71.529C88.979,52.781 73.721,37.528 54.966,37.528Z" clip-rule="evenodd" fill-rule="evenodd" fill="#009EFF"/>
</svg>
