<svg width="128" height="60" viewBox="0 0 128 60" fill="none" xmlns="http://www.w3.org/2000/svg" xmlns:xlink="http://www.w3.org/1999/xlink">
<path d="M126.118,4.298C122.127,1.581 117.425,2.351 113.26,4.766C109.096,7.18 85.186,27.717 85.186,27.717L61.65,27.721C60.555,27.721 59.369,26.484 59.369,25.389C59.369,24.102 60.487,23.098 61.65,23.098L76.05,23.098C81.09,23.098 86.732,19.799 86.732,13.934C86.732,7.703 81.09,4.77 76.05,4.77C67.306,4.77 65.604,4.807 65.604,4.807C62.101,4.807 58.548,4.596 55.811,3.125C52.162,1.247 47.957,0.184 43.469,0.184C35.934,0.184 29.187,3.203 24.562,7.964L0,32.258L27.367,59.749L36.49,50.585L82.682,50.585C87.279,50.585 91.718,48.89 95.152,45.825L126.429,10.58C128.34,8.876 128.23,5.742 126.118,4.298Z" clip-rule="evenodd" fill-rule="evenodd" fill="#009EFF"/>
</svg>
