<svg width="138" height="288" viewBox="0 0 138 288" fill="none" xmlns="http://www.w3.org/2000/svg" xmlns:xlink="http://www.w3.org/1999/xlink">
<path d="M99.653,134.748L100.509,135.264L99.653,134.748ZM49.046,154.894L49.27,153.92L49.046,154.894ZM29.133,111.755L30.057,112.136L30.057,112.136L29.133,111.755ZM66.41,99.97L66.33,100.967L66.41,99.97ZM106.214,109.401L106.678,108.515L106.214,109.401ZM107.215,109.933L106.74,110.813L107.98,111.483L108.202,110.091L107.215,109.933ZM97.864,70.403L98.704,69.861L98.704,69.861L97.864,70.403ZM44.618,24.069L45.137,23.215L44.618,24.069ZM7.759,3.668L6.871,3.207L6.413,4.09L7.293,4.553L7.759,3.668ZM8.625,2L9.09,1.115L8.201,0.647L7.738,1.539L8.625,2ZM45.585,22.458L46.104,21.604L46.104,21.604L45.585,22.458ZM99.432,69.378L98.591,69.92L99.432,69.378ZM108.95,110.897L107.965,110.727L107.846,111.418L108.454,111.765L108.95,110.897ZM135.521,161.41L134.528,161.287L135.521,161.41ZM110.37,219.01L109.535,218.46L110.37,219.01ZM58.413,270.222L58.842,271.126L58.842,271.126L58.413,270.222ZM43.842,275.488L44.111,276.452L44.111,276.452L43.842,275.488ZM7.201,284.364L7.544,285.304L7.201,284.364ZM2.586,286L1.636,286.312L1.948,287.266L2.901,286.95L2.586,286ZM2,284.212L1.685,283.264L0.739,283.578L1.05,284.524L2,284.212ZM6.562,282.596L6.218,281.656L6.562,282.596ZM43.343,273.676L43.074,272.712L43.074,272.712L43.343,273.676ZM57.615,268.522L57.186,267.618L57.615,268.522ZM108.812,217.97L109.647,218.52L109.647,218.52L108.812,217.97ZM133.665,161.178L132.673,161.055L133.665,161.178ZM108.578,112.851L109.081,111.986L107.882,111.289L107.599,112.646L108.578,112.851ZM98.796,134.232C89.068,150.379 67.767,158.16 49.27,153.92L48.823,155.869C68.059,160.278 90.282,152.24 100.509,135.264L98.796,134.232ZM49.27,153.92C39.506,151.682 32.526,146.603 29.06,139.501C25.59,132.393 25.545,123.062 30.057,112.136L28.209,111.373C23.546,122.663 23.473,132.615 27.262,140.378C31.054,148.147 38.619,153.53 48.823,155.869L49.27,153.92ZM30.057,112.136C31.932,107.597 36.069,104.417 42.266,102.559C48.474,100.696 56.64,100.199 66.33,100.967L66.489,98.973C56.676,98.195 48.232,98.681 41.691,100.643C35.139,102.608 30.389,106.094 28.209,111.373L30.057,112.136ZM66.33,100.967C73.712,101.552 81.755,102.929 88.875,104.644C96.013,106.363 102.149,108.403 105.75,110.287L106.678,108.515C102.856,106.516 96.53,104.43 89.343,102.699C82.137,100.964 73.99,99.568 66.489,98.973L66.33,100.967ZM105.75,110.287C106.083,110.462 106.413,110.637 106.74,110.813L107.69,109.053C107.355,108.873 107.018,108.693 106.678,108.515L105.75,110.287ZM108.202,110.091C110.431,96.155 107.044,82.779 98.704,69.861L97.023,70.946C105.142,83.52 108.366,96.404 106.227,109.775L108.202,110.091ZM98.704,69.861C88.074,53.396 70.021,38.342 45.137,23.215L44.098,24.924C68.885,39.992 86.635,54.856 97.023,70.946L98.704,69.861ZM45.137,23.215C34.525,16.763 26.941,12.628 8.224,2.783L7.293,4.553C26.003,14.395 33.541,18.506 44.098,24.924L45.137,23.215ZM8.646,4.129L9.512,2.461L7.738,1.539L6.871,3.207L8.646,4.129ZM8.159,2.885C26.904,12.745 34.464,16.868 45.065,23.313L46.104,21.604C35.447,15.125 27.842,10.979 9.09,1.115L8.159,2.885ZM45.065,23.313C70.072,38.515 88.016,53.541 98.591,69.92L100.272,68.836C89.455,52.082 71.21,36.866 46.104,21.604L45.065,23.313ZM98.591,69.92C107.094,83.09 110.39,96.66 107.965,110.727L109.936,111.067C112.459,96.43 109.002,82.358 100.272,68.836L98.591,69.92ZM108.454,111.765C118.845,117.699 125.991,124.86 130.226,133.111C134.461,141.359 135.827,150.775 134.528,161.287L136.513,161.532C137.852,150.697 136.455,140.865 132.006,132.198C127.558,123.533 120.099,116.112 109.446,110.028L108.454,111.765ZM134.528,161.287C132.429,178.279 123.797,196.796 109.535,218.46L111.206,219.56C125.524,197.809 134.357,178.982 136.513,161.532L134.528,161.287ZM109.535,218.46C102.966,228.44 93.559,239.512 84.028,248.926C74.477,258.362 64.894,266.04 57.984,269.32L58.842,271.126C66.069,267.696 75.848,259.818 85.434,250.348C95.039,240.86 104.543,229.682 111.206,219.56L109.535,218.46ZM57.984,269.32C53.825,271.294 49.032,273.004 43.574,274.526L44.111,276.452C49.646,274.908 54.552,273.162 58.842,271.126L57.984,269.32ZM43.574,274.526C39.868,275.56 32.645,277.126 26.509,278.396C23.448,279.03 20.669,279.586 18.752,279.962C17.792,280.15 17.052,280.294 16.6,280.378C16.369,280.42 16.228,280.444 16.17,280.454C16.153,280.456 16.162,280.454 16.183,280.452C16.189,280.452 16.203,280.45 16.221,280.45C16.232,280.45 16.276,280.446 16.332,280.45C16.363,280.452 16.447,280.464 16.498,280.474C16.592,280.5 16.862,280.642 17.017,280.782C17.209,281.1 17.222,281.756 17.093,282.018C17.008,282.124 16.856,282.258 16.799,282.296C16.713,282.35 16.637,282.378 16.629,282.38C16.605,282.39 16.586,282.396 16.578,282.398C16.568,282.402 16.561,282.404 16.557,282.404C16.553,282.406 16.551,282.406 16.55,282.406C16.549,282.408 16.556,282.406 16.577,282.4L16.121,280.452C16.094,280.46 16.065,280.466 16.038,280.474C16.025,280.476 16.004,280.482 15.979,280.49C15.967,280.494 15.946,280.502 15.919,280.512C15.909,280.516 15.832,280.544 15.744,280.598C15.687,280.636 15.534,280.772 15.449,280.878C15.32,281.14 15.333,281.794 15.526,282.114C15.68,282.254 15.951,282.396 16.045,282.422C16.097,282.432 16.181,282.444 16.213,282.446C16.271,282.45 16.317,282.448 16.331,282.446C16.352,282.446 16.37,282.444 16.38,282.442C16.418,282.44 16.455,282.434 16.475,282.43C16.568,282.416 16.739,282.386 16.965,282.344C17.427,282.258 18.175,282.114 19.137,281.926C21.06,281.548 23.846,280.99 26.914,280.354C33.036,279.088 40.328,277.508 44.111,276.452L43.574,274.526ZM16.121,280.452C13.477,281.072 11.402,281.762 6.857,283.426L7.544,285.304C12.079,283.644 14.059,282.99 16.577,282.4L16.121,280.452ZM6.857,283.426C4.562,284.264 3.549,284.626 2.271,285.05L2.901,286.95C4.21,286.514 5.247,286.144 7.544,285.304L6.857,283.426ZM3.536,285.688L2.95,283.902L1.05,284.524L1.636,286.312L3.536,285.688ZM2.315,285.162C3.6,284.736 4.625,284.368 6.905,283.534L6.218,281.656C3.941,282.49 2.94,282.848 1.685,283.264L2.315,285.162ZM6.905,283.534C11.51,281.85 13.537,281.18 16.153,280.568L15.698,278.62C12.957,279.262 10.834,279.968 6.218,281.656L6.905,283.534ZM15.698,278.62C15.672,278.626 15.642,278.634 15.615,278.64C15.603,278.644 15.579,278.65 15.551,278.66C15.538,278.664 15.509,278.674 15.473,278.688C15.455,278.696 15.411,278.716 15.385,278.73C15.345,278.752 15.238,278.824 15.175,278.878C15.056,279.01 14.86,279.506 14.886,279.864C15.023,280.17 15.388,280.498 15.534,280.56C15.607,280.582 15.724,280.606 15.766,280.61C15.794,280.612 15.839,280.614 15.858,280.614C15.92,280.614 15.97,280.608 15.977,280.606C16.01,280.602 16.044,280.598 16.066,280.594C16.16,280.58 16.332,280.548 16.561,280.506C17.027,280.42 17.778,280.274 18.741,280.086C20.667,279.708 23.449,279.15 26.509,278.518C32.614,277.254 39.871,275.682 43.611,274.638L43.074,272.712C39.411,273.734 32.224,275.292 26.104,276.558C23.051,277.19 20.275,277.746 18.355,278.124C17.395,278.312 16.651,278.454 16.195,278.54C15.962,278.584 15.817,278.61 15.754,278.618C15.737,278.622 15.741,278.62 15.755,278.62C15.76,278.618 15.77,278.618 15.782,278.616C15.792,278.616 15.819,278.614 15.854,278.614C15.872,278.614 15.917,278.616 15.943,278.618C15.985,278.622 16.101,278.644 16.174,278.666C16.319,278.728 16.684,279.056 16.822,279.364C16.848,279.722 16.652,280.216 16.533,280.348C16.47,280.4 16.364,280.474 16.324,280.496C16.299,280.508 16.256,280.528 16.239,280.536C16.205,280.55 16.178,280.558 16.169,280.562C16.147,280.568 16.132,280.572 16.132,280.572C16.128,280.574 16.133,280.572 16.153,280.568L15.698,278.62ZM43.611,274.638C49.051,273.122 53.861,271.41 58.044,269.424L57.186,267.618C53.133,269.542 48.437,271.216 43.074,272.712L43.611,274.638ZM58.044,269.424C65.094,266.078 74.727,258.298 84.187,248.942C93.668,239.566 103.07,228.51 109.647,218.52L107.976,217.42C101.493,227.268 92.188,238.218 82.781,247.52C73.353,256.844 63.918,264.422 57.186,267.618L58.044,269.424ZM109.647,218.52C123.818,196.994 132.546,178.393 134.658,161.3L132.673,161.055C130.618,177.688 122.092,195.978 107.976,217.42L109.647,218.52ZM134.658,161.3C135.938,150.936 134.644,141.551 130.447,133.263C126.252,124.977 119.194,117.868 109.081,111.986L108.075,113.715C117.93,119.447 124.677,126.295 128.663,134.167C132.648,142.036 133.914,151.007 132.673,161.055L134.658,161.3ZM107.599,112.646C106.13,119.685 103.227,126.877 98.796,134.232L100.509,135.264C105.038,127.746 108.035,120.345 109.557,113.055L107.599,112.646Z" fill="#000000"/>
</svg>
