<svg width="282" height="168" viewBox="0 0 282 168" fill="none" xmlns="http://www.w3.org/2000/svg" xmlns:xlink="http://www.w3.org/1999/xlink">
<path d="M120.103,77.169C126.701,67.262 124.679,56.8 116.1,47.019C112.857,43.321 108.699,39.816 104.263,36.832C105.659,35.711 107.151,34.59 108.735,33.469C119.864,25.59 135.649,18.05 144.269,15.547C159.408,11.152 175.624,7.734 194.184,4.839C203.658,3.361 212.764,2.878 221.416,3.492C233.27,4.334 245.492,6.328 258.13,9.392C262.382,10.422 265.682,11.663 273.04,14.777C276.762,16.353 278.426,17.037 280.534,17.829L281.364,15.623C279.296,14.846 277.652,14.169 273.958,12.606C266.482,9.443 263.102,8.172 258.686,7.101C245.924,4.008 233.574,1.992 221.584,1.141C212.744,0.514 203.462,1.006 193.82,2.51C175.168,5.42 158.857,8.857 143.612,13.283C134.742,15.859 118.719,23.513 107.373,31.545C105.525,32.853 103.793,34.166 102.182,35.484C98.141,32.96 93.954,30.896 90.078,29.528C65.297,20.779 30.98,30.527 14.997,51.215C-18.739,94.881 6.101,158.171 60.816,167.047C65.294,167.773 70.3,167.313 75.972,165.845C80.187,164.754 84.468,163.214 90.025,160.913C89.231,161.241 98.431,157.357 100.545,156.547L99.7,154.346C97.544,155.173 88.292,159.079 89.123,158.735C83.659,160.997 79.469,162.505 75.382,163.563C70,164.956 65.306,165.387 61.193,164.72C8.245,156.131 -15.783,94.911 16.862,52.656C32.217,32.781 65.463,23.337 89.293,31.75C92.804,32.989 96.596,34.834 100.287,37.084C89.087,46.87 84.715,56.826 89.584,66.379C91.383,69.908 97.213,75.25 102.897,78.344C110.241,82.341 116.588,82.446 120.103,77.169ZM104.024,76.274C98.726,73.39 93.243,68.366 91.684,65.309C87.372,56.847 91.543,47.676 102.368,38.402C106.857,41.358 111.083,44.873 114.328,48.573C122.268,57.625 124.072,66.958 118.142,75.862C115.489,79.845 110.432,79.762 104.024,76.274Z" clip-rule="evenodd" fill-rule="evenodd" fill="#000000"/>
</svg>
