<svg width="258" height="208" viewBox="0 0 258 208" fill="none" xmlns="http://www.w3.org/2000/svg" xmlns:xlink="http://www.w3.org/1999/xlink">
<path d="M0,165.163L1.085,163.148C33.238,180.081 51.931,188.803 72.542,195.568C98.366,204.042 122.964,207.304 149.205,204.996C202.826,200.278 241.326,164.22 251.046,111.175C251.116,110.784 251.208,110.291 251.37,109.406C252.752,101.868 253.422,97.994 254.072,93.536C257.494,70.04 255.774,53.636 246.124,38.851C232.686,18.261 202.354,1.656 178.326,2.301C162.795,2.718 153.122,3.622 143.325,5.518C136.043,6.928 102.449,15.648 95.908,17.233C66.846,24.276 50.721,43.505 55.963,70.155C58.298,82.025 62.593,91.155 69.538,95.617C76.33,99.981 86.523,103.452 94.031,103.531C100.777,103.601 106.656,103.927 117.183,104.698C141.314,106.467 149.521,106.452 158.778,103.454C170.609,99.622 177.895,90.613 181.34,73.82L183.602,74.274C180.001,91.831 172.165,101.52 159.497,105.623C149.831,108.754 141.494,108.77 117.012,106.975C106.531,106.207 100.69,105.883 94.007,105.814C86.026,105.73 75.417,102.118 68.28,97.532C60.669,92.641 56.141,83.017 53.697,70.591C48.192,42.607 65.203,22.324 95.358,15.016C101.832,13.447 135.515,4.703 142.882,3.278C152.818,1.355 162.614,0.439 178.264,0.019C203.116,-0.648 234.198,16.367 248.064,37.613C258.076,52.955 259.852,69.872 256.358,93.861C255.702,98.355 255.028,102.249 253.642,109.813C253.48,110.698 253.388,111.191 253.318,111.582C243.414,165.622 204.084,202.458 149.409,207.27C122.839,209.608 97.927,206.304 71.815,197.734C51.046,190.918 32.261,182.153 0,165.163Z" transform="rotate(-360 129 104)" fill="#000000"/>
</svg>
