<svg width="260" height="210" viewBox="0 0 260 210" fill="none" xmlns="http://www.w3.org/2000/svg" xmlns:xlink="http://www.w3.org/1999/xlink">
<path d="M0.128,166.024L1.214,164.009C33.367,180.941 52.06,189.664 72.671,196.428C98.494,204.903 123.092,208.165 149.333,205.857C202.954,201.139 241.454,165.08 251.174,112.036C251.244,111.644 251.336,111.152 251.498,110.267C252.88,102.729 253.55,98.855 254.2,94.396C257.622,70.9 255.902,54.496 246.252,39.712C232.814,19.122 202.482,2.517 178.455,3.162C162.923,3.578 153.251,4.483 143.453,6.379C136.171,7.788 102.577,16.509 96.036,18.094C66.975,25.137 50.85,44.365 56.092,71.016C58.426,82.886 62.721,92.016 69.666,96.478C76.458,100.842 86.652,104.313 94.159,104.391C100.906,104.462 106.784,104.787 117.311,105.559C141.443,107.328 149.65,107.312 158.906,104.314C170.737,100.483 178.023,91.474 181.468,74.681L183.731,75.135C180.129,92.692 172.293,102.381 159.625,106.484C149.959,109.614 141.622,109.63 117.14,107.836C106.659,107.067 100.819,106.744 94.135,106.674C86.155,106.591 75.546,102.978 68.408,98.392C60.797,93.502 56.269,83.877 53.825,71.452C48.321,43.468 65.331,23.185 95.487,15.876C101.96,14.308 135.643,5.564 143.01,4.138C152.947,2.216 162.742,1.299 178.392,0.88C203.244,0.213 234.326,17.228 248.192,38.474C258.204,53.815 259.98,70.732 256.486,94.722C255.83,99.216 255.156,103.11 253.77,110.674C253.608,111.559 253.516,112.051 253.446,112.443C243.542,166.483 204.212,203.319 149.538,208.131C122.967,210.469 98.055,207.165 71.943,198.595C51.174,191.779 32.39,183.013 0.128,166.024Z" transform="rotate(20.042 129.128 104.861)" fill="#000000"/>
</svg>
