<svg width="240" height="142" viewBox="0 0 240 142" fill="none" xmlns="http://www.w3.org/2000/svg" xmlns:xlink="http://www.w3.org/1999/xlink">
<path d="M102.664,64.523C108.263,56.117 106.547,47.24 99.268,38.941C96.516,35.803 92.988,32.829 89.224,30.297C90.409,29.346 91.675,28.395 93.019,27.443C102.462,20.759 115.855,14.361 123.17,12.237C136.014,8.508 149.774,5.608 165.521,3.152C173.561,1.898 181.286,1.488 188.629,2.009C198.686,2.723 209.056,4.415 219.78,7.014C223.386,7.889 226.186,8.942 232.43,11.584C235.59,12.921 237,13.501 238.788,14.174L239.492,12.302C237.738,11.642 236.344,11.068 233.21,9.742C226.866,7.058 223.998,5.979 220.25,5.071C209.422,2.446 198.944,0.736 188.77,0.014C181.27,-0.519 173.395,-0.101 165.213,1.176C149.387,3.644 135.547,6.561 122.612,10.317C115.086,12.502 101.49,18.996 91.863,25.811C90.295,26.921 88.825,28.036 87.459,29.153C84.03,27.012 80.477,25.26 77.188,24.1C56.162,16.677 27.044,24.948 13.482,42.501C-15.142,79.552 5.934,133.253 52.359,140.783C56.159,141.4 60.407,141.01 65.22,139.764C68.796,138.838 72.428,137.531 77.143,135.579C76.47,135.858 84.276,132.562 86.069,131.875L85.353,130.007C83.524,130.709 75.673,134.023 76.378,133.731C71.742,135.651 68.187,136.93 64.719,137.827C60.152,139.01 56.17,139.375 52.68,138.809C7.753,131.522 -12.634,79.577 15.065,43.724C28.094,26.86 56.302,18.847 76.523,25.985C79.501,27.037 82.719,28.602 85.851,30.511C76.347,38.814 72.638,47.262 76.769,55.368C78.296,58.362 83.242,62.895 88.065,65.52C94.297,68.912 99.682,69 102.664,64.523ZM89.022,63.764C84.526,61.317 79.873,57.053 78.551,54.46C74.892,47.28 78.431,39.498 87.616,31.63C91.425,34.138 95.01,37.12 97.764,40.259C104.501,47.941 106.032,55.859 101,63.414C98.749,66.794 94.459,66.723 89.022,63.764Z" clip-rule="evenodd" fill-rule="evenodd" fill="#000000"/>
</svg>
