<svg width="68" height="84" viewBox="0 0 68 84" fill="none" xmlns="http://www.w3.org/2000/svg" xmlns:xlink="http://www.w3.org/1999/xlink">
<path d="M55.363,60.25C48.06,60.25 41.468,63.305 36.727,68.188L36.727,50.732C38.581,49.13 40.414,47.558 42.104,46.123C53.962,36.05 62.53,28.525 62.53,17.843C62.53,7.837 55.229,0 45.903,0C40.166,0 35.867,2.993 33.002,6.808C30.135,2.995 25.836,0 20.096,0C10.77,0 3.47,7.837 3.47,17.843C3.47,28.525 12.037,36.05 23.895,46.123C25.585,47.558 27.419,49.13 29.272,50.732L29.272,68.188C24.531,63.305 17.939,60.25 10.636,60.25L-0.546,60.25L-0.546,64C-0.546,71.338 2.463,77.982 7.306,82.75L58.693,82.75C63.536,77.982 66.545,71.338 66.545,64L66.545,60.25L55.363,60.25Z" clip-rule="evenodd" fill-rule="evenodd" fill="#2FB0AB"/>
</svg>
