<svg width="382" height="662" viewBox="0 0 382 662" fill="none" xmlns="http://www.w3.org/2000/svg" xmlns:xlink="http://www.w3.org/1999/xlink">
<path d="M185.973,646.664C196.221,641.296 213.332,631.138 238.506,615.322C239.206,614.882 239.556,614.058 240.096,611.66C240.122,611.546 240.122,611.546 240.148,611.43C240.746,608.79 241.226,607.48 242.41,606.192C247.016,601.182 250.984,597.468 260.07,589.386L260.106,589.352C269.614,580.894 273.728,577.022 278.408,571.804C286.618,562.654 296.496,549.238 307.75,532.248C311.752,526.206 315.896,519.758 320.174,512.934C327.498,501.254 334.96,488.884 342.824,475.494C345.796,470.436 348.694,465.456 351.918,459.88C353.35,457.404 357.918,449.48 358.776,447.998C386.056,400.848 380.446,348.122 348.524,292.732C341.59,280.702 334.834,270.676 327.502,261.89C327.31,261.658 326.64,260.852 326.546,260.74C326.164,260.28 325.862,259.922 325.568,259.578C322.076,255.498 319.506,253.62 316.792,253.624C301.892,253.65 298.696,254.994 296.33,259.918C293.538,265.728 292.144,267.752 287.336,271.23C250.378,297.956 226.148,314.418 200.352,329.628C168.19,348.59 137.429,362.902 105.229,373.278C65.106,386.208 30.231,376.504 12.604,342.274C-3.569,310.87 -3.661,270.71 9.152,222.182C15.988,196.287 26.068,169.263 40.016,137.507C43.625,129.29 47.345,121.077 52.061,110.845C52.537,109.813 60.87,91.81 63.072,86.995C71.103,69.438 75.502,58.84 77.885,50.762C80.592,41.586 82.052,34.037 84.804,16.88C86.191,8.239 86.838,4.401 87.762,-0.38L91.689,0.379C90.776,5.104 90.133,8.914 88.754,17.514C85.974,34.839 84.493,42.499 81.722,51.894C79.267,60.214 74.819,70.93 66.71,88.659C64.503,93.484 56.166,111.495 55.694,112.519C50.987,122.731 47.277,130.924 43.679,139.115C29.807,170.698 19.794,197.542 13.019,223.202C0.436,270.866 0.525,310.084 16.16,340.444C32.785,372.728 65.582,381.852 104.003,369.47C135.902,359.192 166.399,345.002 198.321,326.182C223.984,311.052 248.128,294.646 284.992,267.988C289.128,264.996 290.198,263.444 292.724,258.186C295.89,251.596 300.514,249.654 316.784,249.624C321.056,249.618 324.396,252.058 328.606,256.976C328.916,257.338 329.228,257.71 329.62,258.18C329.716,258.296 330.384,259.1 330.574,259.328C338.07,268.31 344.95,278.52 351.99,290.736C384.562,347.254 390.328,401.45 362.238,450.002C361.382,451.48 356.814,459.402 355.38,461.882C352.152,467.466 349.25,472.452 346.274,477.52C338.39,490.94 330.908,503.342 323.564,515.058C319.268,521.91 315.106,528.384 311.084,534.456C299.732,551.596 289.752,565.15 281.386,574.476C276.572,579.842 272.386,583.784 262.766,592.342L262.728,592.374C253.742,600.368 249.84,604.02 245.354,608.9C244.808,609.496 244.494,610.35 244.05,612.312C244.024,612.426 244.024,612.426 244,612.54C243.22,615.996 242.586,617.482 240.634,618.708C215.378,634.576 198.19,644.78 187.829,650.208C179.397,654.624 175.276,656.232 173.802,654.462C171.543,656.272 168.027,659.092 166.365,660.42L163.867,657.298C166.232,655.404 172.385,650.468 173.272,649.762C174.225,649.002 174.825,648.532 175.229,648.23C175.465,648.054 175.645,647.924 175.798,647.828C175.939,647.738 175.939,647.738 176.16,647.626C176.442,647.444 176.442,647.444 177.799,647.578C178.809,648.284 178.809,648.284 179.049,649.254C179.034,649.79 179.032,649.86 178.969,650.046C180.704,649.324 183.027,648.206 185.973,646.664Z" fill="#000000"/>
</svg>
