<svg width="64" height="30" viewBox="0 0 64 30" fill="none" xmlns="http://www.w3.org/2000/svg" xmlns:xlink="http://www.w3.org/1999/xlink">
<path d="M62.059,1.149C60.064,-0.209 57.712,0.176 55.63,1.383C53.548,2.59 41.593,12.859 41.593,12.859L29.825,12.861C29.278,12.861 28.685,12.242 28.685,11.695C28.685,11.051 29.243,10.549 29.825,10.549L37.025,10.549C39.545,10.549 42.366,8.9 42.366,5.967C42.366,2.852 39.545,1.385 37.025,1.385C32.653,1.385 31.802,1.404 31.802,1.404C30.051,1.404 28.274,1.298 26.906,0.563C25.081,-0.376 22.978,-0.908 20.734,-0.908C16.967,-0.908 13.594,0.602 11.281,2.982L-1,15.129L12.684,28.875L17.245,24.293L40.341,24.293C42.64,24.293 44.859,23.445 46.576,21.913L62.214,4.29C63.17,3.438 63.115,1.871 62.059,1.149Z" clip-rule="evenodd" fill-rule="evenodd" fill="#009EFF"/>
</svg>
