<svg width="480" height="284" viewBox="0 0 480 284" fill="none" xmlns="http://www.w3.org/2000/svg" xmlns:xlink="http://www.w3.org/1999/xlink">
<path d="M205.329,129.045C216.525,112.235 213.093,94.48 198.535,77.881C193.032,71.607 185.977,65.659 178.448,60.595C180.818,58.693 183.349,56.79 186.038,54.887C204.923,41.517 231.711,28.722 246.339,24.475C272.029,17.016 299.547,11.216 331.043,6.303C347.123,3.795 362.573,2.975 377.257,4.018C397.373,5.445 418.113,8.83 439.561,14.029C446.775,15.778 452.373,17.884 464.861,23.168C471.179,25.842 474.003,27.003 477.577,28.348L478.985,24.604C475.477,23.284 472.689,22.137 466.419,19.484C453.733,14.116 447.999,11.958 440.503,10.141C418.847,4.892 397.889,1.472 377.541,0.028C362.539,-1.037 346.789,-0.201 330.427,2.351C298.775,7.289 271.093,13.122 245.223,20.633C230.171,25.004 202.981,37.992 183.726,51.622C180.59,53.842 177.651,56.071 174.918,58.306C168.059,54.024 160.954,50.521 154.377,48.199C112.323,33.353 54.088,49.896 26.964,85.003C-30.285,159.104 11.869,266.506 104.719,281.566C112.318,282.8 120.814,282.02 130.44,279.528C137.592,277.676 144.856,275.062 154.287,271.158C152.94,271.716 168.553,265.124 172.138,263.75L170.706,260.014C167.047,261.418 151.346,268.046 152.757,267.462C143.483,271.302 136.374,273.86 129.437,275.654C120.305,278.02 112.34,278.75 105.359,277.618C15.507,263.044 -25.268,159.153 30.13,87.449C56.187,53.721 112.605,37.694 153.045,51.971C159.002,54.074 165.438,57.204 171.702,61.023C152.695,77.628 145.276,94.524 153.539,110.736C156.591,116.725 166.484,125.79 176.131,131.041C188.593,137.823 199.364,138.001 205.329,129.045ZM178.043,127.527C169.051,122.634 159.746,114.107 157.102,108.919C149.784,94.56 156.862,78.997 175.232,63.26C182.849,68.275 190.021,74.24 195.528,80.519C209.003,95.881 212.063,111.719 201.999,126.828C197.498,133.587 188.918,133.446 178.043,127.527Z" clip-rule="evenodd" fill-rule="evenodd" fill="#000000"/>
</svg>
