<svg width="796" height="678" viewBox="0 0 796 678" fill="none" xmlns="http://www.w3.org/2000/svg" xmlns:xlink="http://www.w3.org/1999/xlink">
<mask id="mask_0_78_2729" style="mask-type:alpha" maskUnits="userSpaceOnUse" x="156" y="247" width="200" height="200">
<circle cx="356" cy="447" r="200" fill="#000000"/>
</mask>
<g mask="url(#mask_0_78_2729)">
<path d="M2.001,242.249L2.001,241.249L1.001,241.249L1.001,242.249L2.001,242.249ZM3.001,242.25L3.001,241.25L3.001,242.25ZM1.999,244.249L0.999,244.249L0.999,245.249L1.999,245.249L1.999,244.249ZM2.999,244.25L3,243.25L3,243.25L2.999,244.25ZM744.499,244.75L744.499,243.75L744.499,243.75L744.499,244.75ZM745.499,244.751L745.499,245.751L746.499,245.751L746.499,244.751L745.499,244.751ZM745.501,242.751L746.501,242.751L746.501,241.751L745.501,241.751L745.501,242.751ZM744.501,242.75L744.499,243.75L744.501,242.75ZM2.001,266.249L2.001,265.249L1.001,265.249L1.001,266.249L2.001,266.249ZM3.001,266.25L3.001,265.25L3.001,265.25L3.001,266.25ZM1.999,268.249L0.999,268.249L0.999,269.249L1.999,269.249L1.999,268.249ZM2.999,268.25L2.999,269.25L2.999,269.25L2.999,268.25ZM744.499,268.75L744.499,269.75L744.499,269.75L744.499,268.75ZM745.499,268.751L745.499,269.751L746.499,269.751L746.499,268.751L745.499,268.751ZM745.501,266.751L746.501,266.751L746.501,265.751L745.501,265.751L745.501,266.751ZM744.501,266.75L744.501,265.75L744.501,265.75L744.501,266.75ZM3.001,290.25L3,291.25L3,291.25L3.001,290.25ZM2.001,290.249L2.002,289.249L1.002,289.249L1.001,290.249L2.001,290.249ZM744.501,290.75L744.501,289.75L744.501,289.75L744.501,290.75ZM745.501,290.751L746.501,290.751L746.501,289.751L745.501,289.751L745.501,290.751ZM745.499,292.751L745.499,293.751L746.499,293.751L746.499,292.751L745.499,292.751ZM744.499,292.75L744.501,291.75L744.501,291.75L744.499,292.75ZM3,292.25L2.999,293.25L2.999,293.25L3,292.25ZM2,292.249L1,292.249L0.999,293.249L1.999,293.249L2,292.249ZM2.001,314.249L2.001,313.249L1.001,313.249L1.001,314.249L2.001,314.249ZM3.001,314.25L3.001,313.25L3.001,313.25L3.001,314.25ZM1.999,316.249L0.999,316.249L0.999,317.249L1.999,317.249L1.999,316.249ZM2.999,316.25L3,315.25L3,315.25L2.999,316.25ZM744.499,316.75L744.499,317.75L744.499,317.75L744.499,316.75ZM745.499,316.751L745.499,317.751L746.499,317.751L746.499,316.751L745.499,316.751ZM745.501,314.751L746.501,314.751L746.501,313.751L745.501,313.751L745.501,314.751ZM744.501,314.75L744.499,315.75L744.499,315.75L744.501,314.75ZM3.001,338.25L3.001,337.25L3.001,337.25L3.001,338.25ZM2.001,338.249L2.001,337.249L1.001,337.249L1.001,338.249L2.001,338.249ZM744.501,338.75L744.499,339.75L744.499,339.75L744.501,338.75ZM745.501,338.751L746.501,338.751L746.501,337.751L745.501,337.751L745.501,338.751ZM745.499,340.751L745.499,341.751L746.499,341.751L746.499,340.751L745.499,340.751ZM744.499,340.75L744.499,341.75L744.499,341.75L744.499,340.75ZM2.999,340.25L3,339.25L3,339.25L2.999,340.25ZM1.999,340.249L0.999,340.249L0.999,341.249L1.999,341.249L1.999,340.249ZM2.001,362.25L2.001,361.25L1.001,361.249L1.001,362.249L2.001,362.25ZM3.001,362.25L3.001,361.25L3.001,361.25L3.001,362.25ZM1.999,364.25L0.999,364.249L0.998,365.249L1.998,365.25L1.999,364.25ZM2.999,364.25L3,363.25L3,363.25L2.999,364.25ZM744.499,364.75L744.499,365.75L744.499,365.75L744.499,364.75ZM745.499,364.751L745.499,365.751L746.499,365.752L746.499,364.752L745.499,364.751ZM745.501,362.751L746.501,362.752L746.501,361.752L745.501,361.751L745.501,362.751ZM744.501,362.75L744.499,363.75L744.499,363.75L744.501,362.75ZM3.001,386.25L3.001,385.25L3.001,385.25L3.001,386.25ZM2.001,386.249L2.001,385.249L1.001,385.248L1.001,386.248L2.001,386.249ZM744.501,386.75L744.499,387.75L744.499,387.75L744.501,386.75ZM745.501,386.75L746.501,386.751L746.501,385.751L745.501,385.75L745.501,386.75ZM745.499,388.75L745.499,389.75L746.499,389.751L746.499,388.751L745.499,388.75ZM744.499,388.75L744.499,389.75L744.499,389.75L744.499,388.75ZM2.999,388.25L3,387.25L3,387.25L2.999,388.25ZM1.999,388.249L0.999,388.248L0.998,389.248L1.998,389.249L1.999,388.249ZM2.001,410.249L2.001,409.249L1.001,409.249L1.001,410.249L2.001,410.249ZM3.001,410.25L3.001,409.25L3.001,409.25L3.001,410.25ZM1.999,412.249L0.999,412.249L0.999,413.249L1.999,413.249L1.999,412.249ZM2.999,412.25L3,411.25L3,411.25L2.999,412.25ZM744.499,412.75L744.499,413.75L744.499,413.75L744.499,412.75ZM745.499,412.751L745.499,413.751L746.499,413.751L746.499,412.751L745.499,412.751ZM745.501,410.751L746.501,410.751L746.501,409.751L745.501,409.751L745.501,410.751ZM744.501,410.75L744.499,411.75L744.499,411.75L744.501,410.75ZM3.001,434.25L3.001,433.25L3.001,433.25L3.001,434.25ZM2.001,434.249L2.001,433.249L1.001,433.249L1.001,434.249L2.001,434.249ZM744.501,434.75L744.499,435.75L744.499,435.75L744.501,434.75ZM745.501,434.751L746.501,434.751L746.501,433.751L745.501,433.751L745.501,434.751ZM745.499,436.751L745.499,437.751L746.499,437.751L746.499,436.751L745.499,436.751ZM744.499,436.75L744.499,437.75L744.499,437.75L744.499,436.75ZM2.999,436.25L3,435.25L3,435.25L2.999,436.25ZM1.999,436.249L0.999,436.249L0.999,437.249L1.999,437.249L1.999,436.249ZM2.001,458.249L2.002,457.249L1.002,457.249L1.001,458.249L2.001,458.249ZM3.001,458.249L3.002,457.249L3.002,457.249L3.001,458.249ZM2,460.249L1,460.249L0.999,461.249L1.999,461.249L2,460.249ZM3,460.249L3,459.249L3,459.249L3,460.249ZM744.499,460.749L744.499,461.749L744.499,461.749L744.499,460.749ZM745.499,460.751L745.499,461.751L746.499,461.751L746.499,460.751L745.499,460.751ZM745.501,458.751L746.501,458.751L746.501,457.751L745.501,457.751L745.501,458.751ZM744.501,458.749L744.499,459.749L744.501,459.749L744.501,458.749ZM3.001,482.249L3.001,481.249L3.001,481.249L3.001,482.249ZM2.001,482.249L2.001,481.249L1.001,481.249L1.001,482.249L2.001,482.249ZM744.501,482.749L744.499,483.749L744.499,483.749L744.501,482.749ZM745.501,482.751L746.501,482.751L746.501,481.751L745.501,481.751L745.501,482.751ZM745.499,484.751L745.499,485.751L746.499,485.751L746.499,484.751L745.499,484.751ZM744.499,484.749L744.499,485.749L744.499,485.749L744.499,484.749ZM2.999,484.249L3,483.249L3,483.249L2.999,484.249ZM1.999,484.249L0.999,484.249L0.999,485.249L1.999,485.249L1.999,484.249ZM2.001,506.249L2.001,505.249L1.001,505.249L1.001,506.249L2.001,506.249ZM3.001,506.249L3.001,505.249L3.001,505.249L3.001,506.249ZM1.999,508.249L0.999,508.249L0.999,509.249L1.999,509.249L1.999,508.249ZM2.999,508.249L3,507.249L3,507.249L2.999,508.249ZM744.499,508.749L744.499,509.749L744.499,509.749L744.499,508.749ZM745.499,508.751L745.499,509.751L746.499,509.751L746.499,508.751L745.499,508.751ZM745.501,506.751L746.501,506.751L746.501,505.751L745.501,505.751L745.501,506.751ZM744.501,506.749L744.499,507.749L744.499,507.749L744.501,506.749ZM3.001,530.249L3.001,529.249L3.001,529.249L3.001,530.249ZM2.001,530.249L2.001,529.249L1.001,529.249L1.001,530.249L2.001,530.249ZM744.501,530.749L744.499,531.749L744.499,531.749L744.501,530.749ZM745.501,530.751L746.501,530.751L746.501,529.751L745.501,529.751L745.501,530.751ZM745.499,532.751L745.499,533.751L746.499,533.751L746.499,532.751L745.499,532.751ZM744.499,532.749L744.499,533.749L744.499,533.749L744.499,532.749ZM2.999,532.249L3,531.249L3,531.249L2.999,532.249ZM1.999,532.249L0.999,532.249L0.998,533.249L1.998,533.249L1.999,532.249ZM2.001,554.249L2.001,553.249L1.001,553.249L1.001,554.249L2.001,554.249ZM3.001,554.249L3.001,553.249L3.001,553.249L3.001,554.249ZM1.999,556.249L0.999,556.249L0.998,557.249L1.998,557.249L1.999,556.249ZM2.999,556.249L3,555.249L3,555.249L2.999,556.249ZM744.499,556.749L744.499,557.749L744.499,557.749L744.499,556.749ZM745.499,556.751L745.499,557.751L746.499,557.751L746.499,556.751L745.499,556.751ZM745.501,554.751L746.501,554.751L746.501,553.751L745.501,553.751L745.501,554.751ZM744.501,554.749L744.499,555.749L744.499,555.749L744.501,554.749ZM3.001,578.249L3.001,577.249L3.001,577.249L3.001,578.249ZM2.001,578.249L2.001,577.249L1.001,577.249L1.001,578.249L2.001,578.249ZM744.501,578.749L744.499,579.749L744.499,579.749L744.501,578.749ZM745.501,578.751L746.501,578.751L746.501,577.751L745.501,577.751L745.501,578.751ZM745.499,580.751L745.499,581.751L746.499,581.751L746.499,580.751L745.499,580.751ZM744.499,580.749L744.499,581.749L744.499,581.749L744.499,580.749ZM2.999,580.249L3,579.249L3,579.249L2.999,580.249ZM1.999,580.249L0.999,580.249L0.999,581.249L1.999,581.249L1.999,580.249ZM2.001,602.249L2.001,601.249L1.001,601.249L1.001,602.249L2.001,602.249ZM3.001,602.249L3.001,601.249L3.001,601.249L3.001,602.249ZM1.999,604.249L0.999,604.249L0.999,605.249L1.999,605.249L1.999,604.249ZM2.999,604.249L3,603.249L3,603.249L2.999,604.249ZM744.499,604.749L744.499,605.749L744.499,605.749L744.499,604.749ZM745.499,604.751L745.499,605.751L746.499,605.751L746.499,604.751L745.499,604.751ZM745.501,602.751L746.501,602.751L746.501,601.751L745.501,601.751L745.501,602.751ZM744.501,602.749L744.499,603.749L744.499,603.749L744.501,602.749ZM3.001,626.249L3.002,625.249L3.002,625.249L3.001,626.249ZM2.001,626.249L2.002,625.249L1.002,625.249L1.001,626.249L2.001,626.249ZM744.501,626.749L744.499,627.749L744.501,627.749L744.501,626.749ZM745.501,626.751L746.501,626.751L746.501,625.751L745.501,625.751L745.501,626.751ZM745.499,628.751L745.499,629.751L746.499,629.751L746.499,628.751L745.499,628.751ZM744.499,628.749L744.499,629.749L744.499,629.749L744.499,628.749ZM3,628.249L3,627.249L3,627.249L3,628.249ZM2,628.249L1,628.249L0.999,629.249L1.999,629.249L2,628.249ZM2.001,650.249L2.001,649.249L1.001,649.249L1.001,650.249L2.001,650.249ZM3.001,650.249L3.001,649.249L3.001,649.249L3.001,650.249ZM1.999,652.249L0.999,652.249L0.999,653.249L1.999,653.249L1.999,652.249ZM2.999,652.249L3,651.249L3,651.249L2.999,652.249ZM744.499,652.749L744.499,653.749L744.499,653.749L744.499,652.749ZM745.499,652.751L745.499,653.751L746.499,653.751L746.499,652.751L745.499,652.751ZM745.501,650.751L746.501,650.751L746.501,649.751L745.501,649.751L745.501,650.751ZM744.501,650.749L744.499,651.749L744.499,651.749L744.501,650.749ZM2,243.249L3,243.25L3.001,241.25L2.001,241.249L2,243.249ZM2.999,244.25L3.001,242.25L1.001,242.249L0.999,244.249L2.999,244.25ZM3,243.25L2,243.249L1.999,245.249L2.999,245.25L3,243.25ZM744.499,243.75L3,243.25L2.999,245.25L744.499,245.75L744.499,243.75ZM745.499,243.751L744.499,243.75L744.499,245.75L745.499,245.751L745.499,243.751ZM744.501,242.75L744.499,244.75L746.499,244.751L746.501,242.751L744.501,242.75ZM744.499,243.75L745.499,243.751L745.501,241.751L744.501,241.75L744.499,243.75ZM3,243.25L744.499,243.75L744.501,241.75L3.001,241.25L3,243.25ZM2,267.249L3,267.25L3.001,265.25L2.001,265.249L2,267.249ZM2.999,268.25L3.001,266.25L1.001,266.249L0.999,268.249L2.999,268.25ZM3,267.25L2,267.249L1.999,269.249L2.999,269.25L3,267.25ZM744.499,267.75L3,267.25L2.999,269.25L744.499,269.75L744.499,267.75ZM745.499,267.751L744.499,267.75L744.499,269.75L745.499,269.751L745.499,267.751ZM744.501,266.75L744.499,268.75L746.499,268.751L746.501,266.751L744.501,266.75ZM744.499,267.75L745.499,267.751L745.501,265.751L744.501,265.75L744.499,267.75ZM3,267.25L744.499,267.75L744.501,265.75L3.001,265.25L3,267.25ZM3.002,289.25L2.002,289.249L2,291.249L3,291.25L3.002,289.25ZM744.501,289.75L3.002,289.25L3,291.25L744.499,291.75L744.501,289.75ZM745.501,289.751L744.501,289.75L744.499,291.75L745.499,291.751L745.501,289.751ZM746.499,292.751L746.501,290.751L744.501,290.75L744.499,292.75L746.499,292.751ZM744.499,293.75L745.499,293.751L745.501,291.751L744.501,291.75L744.499,293.75ZM2.999,293.25L744.499,293.75L744.501,291.75L3,291.25L2.999,293.25ZM1.999,293.249L2.999,293.25L3,291.25L2,291.249L1.999,293.249ZM1.001,290.249L1,292.249L3,292.25L3.001,290.25L1.001,290.249ZM2,315.249L3,315.25L3.001,313.25L2.001,313.249L2,315.249ZM2.999,316.25L3.001,314.25L1.001,314.249L0.999,316.249L2.999,316.25ZM3,315.25L2,315.249L1.999,317.249L2.999,317.25L3,315.25ZM744.499,315.75L3,315.25L2.999,317.25L744.499,317.75L744.499,315.75ZM745.499,315.751L744.499,315.75L744.499,317.75L745.499,317.751L745.499,315.751ZM744.501,314.75L744.499,316.75L746.499,316.751L746.501,314.751L744.501,314.75ZM744.499,315.75L745.499,315.751L745.501,313.751L744.501,313.75L744.499,315.75ZM3,315.25L744.499,315.75L744.501,313.75L3.001,313.25L3,315.25ZM3.001,337.25L2.001,337.249L2,339.249L3,339.25L3.001,337.25ZM744.501,337.75L3.001,337.25L3,339.25L744.499,339.75L744.501,337.75ZM745.501,337.751L744.501,337.75L744.499,339.75L745.499,339.751L745.501,337.751ZM746.499,340.751L746.501,338.751L744.501,338.75L744.499,340.75L746.499,340.751ZM744.499,341.75L745.499,341.751L745.499,339.751L744.499,339.75L744.499,341.75ZM2.999,341.25L744.499,341.75L744.499,339.75L3,339.25L2.999,341.25ZM1.999,341.249L2.999,341.25L3,339.25L2,339.249L1.999,341.249ZM1.001,338.249L0.999,340.249L2.999,340.25L3.001,338.25L1.001,338.249ZM2,363.25L3,363.25L3.001,361.25L2.001,361.25L2,363.25ZM2.999,364.25L3.001,362.25L1.001,362.249L0.999,364.249L2.999,364.25ZM3,363.25L2,363.25L1.998,365.25L2.998,365.25L3,363.25ZM744.499,363.75L3,363.25L2.998,365.25L744.499,365.75L744.499,363.75ZM745.499,363.751L744.499,363.75L744.499,365.75L745.499,365.751L745.499,363.751ZM744.501,362.75L744.499,364.75L746.499,364.752L746.501,362.752L744.501,362.75ZM744.499,363.75L745.499,363.751L745.501,361.751L744.501,361.75L744.499,363.75ZM3,363.25L744.499,363.75L744.501,361.75L3.001,361.25L3,363.25ZM3.001,385.25L2.001,385.249L2,387.249L3,387.25L3.001,385.25ZM744.501,385.75L3.001,385.25L3,387.25L744.499,387.75L744.501,385.75ZM745.501,385.75L744.501,385.75L744.499,387.75L745.499,387.75L745.501,385.75ZM746.499,388.751L746.501,386.751L744.501,386.75L744.499,388.75L746.499,388.751ZM744.499,389.75L745.499,389.75L745.499,387.75L744.499,387.75L744.499,389.75ZM2.998,389.25L744.499,389.75L744.499,387.75L3,387.25L2.998,389.25ZM1.998,389.249L2.998,389.25L3,387.25L2,387.249L1.998,389.249ZM1.001,386.248L0.999,388.248L2.999,388.25L3.001,386.25L1.001,386.248ZM2,411.249L3,411.25L3.001,409.25L2.001,409.249L2,411.249ZM2.999,412.25L3.001,410.25L1.001,410.249L0.999,412.249L2.999,412.25ZM3,411.25L2,411.249L1.999,413.249L2.999,413.25L3,411.25ZM744.499,411.75L3,411.25L2.999,413.25L744.499,413.75L744.499,411.75ZM745.499,411.751L744.499,411.75L744.499,413.75L745.499,413.751L745.499,411.751ZM744.501,410.75L744.499,412.75L746.499,412.751L746.501,410.751L744.501,410.75ZM744.499,411.75L745.499,411.751L745.501,409.751L744.501,409.75L744.499,411.75ZM3,411.25L744.499,411.75L744.501,409.75L3.001,409.25L3,411.25ZM3.001,433.25L2.001,433.249L2,435.249L3,435.25L3.001,433.25ZM744.501,433.75L3.001,433.25L3,435.25L744.499,435.75L744.501,433.75ZM745.501,433.751L744.501,433.75L744.499,435.75L745.499,435.751L745.501,433.751ZM746.499,436.751L746.501,434.751L744.501,434.75L744.499,436.75L746.499,436.751ZM744.499,437.75L745.499,437.751L745.499,435.751L744.499,435.75L744.499,437.75ZM2.999,437.25L744.499,437.75L744.499,435.75L3,435.25L2.999,437.25ZM1.999,437.249L2.999,437.25L3,435.25L2,435.249L1.999,437.249ZM1.001,434.249L0.999,436.249L2.999,436.25L3.001,434.25L1.001,434.249ZM2,459.249L3,459.249L3.002,457.249L2.002,457.249L2,459.249ZM3,460.249L3.001,458.249L1.001,458.249L1,460.249L3,460.249ZM3,459.249L2,459.249L1.999,461.249L2.999,461.249L3,459.249ZM744.501,459.749L3,459.249L2.999,461.249L744.499,461.749L744.501,459.749ZM745.501,459.751L744.501,459.749L744.499,461.749L745.499,461.751L745.501,459.751ZM744.501,458.749L744.499,460.749L746.499,460.751L746.501,458.751L744.501,458.749ZM744.501,459.749L745.501,459.751L745.501,457.751L744.501,457.749L744.501,459.749ZM3,459.249L744.499,459.749L744.501,457.749L3.002,457.249L3,459.249ZM3.001,481.249L2.001,481.249L2,483.249L3,483.249L3.001,481.249ZM744.501,481.749L3.001,481.249L3,483.249L744.499,483.749L744.501,481.749ZM745.501,481.751L744.501,481.749L744.499,483.749L745.499,483.751L745.501,481.751ZM746.499,484.751L746.501,482.751L744.501,482.749L744.499,484.749L746.499,484.751ZM744.499,485.749L745.499,485.751L745.499,483.751L744.499,483.749L744.499,485.749ZM2.999,485.249L744.499,485.749L744.499,483.749L3,483.249L2.999,485.249ZM1.999,485.249L2.999,485.249L3,483.249L2,483.249L1.999,485.249ZM1.001,482.249L0.999,484.249L2.999,484.249L3.001,482.249L1.001,482.249ZM2,507.249L3,507.249L3.001,505.249L2.001,505.249L2,507.249ZM2.999,508.249L3.001,506.249L1.001,506.249L0.999,508.249L2.999,508.249ZM3,507.249L2,507.249L1.999,509.249L2.999,509.249L3,507.249ZM744.499,507.749L3,507.249L2.999,509.249L744.499,509.749L744.499,507.749ZM745.499,507.751L744.499,507.749L744.499,509.749L745.499,509.751L745.499,507.751ZM744.501,506.749L744.499,508.749L746.499,508.751L746.501,506.751L744.501,506.749ZM744.499,507.749L745.499,507.751L745.501,505.751L744.501,505.749L744.499,507.749ZM3,507.249L744.499,507.749L744.501,505.749L3.001,505.249L3,507.249ZM3.001,529.249L2.001,529.249L2,531.249L3,531.249L3.001,529.249ZM744.501,529.749L3.001,529.249L3,531.249L744.499,531.749L744.501,529.749ZM745.501,529.751L744.501,529.749L744.499,531.749L745.499,531.751L745.501,529.751ZM746.499,532.751L746.501,530.751L744.501,530.749L744.499,532.749L746.499,532.751ZM744.499,533.749L745.499,533.751L745.499,531.751L744.499,531.749L744.499,533.749ZM2.998,533.249L744.499,533.749L744.499,531.749L3,531.249L2.998,533.249ZM1.998,533.249L2.998,533.249L3,531.249L2,531.249L1.998,533.249ZM1.001,530.249L0.999,532.249L2.999,532.249L3.001,530.249L1.001,530.249ZM2,555.249L3,555.249L3.001,553.249L2.001,553.249L2,555.249ZM2.999,556.249L3.001,554.249L1.001,554.249L0.999,556.249L2.999,556.249ZM3,555.249L2,555.249L1.998,557.249L2.998,557.249L3,555.249ZM744.499,555.749L3,555.249L2.998,557.249L744.499,557.749L744.499,555.749ZM745.499,555.751L744.499,555.749L744.499,557.749L745.499,557.751L745.499,555.751ZM744.501,554.749L744.499,556.749L746.499,556.751L746.501,554.751L744.501,554.749ZM744.499,555.749L745.499,555.751L745.501,553.751L744.501,553.749L744.499,555.749ZM3,555.249L744.499,555.749L744.501,553.749L3.001,553.249L3,555.249ZM3.001,577.249L2.001,577.249L2,579.249L3,579.249L3.001,577.249ZM744.501,577.749L3.001,577.249L3,579.249L744.499,579.749L744.501,577.749ZM745.501,577.751L744.501,577.749L744.499,579.749L745.499,579.751L745.501,577.751ZM746.499,580.751L746.501,578.751L744.501,578.749L744.499,580.749L746.499,580.751ZM744.499,581.749L745.499,581.751L745.499,579.751L744.499,579.749L744.499,581.749ZM2.999,581.249L744.499,581.749L744.499,579.749L3,579.249L2.999,581.249ZM1.999,581.249L2.999,581.249L3,579.249L2,579.249L1.999,581.249ZM1.001,578.249L0.999,580.249L2.999,580.249L3.001,578.249L1.001,578.249ZM2,603.249L3,603.249L3.001,601.249L2.001,601.249L2,603.249ZM2.999,604.249L3.001,602.249L1.001,602.249L0.999,604.249L2.999,604.249ZM3,603.249L2,603.249L1.999,605.249L2.999,605.249L3,603.249ZM744.499,603.749L3,603.249L2.999,605.249L744.499,605.749L744.499,603.749ZM745.499,603.751L744.499,603.749L744.499,605.749L745.499,605.751L745.499,603.751ZM744.501,602.749L744.499,604.749L746.499,604.751L746.501,602.751L744.501,602.749ZM744.499,603.749L745.499,603.751L745.501,601.751L744.501,601.749L744.499,603.749ZM3,603.249L744.499,603.749L744.501,601.749L3.001,601.249L3,603.249ZM3.002,625.249L2.002,625.249L2,627.249L3,627.249L3.002,625.249ZM744.501,625.749L3.002,625.249L3,627.249L744.499,627.749L744.501,625.749ZM745.501,625.751L744.501,625.749L744.501,627.749L745.501,627.751L745.501,625.751ZM746.499,628.751L746.501,626.751L744.501,626.749L744.499,628.749L746.499,628.751ZM744.499,629.749L745.499,629.751L745.501,627.751L744.501,627.749L744.499,629.749ZM2.999,629.249L744.499,629.749L744.501,627.749L3,627.249L2.999,629.249ZM1.999,629.249L2.999,629.249L3,627.249L2,627.249L1.999,629.249ZM1.001,626.249L1,628.249L3,628.249L3.001,626.249L1.001,626.249ZM2,651.249L3,651.249L3.001,649.249L2.001,649.249L2,651.249ZM2.999,652.249L3.001,650.249L1.001,650.249L0.999,652.249L2.999,652.249ZM3,651.249L2,651.249L1.999,653.249L2.999,653.249L3,651.249ZM744.499,651.749L3,651.249L2.999,653.249L744.499,653.749L744.499,651.749ZM745.499,651.751L744.499,651.749L744.499,653.749L745.499,653.751L745.499,651.751ZM744.501,650.749L744.499,652.749L746.499,652.751L746.501,650.751L744.501,650.749ZM744.499,651.749L745.499,651.751L745.501,649.751L744.501,649.749L744.499,651.749ZM3,651.249L744.499,651.749L744.501,649.749L3.001,649.249L3,651.249Z" transform="rotate(90 373.75 447.5)" fill="#000000"/>
</g>
<path d="M701.004,162.61C721.182,167.207 744.458,158.8 755.129,141.199C759.92,133.295 763.075,125.54 764.675,117.926C786.032,130.269 794.203,147.594 791.506,169.288C789.278,187.21 780.051,206.814 764.925,229.648C750.957,250.732 724.908,276.42 710.169,283.374C705.764,285.452 700.681,287.25 694.904,288.852C686.986,291.046 664.008,295.506 665.581,295.142C662.716,295.808 660.497,296.54 655.566,298.332C653.129,299.218 652.045,299.602 650.687,300.05L651.313,301.95C652.697,301.494 653.793,301.104 656.249,300.212C661.105,298.446 663.273,297.732 666.033,297.09C664.392,297.472 687.429,292.998 695.438,290.778C701.317,289.15 706.504,287.314 711.022,285.182C726.141,278.05 752.44,252.116 766.592,230.752C781.875,207.682 791.215,187.837 793.491,169.535C796.311,146.847 787.58,128.621 765.073,115.85C767.719,100.596 764.108,85.908 754.892,71.723C743.453,54.116 724.1,38.046 697.302,21.857C685.934,14.99 677.824,10.595 657.772,0.114L656.846,1.886C676.86,12.348 684.947,16.73 696.268,23.569C722.829,39.615 741.976,55.513 753.215,72.813C762.017,86.36 765.552,100.314 763.217,114.826C762.863,114.636 762.506,114.447 762.146,114.26C754.207,110.133 735.491,105.49 719.574,104.236C698.716,102.594 684.043,106.326 679.706,116.761C669.893,140.373 679.648,157.746 701.004,162.61ZM719.417,106.23C735.086,107.464 753.547,112.044 761.224,116.035C761.772,116.32 762.312,116.607 762.844,116.898C761.335,124.492 758.221,132.24 753.419,140.162C743.218,156.987 720.826,165.074 701.448,160.66C681.269,156.064 672.229,139.964 681.553,117.529C685.434,108.192 699.357,104.65 719.417,106.23Z" clip-rule="evenodd" fill-rule="evenodd" fill="#000000"/>
<circle cx="642" cy="564" r="114" fill="#009EFF"/>
</svg>
