<svg width="1588" height="1356" viewBox="0 0 1588 1356" fill="none" xmlns="http://www.w3.org/2000/svg" xmlns:xlink="http://www.w3.org/1999/xlink">
<mask id="mask_0_33_832" style="mask-type:alpha" maskUnits="userSpaceOnUse" x="310" y="494" width="400" height="400">
<circle cx="710" cy="894" r="400" fill="#000000"/>
</mask>
<g mask="url(#mask_0_33_832)">
<path d="M2.001,484.499L2.003,482.499L0.003,482.497L0.001,484.497L2.001,484.499ZM4.001,484.5L4.003,482.5L4.001,484.5ZM1.999,488.499L-0.001,488.497L-0.003,490.497L1.997,490.499L1.999,488.499ZM3.999,488.5L4,486.5L4,486.5L3.999,488.5ZM1486.998,489.5L1487,487.5L1487,487.5L1486.998,489.5ZM1488.998,489.502L1488.996,491.502L1490.996,491.503L1490.998,489.503L1488.998,489.502ZM1489,485.502L1491,485.503L1491.002,483.503L1489.002,483.502L1489,485.502ZM1487,485.5L1487,487.5L1487,485.5ZM2.001,532.499L2.003,530.499L0.003,530.497L0.001,532.497L2.001,532.499ZM4.001,532.5L4.003,530.5L4.003,530.5L4.001,532.5ZM1.999,536.499L-0.001,536.497L-0.003,538.497L1.997,538.499L1.999,536.499ZM3.999,536.5L3.997,538.5L3.997,538.5L3.999,536.5ZM1486.998,537.5L1486.996,539.5L1486.996,539.5L1486.998,537.5ZM1488.998,537.501L1488.996,539.501L1490.996,539.503L1490.998,537.503L1488.998,537.501ZM1489,533.501L1491,533.503L1491.002,531.503L1489.002,531.501L1489,533.501ZM1487,533.5L1487.002,531.5L1487.002,531.5L1487,533.5ZM4.001,580.5L4,582.5L4,582.5L4.001,580.5ZM2.001,580.499L2.003,578.499L0.003,578.497L0.001,580.497L2.001,580.499ZM1487,581.5L1487.002,579.5L1487.002,579.5L1487,581.5ZM1489,581.502L1491,581.503L1491.002,579.503L1489.002,579.502L1489,581.502ZM1488.998,585.502L1488.996,587.502L1490.996,587.503L1490.998,585.503L1488.998,585.502ZM1486.998,585.5L1487,583.5L1487,583.5L1486.998,585.5ZM3.999,584.5L3.997,586.5L3.997,586.5L3.999,584.5ZM1.999,584.499L-0.001,584.497L-0.003,586.497L1.997,586.499L1.999,584.499ZM2.001,628.499L2.003,626.499L0.003,626.497L0.001,628.497L2.001,628.499ZM4.001,628.5L4.003,626.5L4.003,626.5L4.001,628.5ZM1.999,632.499L-0.001,632.497L-0.003,634.497L1.997,634.499L1.999,632.499ZM3.999,632.5L4,630.5L4,630.5L3.999,632.5ZM1486.998,633.5L1486.996,635.5L1486.996,635.5L1486.998,633.5ZM1488.998,633.501L1488.996,635.501L1490.996,635.503L1490.998,633.503L1488.998,633.501ZM1489,629.501L1491,629.503L1491.002,627.503L1489.002,627.501L1489,629.501ZM1487,629.5L1487,631.5L1487,631.5L1487,629.5ZM4.001,676.5L4.003,674.5L4.003,674.5L4.001,676.5ZM2.001,676.499L2.003,674.499L0.003,674.497L0.001,676.497L2.001,676.499ZM1487,677.5L1487,679.5L1487,679.5L1487,677.5ZM1489,677.501L1491,677.503L1491.002,675.503L1489.002,675.501L1489,677.501ZM1488.998,681.501L1488.996,683.501L1490.996,683.503L1490.998,681.503L1488.998,681.501ZM1486.998,681.5L1486.996,683.5L1486.996,683.5L1486.998,681.5ZM3.999,680.5L4,678.5L4,678.5L3.999,680.5ZM1.999,680.499L-0.001,680.497L-0.003,682.497L1.997,682.499L1.999,680.499ZM2.001,724.499L2.003,722.499L0.003,722.497L0.001,724.497L2.001,724.499ZM4.001,724.501L4.003,722.501L4.003,722.501L4.001,724.501ZM1.999,728.499L-0.001,728.497L-0.003,730.497L1.997,730.499L1.999,728.499ZM3.999,728.501L4,726.501L4,726.501L3.999,728.501ZM1486.998,729.501L1486.996,731.501L1486.996,731.501L1486.998,729.501ZM1488.998,729.501L1488.996,731.501L1490.996,731.503L1490.998,729.503L1488.998,729.501ZM1489,725.501L1491,725.503L1491.002,723.503L1489.002,723.501L1489,725.501ZM1487,725.501L1487,727.501L1487,727.501L1487,725.501ZM4.001,772.499L4.002,770.499L4.002,770.499L4.001,772.499ZM2.001,772.499L2.002,770.499L0.002,770.497L0.001,772.497L2.001,772.499ZM1487,773.499L1487,775.499L1487,775.499L1487,773.499ZM1489,773.501L1491,773.503L1491.002,771.503L1489.002,771.501L1489,773.501ZM1488.998,777.501L1488.996,779.501L1490.996,779.503L1490.998,777.503L1488.998,777.501ZM1486.998,777.499L1486.996,779.499L1486.996,779.499L1486.998,777.499ZM3.998,776.499L4,774.499L4,774.499L3.998,776.499ZM1.998,776.499L-0.002,776.497L-0.003,778.497L1.997,778.499L1.998,776.499ZM2.001,820.499L2.003,818.499L0.003,818.497L0.001,820.497L2.001,820.499ZM4.001,820.501L4.003,818.501L4.003,818.501L4.001,820.501ZM1.999,824.499L-0.001,824.497L-0.003,826.497L1.997,826.499L1.999,824.499ZM3.999,824.501L4,822.501L4,822.501L3.999,824.501ZM1486.998,825.501L1486.996,827.501L1486.996,827.501L1486.998,825.501ZM1488.998,825.501L1488.996,827.501L1490.996,827.503L1490.998,825.503L1488.998,825.501ZM1489,821.501L1491,821.503L1491.002,819.503L1489.002,819.501L1489,821.501ZM1487,821.501L1487,823.501L1487,823.501L1487,821.501ZM4.001,868.501L4.003,866.501L4.003,866.501L4.001,868.501ZM2.001,868.499L2.003,866.499L0.003,866.497L0.001,868.497L2.001,868.499ZM1487,869.501L1487,871.501L1487,871.501L1487,869.501ZM1489,869.501L1491,869.503L1491.002,867.503L1489.002,867.501L1489,869.501ZM1488.998,873.501L1488.996,875.501L1490.996,875.503L1490.998,873.503L1488.998,873.501ZM1486.998,873.501L1486.996,875.501L1486.996,875.501L1486.998,873.501ZM3.999,872.501L4,870.501L4,870.501L3.999,872.501ZM1.999,872.499L-0.001,872.497L-0.003,874.497L1.997,874.499L1.999,872.499ZM2.001,916.499L2.003,914.499L0.003,914.497L0.001,916.497L2.001,916.499ZM4.001,916.501L4.003,914.501L4.003,914.501L4.001,916.501ZM1.999,920.499L-0.001,920.497L-0.003,922.497L1.997,922.499L1.999,920.499ZM3.999,920.501L4,918.501L4,918.501L3.999,920.501ZM1486.998,921.501L1486.996,923.501L1486.996,923.501L1486.998,921.501ZM1488.998,921.501L1488.996,923.501L1490.996,923.503L1490.998,921.503L1488.998,921.501ZM1489,917.501L1491,917.503L1491.002,915.503L1489.002,915.501L1489,917.501ZM1487,917.501L1487,919.501L1487,919.501L1487,917.501ZM4.001,964.501L4.003,962.501L4.003,962.501L4.001,964.501ZM2.001,964.499L2.003,962.499L0.003,962.497L0.001,964.497L2.001,964.499ZM1487,965.501L1487,967.501L1487,967.501L1487,965.501ZM1489,965.501L1491,965.503L1491.002,963.503L1489.002,963.501L1489,965.501ZM1488.998,969.501L1488.996,971.501L1490.996,971.503L1490.998,969.503L1488.998,969.501ZM1486.998,969.501L1486.996,971.501L1486.996,971.501L1486.998,969.501ZM3.999,968.501L4,966.501L4,966.501L3.999,968.501ZM1.999,968.499L-0.001,968.497L-0.003,970.497L1.997,970.499L1.999,968.499ZM2.001,1012.499L2.003,1010.499L0.003,1010.497L0.001,1012.497L2.001,1012.499ZM4.001,1012.501L4.003,1010.501L4.003,1010.501L4.001,1012.501ZM1.999,1016.499L-0.001,1016.497L-0.003,1018.497L1.997,1018.499L1.999,1016.499ZM3.999,1016.501L4,1014.501L4,1014.501L3.999,1016.501ZM1486.998,1017.501L1486.996,1019.501L1486.996,1019.501L1486.998,1017.501ZM1488.998,1017.501L1488.996,1019.501L1490.996,1019.503L1490.998,1017.503L1488.998,1017.501ZM1489,1013.501L1491,1013.503L1491.002,1011.503L1489.002,1011.501L1489,1013.501ZM1487,1013.501L1487,1015.501L1487,1015.501L1487,1013.501ZM4.001,1060.501L4.003,1058.501L4.003,1058.501L4.001,1060.501ZM2.001,1060.499L2.003,1058.499L0.003,1058.497L0.001,1060.497L2.001,1060.499ZM1487,1061.501L1487,1063.501L1487,1063.501L1487,1061.501ZM1489,1061.501L1491,1061.503L1491.002,1059.503L1489.002,1059.501L1489,1061.501ZM1488.998,1065.501L1488.996,1067.501L1490.996,1067.503L1490.998,1065.503L1488.998,1065.501ZM1486.998,1065.501L1486.996,1067.501L1486.996,1067.501L1486.998,1065.501ZM3.999,1064.501L4,1062.501L4,1062.501L3.999,1064.501ZM1.999,1064.499L-0.001,1064.497L-0.003,1066.497L1.997,1066.499L1.999,1064.499ZM2.001,1108.499L2.002,1106.499L0.002,1106.497L0.001,1108.497L2.001,1108.499ZM4.001,1108.499L4.002,1106.499L4.002,1106.499L4.001,1108.499ZM1.998,1112.499L-0.002,1112.497L-0.003,1114.497L1.997,1114.499L1.998,1112.499ZM3.998,1112.499L4,1110.499L4,1110.499L3.998,1112.499ZM1486.998,1113.499L1486.996,1115.499L1486.996,1115.499L1486.998,1113.499ZM1488.998,1113.501L1488.996,1115.501L1490.996,1115.503L1490.998,1113.503L1488.998,1113.501ZM1489,1109.501L1491,1109.503L1491.002,1107.503L1489.002,1107.501L1489,1109.501ZM1487,1109.499L1487,1111.499L1487,1111.499L1487,1109.499ZM4.001,1156.501L4.003,1154.501L4.003,1154.501L4.001,1156.501ZM2.001,1156.499L2.003,1154.499L0.003,1154.497L0.001,1156.497L2.001,1156.499ZM1487,1157.501L1487,1159.501L1487,1159.501L1487,1157.501ZM1489,1157.501L1491,1157.503L1491.002,1155.503L1489.002,1155.501L1489,1157.501ZM1488.998,1161.501L1488.996,1163.501L1490.996,1163.503L1490.998,1161.503L1488.998,1161.501ZM1486.998,1161.501L1486.996,1163.501L1486.996,1163.501L1486.998,1161.501ZM3.999,1160.501L4,1158.501L4,1158.501L3.999,1160.501ZM1.999,1160.499L-0.001,1160.497L-0.003,1162.497L1.997,1162.499L1.999,1160.499ZM2.001,1204.499L2.003,1202.499L0.003,1202.497L0.001,1204.497L2.001,1204.499ZM4.001,1204.501L4.003,1202.501L4.003,1202.501L4.001,1204.501ZM1.999,1208.499L-0.001,1208.497L-0.003,1210.497L1.997,1210.499L1.999,1208.499ZM3.999,1208.501L4,1206.501L4,1206.501L3.999,1208.501ZM1486.998,1209.501L1486.996,1211.501L1486.996,1211.501L1486.998,1209.501ZM1488.998,1209.501L1488.996,1211.501L1490.996,1211.503L1490.998,1209.503L1488.998,1209.501ZM1489,1205.501L1491,1205.503L1491.002,1203.503L1489.002,1203.501L1489,1205.501ZM1487,1205.501L1487,1207.501L1487,1207.501L1487,1205.501ZM4.001,1252.501L4.003,1250.501L4.003,1250.501L4.001,1252.501ZM2.001,1252.499L2.003,1250.499L0.003,1250.497L0.001,1252.497L2.001,1252.499ZM1487,1253.501L1487,1255.501L1487,1255.501L1487,1253.501ZM1489,1253.501L1491,1253.503L1491.002,1251.503L1489.002,1251.501L1489,1253.501ZM1488.998,1257.501L1488.996,1259.501L1490.996,1259.503L1490.998,1257.503L1488.998,1257.501ZM1486.998,1257.501L1486.996,1259.501L1486.996,1259.501L1486.998,1257.501ZM3.999,1256.501L4,1254.501L4,1254.501L3.999,1256.501ZM1.999,1256.499L-0.001,1256.497L-0.003,1258.497L1.997,1258.499L1.999,1256.499ZM2.001,1300.499L2.003,1298.499L0.003,1298.497L0.001,1300.497L2.001,1300.499ZM4.001,1300.501L4.003,1298.501L4.003,1298.501L4.001,1300.501ZM1.999,1304.499L-0.001,1304.497L-0.003,1306.497L1.997,1306.499L1.999,1304.499ZM3.999,1304.501L4,1302.501L4,1302.501L3.999,1304.501ZM1486.998,1305.501L1486.996,1307.501L1486.996,1307.501L1486.998,1305.501ZM1488.998,1305.501L1488.996,1307.501L1490.996,1307.503L1490.998,1305.503L1488.998,1305.501ZM1489,1301.501L1491,1301.503L1491.002,1299.503L1489.002,1299.501L1489,1301.501ZM1487,1301.501L1487,1303.501L1487,1303.501L1487,1301.501ZM2,486.499L4,486.5L4.003,482.5L2.003,482.499L2,486.499ZM3.999,488.5L4.001,484.5L0.001,484.497L-0.001,488.497L3.999,488.5ZM4,486.5L2,486.499L1.997,490.499L3.997,490.5L4,486.5ZM1487,487.5L4,486.5L3.997,490.5L1486.996,491.5L1487,487.5ZM1489,487.502L1487,487.5L1486.996,491.5L1488.996,491.502L1489,487.502ZM1487,485.5L1486.998,489.5L1490.998,489.503L1491,485.503L1487,485.5ZM1487,487.5L1489,487.502L1489.002,483.502L1487.002,483.5L1487,487.5ZM4,486.5L1487,487.5L1487.002,483.5L4.003,482.5L4,486.5ZM2,534.499L4,534.5L4.003,530.5L2.003,530.499L2,534.499ZM3.999,536.5L4.001,532.5L0.001,532.497L-0.001,536.497L3.999,536.5ZM4,534.5L2,534.499L1.997,538.499L3.997,538.5L4,534.5ZM1487,535.5L4,534.5L3.997,538.5L1486.996,539.5L1487,535.5ZM1489,535.501L1487,535.5L1486.996,539.5L1488.996,539.501L1489,535.501ZM1487,533.5L1486.998,537.5L1490.998,537.503L1491,533.503L1487,533.5ZM1487,535.5L1489,535.501L1489.002,531.501L1487.002,531.5L1487,535.5ZM4,534.5L1487,535.5L1487.002,531.5L4.003,530.5L4,534.5ZM4.003,578.5L2.003,578.499L2,582.499L4,582.5L4.003,578.5ZM1487.002,579.5L4.003,578.5L4,582.5L1487,583.5L1487.002,579.5ZM1489.002,579.502L1487.002,579.5L1487,583.5L1489,583.502L1489.002,579.502ZM1490.998,585.503L1491,581.503L1487,581.5L1486.998,585.5L1490.998,585.503ZM1486.996,587.5L1488.996,587.502L1489,583.502L1487,583.5L1486.996,587.5ZM3.997,586.5L1486.996,587.5L1487,583.5L4,582.5L3.997,586.5ZM1.997,586.499L3.997,586.5L4,582.5L2,582.499L1.997,586.499ZM0.001,580.497L-0.001,584.497L3.999,584.5L4.001,580.5L0.001,580.497ZM2,630.499L4,630.5L4.003,626.5L2.003,626.499L2,630.499ZM3.999,632.5L4.001,628.5L0.001,628.497L-0.001,632.497L3.999,632.5ZM4,630.5L2,630.499L1.997,634.499L3.997,634.5L4,630.5ZM1487,631.5L4,630.5L3.997,634.5L1486.996,635.5L1487,631.5ZM1489,631.501L1487,631.5L1486.996,635.5L1488.996,635.501L1489,631.501ZM1487,629.5L1486.998,633.5L1490.998,633.503L1491,629.503L1487,629.5ZM1487,631.5L1489,631.501L1489.002,627.501L1487.002,627.5L1487,631.5ZM4,630.5L1487,631.5L1487.002,627.5L4.003,626.5L4,630.5ZM4.003,674.5L2.003,674.499L2,678.499L4,678.5L4.003,674.5ZM1487.002,675.5L4.003,674.5L4,678.5L1487,679.5L1487.002,675.5ZM1489.002,675.501L1487.002,675.5L1487,679.5L1489,679.501L1489.002,675.501ZM1490.998,681.503L1491,677.503L1487,677.5L1486.998,681.5L1490.998,681.503ZM1486.996,683.5L1488.996,683.501L1489,679.501L1487,679.5L1486.996,683.5ZM3.997,682.5L1486.996,683.5L1487,679.5L4,678.5L3.997,682.5ZM1.997,682.499L3.997,682.5L4,678.5L2,678.499L1.997,682.499ZM0.001,676.497L-0.001,680.497L3.999,680.5L4.001,676.5L0.001,676.497ZM2,726.499L4,726.501L4.003,722.501L2.003,722.499L2,726.499ZM3.999,728.501L4.001,724.501L0.001,724.497L-0.001,728.497L3.999,728.501ZM4,726.501L2,726.499L1.997,730.499L3.997,730.501L4,726.501ZM1487,727.501L4,726.501L3.997,730.501L1486.996,731.501L1487,727.501ZM1489,727.501L1487,727.501L1486.996,731.501L1488.996,731.501L1489,727.501ZM1487,725.501L1486.998,729.501L1490.998,729.503L1491,725.503L1487,725.501ZM1487,727.501L1489,727.501L1489.002,723.501L1487.002,723.501L1487,727.501ZM4,726.501L1487,727.501L1487.002,723.501L4.003,722.501L4,726.501ZM4.002,770.499L2.002,770.499L2,774.499L4,774.499L4.002,770.499ZM1487.002,771.499L4.002,770.499L4,774.499L1487,775.499L1487.002,771.499ZM1489.002,771.501L1487.002,771.499L1487,775.499L1489,775.501L1489.002,771.501ZM1490.998,777.503L1491,773.503L1487,773.499L1486.998,777.499L1490.998,777.503ZM1486.996,779.499L1488.996,779.501L1489,775.501L1487,775.499L1486.996,779.499ZM3.997,778.499L1486.996,779.499L1487,775.499L4,774.499L3.997,778.499ZM1.997,778.499L3.997,778.499L4,774.499L2,774.499L1.997,778.499ZM0.001,772.497L-0.002,776.497L3.998,776.499L4.001,772.499L0.001,772.497ZM2,822.499L4,822.501L4.003,818.501L2.003,818.499L2,822.499ZM3.999,824.501L4.001,820.501L0.001,820.497L-0.001,824.497L3.999,824.501ZM4,822.501L2,822.499L1.997,826.499L3.997,826.501L4,822.501ZM1487,823.501L4,822.501L3.997,826.501L1486.996,827.501L1487,823.501ZM1489,823.501L1487,823.501L1486.996,827.501L1488.996,827.501L1489,823.501ZM1487,821.501L1486.998,825.501L1490.998,825.503L1491,821.503L1487,821.501ZM1487,823.501L1489,823.501L1489.002,819.501L1487.002,819.501L1487,823.501ZM4,822.501L1487,823.501L1487.002,819.501L4.003,818.501L4,822.501ZM4.003,866.501L2.003,866.499L2,870.499L4,870.501L4.003,866.501ZM1487.002,867.501L4.003,866.501L4,870.501L1487,871.501L1487.002,867.501ZM1489.002,867.501L1487.002,867.501L1487,871.501L1489,871.501L1489.002,867.501ZM1490.998,873.503L1491,869.503L1487,869.501L1486.998,873.501L1490.998,873.503ZM1486.996,875.501L1488.996,875.501L1489,871.501L1487,871.501L1486.996,875.501ZM3.997,874.501L1486.996,875.501L1487,871.501L4,870.501L3.997,874.501ZM1.997,874.499L3.997,874.501L4,870.501L2,870.499L1.997,874.499ZM0.001,868.497L-0.001,872.497L3.999,872.501L4.001,868.501L0.001,868.497ZM2,918.499L4,918.501L4.003,914.501L2.003,914.499L2,918.499ZM3.999,920.501L4.001,916.501L0.001,916.497L-0.001,920.497L3.999,920.501ZM4,918.501L2,918.499L1.997,922.499L3.997,922.501L4,918.501ZM1487,919.501L4,918.501L3.997,922.501L1486.996,923.501L1487,919.501ZM1489,919.501L1487,919.501L1486.996,923.501L1488.996,923.501L1489,919.501ZM1487,917.501L1486.998,921.501L1490.998,921.503L1491,917.503L1487,917.501ZM1487,919.501L1489,919.501L1489.002,915.501L1487.002,915.501L1487,919.501ZM4,918.501L1487,919.501L1487.002,915.501L4.003,914.501L4,918.501ZM4.003,962.501L2.003,962.499L2,966.499L4,966.501L4.003,962.501ZM1487.002,963.501L4.003,962.501L4,966.501L1487,967.501L1487.002,963.501ZM1489.002,963.501L1487.002,963.501L1487,967.501L1489,967.501L1489.002,963.501ZM1490.998,969.503L1491,965.503L1487,965.501L1486.998,969.501L1490.998,969.503ZM1486.996,971.501L1488.996,971.501L1489,967.501L1487,967.501L1486.996,971.501ZM3.997,970.501L1486.996,971.501L1487,967.501L4,966.501L3.997,970.501ZM1.997,970.499L3.997,970.501L4,966.501L2,966.499L1.997,970.499ZM0.001,964.497L-0.001,968.497L3.999,968.501L4.001,964.501L0.001,964.497ZM2,1014.499L4,1014.501L4.003,1010.501L2.003,1010.499L2,1014.499ZM3.999,1016.501L4.001,1012.501L0.001,1012.497L-0.001,1016.497L3.999,1016.501ZM4,1014.501L2,1014.499L1.997,1018.499L3.997,1018.501L4,1014.501ZM1487,1015.501L4,1014.501L3.997,1018.501L1486.996,1019.501L1487,1015.501ZM1489,1015.501L1487,1015.501L1486.996,1019.501L1488.996,1019.501L1489,1015.501ZM1487,1013.501L1486.998,1017.501L1490.998,1017.503L1491,1013.503L1487,1013.501ZM1487,1015.501L1489,1015.501L1489.002,1011.501L1487.002,1011.501L1487,1015.501ZM4,1014.501L1487,1015.501L1487.002,1011.501L4.003,1010.501L4,1014.501ZM4.003,1058.501L2.003,1058.499L2,1062.499L4,1062.501L4.003,1058.501ZM1487.002,1059.501L4.003,1058.501L4,1062.501L1487,1063.501L1487.002,1059.501ZM1489.002,1059.501L1487.002,1059.501L1487,1063.501L1489,1063.501L1489.002,1059.501ZM1490.998,1065.503L1491,1061.503L1487,1061.501L1486.998,1065.501L1490.998,1065.503ZM1486.996,1067.501L1488.996,1067.501L1489,1063.501L1487,1063.501L1486.996,1067.501ZM3.997,1066.501L1486.996,1067.501L1487,1063.501L4,1062.501L3.997,1066.501ZM1.997,1066.499L3.997,1066.501L4,1062.501L2,1062.499L1.997,1066.499ZM0.001,1060.497L-0.001,1064.497L3.999,1064.501L4.001,1060.501L0.001,1060.497ZM2,1110.499L4,1110.499L4.002,1106.499L2.002,1106.499L2,1110.499ZM3.998,1112.499L4.001,1108.499L0.001,1108.497L-0.002,1112.497L3.998,1112.499ZM4,1110.499L2,1110.499L1.997,1114.499L3.997,1114.499L4,1110.499ZM1487,1111.499L4,1110.499L3.997,1114.499L1486.996,1115.499L1487,1111.499ZM1489,1111.501L1487,1111.499L1486.996,1115.499L1488.996,1115.501L1489,1111.501ZM1487,1109.499L1486.998,1113.499L1490.998,1113.503L1491,1109.503L1487,1109.499ZM1487,1111.499L1489,1111.501L1489.002,1107.501L1487.002,1107.499L1487,1111.499ZM4,1110.499L1487,1111.499L1487.002,1107.499L4.002,1106.499L4,1110.499ZM4.003,1154.501L2.003,1154.499L2,1158.499L4,1158.501L4.003,1154.501ZM1487.002,1155.501L4.003,1154.501L4,1158.501L1487,1159.501L1487.002,1155.501ZM1489.002,1155.501L1487.002,1155.501L1487,1159.501L1489,1159.501L1489.002,1155.501ZM1490.998,1161.503L1491,1157.503L1487,1157.501L1486.998,1161.501L1490.998,1161.503ZM1486.996,1163.501L1488.996,1163.501L1489,1159.501L1487,1159.501L1486.996,1163.501ZM3.997,1162.501L1486.996,1163.501L1487,1159.501L4,1158.501L3.997,1162.501ZM1.997,1162.499L3.997,1162.501L4,1158.501L2,1158.499L1.997,1162.499ZM0.001,1156.497L-0.001,1160.497L3.999,1160.501L4.001,1156.501L0.001,1156.497ZM2,1206.499L4,1206.501L4.003,1202.501L2.003,1202.499L2,1206.499ZM3.999,1208.501L4.001,1204.501L0.001,1204.497L-0.001,1208.497L3.999,1208.501ZM4,1206.501L2,1206.499L1.997,1210.499L3.997,1210.501L4,1206.501ZM1487,1207.501L4,1206.501L3.997,1210.501L1486.996,1211.501L1487,1207.501ZM1489,1207.501L1487,1207.501L1486.996,1211.501L1488.996,1211.501L1489,1207.501ZM1487,1205.501L1486.998,1209.501L1490.998,1209.503L1491,1205.503L1487,1205.501ZM1487,1207.501L1489,1207.501L1489.002,1203.501L1487.002,1203.501L1487,1207.501ZM4,1206.501L1487,1207.501L1487.002,1203.501L4.003,1202.501L4,1206.501ZM4.003,1250.501L2.003,1250.499L2,1254.499L4,1254.501L4.003,1250.501ZM1487.002,1251.501L4.003,1250.501L4,1254.501L1487,1255.501L1487.002,1251.501ZM1489.002,1251.501L1487.002,1251.501L1487,1255.501L1489,1255.501L1489.002,1251.501ZM1490.998,1257.503L1491,1253.503L1487,1253.501L1486.998,1257.501L1490.998,1257.503ZM1486.996,1259.501L1488.996,1259.501L1489,1255.501L1487,1255.501L1486.996,1259.501ZM3.997,1258.501L1486.996,1259.501L1487,1255.501L4,1254.501L3.997,1258.501ZM1.997,1258.499L3.997,1258.501L4,1254.501L2,1254.499L1.997,1258.499ZM0.001,1252.497L-0.001,1256.497L3.999,1256.501L4.001,1252.501L0.001,1252.497ZM2,1302.499L4,1302.501L4.003,1298.501L2.003,1298.499L2,1302.499ZM3.999,1304.501L4.001,1300.501L0.001,1300.497L-0.001,1304.497L3.999,1304.501ZM4,1302.501L2,1302.499L1.997,1306.499L3.997,1306.501L4,1302.501ZM1487,1303.501L4,1302.501L3.997,1306.501L1486.996,1307.501L1487,1303.501ZM1489,1303.501L1487,1303.501L1486.996,1307.501L1488.996,1307.501L1489,1303.501ZM1487,1301.501L1486.998,1305.501L1490.998,1305.503L1491,1301.503L1487,1301.501ZM1487,1303.501L1489,1303.501L1489.002,1299.501L1487.002,1299.501L1487,1303.501ZM4,1302.501L1487,1303.501L1487.002,1299.501L4.003,1298.501L4,1302.501Z" transform="rotate(90 745.5 895)" fill="#000000"/>
</g>
<path d="M1400.007,325.222C1440.364,334.414 1486.915,317.6 1508.257,282.398C1517.841,266.592 1524.151,251.082 1527.349,235.852C1570.063,260.54 1586.405,295.188 1581.011,338.576C1576.555,374.422 1558.101,413.628 1527.849,459.296C1499.913,501.464 1447.816,552.84 1418.337,566.746C1409.528,570.902 1399.361,574.5 1387.807,577.702C1371.971,582.092 1326.015,591.014 1329.161,590.282C1323.431,591.614 1318.993,593.078 1309.131,596.664C1304.257,598.436 1302.09,599.204 1299.373,600.102L1300.626,603.9C1303.394,602.986 1305.586,602.208 1310.498,600.422C1320.209,596.892 1324.545,595.462 1330.066,594.178C1326.783,594.942 1372.857,585.998 1388.876,581.558C1400.633,578.298 1411.007,574.628 1420.044,570.364C1450.281,556.1 1502.879,504.23 1531.183,461.506C1561.749,415.364 1580.431,375.676 1584.981,339.07C1590.623,293.694 1573.159,257.242 1528.145,231.7C1533.437,201.192 1526.217,171.816 1507.785,143.447C1484.905,108.232 1446.199,76.092 1392.603,43.714C1369.867,29.979 1353.647,21.191 1313.544,0.228L1311.691,3.772C1351.72,24.697 1367.894,33.46 1390.535,47.138C1443.658,79.23 1481.951,111.027 1504.431,145.626C1522.033,172.72 1529.103,200.63 1524.433,229.652C1523.725,229.272 1523.013,228.896 1522.293,228.52C1506.413,220.266 1468.982,210.98 1437.148,208.474C1395.431,205.188 1366.086,212.652 1357.412,233.524C1337.785,280.746 1357.296,315.492 1400.007,325.222ZM1436.834,212.462C1468.172,214.93 1505.093,224.088 1520.447,232.07C1521.543,232.64 1522.623,233.214 1523.687,233.796C1520.669,248.984 1514.443,264.48 1504.837,280.324C1484.436,313.974 1439.651,330.148 1400.896,321.32C1360.538,312.128 1342.457,279.928 1361.106,235.058C1368.867,216.384 1396.713,209.302 1436.834,212.462Z" clip-rule="evenodd" fill-rule="evenodd" fill="#000000"/>
<circle cx="1282" cy="1128" r="228" fill="#009EFF"/>
</svg>
