<svg width="760" height="718" viewBox="0 0 760 718" fill="none" xmlns="http://www.w3.org/2000/svg" xmlns:xlink="http://www.w3.org/1999/xlink">
<mask id="mask_0_78_2839" style="mask-type:alpha" maskUnits="userSpaceOnUse" x="169" y="6" width="200" height="200">
<circle cx="369" cy="206" r="200" fill="#000000"/>
</mask>
<g mask="url(#mask_0_78_2839)">
<path d="M15.001,1.249L15.001,0.249L14.001,0.249L14.001,1.249L15.001,1.249ZM16.001,1.25L16,2.25L16,2.25L16.001,1.25ZM14.999,3.249L13.999,3.249L13.999,4.249L14.999,4.249L14.999,3.249ZM15.999,3.25L16,2.25L16,2.25L15.999,3.25ZM757.499,3.75L757.499,4.75L757.499,4.75L757.499,3.75ZM758.499,3.751L758.499,4.751L759.499,4.751L759.499,3.751L758.499,3.751ZM758.501,1.751L759.501,1.751L759.501,0.751L758.501,0.751L758.501,1.751ZM757.501,1.75L757.499,2.75L757.501,1.75ZM15.001,25.249L15.001,24.249L14.001,24.249L14.001,25.249L15.001,25.249ZM16.001,25.25L16.001,24.25L16.001,24.25L16.001,25.25ZM14.999,27.249L13.999,27.249L13.999,28.249L14.999,28.249L14.999,27.249ZM15.999,27.25L15.999,28.25L15.999,28.25L15.999,27.25ZM757.499,27.75L757.499,28.75L757.499,28.75L757.499,27.75ZM758.499,27.751L758.499,28.751L759.499,28.751L759.499,27.751L758.499,27.751ZM758.501,25.751L759.501,25.751L759.501,24.751L758.501,24.751L758.501,25.751ZM757.501,25.75L757.501,24.75L757.501,24.75L757.501,25.75ZM16.001,49.25L16,50.25L16,50.25L16.001,49.25ZM15.001,49.249L15.001,48.249L14.001,48.249L14.001,49.249L15.001,49.249ZM757.501,49.75L757.501,48.75L757.501,48.75L757.501,49.75ZM758.501,49.751L759.501,49.751L759.501,48.751L758.501,48.751L758.501,49.751ZM758.499,51.751L758.499,52.751L759.499,52.751L759.499,51.751L758.499,51.751ZM757.499,51.75L757.499,50.75L757.499,50.75L757.499,51.75ZM15.999,51.25L15.999,52.25L15.999,52.25L15.999,51.25ZM14.999,51.249L13.999,51.249L13.999,52.249L14.999,52.249L14.999,51.249ZM15.001,73.249L15.001,72.249L14.001,72.249L14.001,73.249L15.001,73.249ZM16.001,73.25L16.001,72.25L16.001,72.25L16.001,73.25ZM14.999,75.249L13.999,75.249L13.999,76.249L14.999,76.249L14.999,75.249ZM15.999,75.25L16,74.25L16,74.25L15.999,75.25ZM757.499,75.75L757.499,76.75L757.499,76.75L757.499,75.75ZM758.499,75.751L758.499,76.751L759.499,76.751L759.499,75.751L758.499,75.751ZM758.501,73.751L759.501,73.751L759.501,72.751L758.501,72.751L758.501,73.751ZM757.501,73.75L757.499,74.75L757.499,74.75L757.501,73.75ZM16.001,97.25L16.001,96.25L16.001,96.25L16.001,97.25ZM15.001,97.249L15.001,96.249L14.001,96.249L14.001,97.249L15.001,97.249ZM757.501,97.75L757.499,98.75L757.499,98.75L757.501,97.75ZM758.501,97.751L759.501,97.751L759.501,96.751L758.501,96.751L758.501,97.751ZM758.499,99.751L758.499,100.751L759.499,100.751L759.499,99.751L758.499,99.751ZM757.499,99.75L757.499,100.75L757.499,100.75L757.499,99.75ZM15.999,99.25L16,98.25L16,98.25L15.999,99.25ZM14.999,99.249L13.999,99.249L13.999,100.249L14.999,100.249L14.999,99.249ZM15.001,121.25L15.001,120.25L14.001,120.249L14.001,121.249L15.001,121.25ZM16.001,121.25L16.001,120.25L16.001,120.25L16.001,121.25ZM14.999,123.25L13.999,123.249L13.999,124.249L14.999,124.25L14.999,123.25ZM15.999,123.25L16,122.25L16,122.25L15.999,123.25ZM757.499,123.75L757.499,124.75L757.499,124.75L757.499,123.75ZM758.499,123.751L758.499,124.751L759.499,124.752L759.499,123.752L758.499,123.751ZM758.501,121.751L759.501,121.752L759.501,120.752L758.501,120.751L758.501,121.751ZM757.501,121.75L757.499,122.75L757.499,122.75L757.501,121.75ZM16.001,145.25L16.001,144.25L16.001,144.25L16.001,145.25ZM15.001,145.249L15.001,144.249L14.001,144.249L14.001,145.249L15.001,145.249ZM757.501,145.75L757.499,146.75L757.499,146.75L757.501,145.75ZM758.501,145.751L759.501,145.751L759.501,144.751L758.501,144.751L758.501,145.751ZM758.499,147.751L758.499,148.751L759.499,148.751L759.499,147.751L758.499,147.751ZM757.499,147.75L757.499,148.75L757.499,148.75L757.499,147.75ZM15.999,147.25L16,146.25L16,146.25L15.999,147.25ZM14.999,147.249L13.999,147.249L13.999,148.249L14.999,148.249L14.999,147.249ZM15.001,169.249L15.001,168.249L14.001,168.249L14.001,169.249L15.001,169.249ZM16.001,169.25L16.001,168.25L16.001,168.25L16.001,169.25ZM14.999,171.249L13.999,171.249L13.999,172.249L14.999,172.249L14.999,171.249ZM15.999,171.25L16,170.25L16,170.25L15.999,171.25ZM757.499,171.75L757.499,172.75L757.499,172.75L757.499,171.75ZM758.499,171.751L758.499,172.751L759.499,172.751L759.499,171.751L758.499,171.751ZM758.501,169.751L759.501,169.751L759.501,168.751L758.501,168.751L758.501,169.751ZM757.501,169.75L757.499,170.75L757.499,170.75L757.501,169.75ZM16.001,193.25L16.001,192.25L16.001,192.25L16.001,193.25ZM15.001,193.249L15.001,192.249L14.001,192.249L14.001,193.249L15.001,193.249ZM757.501,193.75L757.499,194.75L757.499,194.75L757.501,193.75ZM758.501,193.751L759.501,193.751L759.501,192.751L758.501,192.751L758.501,193.751ZM758.499,195.751L758.499,196.751L759.499,196.751L759.499,195.751L758.499,195.751ZM757.499,195.75L757.499,196.75L757.499,196.75L757.499,195.75ZM15.999,195.25L16,194.25L16,194.25L15.999,195.25ZM14.999,195.249L13.999,195.249L13.999,196.249L14.999,196.249L14.999,195.249ZM15.001,217.249L15.001,216.249L14.001,216.249L14.001,217.249L15.001,217.249ZM16.001,217.249L16.001,216.249L16.001,216.249L16.001,217.249ZM14.999,219.249L13.999,219.249L13.999,220.249L14.999,220.249L14.999,219.249ZM15.999,219.249L16,218.249L16,218.249L15.999,219.249ZM757.499,219.749L757.499,220.749L757.499,220.749L757.499,219.749ZM758.499,219.751L758.499,220.751L759.499,220.751L759.499,219.751L758.499,219.751ZM758.501,217.751L759.501,217.751L759.501,216.751L758.501,216.751L758.501,217.751ZM757.501,217.749L757.499,218.749L757.499,218.749L757.501,217.749ZM16.001,241.249L16.001,240.249L16.001,240.249L16.001,241.249ZM15.001,241.249L15.001,240.249L14.001,240.249L14.001,241.249L15.001,241.249ZM757.501,241.749L757.499,242.749L757.499,242.749L757.501,241.749ZM758.501,241.751L759.501,241.751L759.501,240.751L758.501,240.751L758.501,241.751ZM758.499,243.751L758.499,244.751L759.499,244.751L759.499,243.751L758.499,243.751ZM757.499,243.749L757.499,244.749L757.499,244.749L757.499,243.749ZM15.999,243.249L16,242.249L16,242.249L15.999,243.249ZM14.999,243.249L13.999,243.249L13.999,244.249L14.999,244.249L14.999,243.249ZM15.001,265.249L15.001,264.249L14.001,264.249L14.001,265.249L15.001,265.249ZM16.001,265.249L16.001,264.249L16.001,264.249L16.001,265.249ZM14.999,267.249L13.999,267.249L13.999,268.249L14.999,268.249L14.999,267.249ZM15.999,267.249L16,266.249L16,266.249L15.999,267.249ZM757.499,267.749L757.499,268.749L757.499,268.749L757.499,267.749ZM758.499,267.751L758.499,268.751L759.499,268.751L759.499,267.751L758.499,267.751ZM758.501,265.751L759.501,265.751L759.501,264.751L758.501,264.751L758.501,265.751ZM757.501,265.749L757.499,266.749L757.499,266.749L757.501,265.749ZM16.001,289.249L16.001,288.249L16.001,288.249L16.001,289.249ZM15.001,289.249L15.001,288.249L14.001,288.249L14.001,289.249L15.001,289.249ZM757.501,289.749L757.499,290.749L757.499,290.749L757.501,289.749ZM758.501,289.751L759.501,289.751L759.501,288.751L758.501,288.751L758.501,289.751ZM758.499,291.751L758.499,292.751L759.499,292.751L759.499,291.751L758.499,291.751ZM757.499,291.749L757.499,292.749L757.499,292.749L757.499,291.749ZM15.999,291.249L16,290.249L16,290.249L15.999,291.249ZM14.999,291.249L13.999,291.249L13.999,292.249L14.999,292.249L14.999,291.249ZM15.001,313.249L15.001,312.249L14.001,312.249L14.001,313.249L15.001,313.249ZM16.001,313.249L16.001,312.249L16.001,312.249L16.001,313.249ZM14.999,315.249L13.999,315.249L13.999,316.249L14.999,316.249L14.999,315.249ZM15.999,315.249L16,314.249L16,314.249L15.999,315.249ZM757.499,315.749L757.499,316.749L757.499,316.749L757.499,315.749ZM758.499,315.751L758.499,316.751L759.499,316.751L759.499,315.751L758.499,315.751ZM758.501,313.751L759.501,313.751L759.501,312.751L758.501,312.751L758.501,313.751ZM757.501,313.749L757.499,314.749L757.499,314.749L757.501,313.749ZM16.001,337.249L16.001,336.249L16.001,336.249L16.001,337.249ZM15.001,337.249L15.001,336.249L14.001,336.249L14.001,337.249L15.001,337.249ZM757.501,337.749L757.499,338.749L757.499,338.749L757.501,337.749ZM758.501,337.751L759.501,337.751L759.501,336.751L758.501,336.751L758.501,337.751ZM758.499,339.751L758.499,340.751L759.499,340.751L759.499,339.751L758.499,339.751ZM757.499,339.749L757.499,340.749L757.499,340.749L757.499,339.749ZM15.999,339.249L16,338.249L16,338.249L15.999,339.249ZM14.999,339.249L13.999,339.249L13.999,340.249L14.999,340.249L14.999,339.249ZM15.001,361.249L15.001,360.249L14.001,360.249L14.001,361.249L15.001,361.249ZM16.001,361.249L16.001,360.249L16.001,360.249L16.001,361.249ZM14.999,363.249L13.999,363.249L13.999,364.249L14.999,364.249L14.999,363.249ZM15.999,363.249L16,362.249L16,362.249L15.999,363.249ZM757.499,363.749L757.499,364.749L757.499,364.749L757.499,363.749ZM758.499,363.751L758.499,364.751L759.499,364.751L759.499,363.751L758.499,363.751ZM758.501,361.751L759.501,361.751L759.501,360.751L758.501,360.751L758.501,361.751ZM757.501,361.749L757.499,362.749L757.499,362.749L757.501,361.749ZM16.001,385.249L16.001,384.249L16.001,384.249L16.001,385.249ZM15.001,385.249L15.001,384.249L14.001,384.249L14.001,385.249L15.001,385.249ZM757.501,385.749L757.499,386.749L757.499,386.749L757.501,385.749ZM758.501,385.751L759.501,385.751L759.501,384.751L758.501,384.751L758.501,385.751ZM758.499,387.751L758.499,388.751L759.499,388.751L759.499,387.751L758.499,387.751ZM757.499,387.749L757.499,388.749L757.499,388.749L757.499,387.749ZM15.999,387.249L16,386.249L16,386.249L15.999,387.249ZM14.999,387.249L13.999,387.249L13.999,388.249L14.999,388.249L14.999,387.249ZM15.001,409.249L15.001,408.249L14.001,408.249L14.001,409.249L15.001,409.249ZM16.001,409.249L16.001,408.249L16.001,408.249L16.001,409.249ZM14.999,411.249L13.999,411.249L13.999,412.249L14.999,412.249L14.999,411.249ZM15.999,411.249L16,410.249L16,410.249L15.999,411.249ZM757.499,411.749L757.499,412.749L757.499,412.749L757.499,411.749ZM758.499,411.751L758.499,412.751L759.499,412.751L759.499,411.751L758.499,411.751ZM758.501,409.751L759.501,409.751L759.501,408.751L758.501,408.751L758.501,409.751ZM757.501,409.749L757.499,410.749L757.499,410.749L757.501,409.749ZM15,2.249L16,2.25L16.001,0.25L15.001,0.249L15,2.249ZM15.999,3.25L16.001,1.25L14.001,1.249L13.999,3.249L15.999,3.25ZM16,2.25L15,2.249L14.999,4.249L15.999,4.25L16,2.25ZM757.499,2.75L16,2.25L15.999,4.25L757.499,4.75L757.499,2.75ZM758.499,2.751L757.499,2.75L757.499,4.75L758.499,4.751L758.499,2.751ZM757.501,1.75L757.499,3.75L759.499,3.751L759.501,1.751L757.501,1.75ZM757.499,2.75L758.499,2.751L758.501,0.751L757.501,0.75L757.499,2.75ZM16,2.25L757.499,2.75L757.501,0.75L16.001,0.25L16,2.25ZM15,26.249L16,26.25L16.001,24.25L15.001,24.249L15,26.249ZM15.999,27.25L16.001,25.25L14.001,25.249L13.999,27.249L15.999,27.25ZM16,26.25L15,26.249L14.999,28.249L15.999,28.25L16,26.25ZM757.499,26.75L16,26.25L15.999,28.25L757.499,28.75L757.499,26.75ZM758.499,26.751L757.499,26.75L757.499,28.75L758.499,28.751L758.499,26.751ZM757.501,25.75L757.499,27.75L759.499,27.751L759.501,25.751L757.501,25.75ZM757.499,26.75L758.499,26.751L758.501,24.751L757.501,24.75L757.499,26.75ZM16,26.25L757.499,26.75L757.501,24.75L16.001,24.25L16,26.25ZM16.001,48.25L15.001,48.249L15,50.249L16,50.25L16.001,48.25ZM757.501,48.75L16.001,48.25L16,50.25L757.499,50.75L757.501,48.75ZM758.501,48.751L757.501,48.75L757.499,50.75L758.499,50.751L758.501,48.751ZM759.499,51.751L759.501,49.751L757.501,49.75L757.499,51.75L759.499,51.751ZM757.499,52.75L758.499,52.751L758.499,50.751L757.499,50.75L757.499,52.75ZM15.999,52.25L757.499,52.75L757.499,50.75L16,50.25L15.999,52.25ZM14.999,52.249L15.999,52.25L16,50.25L15,50.249L14.999,52.249ZM14.001,49.249L13.999,51.249L15.999,51.25L16.001,49.25L14.001,49.249ZM15,74.249L16,74.25L16.001,72.25L15.001,72.249L15,74.249ZM15.999,75.25L16.001,73.25L14.001,73.249L13.999,75.249L15.999,75.25ZM16,74.25L15,74.249L14.999,76.249L15.999,76.25L16,74.25ZM757.499,74.75L16,74.25L15.999,76.25L757.499,76.75L757.499,74.75ZM758.499,74.751L757.499,74.75L757.499,76.75L758.499,76.751L758.499,74.751ZM757.501,73.75L757.499,75.75L759.499,75.751L759.501,73.751L757.501,73.75ZM757.499,74.75L758.499,74.751L758.501,72.751L757.501,72.75L757.499,74.75ZM16,74.25L757.499,74.75L757.501,72.75L16.001,72.25L16,74.25ZM16.001,96.25L15.001,96.249L15,98.249L16,98.25L16.001,96.25ZM757.501,96.75L16.001,96.25L16,98.25L757.499,98.75L757.501,96.75ZM758.501,96.751L757.501,96.75L757.499,98.75L758.499,98.751L758.501,96.751ZM759.499,99.751L759.501,97.751L757.501,97.75L757.499,99.75L759.499,99.751ZM757.499,100.75L758.499,100.751L758.499,98.751L757.499,98.75L757.499,100.75ZM15.999,100.25L757.499,100.75L757.499,98.75L16,98.25L15.999,100.25ZM14.999,100.249L15.999,100.25L16,98.25L15,98.249L14.999,100.249ZM14.001,97.249L13.999,99.249L15.999,99.25L16.001,97.25L14.001,97.249ZM15,122.25L16,122.25L16.001,120.25L15.001,120.25L15,122.25ZM15.999,123.25L16.001,121.25L14.001,121.249L13.999,123.249L15.999,123.25ZM16,122.25L15,122.25L14.999,124.25L15.999,124.25L16,122.25ZM757.499,122.75L16,122.25L15.999,124.25L757.499,124.75L757.499,122.75ZM758.499,122.751L757.499,122.75L757.499,124.75L758.499,124.751L758.499,122.751ZM757.501,121.75L757.499,123.75L759.499,123.752L759.501,121.752L757.501,121.75ZM757.499,122.75L758.499,122.751L758.501,120.751L757.501,120.75L757.499,122.75ZM16,122.25L757.499,122.75L757.501,120.75L16.001,120.25L16,122.25ZM16.001,144.25L15.001,144.249L15,146.249L16,146.25L16.001,144.25ZM757.501,144.75L16.001,144.25L16,146.25L757.499,146.75L757.501,144.75ZM758.501,144.751L757.501,144.75L757.499,146.75L758.499,146.751L758.501,144.751ZM759.499,147.751L759.501,145.751L757.501,145.75L757.499,147.75L759.499,147.751ZM757.499,148.75L758.499,148.751L758.499,146.751L757.499,146.75L757.499,148.75ZM15.999,148.25L757.499,148.75L757.499,146.75L16,146.25L15.999,148.25ZM14.999,148.249L15.999,148.25L16,146.25L15,146.249L14.999,148.249ZM14.001,145.249L13.999,147.249L15.999,147.25L16.001,145.25L14.001,145.249ZM15,170.249L16,170.25L16.001,168.25L15.001,168.249L15,170.249ZM15.999,171.25L16.001,169.25L14.001,169.249L13.999,171.249L15.999,171.25ZM16,170.25L15,170.249L14.999,172.249L15.999,172.25L16,170.25ZM757.499,170.75L16,170.25L15.999,172.25L757.499,172.75L757.499,170.75ZM758.499,170.751L757.499,170.75L757.499,172.75L758.499,172.751L758.499,170.751ZM757.501,169.75L757.499,171.75L759.499,171.751L759.501,169.751L757.501,169.75ZM757.499,170.75L758.499,170.751L758.501,168.751L757.501,168.75L757.499,170.75ZM16,170.25L757.499,170.75L757.501,168.75L16.001,168.25L16,170.25ZM16.001,192.25L15.001,192.249L15,194.249L16,194.25L16.001,192.25ZM757.501,192.75L16.001,192.25L16,194.25L757.499,194.75L757.501,192.75ZM758.501,192.751L757.501,192.75L757.499,194.75L758.499,194.751L758.501,192.751ZM759.499,195.751L759.501,193.751L757.501,193.75L757.499,195.75L759.499,195.751ZM757.499,196.75L758.499,196.751L758.499,194.751L757.499,194.75L757.499,196.75ZM15.999,196.25L757.499,196.75L757.499,194.75L16,194.25L15.999,196.25ZM14.999,196.249L15.999,196.25L16,194.25L15,194.249L14.999,196.249ZM14.001,193.249L13.999,195.249L15.999,195.25L16.001,193.25L14.001,193.249ZM15,218.249L16,218.249L16.001,216.249L15.001,216.249L15,218.249ZM15.999,219.249L16.001,217.249L14.001,217.249L13.999,219.249L15.999,219.249ZM16,218.249L15,218.249L14.999,220.249L15.999,220.249L16,218.249ZM757.499,218.749L16,218.249L15.999,220.249L757.499,220.749L757.499,218.749ZM758.499,218.751L757.499,218.749L757.499,220.749L758.499,220.751L758.499,218.751ZM757.501,217.749L757.499,219.749L759.499,219.751L759.501,217.751L757.501,217.749ZM757.499,218.749L758.499,218.751L758.501,216.751L757.501,216.749L757.499,218.749ZM16,218.249L757.499,218.749L757.501,216.749L16.001,216.249L16,218.249ZM16.001,240.249L15.001,240.249L15,242.249L16,242.249L16.001,240.249ZM757.501,240.749L16.001,240.249L16,242.249L757.499,242.749L757.501,240.749ZM758.501,240.751L757.501,240.749L757.499,242.749L758.499,242.751L758.501,240.751ZM759.499,243.751L759.501,241.751L757.501,241.749L757.499,243.749L759.499,243.751ZM757.499,244.749L758.499,244.751L758.499,242.751L757.499,242.749L757.499,244.749ZM15.999,244.249L757.499,244.749L757.499,242.749L16,242.249L15.999,244.249ZM14.999,244.249L15.999,244.249L16,242.249L15,242.249L14.999,244.249ZM14.001,241.249L13.999,243.249L15.999,243.249L16.001,241.249L14.001,241.249ZM15,266.249L16,266.249L16.001,264.249L15.001,264.249L15,266.249ZM15.999,267.249L16.001,265.249L14.001,265.249L13.999,267.249L15.999,267.249ZM16,266.249L15,266.249L14.999,268.249L15.999,268.249L16,266.249ZM757.499,266.749L16,266.249L15.999,268.249L757.499,268.749L757.499,266.749ZM758.499,266.751L757.499,266.749L757.499,268.749L758.499,268.751L758.499,266.751ZM757.501,265.749L757.499,267.749L759.499,267.751L759.501,265.751L757.501,265.749ZM757.499,266.749L758.499,266.751L758.501,264.751L757.501,264.749L757.499,266.749ZM16,266.249L757.499,266.749L757.501,264.749L16.001,264.249L16,266.249ZM16.001,288.249L15.001,288.249L15,290.249L16,290.249L16.001,288.249ZM757.501,288.749L16.001,288.249L16,290.249L757.499,290.749L757.501,288.749ZM758.501,288.751L757.501,288.749L757.499,290.749L758.499,290.751L758.501,288.751ZM759.499,291.751L759.501,289.751L757.501,289.749L757.499,291.749L759.499,291.751ZM757.499,292.749L758.499,292.751L758.499,290.751L757.499,290.749L757.499,292.749ZM15.999,292.249L757.499,292.749L757.499,290.749L16,290.249L15.999,292.249ZM14.999,292.249L15.999,292.249L16,290.249L15,290.249L14.999,292.249ZM14.001,289.249L13.999,291.249L15.999,291.249L16.001,289.249L14.001,289.249ZM15,314.249L16,314.249L16.001,312.249L15.001,312.249L15,314.249ZM15.999,315.249L16.001,313.249L14.001,313.249L13.999,315.249L15.999,315.249ZM16,314.249L15,314.249L14.999,316.249L15.999,316.249L16,314.249ZM757.499,314.749L16,314.249L15.999,316.249L757.499,316.749L757.499,314.749ZM758.499,314.751L757.499,314.749L757.499,316.749L758.499,316.751L758.499,314.751ZM757.501,313.749L757.499,315.749L759.499,315.751L759.501,313.751L757.501,313.749ZM757.499,314.749L758.499,314.751L758.501,312.751L757.501,312.749L757.499,314.749ZM16,314.249L757.499,314.749L757.501,312.749L16.001,312.249L16,314.249ZM16.001,336.249L15.001,336.249L15,338.249L16,338.249L16.001,336.249ZM757.501,336.749L16.001,336.249L16,338.249L757.499,338.749L757.501,336.749ZM758.501,336.751L757.501,336.749L757.499,338.749L758.499,338.751L758.501,336.751ZM759.499,339.751L759.501,337.751L757.501,337.749L757.499,339.749L759.499,339.751ZM757.499,340.749L758.499,340.751L758.499,338.751L757.499,338.749L757.499,340.749ZM15.999,340.249L757.499,340.749L757.499,338.749L16,338.249L15.999,340.249ZM14.999,340.249L15.999,340.249L16,338.249L15,338.249L14.999,340.249ZM14.001,337.249L13.999,339.249L15.999,339.249L16.001,337.249L14.001,337.249ZM15,362.249L16,362.249L16.001,360.249L15.001,360.249L15,362.249ZM15.999,363.249L16.001,361.249L14.001,361.249L13.999,363.249L15.999,363.249ZM16,362.249L15,362.249L14.999,364.249L15.999,364.249L16,362.249ZM757.499,362.749L16,362.249L15.999,364.249L757.499,364.749L757.499,362.749ZM758.499,362.751L757.499,362.749L757.499,364.749L758.499,364.751L758.499,362.751ZM757.501,361.749L757.499,363.749L759.499,363.751L759.501,361.751L757.501,361.749ZM757.499,362.749L758.499,362.751L758.501,360.751L757.501,360.749L757.499,362.749ZM16,362.249L757.499,362.749L757.501,360.749L16.001,360.249L16,362.249ZM16.001,384.249L15.001,384.249L15,386.249L16,386.249L16.001,384.249ZM757.501,384.749L16.001,384.249L16,386.249L757.499,386.749L757.501,384.749ZM758.501,384.751L757.501,384.749L757.499,386.749L758.499,386.751L758.501,384.751ZM759.499,387.751L759.501,385.751L757.501,385.749L757.499,387.749L759.499,387.751ZM757.499,388.749L758.499,388.751L758.499,386.751L757.499,386.749L757.499,388.749ZM15.999,388.249L757.499,388.749L757.499,386.749L16,386.249L15.999,388.249ZM14.999,388.249L15.999,388.249L16,386.249L15,386.249L14.999,388.249ZM14.001,385.249L13.999,387.249L15.999,387.249L16.001,385.249L14.001,385.249ZM15,410.249L16,410.249L16.001,408.249L15.001,408.249L15,410.249ZM15.999,411.249L16.001,409.249L14.001,409.249L13.999,411.249L15.999,411.249ZM16,410.249L15,410.249L14.999,412.249L15.999,412.249L16,410.249ZM757.499,410.749L16,410.249L15.999,412.249L757.499,412.749L757.499,410.749ZM758.499,410.751L757.499,410.749L757.499,412.749L758.499,412.751L758.499,410.751ZM757.501,409.749L757.499,411.749L759.499,411.751L759.501,409.751L757.501,409.749ZM757.499,410.749L758.499,410.751L758.501,408.751L757.501,408.749L757.499,410.749ZM16,410.249L757.499,410.749L757.501,408.749L16.001,408.249L16,410.249Z" transform="rotate(90 386.75 206.5)" fill="#000000"/>
</g>
<path d="M446.831,573.349C449.226,558.034 453.438,548.141 463.972,530.727C472.31,516.945 483.105,505.973 495.831,498.131C499.761,506.302 505.677,513.488 513.284,518.409C530.532,529.566 549.042,535.258 564.97,532.444C575.338,530.613 584.143,523.799 587.876,514.969C591.863,505.539 589.511,495.407 580.58,487.59C575.746,483.359 568.613,481.402 559.45,481.106C554.763,480.954 550.143,481.213 543.889,481.831C544.171,481.803 539.197,482.31 538.076,482.409C522.907,483.743 508.976,488.118 496.721,495.265C489.305,478.085 490.761,457.018 503.867,444.335C532.446,416.677 575.895,406.182 613.386,418.03L613.988,416.123C575.793,404.053 531.58,414.732 502.476,442.897C488.652,456.275 487.145,478.362 494.991,496.3C481.907,504.315 470.811,515.559 462.261,529.692C451.604,547.309 447.296,557.425 444.855,573.04C438.684,612.509 450.169,642.631 476.678,663.503C499.516,681.485 532.951,692.051 572.587,695.409C579.836,696.023 587.381,696.151 596.779,695.927C600.202,695.847 602.961,695.751 609.078,695.521C610.568,695.465 611.19,695.441 611.997,695.413C613.176,695.369 614.085,695.101 615.996,694.371C617.882,693.649 618.872,693.373 619.747,693.461C619.581,693.663 619.346,693.929 618.997,694.309C618.228,695.149 617.935,695.499 617.683,695.945L619.425,696.927C619.57,696.671 619.827,696.365 620.473,695.659C621.242,694.819 621.535,694.469 621.787,694.023C622.324,693.071 622.141,692.037 620.988,691.683C619.313,691.169 618.072,691.437 615.282,692.503C613.578,693.155 612.807,693.381 611.924,693.413C611.116,693.443 610.493,693.467 609.003,693.523C602.895,693.753 600.142,693.847 596.732,693.929C587.399,694.149 579.922,694.023 572.756,693.417C533.475,690.089 500.401,679.635 477.916,661.931C451.98,641.511 440.77,612.113 446.831,573.349ZM564.622,530.475C549.275,533.185 531.233,527.638 514.371,516.729C507.027,511.979 501.326,505.013 497.553,497.096C509.598,490.034 523.307,485.716 538.251,484.401C539.389,484.301 544.382,483.792 544.086,483.821C550.26,483.211 554.805,482.956 559.386,483.105C568.13,483.388 574.848,485.23 579.263,489.095C587.545,496.345 589.684,505.557 586.034,514.19C582.569,522.386 574.333,528.76 564.622,530.475Z" clip-rule="evenodd" fill-rule="evenodd" transform="rotate(92 532.649 554.072)" fill="#000000"/>
<rect  x="-1" y="37" width="238" height="240" rx="24" fill="#009EFF"/>
<circle cx="136" cy="540" r="114" fill="#009EFF"/>
</svg>
