<svg width="1514" height="1330" viewBox="0 0 1514 1330" fill="none" xmlns="http://www.w3.org/2000/svg" xmlns:xlink="http://www.w3.org/1999/xlink">
<mask id="mask_0_33_991" style="mask-type:alpha" maskUnits="userSpaceOnUse" x="310" y="516.000488" width="400" height="400">
<circle cx="710" cy="916" r="400" fill="#000000"/>
</mask>
<g mask="url(#mask_0_33_991)">
<path d="M2.001,506.499L2.002,504.499L0.002,504.498L0.001,506.498L2.001,506.499ZM4.001,506.501L4.002,504.501L4.001,506.501ZM1.998,510.499L-0.002,510.498L-0.003,512.498L1.997,512.499L1.998,510.499ZM3.998,510.501L4,508.501L4,508.501L3.998,510.501ZM1486.998,511.501L1487,509.501L1487,509.501L1486.998,511.501ZM1488.998,511.502L1488.996,513.502L1490.996,513.503L1490.998,511.503L1488.998,511.502ZM1489,507.502L1491,507.503L1491.002,505.503L1489.002,505.502L1489,507.502ZM1487,507.501L1487,509.501L1487,507.501ZM2.001,554.499L2.002,552.499L0.002,552.498L0.001,554.498L2.001,554.499ZM4.001,554.501L4.002,552.501L4.002,552.501L4.001,554.501ZM1.998,558.499L-0.002,558.498L-0.003,560.498L1.997,560.499L1.998,558.499ZM3.998,558.501L3.997,560.501L3.997,560.501L3.998,558.501ZM1486.998,559.501L1486.996,561.501L1486.996,561.501L1486.998,559.501ZM1488.998,559.502L1488.996,561.502L1490.996,561.503L1490.998,559.503L1488.998,559.502ZM1489,555.502L1491,555.503L1491.002,553.503L1489.002,553.502L1489,555.502ZM1487,555.501L1487.002,553.501L1487.002,553.501L1487,555.501ZM4.001,602.501L4,604.501L4,604.501L4.001,602.501ZM2.001,602.499L2.002,600.499L0.002,600.498L0.001,602.498L2.001,602.499ZM1487,603.501L1487.002,601.501L1487.002,601.501L1487,603.501ZM1489,603.502L1491,603.503L1491.002,601.503L1489.002,601.502L1489,603.502ZM1488.998,607.502L1488.996,609.502L1490.996,609.503L1490.998,607.503L1488.998,607.502ZM1486.998,607.501L1487,605.501L1487,605.501L1486.998,607.501ZM3.998,606.501L3.997,608.501L3.997,608.501L3.998,606.501ZM1.998,606.499L-0.002,606.498L-0.003,608.498L1.997,608.499L1.998,606.499ZM2.001,650.499L2.002,648.499L0.002,648.498L0.001,650.498L2.001,650.499ZM4.001,650.501L4.002,648.501L4.002,648.501L4.001,650.501ZM1.998,654.499L-0.002,654.498L-0.003,656.498L1.997,656.499L1.998,654.499ZM3.998,654.501L4,652.501L4,652.501L3.998,654.501ZM1486.998,655.501L1486.996,657.501L1486.996,657.501L1486.998,655.501ZM1488.998,655.502L1488.996,657.502L1490.996,657.503L1490.998,655.503L1488.998,655.502ZM1489,651.502L1491,651.503L1491.002,649.503L1489.002,649.502L1489,651.502ZM1487,651.501L1487,653.501L1487,653.501L1487,651.501ZM4.001,698.501L4.002,696.501L4.002,696.501L4.001,698.501ZM2.001,698.499L2.002,696.499L0.002,696.498L0.001,698.498L2.001,698.499ZM1487,699.501L1487,701.501L1487,701.501L1487,699.501ZM1489,699.502L1491,699.503L1491.002,697.503L1489.002,697.502L1489,699.502ZM1488.998,703.502L1488.996,705.502L1490.996,705.503L1490.998,703.503L1488.998,703.502ZM1486.998,703.501L1486.996,705.501L1486.996,705.501L1486.998,703.501ZM3.998,702.501L4,700.501L4,700.501L3.998,702.501ZM1.998,702.499L-0.002,702.498L-0.003,704.498L1.997,704.499L1.998,702.499ZM2.001,746.499L2.002,744.499L0.002,744.497L0.001,746.497L2.001,746.499ZM4.001,746.501L4.002,744.501L4.002,744.501L4.001,746.501ZM1.998,750.499L-0.002,750.497L-0.003,752.497L1.997,752.499L1.998,750.499ZM3.998,750.501L4,748.501L4,748.501L3.998,750.501ZM1486.998,751.501L1486.996,753.501L1486.996,753.501L1486.998,751.501ZM1488.998,751.501L1488.996,753.501L1490.996,753.503L1490.998,751.503L1488.998,751.501ZM1489,747.501L1491,747.503L1491.002,745.503L1489.002,745.501L1489,747.501ZM1487,747.501L1487,749.501L1487,749.501L1487,747.501ZM4.001,794.501L4.002,792.501L4.002,792.501L4.001,794.501ZM2.001,794.499L2.002,792.499L0.002,792.497L0.001,794.497L2.001,794.499ZM1487,795.501L1487,797.501L1487,797.501L1487,795.501ZM1489,795.501L1491,795.503L1491.002,793.503L1489.002,793.501L1489,795.501ZM1488.998,799.501L1488.996,801.501L1490.996,801.503L1490.998,799.503L1488.998,799.501ZM1486.998,799.501L1486.996,801.501L1486.996,801.501L1486.998,799.501ZM3.998,798.501L4,796.501L4,796.501L3.998,798.501ZM1.998,798.499L-0.002,798.497L-0.003,800.497L1.997,800.499L1.998,798.499ZM2.001,842.499L2.002,840.499L0.002,840.497L0.001,842.497L2.001,842.499ZM4.001,842.501L4.002,840.501L4.002,840.501L4.001,842.501ZM1.998,846.499L-0.002,846.497L-0.003,848.497L1.997,848.499L1.998,846.499ZM3.998,846.501L4,844.501L4,844.501L3.998,846.501ZM1486.998,847.501L1486.996,849.501L1486.996,849.501L1486.998,847.501ZM1488.998,847.501L1488.996,849.501L1490.996,849.503L1490.998,847.503L1488.998,847.501ZM1489,843.501L1491,843.503L1491.002,841.503L1489.002,841.501L1489,843.501ZM1487,843.501L1487,845.501L1487,845.501L1487,843.501ZM4.001,890.501L4.002,888.501L4.002,888.501L4.001,890.501ZM2.001,890.499L2.002,888.499L0.002,888.497L0.001,890.497L2.001,890.499ZM1487,891.501L1487,893.501L1487,893.501L1487,891.501ZM1489,891.501L1491,891.503L1491.002,889.503L1489.002,889.501L1489,891.501ZM1488.998,895.501L1488.996,897.501L1490.996,897.503L1490.998,895.503L1488.998,895.501ZM1486.998,895.501L1486.996,897.501L1486.996,897.501L1486.998,895.501ZM3.998,894.501L4,892.501L4,892.501L3.998,894.501ZM1.998,894.499L-0.002,894.497L-0.003,896.497L1.997,896.499L1.998,894.499ZM2.001,938.499L2.002,936.499L0.002,936.497L0.001,938.497L2.001,938.499ZM4.001,938.501L4.002,936.501L4.002,936.501L4.001,938.501ZM1.998,942.499L-0.002,942.497L-0.003,944.497L1.997,944.499L1.998,942.499ZM3.998,942.501L4,940.501L4,940.501L3.998,942.501ZM1486.998,943.501L1486.996,945.501L1486.996,945.501L1486.998,943.501ZM1488.998,943.501L1488.996,945.501L1490.996,945.503L1490.998,943.503L1488.998,943.501ZM1489,939.501L1491,939.503L1491.002,937.503L1489.002,937.501L1489,939.501ZM1487,939.501L1487,941.501L1487,941.501L1487,939.501ZM4.001,986.501L4.002,984.501L4.002,984.501L4.001,986.501ZM2.001,986.499L2.002,984.499L0.002,984.497L0.001,986.497L2.001,986.499ZM1487,987.501L1487,989.501L1487,989.501L1487,987.501ZM1489,987.501L1491,987.503L1491.002,985.503L1489.002,985.501L1489,987.501ZM1488.998,991.501L1488.996,993.501L1490.996,993.503L1490.998,991.503L1488.998,991.501ZM1486.998,991.501L1486.996,993.501L1486.996,993.501L1486.998,991.501ZM3.998,990.501L4,988.501L4,988.501L3.998,990.501ZM1.998,990.499L-0.002,990.497L-0.003,992.497L1.997,992.499L1.998,990.499ZM2.001,1034.499L2.002,1032.499L0.002,1032.497L0.001,1034.497L2.001,1034.499ZM4.001,1034.501L4.002,1032.501L4.002,1032.501L4.001,1034.501ZM1.998,1038.499L-0.002,1038.497L-0.003,1040.497L1.997,1040.499L1.998,1038.499ZM3.998,1038.501L4,1036.501L4,1036.501L3.998,1038.501ZM1486.998,1039.501L1486.996,1041.501L1486.996,1041.501L1486.998,1039.501ZM1488.998,1039.501L1488.996,1041.501L1490.996,1041.503L1490.998,1039.503L1488.998,1039.501ZM1489,1035.501L1491,1035.503L1491.002,1033.503L1489.002,1033.501L1489,1035.501ZM1487,1035.501L1487,1037.501L1487,1037.501L1487,1035.501ZM4.001,1082.501L4.002,1080.501L4.002,1080.501L4.001,1082.501ZM2.001,1082.499L2.002,1080.499L0.002,1080.497L0.001,1082.497L2.001,1082.499ZM1487,1083.501L1487,1085.501L1487,1085.501L1487,1083.501ZM1489,1083.501L1491,1083.503L1491.002,1081.503L1489.002,1081.501L1489,1083.501ZM1488.998,1087.501L1488.996,1089.501L1490.996,1089.503L1490.998,1087.503L1488.998,1087.501ZM1486.998,1087.501L1486.996,1089.501L1486.996,1089.501L1486.998,1087.501ZM3.998,1086.501L4,1084.501L4,1084.501L3.998,1086.501ZM1.998,1086.499L-0.002,1086.497L-0.003,1088.497L1.997,1088.499L1.998,1086.499ZM2.001,1130.499L2.002,1128.499L0.002,1128.497L0.001,1130.497L2.001,1130.499ZM4.001,1130.501L4.002,1128.501L4.002,1128.501L4.001,1130.501ZM1.998,1134.499L-0.002,1134.497L-0.003,1136.497L1.997,1136.499L1.998,1134.499ZM3.998,1134.501L4,1132.501L4,1132.501L3.998,1134.501ZM1486.998,1135.501L1486.996,1137.501L1486.996,1137.501L1486.998,1135.501ZM1488.998,1135.501L1488.996,1137.501L1490.996,1137.503L1490.998,1135.503L1488.998,1135.501ZM1489,1131.501L1491,1131.503L1491.002,1129.503L1489.002,1129.501L1489,1131.501ZM1487,1131.501L1487,1133.501L1487,1133.501L1487,1131.501ZM4.001,1178.501L4.002,1176.501L4.002,1176.501L4.001,1178.501ZM2.001,1178.499L2.002,1176.499L0.002,1176.497L0.001,1178.497L2.001,1178.499ZM1487,1179.501L1487,1181.501L1487,1181.501L1487,1179.501ZM1489,1179.501L1491,1179.503L1491.002,1177.503L1489.002,1177.501L1489,1179.501ZM1488.998,1183.501L1488.996,1185.501L1490.996,1185.503L1490.998,1183.503L1488.998,1183.501ZM1486.998,1183.501L1486.996,1185.501L1486.996,1185.501L1486.998,1183.501ZM3.998,1182.501L4,1180.501L4,1180.501L3.998,1182.501ZM1.998,1182.499L-0.002,1182.497L-0.003,1184.497L1.997,1184.499L1.998,1182.499ZM2.001,1226.499L2.002,1224.499L0.002,1224.497L0.001,1226.497L2.001,1226.499ZM4.001,1226.501L4.002,1224.501L4.002,1224.501L4.001,1226.501ZM1.998,1230.499L-0.002,1230.497L-0.003,1232.497L1.997,1232.499L1.998,1230.499ZM3.998,1230.501L4,1228.501L4,1228.501L3.998,1230.501ZM1486.998,1231.501L1486.996,1233.501L1486.996,1233.501L1486.998,1231.501ZM1488.998,1231.501L1488.996,1233.501L1490.996,1233.503L1490.998,1231.503L1488.998,1231.501ZM1489,1227.501L1491,1227.503L1491.002,1225.503L1489.002,1225.501L1489,1227.501ZM1487,1227.501L1487,1229.501L1487,1229.501L1487,1227.501ZM4.001,1274.501L4.002,1272.501L4.002,1272.501L4.001,1274.501ZM2.001,1274.499L2.002,1272.499L0.002,1272.497L0.001,1274.497L2.001,1274.499ZM1487,1275.501L1487,1277.501L1487,1277.501L1487,1275.501ZM1489,1275.501L1491,1275.503L1491.002,1273.503L1489.002,1273.501L1489,1275.501ZM1488.998,1279.501L1488.996,1281.501L1490.996,1281.503L1490.998,1279.503L1488.998,1279.501ZM1486.998,1279.501L1486.996,1281.501L1486.996,1281.501L1486.998,1279.501ZM3.998,1278.501L4,1276.501L4,1276.501L3.998,1278.501ZM1.998,1278.499L-0.002,1278.497L-0.003,1280.497L1.997,1280.499L1.998,1278.499ZM2.001,1322.499L2.002,1320.499L0.002,1320.497L0.001,1322.497L2.001,1322.499ZM4.001,1322.501L4.002,1320.501L4.002,1320.501L4.001,1322.501ZM1.998,1326.499L-0.002,1326.497L-0.003,1328.497L1.997,1328.499L1.998,1326.499ZM3.998,1326.501L4,1324.501L4,1324.501L3.998,1326.501ZM1486.998,1327.501L1486.996,1329.501L1486.996,1329.501L1486.998,1327.501ZM1488.998,1327.501L1488.996,1329.501L1490.996,1329.503L1490.998,1327.503L1488.998,1327.501ZM1489,1323.501L1491,1323.503L1491.002,1321.503L1489.002,1321.501L1489,1323.501ZM1487,1323.501L1487,1325.501L1487,1325.501L1487,1323.501ZM2,508.499L4,508.501L4.002,504.501L2.002,504.499L2,508.499ZM3.998,510.501L4.001,506.501L0.001,506.498L-0.002,510.498L3.998,510.501ZM4,508.501L2,508.499L1.997,512.499L3.997,512.501L4,508.501ZM1487,509.501L4,508.501L3.997,512.501L1486.996,513.501L1487,509.501ZM1489,509.502L1487,509.501L1486.996,513.501L1488.996,513.502L1489,509.502ZM1487,507.501L1486.998,511.501L1490.998,511.503L1491,507.503L1487,507.501ZM1487,509.501L1489,509.502L1489.002,505.502L1487.002,505.501L1487,509.501ZM4,508.501L1487,509.501L1487.002,505.501L4.002,504.501L4,508.501ZM2,556.499L4,556.501L4.002,552.501L2.002,552.499L2,556.499ZM3.998,558.501L4.001,554.501L0.001,554.498L-0.002,558.498L3.998,558.501ZM4,556.501L2,556.499L1.997,560.499L3.997,560.501L4,556.501ZM1487,557.501L4,556.501L3.997,560.501L1486.996,561.501L1487,557.501ZM1489,557.502L1487,557.501L1486.996,561.501L1488.996,561.502L1489,557.502ZM1487,555.501L1486.998,559.501L1490.998,559.503L1491,555.503L1487,555.501ZM1487,557.501L1489,557.502L1489.002,553.502L1487.002,553.501L1487,557.501ZM4,556.501L1487,557.501L1487.002,553.501L4.002,552.501L4,556.501ZM4.002,600.501L2.002,600.499L2,604.499L4,604.501L4.002,600.501ZM1487.002,601.501L4.002,600.501L4,604.501L1487,605.501L1487.002,601.501ZM1489.002,601.502L1487.002,601.501L1487,605.501L1489,605.502L1489.002,601.502ZM1490.998,607.503L1491,603.503L1487,603.501L1486.998,607.501L1490.998,607.503ZM1486.996,609.501L1488.996,609.502L1489,605.502L1487,605.501L1486.996,609.501ZM3.997,608.501L1486.996,609.501L1487,605.501L4,604.501L3.997,608.501ZM1.997,608.499L3.997,608.501L4,604.501L2,604.499L1.997,608.499ZM0.001,602.498L-0.002,606.498L3.998,606.501L4.001,602.501L0.001,602.498ZM2,652.499L4,652.501L4.002,648.501L2.002,648.499L2,652.499ZM3.998,654.501L4.001,650.501L0.001,650.498L-0.002,654.498L3.998,654.501ZM4,652.501L2,652.499L1.997,656.499L3.997,656.501L4,652.501ZM1487,653.501L4,652.501L3.997,656.501L1486.996,657.501L1487,653.501ZM1489,653.502L1487,653.501L1486.996,657.501L1488.996,657.502L1489,653.502ZM1487,651.501L1486.998,655.501L1490.998,655.503L1491,651.503L1487,651.501ZM1487,653.501L1489,653.502L1489.002,649.502L1487.002,649.501L1487,653.501ZM4,652.501L1487,653.501L1487.002,649.501L4.002,648.501L4,652.501ZM4.002,696.501L2.002,696.499L2,700.499L4,700.501L4.002,696.501ZM1487.002,697.501L4.002,696.501L4,700.501L1487,701.501L1487.002,697.501ZM1489.002,697.502L1487.002,697.501L1487,701.501L1489,701.502L1489.002,697.502ZM1490.998,703.503L1491,699.503L1487,699.501L1486.998,703.501L1490.998,703.503ZM1486.996,705.501L1488.996,705.502L1489,701.502L1487,701.501L1486.996,705.501ZM3.997,704.501L1486.996,705.501L1487,701.501L4,700.501L3.997,704.501ZM1.997,704.499L3.997,704.501L4,700.501L2,700.499L1.997,704.499ZM0.001,698.498L-0.002,702.498L3.998,702.501L4.001,698.501L0.001,698.498ZM2,748.499L4,748.501L4.002,744.501L2.002,744.499L2,748.499ZM3.998,750.501L4.001,746.501L0.001,746.497L-0.002,750.497L3.998,750.501ZM4,748.501L2,748.499L1.997,752.499L3.997,752.501L4,748.501ZM1487,749.501L4,748.501L3.997,752.501L1486.996,753.501L1487,749.501ZM1489,749.501L1487,749.501L1486.996,753.501L1488.996,753.501L1489,749.501ZM1487,747.501L1486.998,751.501L1490.998,751.503L1491,747.503L1487,747.501ZM1487,749.501L1489,749.501L1489.002,745.501L1487.002,745.501L1487,749.501ZM4,748.501L1487,749.501L1487.002,745.501L4.002,744.501L4,748.501ZM4.002,792.501L2.002,792.499L2,796.499L4,796.501L4.002,792.501ZM1487.002,793.501L4.002,792.501L4,796.501L1487,797.501L1487.002,793.501ZM1489.002,793.501L1487.002,793.501L1487,797.501L1489,797.501L1489.002,793.501ZM1490.998,799.503L1491,795.503L1487,795.501L1486.998,799.501L1490.998,799.503ZM1486.996,801.501L1488.996,801.501L1489,797.501L1487,797.501L1486.996,801.501ZM3.997,800.501L1486.996,801.501L1487,797.501L4,796.501L3.997,800.501ZM1.997,800.499L3.997,800.501L4,796.501L2,796.499L1.997,800.499ZM0.001,794.497L-0.002,798.497L3.998,798.501L4.001,794.501L0.001,794.497ZM2,844.499L4,844.501L4.002,840.501L2.002,840.499L2,844.499ZM3.998,846.501L4.001,842.501L0.001,842.497L-0.002,846.497L3.998,846.501ZM4,844.501L2,844.499L1.997,848.499L3.997,848.501L4,844.501ZM1487,845.501L4,844.501L3.997,848.501L1486.996,849.501L1487,845.501ZM1489,845.501L1487,845.501L1486.996,849.501L1488.996,849.501L1489,845.501ZM1487,843.501L1486.998,847.501L1490.998,847.503L1491,843.503L1487,843.501ZM1487,845.501L1489,845.501L1489.002,841.501L1487.002,841.501L1487,845.501ZM4,844.501L1487,845.501L1487.002,841.501L4.002,840.501L4,844.501ZM4.002,888.501L2.002,888.499L2,892.499L4,892.501L4.002,888.501ZM1487.002,889.501L4.002,888.501L4,892.501L1487,893.501L1487.002,889.501ZM1489.002,889.501L1487.002,889.501L1487,893.501L1489,893.501L1489.002,889.501ZM1490.998,895.503L1491,891.503L1487,891.501L1486.998,895.501L1490.998,895.503ZM1486.996,897.501L1488.996,897.501L1489,893.501L1487,893.501L1486.996,897.501ZM3.997,896.501L1486.996,897.501L1487,893.501L4,892.501L3.997,896.501ZM1.997,896.499L3.997,896.501L4,892.501L2,892.499L1.997,896.499ZM0.001,890.497L-0.002,894.497L3.998,894.501L4.001,890.501L0.001,890.497ZM2,940.499L4,940.501L4.002,936.501L2.002,936.499L2,940.499ZM3.998,942.501L4.001,938.501L0.001,938.497L-0.002,942.497L3.998,942.501ZM4,940.501L2,940.499L1.997,944.499L3.997,944.501L4,940.501ZM1487,941.501L4,940.501L3.997,944.501L1486.996,945.501L1487,941.501ZM1489,941.501L1487,941.501L1486.996,945.501L1488.996,945.501L1489,941.501ZM1487,939.501L1486.998,943.501L1490.998,943.503L1491,939.503L1487,939.501ZM1487,941.501L1489,941.501L1489.002,937.501L1487.002,937.501L1487,941.501ZM4,940.501L1487,941.501L1487.002,937.501L4.002,936.501L4,940.501ZM4.002,984.501L2.002,984.499L2,988.499L4,988.501L4.002,984.501ZM1487.002,985.501L4.002,984.501L4,988.501L1487,989.501L1487.002,985.501ZM1489.002,985.501L1487.002,985.501L1487,989.501L1489,989.501L1489.002,985.501ZM1490.998,991.503L1491,987.503L1487,987.501L1486.998,991.501L1490.998,991.503ZM1486.996,993.501L1488.996,993.501L1489,989.501L1487,989.501L1486.996,993.501ZM3.997,992.501L1486.996,993.501L1487,989.501L4,988.501L3.997,992.501ZM1.997,992.499L3.997,992.501L4,988.501L2,988.499L1.997,992.499ZM0.001,986.497L-0.002,990.497L3.998,990.501L4.001,986.501L0.001,986.497ZM2,1036.499L4,1036.501L4.002,1032.501L2.002,1032.499L2,1036.499ZM3.998,1038.501L4.001,1034.501L0.001,1034.497L-0.002,1038.497L3.998,1038.501ZM4,1036.501L2,1036.499L1.997,1040.499L3.997,1040.501L4,1036.501ZM1487,1037.501L4,1036.501L3.997,1040.501L1486.996,1041.501L1487,1037.501ZM1489,1037.501L1487,1037.501L1486.996,1041.501L1488.996,1041.501L1489,1037.501ZM1487,1035.501L1486.998,1039.501L1490.998,1039.503L1491,1035.503L1487,1035.501ZM1487,1037.501L1489,1037.501L1489.002,1033.501L1487.002,1033.501L1487,1037.501ZM4,1036.501L1487,1037.501L1487.002,1033.501L4.002,1032.501L4,1036.501ZM4.002,1080.501L2.002,1080.499L2,1084.499L4,1084.501L4.002,1080.501ZM1487.002,1081.501L4.002,1080.501L4,1084.501L1487,1085.501L1487.002,1081.501ZM1489.002,1081.501L1487.002,1081.501L1487,1085.501L1489,1085.501L1489.002,1081.501ZM1490.998,1087.503L1491,1083.503L1487,1083.501L1486.998,1087.501L1490.998,1087.503ZM1486.996,1089.501L1488.996,1089.501L1489,1085.501L1487,1085.501L1486.996,1089.501ZM3.997,1088.501L1486.996,1089.501L1487,1085.501L4,1084.501L3.997,1088.501ZM1.997,1088.499L3.997,1088.501L4,1084.501L2,1084.499L1.997,1088.499ZM0.001,1082.497L-0.002,1086.497L3.998,1086.501L4.001,1082.501L0.001,1082.497ZM2,1132.499L4,1132.501L4.002,1128.501L2.002,1128.499L2,1132.499ZM3.998,1134.501L4.001,1130.501L0.001,1130.497L-0.002,1134.497L3.998,1134.501ZM4,1132.501L2,1132.499L1.997,1136.499L3.997,1136.501L4,1132.501ZM1487,1133.501L4,1132.501L3.997,1136.501L1486.996,1137.501L1487,1133.501ZM1489,1133.501L1487,1133.501L1486.996,1137.501L1488.996,1137.501L1489,1133.501ZM1487,1131.501L1486.998,1135.501L1490.998,1135.503L1491,1131.503L1487,1131.501ZM1487,1133.501L1489,1133.501L1489.002,1129.501L1487.002,1129.501L1487,1133.501ZM4,1132.501L1487,1133.501L1487.002,1129.501L4.002,1128.501L4,1132.501ZM4.002,1176.501L2.002,1176.499L2,1180.499L4,1180.501L4.002,1176.501ZM1487.002,1177.501L4.002,1176.501L4,1180.501L1487,1181.501L1487.002,1177.501ZM1489.002,1177.501L1487.002,1177.501L1487,1181.501L1489,1181.501L1489.002,1177.501ZM1490.998,1183.503L1491,1179.503L1487,1179.501L1486.998,1183.501L1490.998,1183.503ZM1486.996,1185.501L1488.996,1185.501L1489,1181.501L1487,1181.501L1486.996,1185.501ZM3.997,1184.501L1486.996,1185.501L1487,1181.501L4,1180.501L3.997,1184.501ZM1.997,1184.499L3.997,1184.501L4,1180.501L2,1180.499L1.997,1184.499ZM0.001,1178.497L-0.002,1182.497L3.998,1182.501L4.001,1178.501L0.001,1178.497ZM2,1228.499L4,1228.501L4.002,1224.501L2.002,1224.499L2,1228.499ZM3.998,1230.501L4.001,1226.501L0.001,1226.497L-0.002,1230.497L3.998,1230.501ZM4,1228.501L2,1228.499L1.997,1232.499L3.997,1232.501L4,1228.501ZM1487,1229.501L4,1228.501L3.997,1232.501L1486.996,1233.501L1487,1229.501ZM1489,1229.501L1487,1229.501L1486.996,1233.501L1488.996,1233.501L1489,1229.501ZM1487,1227.501L1486.998,1231.501L1490.998,1231.503L1491,1227.503L1487,1227.501ZM1487,1229.501L1489,1229.501L1489.002,1225.501L1487.002,1225.501L1487,1229.501ZM4,1228.501L1487,1229.501L1487.002,1225.501L4.002,1224.501L4,1228.501ZM4.002,1272.501L2.002,1272.499L2,1276.499L4,1276.501L4.002,1272.501ZM1487.002,1273.501L4.002,1272.501L4,1276.501L1487,1277.501L1487.002,1273.501ZM1489.002,1273.501L1487.002,1273.501L1487,1277.501L1489,1277.501L1489.002,1273.501ZM1490.998,1279.503L1491,1275.503L1487,1275.501L1486.998,1279.501L1490.998,1279.503ZM1486.996,1281.501L1488.996,1281.501L1489,1277.501L1487,1277.501L1486.996,1281.501ZM3.997,1280.501L1486.996,1281.501L1487,1277.501L4,1276.501L3.997,1280.501ZM1.997,1280.499L3.997,1280.501L4,1276.501L2,1276.499L1.997,1280.499ZM0.001,1274.497L-0.002,1278.497L3.998,1278.501L4.001,1274.501L0.001,1274.497ZM2,1324.499L4,1324.501L4.002,1320.501L2.002,1320.499L2,1324.499ZM3.998,1326.501L4.001,1322.501L0.001,1322.497L-0.002,1326.497L3.998,1326.501ZM4,1324.501L2,1324.499L1.997,1328.499L3.997,1328.501L4,1324.501ZM1487,1325.501L4,1324.501L3.997,1328.501L1486.996,1329.501L1487,1325.501ZM1489,1325.501L1487,1325.501L1486.996,1329.501L1488.996,1329.501L1489,1325.501ZM1487,1323.501L1486.998,1327.501L1490.998,1327.503L1491,1323.503L1487,1323.501ZM1487,1325.501L1489,1325.501L1489.002,1321.501L1487.002,1321.501L1487,1325.501ZM4,1324.501L1487,1325.501L1487.002,1321.501L4.002,1320.501L4,1324.501Z" transform="rotate(90 745.5 917.001)" fill="#000000"/>
</g>
<path d="M1065.06,289.377L1066.94,285.847C1122.642,315.513 1155.025,330.795 1190.732,342.647C1235.469,357.497 1278.082,363.211 1323.542,359.167C1416.436,350.899 1483.13,287.723 1499.97,194.786C1500.094,194.101 1500.25,193.237 1500.532,191.687C1502.926,178.481 1504.088,171.693 1505.214,163.882C1511.142,122.715 1508.16,93.974 1491.444,68.071C1468.164,31.995 1415.618,2.903 1373.992,4.033C1347.086,4.763 1330.328,6.348 1313.356,9.669C1300.74,12.138 1242.541,27.418 1231.21,30.195C1180.864,42.535 1152.929,76.224 1162.01,122.917C1166.055,143.714 1173.495,159.71 1185.527,167.528C1197.293,175.174 1214.952,181.255 1227.958,181.393C1239.646,181.517 1249.829,182.087 1268.066,183.439C1309.872,186.538 1324.09,186.511 1340.126,181.258C1360.622,174.545 1373.244,158.76 1379.212,129.339L1383.132,130.134C1376.892,160.895 1363.318,177.871 1341.372,185.059C1324.626,190.544 1310.184,190.572 1267.77,187.428C1249.613,186.082 1239.495,185.515 1227.916,185.393C1214.091,185.246 1195.712,178.917 1183.348,170.882C1170.162,162.314 1162.317,145.452 1158.083,123.681C1148.548,74.652 1178.016,39.114 1230.258,26.31C1241.472,23.561 1299.826,8.242 1312.588,5.744C1329.802,2.375 1346.772,0.77 1373.884,0.034C1416.938,-1.134 1470.784,28.677 1494.806,65.902C1512.152,92.781 1515.226,122.42 1509.172,164.452C1508.038,172.326 1506.87,179.148 1504.468,192.401C1504.186,193.951 1504.03,194.814 1503.906,195.499C1486.75,290.181 1418.614,354.721 1323.896,363.151C1277.866,367.247 1234.708,361.459 1189.471,346.443C1153.492,334.501 1120.949,319.143 1065.06,289.377Z" fill="#000000"/>
<circle cx="598" cy="288" r="228" fill="#009EFF"/>
<rect  x="1034" y="842" width="476" height="480" rx="48" fill="#009EFF"/>
</svg>
