<svg width="1522" height="1436" viewBox="0 0 1522 1436" fill="none" xmlns="http://www.w3.org/2000/svg" xmlns:xlink="http://www.w3.org/1999/xlink">
<mask id="mask_0_33_942" style="mask-type:alpha" maskUnits="userSpaceOnUse" x="340" y="12" width="400" height="400">
<circle cx="740" cy="412" r="400" fill="#000000"/>
</mask>
<g mask="url(#mask_0_33_942)">
<path d="M32.001,2.499L32.002,0.499L30.002,0.497L30.001,2.497L32.001,2.499ZM34.001,2.5L34.002,0.5L34.001,2.5ZM31.998,6.499L29.998,6.497L29.997,8.497L31.997,8.499L31.998,6.499ZM33.998,6.5L34,4.5L34,4.5L33.998,6.5ZM1516.998,7.5L1517,5.5L1517,5.5L1516.998,7.5ZM1518.998,7.502L1518.996,9.502L1520.996,9.503L1520.998,7.503L1518.998,7.502ZM1519,3.502L1521,3.503L1521.002,1.503L1519.002,1.502L1519,3.502ZM1517,3.5L1517,5.5L1517,3.5ZM32.001,50.499L32.002,48.499L30.002,48.497L30.001,50.497L32.001,50.499ZM34.001,50.5L34.002,48.5L34.002,48.5L34.001,50.5ZM31.998,54.499L29.998,54.497L29.997,56.497L31.997,56.499L31.998,54.499ZM33.998,54.5L33.997,56.5L33.997,56.5L33.998,54.5ZM1516.998,55.5L1516.996,57.5L1516.996,57.5L1516.998,55.5ZM1518.998,55.501L1518.996,57.501L1520.996,57.503L1520.998,55.503L1518.998,55.501ZM1519,51.501L1521,51.503L1521.002,49.503L1519.002,49.501L1519,51.501ZM1517,51.5L1517.002,49.5L1517.002,49.5L1517,51.5ZM34.001,98.5L34,100.5L34,100.5L34.001,98.5ZM32.001,98.499L32.002,96.499L30.002,96.497L30.001,98.497L32.001,98.499ZM1517,99.5L1517.002,97.5L1517.002,97.5L1517,99.5ZM1519,99.502L1521,99.503L1521.002,97.503L1519.002,97.502L1519,99.502ZM1518.998,103.502L1518.996,105.502L1520.996,105.503L1520.998,103.503L1518.998,103.502ZM1516.998,103.5L1517,101.5L1517,101.5L1516.998,103.5ZM33.998,102.5L33.997,104.5L33.997,104.5L33.998,102.5ZM31.998,102.499L29.998,102.497L29.997,104.497L31.997,104.499L31.998,102.499ZM32.001,146.499L32.002,144.499L30.002,144.497L30.001,146.497L32.001,146.499ZM34.001,146.5L34.002,144.5L34.002,144.5L34.001,146.5ZM31.998,150.499L29.998,150.497L29.997,152.497L31.997,152.499L31.998,150.499ZM33.998,150.5L34,148.5L34,148.5L33.998,150.5ZM1516.998,151.5L1516.996,153.5L1516.996,153.5L1516.998,151.5ZM1518.998,151.501L1518.996,153.501L1520.996,153.503L1520.998,151.503L1518.998,151.501ZM1519,147.501L1521,147.503L1521.002,145.503L1519.002,145.501L1519,147.501ZM1517,147.5L1517,149.5L1517,149.5L1517,147.5ZM34.001,194.5L34.002,192.5L34.002,192.5L34.001,194.5ZM32.001,194.499L32.002,192.499L30.002,192.497L30.001,194.497L32.001,194.499ZM1517,195.5L1517,197.5L1517,197.5L1517,195.5ZM1519,195.501L1521,195.503L1521.002,193.503L1519.002,193.501L1519,195.501ZM1518.998,199.501L1518.996,201.501L1520.996,201.503L1520.998,199.503L1518.998,199.501ZM1516.998,199.5L1516.996,201.5L1516.996,201.5L1516.998,199.5ZM33.998,198.5L34,196.5L34,196.5L33.998,198.5ZM31.998,198.499L29.998,198.497L29.997,200.497L31.997,200.499L31.998,198.499ZM32.001,242.499L32.002,240.499L30.002,240.497L30.001,242.497L32.001,242.499ZM34.001,242.501L34.002,240.501L34.002,240.501L34.001,242.501ZM31.998,246.499L29.998,246.497L29.997,248.497L31.997,248.499L31.998,246.499ZM33.998,246.501L34,244.501L34,244.501L33.998,246.501ZM1516.998,247.501L1516.996,249.501L1516.996,249.501L1516.998,247.501ZM1518.998,247.501L1518.996,249.501L1520.996,249.503L1520.998,247.503L1518.998,247.501ZM1519,243.501L1521,243.503L1521.002,241.503L1519.002,241.501L1519,243.501ZM1517,243.501L1517,245.501L1517,245.501L1517,243.501ZM34.001,290.501L34.002,288.501L34.002,288.501L34.001,290.501ZM32.001,290.499L32.002,288.499L30.002,288.497L30.001,290.497L32.001,290.499ZM1517,291.501L1517,293.501L1517,293.501L1517,291.501ZM1519,291.501L1521,291.503L1521.002,289.503L1519.002,289.501L1519,291.501ZM1518.998,295.501L1518.996,297.501L1520.996,297.503L1520.998,295.503L1518.998,295.501ZM1516.998,295.501L1516.996,297.501L1516.996,297.501L1516.998,295.501ZM33.998,294.501L34,292.501L34,292.501L33.998,294.501ZM31.998,294.499L29.998,294.497L29.997,296.497L31.997,296.499L31.998,294.499ZM32.001,338.499L32.002,336.499L30.002,336.497L30.001,338.497L32.001,338.499ZM34.001,338.501L34.002,336.501L34.002,336.501L34.001,338.501ZM31.998,342.499L29.998,342.497L29.997,344.497L31.997,344.499L31.998,342.499ZM33.998,342.501L34,340.501L34,340.501L33.998,342.501ZM1516.998,343.501L1516.996,345.501L1516.996,345.501L1516.998,343.501ZM1518.998,343.501L1518.996,345.501L1520.996,345.503L1520.998,343.503L1518.998,343.501ZM1519,339.501L1521,339.503L1521.002,337.503L1519.002,337.501L1519,339.501ZM1517,339.501L1517,341.501L1517,341.501L1517,339.501ZM34.001,386.501L34.002,384.501L34.002,384.501L34.001,386.501ZM32.001,386.499L32.002,384.499L30.002,384.497L30.001,386.497L32.001,386.499ZM1517,387.501L1517,389.501L1517,389.501L1517,387.501ZM1519,387.501L1521,387.503L1521.002,385.503L1519.002,385.501L1519,387.501ZM1518.998,391.501L1518.996,393.501L1520.996,393.503L1520.998,391.503L1518.998,391.501ZM1516.998,391.501L1516.996,393.501L1516.996,393.501L1516.998,391.501ZM33.998,390.501L34,388.501L34,388.501L33.998,390.501ZM31.998,390.499L29.998,390.497L29.997,392.497L31.997,392.499L31.998,390.499ZM32.001,434.499L32.002,432.499L30.002,432.497L30.001,434.497L32.001,434.499ZM34.001,434.501L34.002,432.501L34.002,432.501L34.001,434.501ZM31.998,438.499L29.998,438.497L29.997,440.497L31.997,440.499L31.998,438.499ZM33.998,438.501L34,436.501L34,436.501L33.998,438.501ZM1516.998,439.501L1516.996,441.501L1516.996,441.501L1516.998,439.501ZM1518.998,439.501L1518.996,441.501L1520.996,441.503L1520.998,439.503L1518.998,439.501ZM1519,435.501L1521,435.503L1521.002,433.503L1519.002,433.501L1519,435.501ZM1517,435.501L1517,437.501L1517,437.501L1517,435.501ZM34.001,482.501L34.002,480.501L34.002,480.501L34.001,482.501ZM32.001,482.499L32.002,480.499L30.002,480.497L30.001,482.497L32.001,482.499ZM1517,483.501L1517,485.501L1517,485.501L1517,483.501ZM1519,483.501L1521,483.503L1521.002,481.503L1519.002,481.501L1519,483.501ZM1518.998,487.501L1518.996,489.501L1520.996,489.503L1520.998,487.503L1518.998,487.501ZM1516.998,487.501L1516.996,489.501L1516.996,489.501L1516.998,487.501ZM33.998,486.501L34,484.501L34,484.501L33.998,486.501ZM31.998,486.499L29.998,486.497L29.997,488.497L31.997,488.499L31.998,486.499ZM32.001,530.499L32.002,528.499L30.002,528.497L30.001,530.497L32.001,530.499ZM34.001,530.501L34.002,528.501L34.002,528.501L34.001,530.501ZM31.998,534.499L29.998,534.497L29.997,536.497L31.997,536.499L31.998,534.499ZM33.998,534.501L34,532.501L34,532.501L33.998,534.501ZM1516.998,535.501L1516.996,537.501L1516.996,537.501L1516.998,535.501ZM1518.998,535.501L1518.996,537.501L1520.996,537.503L1520.998,535.503L1518.998,535.501ZM1519,531.501L1521,531.503L1521.002,529.503L1519.002,529.501L1519,531.501ZM1517,531.501L1517,533.501L1517,533.501L1517,531.501ZM34.001,578.501L34.002,576.501L34.002,576.501L34.001,578.501ZM32.001,578.499L32.002,576.499L30.002,576.497L30.001,578.497L32.001,578.499ZM1517,579.501L1517,581.501L1517,581.501L1517,579.501ZM1519,579.501L1521,579.503L1521.002,577.503L1519.002,577.501L1519,579.501ZM1518.998,583.501L1518.996,585.501L1520.996,585.503L1520.998,583.503L1518.998,583.501ZM1516.998,583.501L1516.996,585.501L1516.996,585.501L1516.998,583.501ZM33.998,582.501L34,580.501L34,580.501L33.998,582.501ZM31.998,582.499L29.998,582.497L29.997,584.497L31.997,584.499L31.998,582.499ZM32.001,626.499L32.002,624.499L30.002,624.497L30.001,626.497L32.001,626.499ZM34.001,626.501L34.002,624.501L34.002,624.501L34.001,626.501ZM31.998,630.499L29.998,630.497L29.997,632.497L31.997,632.499L31.998,630.499ZM33.998,630.501L34,628.501L34,628.501L33.998,630.501ZM1516.998,631.501L1516.996,633.501L1516.996,633.501L1516.998,631.501ZM1518.998,631.501L1518.996,633.501L1520.996,633.503L1520.998,631.503L1518.998,631.501ZM1519,627.501L1521,627.503L1521.002,625.503L1519.002,625.501L1519,627.501ZM1517,627.501L1517,629.501L1517,629.501L1517,627.501ZM34.001,674.501L34.002,672.501L34.002,672.501L34.001,674.501ZM32.001,674.499L32.002,672.499L30.002,672.497L30.001,674.497L32.001,674.499ZM1517,675.501L1517,677.501L1517,677.501L1517,675.501ZM1519,675.501L1521,675.503L1521.002,673.503L1519.002,673.501L1519,675.501ZM1518.998,679.501L1518.996,681.501L1520.996,681.503L1520.998,679.503L1518.998,679.501ZM1516.998,679.501L1516.996,681.501L1516.996,681.501L1516.998,679.501ZM33.998,678.501L34,676.501L34,676.501L33.998,678.501ZM31.998,678.499L29.998,678.497L29.997,680.497L31.997,680.499L31.998,678.499ZM32.001,722.499L32.002,720.499L30.002,720.497L30.001,722.497L32.001,722.499ZM34.001,722.501L34.002,720.501L34.002,720.501L34.001,722.501ZM31.998,726.499L29.998,726.497L29.997,728.497L31.997,728.499L31.998,726.499ZM33.998,726.501L34,724.501L34,724.501L33.998,726.501ZM1516.998,727.501L1516.996,729.501L1516.996,729.501L1516.998,727.501ZM1518.998,727.501L1518.996,729.501L1520.996,729.503L1520.998,727.503L1518.998,727.501ZM1519,723.501L1521,723.503L1521.002,721.503L1519.002,721.501L1519,723.501ZM1517,723.501L1517,725.501L1517,725.501L1517,723.501ZM34.001,770.501L34.002,768.501L34.002,768.501L34.001,770.501ZM32.001,770.499L32.002,768.499L30.002,768.497L30.001,770.497L32.001,770.499ZM1517,771.501L1517,773.501L1517,773.501L1517,771.501ZM1519,771.501L1521,771.503L1521.002,769.503L1519.002,769.501L1519,771.501ZM1518.998,775.501L1518.996,777.501L1520.996,777.503L1520.998,775.503L1518.998,775.501ZM1516.998,775.501L1516.996,777.501L1516.996,777.501L1516.998,775.501ZM33.998,774.501L34,772.501L34,772.501L33.998,774.501ZM31.998,774.499L29.998,774.497L29.997,776.497L31.997,776.499L31.998,774.499ZM32.001,818.499L32.002,816.499L30.002,816.497L30.001,818.497L32.001,818.499ZM34.001,818.501L34.002,816.501L34.002,816.501L34.001,818.501ZM31.998,822.499L29.998,822.497L29.997,824.497L31.997,824.499L31.998,822.499ZM33.998,822.501L34,820.501L34,820.501L33.998,822.501ZM1516.998,823.501L1516.996,825.501L1516.996,825.501L1516.998,823.501ZM1518.998,823.501L1518.996,825.501L1520.996,825.503L1520.998,823.503L1518.998,823.501ZM1519,819.501L1521,819.503L1521.002,817.503L1519.002,817.501L1519,819.501ZM1517,819.501L1517,821.501L1517,821.501L1517,819.501ZM32,4.499L34,4.5L34.002,0.5L32.002,0.499L32,4.499ZM33.998,6.5L34.001,2.5L30.001,2.497L29.998,6.497L33.998,6.5ZM34,4.5L32,4.499L31.997,8.499L33.997,8.5L34,4.5ZM1517,5.5L34,4.5L33.997,8.5L1516.996,9.5L1517,5.5ZM1519,5.502L1517,5.5L1516.996,9.5L1518.996,9.502L1519,5.502ZM1517,3.5L1516.998,7.5L1520.998,7.503L1521,3.503L1517,3.5ZM1517,5.5L1519,5.502L1519.002,1.502L1517.002,1.5L1517,5.5ZM34,4.5L1517,5.5L1517.002,1.5L34.002,0.5L34,4.5ZM32,52.499L34,52.5L34.002,48.5L32.002,48.499L32,52.499ZM33.998,54.5L34.001,50.5L30.001,50.497L29.998,54.497L33.998,54.5ZM34,52.5L32,52.499L31.997,56.499L33.997,56.5L34,52.5ZM1517,53.5L34,52.5L33.997,56.5L1516.996,57.5L1517,53.5ZM1519,53.501L1517,53.5L1516.996,57.5L1518.996,57.501L1519,53.501ZM1517,51.5L1516.998,55.5L1520.998,55.503L1521,51.503L1517,51.5ZM1517,53.5L1519,53.501L1519.002,49.501L1517.002,49.5L1517,53.5ZM34,52.5L1517,53.5L1517.002,49.5L34.002,48.5L34,52.5ZM34.002,96.5L32.002,96.499L32,100.499L34,100.5L34.002,96.5ZM1517.002,97.5L34.002,96.5L34,100.5L1517,101.5L1517.002,97.5ZM1519.002,97.502L1517.002,97.5L1517,101.5L1519,101.502L1519.002,97.502ZM1520.998,103.503L1521,99.503L1517,99.5L1516.998,103.5L1520.998,103.503ZM1516.996,105.5L1518.996,105.502L1519,101.502L1517,101.5L1516.996,105.5ZM33.997,104.5L1516.996,105.5L1517,101.5L34,100.5L33.997,104.5ZM31.997,104.499L33.997,104.5L34,100.5L32,100.499L31.997,104.499ZM30.001,98.497L29.998,102.497L33.998,102.5L34.001,98.5L30.001,98.497ZM32,148.499L34,148.5L34.002,144.5L32.002,144.499L32,148.499ZM33.998,150.5L34.001,146.5L30.001,146.497L29.998,150.497L33.998,150.5ZM34,148.5L32,148.499L31.997,152.499L33.997,152.5L34,148.5ZM1517,149.5L34,148.5L33.997,152.5L1516.996,153.5L1517,149.5ZM1519,149.501L1517,149.5L1516.996,153.5L1518.996,153.501L1519,149.501ZM1517,147.5L1516.998,151.5L1520.998,151.503L1521,147.503L1517,147.5ZM1517,149.5L1519,149.501L1519.002,145.501L1517.002,145.5L1517,149.5ZM34,148.5L1517,149.5L1517.002,145.5L34.002,144.5L34,148.5ZM34.002,192.5L32.002,192.499L32,196.499L34,196.5L34.002,192.5ZM1517.002,193.5L34.002,192.5L34,196.5L1517,197.5L1517.002,193.5ZM1519.002,193.501L1517.002,193.5L1517,197.5L1519,197.501L1519.002,193.501ZM1520.998,199.503L1521,195.503L1517,195.5L1516.998,199.5L1520.998,199.503ZM1516.996,201.5L1518.996,201.501L1519,197.501L1517,197.5L1516.996,201.5ZM33.997,200.5L1516.996,201.5L1517,197.5L34,196.5L33.997,200.5ZM31.997,200.499L33.997,200.5L34,196.5L32,196.499L31.997,200.499ZM30.001,194.497L29.998,198.497L33.998,198.5L34.001,194.5L30.001,194.497ZM32,244.499L34,244.501L34.002,240.501L32.002,240.499L32,244.499ZM33.998,246.501L34.001,242.501L30.001,242.497L29.998,246.497L33.998,246.501ZM34,244.501L32,244.499L31.997,248.499L33.997,248.501L34,244.501ZM1517,245.501L34,244.501L33.997,248.501L1516.996,249.501L1517,245.501ZM1519,245.501L1517,245.501L1516.996,249.501L1518.996,249.501L1519,245.501ZM1517,243.501L1516.998,247.501L1520.998,247.503L1521,243.503L1517,243.501ZM1517,245.501L1519,245.501L1519.002,241.501L1517.002,241.501L1517,245.501ZM34,244.501L1517,245.501L1517.002,241.501L34.002,240.501L34,244.501ZM34.002,288.501L32.002,288.499L32,292.499L34,292.501L34.002,288.501ZM1517.002,289.501L34.002,288.501L34,292.501L1517,293.501L1517.002,289.501ZM1519.002,289.501L1517.002,289.501L1517,293.501L1519,293.501L1519.002,289.501ZM1520.998,295.503L1521,291.503L1517,291.501L1516.998,295.501L1520.998,295.503ZM1516.996,297.501L1518.996,297.501L1519,293.501L1517,293.501L1516.996,297.501ZM33.997,296.501L1516.996,297.501L1517,293.501L34,292.501L33.997,296.501ZM31.997,296.499L33.997,296.501L34,292.501L32,292.499L31.997,296.499ZM30.001,290.497L29.998,294.497L33.998,294.501L34.001,290.501L30.001,290.497ZM32,340.499L34,340.501L34.002,336.501L32.002,336.499L32,340.499ZM33.998,342.501L34.001,338.501L30.001,338.497L29.998,342.497L33.998,342.501ZM34,340.501L32,340.499L31.997,344.499L33.997,344.501L34,340.501ZM1517,341.501L34,340.501L33.997,344.501L1516.996,345.501L1517,341.501ZM1519,341.501L1517,341.501L1516.996,345.501L1518.996,345.501L1519,341.501ZM1517,339.501L1516.998,343.501L1520.998,343.503L1521,339.503L1517,339.501ZM1517,341.501L1519,341.501L1519.002,337.501L1517.002,337.501L1517,341.501ZM34,340.501L1517,341.501L1517.002,337.501L34.002,336.501L34,340.501ZM34.002,384.501L32.002,384.499L32,388.499L34,388.501L34.002,384.501ZM1517.002,385.501L34.002,384.501L34,388.501L1517,389.501L1517.002,385.501ZM1519.002,385.501L1517.002,385.501L1517,389.501L1519,389.501L1519.002,385.501ZM1520.998,391.503L1521,387.503L1517,387.501L1516.998,391.501L1520.998,391.503ZM1516.996,393.501L1518.996,393.501L1519,389.501L1517,389.501L1516.996,393.501ZM33.997,392.501L1516.996,393.501L1517,389.501L34,388.501L33.997,392.501ZM31.997,392.499L33.997,392.501L34,388.501L32,388.499L31.997,392.499ZM30.001,386.497L29.998,390.497L33.998,390.501L34.001,386.501L30.001,386.497ZM32,436.499L34,436.501L34.002,432.501L32.002,432.499L32,436.499ZM33.998,438.501L34.001,434.501L30.001,434.497L29.998,438.497L33.998,438.501ZM34,436.501L32,436.499L31.997,440.499L33.997,440.501L34,436.501ZM1517,437.501L34,436.501L33.997,440.501L1516.996,441.501L1517,437.501ZM1519,437.501L1517,437.501L1516.996,441.501L1518.996,441.501L1519,437.501ZM1517,435.501L1516.998,439.501L1520.998,439.503L1521,435.503L1517,435.501ZM1517,437.501L1519,437.501L1519.002,433.501L1517.002,433.501L1517,437.501ZM34,436.501L1517,437.501L1517.002,433.501L34.002,432.501L34,436.501ZM34.002,480.501L32.002,480.499L32,484.499L34,484.501L34.002,480.501ZM1517.002,481.501L34.002,480.501L34,484.501L1517,485.501L1517.002,481.501ZM1519.002,481.501L1517.002,481.501L1517,485.501L1519,485.501L1519.002,481.501ZM1520.998,487.503L1521,483.503L1517,483.501L1516.998,487.501L1520.998,487.503ZM1516.996,489.501L1518.996,489.501L1519,485.501L1517,485.501L1516.996,489.501ZM33.997,488.501L1516.996,489.501L1517,485.501L34,484.501L33.997,488.501ZM31.997,488.499L33.997,488.501L34,484.501L32,484.499L31.997,488.499ZM30.001,482.497L29.998,486.497L33.998,486.501L34.001,482.501L30.001,482.497ZM32,532.499L34,532.501L34.002,528.501L32.002,528.499L32,532.499ZM33.998,534.501L34.001,530.501L30.001,530.497L29.998,534.497L33.998,534.501ZM34,532.501L32,532.499L31.997,536.499L33.997,536.501L34,532.501ZM1517,533.501L34,532.501L33.997,536.501L1516.996,537.501L1517,533.501ZM1519,533.501L1517,533.501L1516.996,537.501L1518.996,537.501L1519,533.501ZM1517,531.501L1516.998,535.501L1520.998,535.503L1521,531.503L1517,531.501ZM1517,533.501L1519,533.501L1519.002,529.501L1517.002,529.501L1517,533.501ZM34,532.501L1517,533.501L1517.002,529.501L34.002,528.501L34,532.501ZM34.002,576.501L32.002,576.499L32,580.499L34,580.501L34.002,576.501ZM1517.002,577.501L34.002,576.501L34,580.501L1517,581.501L1517.002,577.501ZM1519.002,577.501L1517.002,577.501L1517,581.501L1519,581.501L1519.002,577.501ZM1520.998,583.503L1521,579.503L1517,579.501L1516.998,583.501L1520.998,583.503ZM1516.996,585.501L1518.996,585.501L1519,581.501L1517,581.501L1516.996,585.501ZM33.997,584.501L1516.996,585.501L1517,581.501L34,580.501L33.997,584.501ZM31.997,584.499L33.997,584.501L34,580.501L32,580.499L31.997,584.499ZM30.001,578.497L29.998,582.497L33.998,582.501L34.001,578.501L30.001,578.497ZM32,628.499L34,628.501L34.002,624.501L32.002,624.499L32,628.499ZM33.998,630.501L34.001,626.501L30.001,626.497L29.998,630.497L33.998,630.501ZM34,628.501L32,628.499L31.997,632.499L33.997,632.501L34,628.501ZM1517,629.501L34,628.501L33.997,632.501L1516.996,633.501L1517,629.501ZM1519,629.501L1517,629.501L1516.996,633.501L1518.996,633.501L1519,629.501ZM1517,627.501L1516.998,631.501L1520.998,631.503L1521,627.503L1517,627.501ZM1517,629.501L1519,629.501L1519.002,625.501L1517.002,625.501L1517,629.501ZM34,628.501L1517,629.501L1517.002,625.501L34.002,624.501L34,628.501ZM34.002,672.501L32.002,672.499L32,676.499L34,676.501L34.002,672.501ZM1517.002,673.501L34.002,672.501L34,676.501L1517,677.501L1517.002,673.501ZM1519.002,673.501L1517.002,673.501L1517,677.501L1519,677.501L1519.002,673.501ZM1520.998,679.503L1521,675.503L1517,675.501L1516.998,679.501L1520.998,679.503ZM1516.996,681.501L1518.996,681.501L1519,677.501L1517,677.501L1516.996,681.501ZM33.997,680.501L1516.996,681.501L1517,677.501L34,676.501L33.997,680.501ZM31.997,680.499L33.997,680.501L34,676.501L32,676.499L31.997,680.499ZM30.001,674.497L29.998,678.497L33.998,678.501L34.001,674.501L30.001,674.497ZM32,724.499L34,724.501L34.002,720.501L32.002,720.499L32,724.499ZM33.998,726.501L34.001,722.501L30.001,722.497L29.998,726.497L33.998,726.501ZM34,724.501L32,724.499L31.997,728.499L33.997,728.501L34,724.501ZM1517,725.501L34,724.501L33.997,728.501L1516.996,729.501L1517,725.501ZM1519,725.501L1517,725.501L1516.996,729.501L1518.996,729.501L1519,725.501ZM1517,723.501L1516.998,727.501L1520.998,727.503L1521,723.503L1517,723.501ZM1517,725.501L1519,725.501L1519.002,721.501L1517.002,721.501L1517,725.501ZM34,724.501L1517,725.501L1517.002,721.501L34.002,720.501L34,724.501ZM34.002,768.501L32.002,768.499L32,772.499L34,772.501L34.002,768.501ZM1517.002,769.501L34.002,768.501L34,772.501L1517,773.501L1517.002,769.501ZM1519.002,769.501L1517.002,769.501L1517,773.501L1519,773.501L1519.002,769.501ZM1520.998,775.503L1521,771.503L1517,771.501L1516.998,775.501L1520.998,775.503ZM1516.996,777.501L1518.996,777.501L1519,773.501L1517,773.501L1516.996,777.501ZM33.997,776.501L1516.996,777.501L1517,773.501L34,772.501L33.997,776.501ZM31.997,776.499L33.997,776.501L34,772.501L32,772.499L31.997,776.499ZM30.001,770.497L29.998,774.497L33.998,774.501L34.001,770.501L30.001,770.497ZM32,820.499L34,820.501L34.002,816.501L32.002,816.499L32,820.499ZM33.998,822.501L34.001,818.501L30.001,818.497L29.998,822.497L33.998,822.501ZM34,820.501L32,820.499L31.997,824.499L33.997,824.501L34,820.501ZM1517,821.501L34,820.501L33.997,824.501L1516.996,825.501L1517,821.501ZM1519,821.501L1517,821.501L1516.996,825.501L1518.996,825.501L1519,821.501ZM1517,819.501L1516.998,823.501L1520.998,823.503L1521,819.503L1517,819.501ZM1517,821.501L1519,821.501L1519.002,817.501L1517.002,817.501L1517,821.501ZM34,820.501L1517,821.501L1517.002,817.501L34.002,816.501L34,820.501Z" transform="rotate(90 775.5 413)" fill="#000000"/>
</g>
<path d="M895.662,1146.698C900.451,1116.068 908.876,1096.282 929.944,1061.454C946.619,1033.89 968.209,1011.945 993.662,996.261C1001.523,1012.603 1013.355,1026.976 1028.569,1036.818C1063.063,1059.132 1100.084,1070.516 1131.94,1064.888C1152.676,1061.226 1170.286,1047.598 1177.752,1029.938C1185.726,1011.078 1181.02,990.815 1163.16,975.18C1153.492,966.718 1139.226,962.805 1120.9,962.211C1111.526,961.907 1102.286,962.425 1089.778,963.662C1090.342,963.607 1080.395,964.62 1078.152,964.817C1047.815,967.486 1019.951,976.236 995.443,990.529C980.611,956.169 983.521,914.035 1009.733,888.669C1066.892,833.355 1153.79,812.365 1228.77,836.061L1229.976,832.247C1153.586,808.105 1065.16,829.465 1006.952,885.794C979.305,912.549 976.29,956.725 991.981,992.599C965.813,1008.629 943.621,1031.118 926.522,1059.384C905.208,1094.618 896.593,1114.85 891.71,1146.08C879.368,1225.02 902.338,1285.262 955.356,1327.006C1001.032,1362.968 1067.901,1384.104 1147.174,1390.818C1161.672,1392.046 1176.76,1392.302 1195.558,1391.856C1202.404,1391.692 1207.922,1391.504 1220.156,1391.042C1223.134,1390.93 1224.38,1390.884 1225.994,1390.824C1228.352,1390.738 1230.17,1390.204 1233.992,1388.742C1237.764,1387.3 1239.742,1386.746 1241.492,1386.922C1241.162,1387.328 1240.69,1387.856 1239.994,1388.618C1238.456,1390.298 1237.87,1390.996 1237.366,1391.89L1240.85,1393.854C1241.14,1393.342 1241.654,1392.728 1242.944,1391.318C1244.484,1389.638 1245.07,1388.94 1245.574,1388.046C1246.648,1386.14 1246.282,1384.074 1243.976,1383.366C1240.626,1382.338 1238.142,1382.872 1232.564,1385.006C1229.156,1386.308 1227.612,1386.762 1225.846,1386.826C1224.23,1386.886 1222.986,1386.934 1220.006,1387.046C1207.79,1387.506 1202.284,1387.694 1195.464,1387.856C1176.798,1388.3 1161.844,1388.046 1147.512,1386.832C1068.951,1380.178 1002.802,1359.27 957.831,1323.864C905.961,1283.024 883.541,1224.224 895.662,1146.698ZM1131.244,1060.95C1100.55,1066.37 1064.466,1055.276 1030.741,1033.458C1016.055,1023.958 1004.652,1010.025 997.105,994.191C1021.196,980.068 1048.614,971.431 1078.502,968.802C1080.778,968.602 1090.764,967.584 1090.172,967.643C1102.52,966.422 1111.61,965.912 1120.772,966.209C1138.258,966.775 1151.696,970.461 1160.526,978.19C1177.09,992.69 1181.368,1011.113 1174.068,1028.38C1167.138,1044.772 1150.666,1057.52 1131.244,1060.95Z" clip-rule="evenodd" fill-rule="evenodd" transform="rotate(92 1067.298 1108.144)" fill="#000000"/>
<rect  x="0" y="74" width="476" height="480" rx="48" fill="#009EFF"/>
<circle cx="274" cy="1080" r="228" fill="#009EFF"/>
</svg>
