<svg width="758" height="666" viewBox="0 0 758 666" fill="none" xmlns="http://www.w3.org/2000/svg" xmlns:xlink="http://www.w3.org/1999/xlink">
<mask id="mask_0_78_2888" style="mask-type:alpha" maskUnits="userSpaceOnUse" x="155" y="258" width="200" height="200">
<circle cx="355" cy="458" r="200" fill="#000000"/>
</mask>
<g mask="url(#mask_0_78_2888)">
<path d="M1.001,253.249L1.001,252.249L0.001,252.249L0.001,253.249L1.001,253.249ZM2.001,253.25L2.001,252.25L2.001,253.25ZM0.999,255.249L-0.001,255.249L-0.001,256.249L0.999,256.249L0.999,255.249ZM1.999,255.25L2,254.25L2,254.25L1.999,255.25ZM743.499,255.75L743.499,256.75L743.499,256.75L743.499,255.75ZM744.499,255.751L744.499,256.751L745.499,256.751L745.499,255.751L744.499,255.751ZM744.501,253.751L745.501,253.751L745.501,252.751L744.501,252.751L744.501,253.751ZM743.501,253.75L743.499,254.75L743.501,253.75ZM1.001,277.249L1.001,276.249L0.001,276.249L0.001,277.249L1.001,277.249ZM2.001,277.25L2.001,276.25L2.001,276.25L2.001,277.25ZM0.999,279.249L-0.001,279.249L-0.001,280.249L0.999,280.249L0.999,279.249ZM1.999,279.25L1.999,280.25L1.999,280.25L1.999,279.25ZM743.499,279.75L743.499,280.75L743.499,280.75L743.499,279.75ZM744.499,279.751L744.499,280.751L745.499,280.752L745.499,279.752L744.499,279.751ZM744.501,277.751L745.501,277.752L745.501,276.752L744.501,276.751L744.501,277.751ZM743.501,277.75L743.501,276.75L743.501,276.75L743.501,277.75ZM2.001,301.25L2,302.25L2,302.25L2.001,301.25ZM1.001,301.249L1.001,300.249L0.001,300.249L0.001,301.249L1.001,301.249ZM743.501,301.75L743.501,300.75L743.501,300.75L743.501,301.75ZM744.501,301.751L745.501,301.751L745.501,300.751L744.501,300.751L744.501,301.751ZM744.499,303.751L744.499,304.751L745.499,304.751L745.499,303.751L744.499,303.751ZM743.499,303.75L743.499,302.75L743.499,302.75L743.499,303.75ZM1.999,303.25L1.999,304.25L1.999,304.25L1.999,303.25ZM0.999,303.249L-0.001,303.249L-0.001,304.249L0.999,304.249L0.999,303.249ZM1.001,325.25L1.001,324.25L0.001,324.249L0.001,325.249L1.001,325.25ZM2.001,325.25L2.001,324.25L2.001,324.25L2.001,325.25ZM0.999,327.25L-0.001,327.249L-0.001,328.249L0.999,328.25L0.999,327.25ZM1.999,327.25L2,326.25L2,326.25L1.999,327.25ZM743.499,327.75L743.499,328.75L743.499,328.75L743.499,327.75ZM744.499,327.751L744.499,328.751L745.499,328.752L745.499,327.752L744.499,327.751ZM744.501,325.751L745.501,325.752L745.501,324.752L744.501,324.751L744.501,325.751ZM743.501,325.75L743.499,326.75L743.499,326.75L743.501,325.75ZM2.001,349.25L2.001,348.25L2.001,348.25L2.001,349.25ZM1.001,349.249L1.001,348.249L0.001,348.249L0.001,349.249L1.001,349.249ZM743.501,349.75L743.499,350.75L743.499,350.75L743.501,349.75ZM744.501,349.751L745.501,349.751L745.501,348.751L744.501,348.751L744.501,349.751ZM744.499,351.751L744.499,352.751L745.499,352.751L745.499,351.751L744.499,351.751ZM743.499,351.75L743.499,352.75L743.499,352.75L743.499,351.75ZM1.999,351.25L2,350.25L2,350.25L1.999,351.25ZM0.999,351.249L-0.001,351.249L-0.001,352.249L0.999,352.249L0.999,351.249ZM1.001,373.25L1.001,372.25L0.001,372.249L0.001,373.249L1.001,373.25ZM2.001,373.25L2.001,372.25L2.001,372.25L2.001,373.25ZM0.999,375.25L-0.001,375.249L-0.001,376.249L0.999,376.25L0.999,375.25ZM1.999,375.25L2,374.25L2,374.25L1.999,375.25ZM743.499,375.75L743.499,376.75L743.499,376.75L743.499,375.75ZM744.499,375.751L744.499,376.751L745.499,376.752L745.499,375.752L744.499,375.751ZM744.501,373.751L745.501,373.752L745.501,372.752L744.501,372.751L744.501,373.751ZM743.501,373.75L743.499,374.75L743.499,374.75L743.501,373.75ZM2.001,397.25L2.001,396.25L2.001,396.25L2.001,397.25ZM1.001,397.249L1.001,396.249L0.001,396.249L0.001,397.249L1.001,397.249ZM743.501,397.75L743.499,398.75L743.499,398.75L743.501,397.75ZM744.501,397.751L745.501,397.751L745.501,396.751L744.501,396.751L744.501,397.751ZM744.499,399.751L744.499,400.751L745.499,400.751L745.499,399.751L744.499,399.751ZM743.499,399.75L743.499,400.75L743.499,400.75L743.499,399.75ZM1.999,399.25L2,398.25L2,398.25L1.999,399.25ZM0.999,399.249L-0.001,399.249L-0.001,400.249L0.999,400.249L0.999,399.249ZM1.001,421.249L1.001,420.249L0.001,420.249L0.001,421.249L1.001,421.249ZM2.001,421.25L2.001,420.25L2.001,420.25L2.001,421.25ZM0.999,423.249L-0.001,423.249L-0.001,424.249L0.999,424.249L0.999,423.249ZM1.999,423.25L2,422.25L2,422.25L1.999,423.25ZM743.499,423.75L743.499,424.75L743.499,424.75L743.499,423.75ZM744.499,423.751L744.499,424.751L745.499,424.751L745.499,423.751L744.499,423.751ZM744.501,421.751L745.501,421.751L745.501,420.751L744.501,420.751L744.501,421.751ZM743.501,421.75L743.499,422.75L743.499,422.75L743.501,421.75ZM2.001,445.25L2.001,444.25L2.001,444.25L2.001,445.25ZM1.001,445.25L1.001,444.25L0.001,444.249L0.001,445.249L1.001,445.25ZM743.501,445.75L743.499,446.75L743.499,446.75L743.501,445.75ZM744.501,445.751L745.501,445.752L745.501,444.752L744.501,444.751L744.501,445.751ZM744.499,447.751L744.499,448.751L745.499,448.752L745.499,447.752L744.499,447.751ZM743.499,447.75L743.499,448.75L743.499,448.75L743.499,447.75ZM1.999,447.25L2,446.25L2,446.25L1.999,447.25ZM0.999,447.25L-0.001,447.249L-0.001,448.249L0.999,448.25L0.999,447.25ZM1.001,469.249L1.001,468.249L0.001,468.249L0.001,469.249L1.001,469.249ZM2.001,469.249L2.001,468.249L2.001,468.249L2.001,469.249ZM0.999,471.249L-0.001,471.249L-0.001,472.249L0.999,472.249L0.999,471.249ZM1.999,471.249L2,470.249L2,470.249L1.999,471.249ZM743.499,471.749L743.499,472.749L743.499,472.749L743.499,471.749ZM744.499,471.751L744.499,472.751L745.499,472.751L745.499,471.751L744.499,471.751ZM744.501,469.751L745.501,469.751L745.501,468.751L744.501,468.751L744.501,469.751ZM743.501,469.749L743.499,470.749L743.499,470.749L743.501,469.749ZM2.001,493.249L2.001,492.249L2.001,492.249L2.001,493.249ZM1.001,493.249L1.001,492.249L0.001,492.249L0.001,493.249L1.001,493.249ZM743.501,493.749L743.499,494.749L743.499,494.749L743.501,493.749ZM744.501,493.751L745.501,493.751L745.501,492.751L744.501,492.751L744.501,493.751ZM744.499,495.751L744.499,496.751L745.499,496.751L745.499,495.751L744.499,495.751ZM743.499,495.749L743.499,496.749L743.499,496.749L743.499,495.749ZM1.999,495.249L2,494.249L2,494.249L1.999,495.249ZM0.999,495.249L-0.001,495.249L-0.001,496.249L0.999,496.249L0.999,495.249ZM1.001,517.249L1.001,516.249L0.001,516.249L0.001,517.249L1.001,517.249ZM2.001,517.249L2.001,516.249L2.001,516.249L2.001,517.249ZM0.999,519.249L-0.001,519.249L-0.001,520.249L0.999,520.249L0.999,519.249ZM1.999,519.249L2,518.249L2,518.249L1.999,519.249ZM743.499,519.749L743.499,520.749L743.499,520.749L743.499,519.749ZM744.499,519.751L744.499,520.751L745.499,520.751L745.499,519.751L744.499,519.751ZM744.501,517.751L745.501,517.751L745.501,516.751L744.501,516.751L744.501,517.751ZM743.501,517.749L743.499,518.749L743.499,518.749L743.501,517.749ZM2.001,541.249L2.001,540.249L2.001,540.249L2.001,541.249ZM1.001,541.249L1.001,540.249L0.001,540.249L0.001,541.249L1.001,541.249ZM743.501,541.749L743.499,542.749L743.499,542.749L743.501,541.749ZM744.501,541.751L745.501,541.751L745.501,540.751L744.501,540.751L744.501,541.751ZM744.499,543.751L744.499,544.751L745.499,544.751L745.499,543.751L744.499,543.751ZM743.499,543.749L743.499,544.749L743.499,544.749L743.499,543.749ZM1.999,543.249L2,542.249L2,542.249L1.999,543.249ZM0.999,543.249L-0.001,543.249L-0.001,544.249L0.999,544.249L0.999,543.249ZM1.001,565.249L1.001,564.249L0.001,564.249L0.001,565.249L1.001,565.249ZM2.001,565.249L2.001,564.249L2.001,564.249L2.001,565.249ZM0.999,567.249L-0.001,567.249L-0.001,568.249L0.999,568.249L0.999,567.249ZM1.999,567.249L2,566.249L2,566.249L1.999,567.249ZM743.499,567.749L743.499,568.749L743.499,568.749L743.499,567.749ZM744.499,567.751L744.499,568.751L745.499,568.751L745.499,567.751L744.499,567.751ZM744.501,565.751L745.501,565.751L745.501,564.751L744.501,564.751L744.501,565.751ZM743.501,565.749L743.499,566.749L743.499,566.749L743.501,565.749ZM2.001,589.249L2.001,588.249L2.001,588.249L2.001,589.249ZM1.001,589.249L1.001,588.249L0.001,588.249L0.001,589.249L1.001,589.249ZM743.501,589.749L743.499,590.749L743.499,590.749L743.501,589.749ZM744.501,589.751L745.501,589.751L745.501,588.751L744.501,588.751L744.501,589.751ZM744.499,591.751L744.499,592.751L745.499,592.751L745.499,591.751L744.499,591.751ZM743.499,591.749L743.499,592.749L743.499,592.749L743.499,591.749ZM1.999,591.249L2,590.249L2,590.249L1.999,591.249ZM0.999,591.249L-0.001,591.249L-0.001,592.249L0.999,592.249L0.999,591.249ZM1.001,613.249L1.001,612.249L0.001,612.249L0.001,613.249L1.001,613.249ZM2.001,613.249L2.001,612.249L2.001,612.249L2.001,613.249ZM0.999,615.249L-0.001,615.249L-0.001,616.249L0.999,616.249L0.999,615.249ZM1.999,615.249L2,614.249L2,614.249L1.999,615.249ZM743.499,615.749L743.499,616.749L743.499,616.749L743.499,615.749ZM744.499,615.751L744.499,616.751L745.499,616.751L745.499,615.751L744.499,615.751ZM744.501,613.751L745.501,613.751L745.501,612.751L744.501,612.751L744.501,613.751ZM743.501,613.749L743.499,614.749L743.499,614.749L743.501,613.749ZM2.001,637.249L2.001,636.249L2.001,636.249L2.001,637.249ZM1.001,637.249L1.001,636.249L0.001,636.249L0.001,637.249L1.001,637.249ZM743.501,637.749L743.499,638.749L743.499,638.749L743.501,637.749ZM744.501,637.751L745.501,637.751L745.501,636.751L744.501,636.751L744.501,637.751ZM744.499,639.751L744.499,640.751L745.499,640.751L745.499,639.751L744.499,639.751ZM743.499,639.749L743.499,640.749L743.499,640.749L743.499,639.749ZM1.999,639.249L2,638.249L2,638.249L1.999,639.249ZM0.999,639.249L-0.001,639.249L-0.001,640.249L0.999,640.249L0.999,639.249ZM1.001,661.249L1.001,660.249L0.001,660.249L0.001,661.249L1.001,661.249ZM2.001,661.249L2.001,660.249L2.001,660.249L2.001,661.249ZM0.999,663.249L-0.001,663.249L-0.001,664.249L0.999,664.249L0.999,663.249ZM1.999,663.249L2,662.249L2,662.249L1.999,663.249ZM743.499,663.749L743.499,664.749L743.499,664.749L743.499,663.749ZM744.499,663.751L744.499,664.751L745.499,664.751L745.499,663.751L744.499,663.751ZM744.501,661.751L745.501,661.751L745.501,660.751L744.501,660.751L744.501,661.751ZM743.501,661.749L743.499,662.749L743.499,662.749L743.501,661.749ZM1,254.249L2,254.25L2.001,252.25L1.001,252.249L1,254.249ZM1.999,255.25L2.001,253.25L0.001,253.249L-0.001,255.249L1.999,255.25ZM2,254.25L1,254.249L0.999,256.249L1.999,256.25L2,254.25ZM743.499,254.75L2,254.25L1.999,256.25L743.499,256.75L743.499,254.75ZM744.499,254.751L743.499,254.75L743.499,256.75L744.499,256.751L744.499,254.751ZM743.501,253.75L743.499,255.75L745.499,255.751L745.501,253.751L743.501,253.75ZM743.499,254.75L744.499,254.751L744.501,252.751L743.501,252.75L743.499,254.75ZM2,254.25L743.499,254.75L743.501,252.75L2.001,252.25L2,254.25ZM1,278.249L2,278.25L2.001,276.25L1.001,276.249L1,278.249ZM1.999,279.25L2.001,277.25L0.001,277.249L-0.001,279.249L1.999,279.25ZM2,278.25L1,278.249L0.999,280.249L1.999,280.25L2,278.25ZM743.499,278.75L2,278.25L1.999,280.25L743.499,280.75L743.499,278.75ZM744.499,278.751L743.499,278.75L743.499,280.75L744.499,280.751L744.499,278.751ZM743.501,277.75L743.499,279.75L745.499,279.752L745.501,277.752L743.501,277.75ZM743.499,278.75L744.499,278.751L744.501,276.751L743.501,276.75L743.499,278.75ZM2,278.25L743.499,278.75L743.501,276.75L2.001,276.25L2,278.25ZM2.001,300.25L1.001,300.249L1,302.249L2,302.25L2.001,300.25ZM743.501,300.75L2.001,300.25L2,302.25L743.499,302.75L743.501,300.75ZM744.501,300.751L743.501,300.75L743.499,302.75L744.499,302.751L744.501,300.751ZM745.499,303.751L745.501,301.751L743.501,301.75L743.499,303.75L745.499,303.751ZM743.499,304.75L744.499,304.751L744.499,302.751L743.499,302.75L743.499,304.75ZM1.999,304.25L743.499,304.75L743.499,302.75L2,302.25L1.999,304.25ZM0.999,304.249L1.999,304.25L2,302.25L1,302.249L0.999,304.249ZM0.001,301.249L-0.001,303.249L1.999,303.25L2.001,301.25L0.001,301.249ZM1,326.25L2,326.25L2.001,324.25L1.001,324.25L1,326.25ZM1.999,327.25L2.001,325.25L0.001,325.249L-0.001,327.249L1.999,327.25ZM2,326.25L1,326.25L0.999,328.25L1.999,328.25L2,326.25ZM743.499,326.75L2,326.25L1.999,328.25L743.499,328.75L743.499,326.75ZM744.499,326.751L743.499,326.75L743.499,328.75L744.499,328.751L744.499,326.751ZM743.501,325.75L743.499,327.75L745.499,327.752L745.501,325.752L743.501,325.75ZM743.499,326.75L744.499,326.751L744.501,324.751L743.501,324.75L743.499,326.75ZM2,326.25L743.499,326.75L743.501,324.75L2.001,324.25L2,326.25ZM2.001,348.25L1.001,348.249L1,350.249L2,350.25L2.001,348.25ZM743.501,348.75L2.001,348.25L2,350.25L743.499,350.75L743.501,348.75ZM744.501,348.751L743.501,348.75L743.499,350.75L744.499,350.751L744.501,348.751ZM745.499,351.751L745.501,349.751L743.501,349.75L743.499,351.75L745.499,351.751ZM743.499,352.75L744.499,352.751L744.499,350.751L743.499,350.75L743.499,352.75ZM1.999,352.25L743.499,352.75L743.499,350.75L2,350.25L1.999,352.25ZM0.999,352.249L1.999,352.25L2,350.25L1,350.249L0.999,352.249ZM0.001,349.249L-0.001,351.249L1.999,351.25L2.001,349.25L0.001,349.249ZM1,374.25L2,374.25L2.001,372.25L1.001,372.25L1,374.25ZM1.999,375.25L2.001,373.25L0.001,373.249L-0.001,375.249L1.999,375.25ZM2,374.25L1,374.25L0.999,376.25L1.999,376.25L2,374.25ZM743.499,374.75L2,374.25L1.999,376.25L743.499,376.75L743.499,374.75ZM744.499,374.751L743.499,374.75L743.499,376.75L744.499,376.751L744.499,374.751ZM743.501,373.75L743.499,375.75L745.499,375.752L745.501,373.752L743.501,373.75ZM743.499,374.75L744.499,374.751L744.501,372.751L743.501,372.75L743.499,374.75ZM2,374.25L743.499,374.75L743.501,372.75L2.001,372.25L2,374.25ZM2.001,396.25L1.001,396.249L1,398.249L2,398.25L2.001,396.25ZM743.501,396.75L2.001,396.25L2,398.25L743.499,398.75L743.501,396.75ZM744.501,396.751L743.501,396.75L743.499,398.75L744.499,398.751L744.501,396.751ZM745.499,399.751L745.501,397.751L743.501,397.75L743.499,399.75L745.499,399.751ZM743.499,400.75L744.499,400.751L744.499,398.751L743.499,398.75L743.499,400.75ZM1.999,400.25L743.499,400.75L743.499,398.75L2,398.25L1.999,400.25ZM0.999,400.249L1.999,400.25L2,398.25L1,398.249L0.999,400.249ZM0.001,397.249L-0.001,399.249L1.999,399.25L2.001,397.25L0.001,397.249ZM1,422.249L2,422.25L2.001,420.25L1.001,420.249L1,422.249ZM1.999,423.25L2.001,421.25L0.001,421.249L-0.001,423.249L1.999,423.25ZM2,422.25L1,422.249L0.999,424.249L1.999,424.25L2,422.25ZM743.499,422.75L2,422.25L1.999,424.25L743.499,424.75L743.499,422.75ZM744.499,422.751L743.499,422.75L743.499,424.75L744.499,424.751L744.499,422.751ZM743.501,421.75L743.499,423.75L745.499,423.751L745.501,421.751L743.501,421.75ZM743.499,422.75L744.499,422.751L744.501,420.751L743.501,420.75L743.499,422.75ZM2,422.25L743.499,422.75L743.501,420.75L2.001,420.25L2,422.25ZM2.001,444.25L1.001,444.25L1,446.25L2,446.25L2.001,444.25ZM743.501,444.75L2.001,444.25L2,446.25L743.499,446.75L743.501,444.75ZM744.501,444.751L743.501,444.75L743.499,446.75L744.499,446.751L744.501,444.751ZM745.499,447.752L745.501,445.752L743.501,445.75L743.499,447.75L745.499,447.752ZM743.499,448.75L744.499,448.751L744.499,446.751L743.499,446.75L743.499,448.75ZM1.999,448.25L743.499,448.75L743.499,446.75L2,446.25L1.999,448.25ZM0.999,448.25L1.999,448.25L2,446.25L1,446.25L0.999,448.25ZM0.001,445.249L-0.001,447.249L1.999,447.25L2.001,445.25L0.001,445.249ZM1,470.249L2,470.249L2.001,468.249L1.001,468.249L1,470.249ZM1.999,471.249L2.001,469.249L0.001,469.249L-0.001,471.249L1.999,471.249ZM2,470.249L1,470.249L0.999,472.249L1.999,472.249L2,470.249ZM743.499,470.749L2,470.249L1.999,472.249L743.499,472.749L743.499,470.749ZM744.499,470.751L743.499,470.749L743.499,472.749L744.499,472.751L744.499,470.751ZM743.501,469.749L743.499,471.749L745.499,471.751L745.501,469.751L743.501,469.749ZM743.499,470.749L744.499,470.751L744.501,468.751L743.501,468.749L743.499,470.749ZM2,470.249L743.499,470.749L743.501,468.749L2.001,468.249L2,470.249ZM2.001,492.249L1.001,492.249L1,494.249L2,494.249L2.001,492.249ZM743.501,492.749L2.001,492.249L2,494.249L743.499,494.749L743.501,492.749ZM744.501,492.751L743.501,492.749L743.499,494.749L744.499,494.751L744.501,492.751ZM745.499,495.751L745.501,493.751L743.501,493.749L743.499,495.749L745.499,495.751ZM743.499,496.749L744.499,496.751L744.499,494.751L743.499,494.749L743.499,496.749ZM1.999,496.249L743.499,496.749L743.499,494.749L2,494.249L1.999,496.249ZM0.999,496.249L1.999,496.249L2,494.249L1,494.249L0.999,496.249ZM0.001,493.249L-0.001,495.249L1.999,495.249L2.001,493.249L0.001,493.249ZM1,518.249L2,518.249L2.001,516.249L1.001,516.249L1,518.249ZM1.999,519.249L2.001,517.249L0.001,517.249L-0.001,519.249L1.999,519.249ZM2,518.249L1,518.249L0.999,520.249L1.999,520.249L2,518.249ZM743.499,518.749L2,518.249L1.999,520.249L743.499,520.749L743.499,518.749ZM744.499,518.751L743.499,518.749L743.499,520.749L744.499,520.751L744.499,518.751ZM743.501,517.749L743.499,519.749L745.499,519.751L745.501,517.751L743.501,517.749ZM743.499,518.749L744.499,518.751L744.501,516.751L743.501,516.749L743.499,518.749ZM2,518.249L743.499,518.749L743.501,516.749L2.001,516.249L2,518.249ZM2.001,540.249L1.001,540.249L1,542.249L2,542.249L2.001,540.249ZM743.501,540.749L2.001,540.249L2,542.249L743.499,542.749L743.501,540.749ZM744.501,540.751L743.501,540.749L743.499,542.749L744.499,542.751L744.501,540.751ZM745.499,543.751L745.501,541.751L743.501,541.749L743.499,543.749L745.499,543.751ZM743.499,544.749L744.499,544.751L744.499,542.751L743.499,542.749L743.499,544.749ZM1.999,544.249L743.499,544.749L743.499,542.749L2,542.249L1.999,544.249ZM0.999,544.249L1.999,544.249L2,542.249L1,542.249L0.999,544.249ZM0.001,541.249L-0.001,543.249L1.999,543.251L2.001,541.251L0.001,541.249ZM1,566.249L2,566.249L2.001,564.249L1.001,564.249L1,566.249ZM1.999,567.249L2.001,565.249L0.001,565.249L-0.001,567.249L1.999,567.249ZM2,566.249L1,566.249L0.999,568.249L1.999,568.249L2,566.249ZM743.499,566.749L2,566.249L1.999,568.249L743.499,568.749L743.499,566.749ZM744.499,566.751L743.499,566.749L743.499,568.749L744.499,568.751L744.499,566.751ZM743.501,565.749L743.499,567.749L745.499,567.751L745.501,565.751L743.501,565.749ZM743.499,566.749L744.499,566.751L744.501,564.751L743.501,564.749L743.499,566.749ZM2,566.249L743.499,566.749L743.501,564.749L2.001,564.249L2,566.249ZM2.001,588.249L1.001,588.249L1,590.249L2,590.249L2.001,588.249ZM743.501,588.749L2.001,588.249L2,590.249L743.499,590.749L743.501,588.749ZM744.501,588.751L743.501,588.749L743.499,590.749L744.499,590.751L744.501,588.751ZM745.499,591.751L745.501,589.751L743.501,589.749L743.499,591.749L745.499,591.751ZM743.499,592.749L744.499,592.751L744.499,590.751L743.499,590.749L743.499,592.749ZM1.999,592.249L743.499,592.749L743.499,590.749L2,590.249L1.999,592.249ZM0.999,592.249L1.999,592.249L2,590.249L1,590.249L0.999,592.249ZM0.001,589.249L-0.001,591.249L1.999,591.249L2.001,589.249L0.001,589.249ZM1,614.249L2,614.249L2.001,612.249L1.001,612.249L1,614.249ZM1.999,615.249L2.001,613.249L0.001,613.249L-0.001,615.249L1.999,615.249ZM2,614.249L1,614.249L0.999,616.249L1.999,616.249L2,614.249ZM743.499,614.749L2,614.249L1.999,616.249L743.499,616.749L743.499,614.749ZM744.499,614.751L743.499,614.749L743.499,616.749L744.499,616.751L744.499,614.751ZM743.501,613.749L743.499,615.749L745.499,615.751L745.501,613.751L743.501,613.749ZM743.499,614.749L744.499,614.751L744.501,612.751L743.501,612.749L743.499,614.749ZM2,614.249L743.499,614.749L743.501,612.749L2.001,612.249L2,614.249ZM2.001,636.249L1.001,636.249L1,638.249L2,638.249L2.001,636.249ZM743.501,636.749L2.001,636.249L2,638.249L743.499,638.749L743.501,636.749ZM744.501,636.751L743.501,636.749L743.499,638.749L744.499,638.751L744.501,636.751ZM745.499,639.751L745.501,637.751L743.501,637.749L743.499,639.749L745.499,639.751ZM743.499,640.749L744.499,640.751L744.499,638.751L743.499,638.749L743.499,640.749ZM1.999,640.249L743.499,640.749L743.499,638.749L2,638.249L1.999,640.249ZM0.999,640.249L1.999,640.249L2,638.249L1,638.249L0.999,640.249ZM0.001,637.249L-0.001,639.249L1.999,639.249L2.001,637.249L0.001,637.249ZM1,662.249L2,662.249L2.001,660.249L1.001,660.249L1,662.249ZM1.999,663.249L2.001,661.249L0.001,661.249L-0.001,663.249L1.999,663.249ZM2,662.249L1,662.249L0.999,664.249L1.999,664.249L2,662.249ZM743.499,662.749L2,662.249L1.999,664.249L743.499,664.749L743.499,662.749ZM744.499,662.751L743.499,662.749L743.499,664.749L744.499,664.751L744.499,662.751ZM743.501,661.749L743.499,663.749L745.499,663.751L745.501,661.751L743.501,661.749ZM743.499,662.749L744.499,662.751L744.501,660.751L743.501,660.749L743.499,662.749ZM2,662.249L743.499,662.749L743.501,660.749L2.001,660.249L2,662.249Z" transform="rotate(90 372.75 458.5)" fill="#000000"/>
</g>
<path d="M532.53,144.688L533.47,142.923C561.321,157.757 577.512,165.398 595.366,171.324C617.734,178.748 639.041,181.606 661.771,179.583C708.218,175.45 741.566,143.862 749.984,97.393C750.046,97.05 750.126,96.619 750.266,95.843C751.462,89.24 752.044,85.846 752.606,81.941C755.572,61.357 754.08,46.987 745.722,34.035C734.082,15.998 707.809,1.452 686.996,2.016C673.542,2.381 665.164,3.174 656.678,4.835C650.37,6.069 621.271,13.709 615.605,15.097C590.432,21.267 576.464,38.112 581.005,61.459C583.027,71.857 586.748,79.855 592.764,83.764C598.647,87.587 607.476,90.628 613.979,90.696C619.823,90.758 624.915,91.043 634.033,91.719C654.936,93.269 662.045,93.255 670.063,90.629C680.311,87.272 686.622,79.38 689.606,64.669L691.566,65.067C688.446,80.447 681.658,88.935 670.685,92.53C662.313,95.272 655.091,95.286 633.885,93.714C624.807,93.041 619.748,92.758 613.958,92.696C607.046,92.623 597.856,89.458 591.674,85.441C585.081,81.157 581.159,72.726 579.042,61.84C574.274,37.326 589.008,19.557 615.129,13.155C620.736,11.781 649.912,4.121 656.294,2.872C664.901,1.187 673.386,0.385 686.942,0.017C708.469,-0.567 735.392,14.339 747.402,32.951C756.076,46.39 757.614,61.21 754.586,82.226C754.02,86.163 753.436,89.574 752.234,96.2C752.094,96.976 752.014,97.407 751.952,97.75C743.376,145.09 709.307,177.361 661.948,181.575C638.933,183.623 617.354,180.729 594.736,173.222C576.746,167.251 560.475,159.572 532.53,144.688Z" fill="#000000"/>
<circle cx="299" cy="144" r="114" fill="#009EFF"/>
<rect  x="517" y="421" width="238" height="240" rx="24" fill="#009EFF"/>
</svg>
