<svg width="16" height="32" viewBox="0 0 16 32" fill="none" xmlns="http://www.w3.org/2000/svg" xmlns:xlink="http://www.w3.org/1999/xlink">
<path d="M13.333,0L13.333,4L2.667,4C1.195,4 0,5.195 0,6.667L0,29.333C0,30.805 1.195,32 2.667,32L13.333,32C14.805,32 16,30.805 16,29.333L16,0L13.333,0ZM5.333,28L2.667,28L2.667,26.667L5.333,26.667L5.333,28ZM2.667,25.333L5.333,25.333L5.333,24L2.667,24L2.667,25.333ZM5.333,22.666L2.667,22.666L2.667,21.333L5.333,21.333L5.333,22.666ZM6.667,28L9.333,28L9.333,26.667L6.667,26.667L6.667,28ZM9.333,25.333L6.667,25.333L6.667,24L9.333,24L9.333,25.333ZM6.667,22.666L9.333,22.666L9.333,21.333L6.667,21.333L6.667,22.666ZM13.333,28L10.667,28L10.667,26.667L13.333,26.667L13.333,28ZM10.667,25.333L13.333,25.333L13.333,24L10.667,24L10.667,25.333ZM13.333,22.666L10.667,22.666L10.667,21.333L13.333,21.333L13.333,22.666ZM2.667,18.667L13.333,18.667L13.333,8L2.667,8L2.667,18.667Z" clip-rule="evenodd" fill-rule="evenodd" fill="#2FB0AB"/>
</svg>
