<svg width="96" height="72" viewBox="0 0 96 72" fill="none" xmlns="http://www.w3.org/2000/svg" xmlns:xlink="http://www.w3.org/1999/xlink">
<path d="M40,0C15.568,4.824 0,26.336 0,46.9C0,62.78 11.144,72 23.204,72C33.664,72 44,64.812 44,52.084C44,41.676 36.38,33.056 26.416,31.488C27.284,23.472 35.076,11.844 43.936,8.504L40,0ZM92,0C67.568,4.824 52,26.336 52,46.9C52,62.78 63.144,72 75.204,72C85.664,72 96,64.812 96,52.084C96,41.676 88.38,33.056 78.416,31.488C79.284,23.472 87.076,11.844 95.936,8.504L92,0Z" clip-rule="evenodd" fill-rule="evenodd" fill="#009EFF"/>
</svg>
