<svg width="42" height="64" viewBox="0 0 42 64" fill="none" xmlns="http://www.w3.org/2000/svg" xmlns:xlink="http://www.w3.org/1999/xlink">
<path d="M0,20.272C0,9.075 9.98,0 21,0C32.022,0 42,9.075 42,20.272C42,30.375 34.584,42.246 24.395,58.554C23.294,60.316 22.16,62.13 21,64C19.84,62.13 18.706,60.316 17.605,58.554C7.416,42.246 0,30.375 0,20.272ZM13.125,21.332C13.125,25.751 16.65,29.332 21,29.332C25.35,29.332 28.875,25.751 28.875,21.332C28.875,16.913 25.35,13.332 21,13.332C16.65,13.332 13.125,16.913 13.125,21.332Z" clip-rule="evenodd" fill-rule="evenodd" fill="#2FB0AB"/>
</svg>
