<svg width="32" height="64" viewBox="0 0 32 64" fill="none" xmlns="http://www.w3.org/2000/svg" xmlns:xlink="http://www.w3.org/1999/xlink">
<path d="M26.667,0L26.667,8L5.333,8C2.389,8 0,10.389 0,13.333L0,58.667C0,61.611 2.389,64 5.333,64L26.667,64C29.611,64 32,61.611 32,58.667L32,0L26.667,0ZM10.667,56L5.333,56L5.333,53.333L10.667,53.333L10.667,56ZM5.333,50.667L10.667,50.667L10.667,48L5.333,48L5.333,50.667ZM10.667,45.333L5.333,45.333L5.333,42.667L10.667,42.667L10.667,45.333ZM13.333,56L18.667,56L18.667,53.333L13.333,53.333L13.333,56ZM18.667,50.667L13.333,50.667L13.333,48L18.667,48L18.667,50.667ZM13.333,45.333L18.667,45.333L18.667,42.667L13.333,42.667L13.333,45.333ZM26.667,56L21.333,56L21.333,53.333L26.667,53.333L26.667,56ZM21.333,50.667L26.667,50.667L26.667,48L21.333,48L21.333,50.667ZM26.667,45.333L21.333,45.333L21.333,42.667L26.667,42.667L26.667,45.333ZM5.333,37.333L26.667,37.333L26.667,16L5.333,16L5.333,37.333Z" clip-rule="evenodd" fill-rule="evenodd" fill="#2FB0AB"/>
</svg>
