<svg width="48" height="36" viewBox="0 0 48 36" fill="none" xmlns="http://www.w3.org/2000/svg" xmlns:xlink="http://www.w3.org/1999/xlink">
<path d="M19,-1C6.784,1.412 -1,12.168 -1,22.45C-1,30.39 4.572,35 10.602,35C15.832,35 21,31.406 21,25.042C21,19.838 17.19,15.528 12.208,14.744C12.642,10.736 16.538,4.922 20.968,3.252L19,-1ZM45,-1C32.784,1.412 25,12.168 25,22.45C25,30.39 30.572,35 36.602,35C41.832,35 47,31.406 47,25.042C47,19.838 43.19,15.528 38.208,14.744C38.642,10.736 42.538,4.922 46.968,3.252L45,-1Z" clip-rule="evenodd" fill-rule="evenodd" fill="#009EFF"/>
</svg>
