<svg width="20" height="32" viewBox="0 0 20 32" fill="none" xmlns="http://www.w3.org/2000/svg" xmlns:xlink="http://www.w3.org/1999/xlink">
<path d="M-1,10.136C-1,4.537 3.99,0 9.5,0C15.011,0 20,4.537 20,10.136C20,15.187 16.292,21.123 11.197,29.277C10.647,30.158 10.08,31.065 9.5,32C8.92,31.065 8.353,30.158 7.803,29.277C2.708,21.123 -1,15.187 -1,10.136ZM5.563,10.667C5.563,12.876 7.325,14.667 9.5,14.667C11.675,14.667 13.438,12.876 13.438,10.667C13.438,8.458 11.675,6.667 9.5,6.667C7.325,6.667 5.563,8.458 5.563,10.667Z" clip-rule="evenodd" fill-rule="evenodd" fill="#2FB0AB"/>
</svg>
