<svg width="160" height="48" viewBox="0 0 160 48" fill="none" xmlns="http://www.w3.org/2000/svg" xmlns:xlink="http://www.w3.org/1999/xlink">
<circle cx="135" cy="24" r="24" fill="#7E8AB8"/>
<path d="M135,16C132.827,16 132.556,16.009 131.701,16.049C128.795,16.183 127.181,17.795 127.048,20.701C127.009,21.556 127,21.828 127,24C127,26.173 127.009,26.445 127.048,27.299C127.181,30.204 128.795,31.819 131.701,31.952C132.556,31.991 132.827,32 135,32C137.173,32 137.445,31.991 138.3,31.952C141.201,31.819 142.821,30.207 142.952,27.299C142.991,26.445 143,26.173 143,24C143,21.828 142.991,21.556 142.952,20.701C142.821,17.799 141.207,16.181 138.3,16.049C137.445,16.009 137.173,16 135,16ZM135,17.442C137.136,17.442 137.389,17.45 138.233,17.489C140.403,17.588 141.413,18.616 141.513,20.768C141.551,21.612 141.559,21.864 141.559,24C141.559,26.136 141.551,26.389 141.513,27.232C141.413,29.382 140.404,30.413 138.233,30.512C137.389,30.549 137.137,30.558 135,30.558C132.864,30.558 132.611,30.55 131.768,30.512C129.595,30.412 128.588,29.38 128.488,27.232C128.451,26.389 128.441,26.136 128.441,24C128.441,21.864 128.451,21.61 128.488,20.768C128.587,18.614 129.597,17.586 131.768,17.488C132.611,17.449 132.864,17.442 135,17.442ZM130.892,24C130.892,21.73 132.732,19.892 135,19.892C137.268,19.892 139.108,21.732 139.108,24C139.108,26.269 137.268,28.108 135,28.108C132.732,28.108 130.892,26.269 130.892,24ZM135,26.666C133.527,26.666 132.333,25.473 132.333,24C132.333,22.528 133.527,21.333 135,21.333C136.472,21.333 137.668,22.526 137.668,24C137.668,25.473 136.472,26.666 135,26.666ZM138.309,19.73C138.309,19.2 138.74,18.771 139.269,18.771C139.801,18.771 140.231,19.2 140.231,19.73C140.231,20.261 139.8,20.691 139.269,20.691C138.739,20.691 138.309,20.26 138.309,19.73Z" clip-rule="evenodd" fill-rule="evenodd" fill="#FFFFFF"/>
<circle cx="79" cy="24" r="24" fill="#7E8AB8"/>
<path d="M87,19.54C86.412,19.801 85.779,19.977 85.115,20.057C85.793,19.651 86.312,19.008 86.559,18.241C85.924,18.617 85.221,18.891 84.473,19.037C83.876,18.399 83.021,18 82.079,18C79.959,18 78.401,19.977 78.88,22.031C76.153,21.893 73.733,20.587 72.115,18.601C71.255,20.076 71.669,22.007 73.131,22.984C72.593,22.967 72.088,22.819 71.645,22.573C71.609,24.093 72.7,25.516 74.279,25.833C73.817,25.959 73.311,25.988 72.796,25.889C73.213,27.193 74.428,28.141 75.863,28.168C74.48,29.251 72.743,29.735 71,29.529C72.453,30.461 74.177,31.004 76.031,31.004C82.127,31.004 85.569,25.856 85.361,21.239C86.004,20.777 86.56,20.199 87,19.54L87,19.54Z" fill="#FFFFFF"/>
<circle cx="23" cy="24" r="24" fill="#7E8AB8"/>
<path d="M20.667,21.333L18,21.333L18,24L20.667,24L20.667,32L24.667,32L24.667,24L27.093,24L27.333,21.333L24.667,21.333L24.667,20.223C24.667,19.585 24.795,19.333 25.411,19.333L27.333,19.333L27.333,16L24.128,16C21.731,16 20.667,17.056 20.667,19.077L20.667,21.333Z" fill="#FFFFFF"/>
</svg>
