<svg width="320" height="96" viewBox="0 0 320 96" fill="none" xmlns="http://www.w3.org/2000/svg" xmlns:xlink="http://www.w3.org/1999/xlink">
<circle cx="272" cy="48" r="48" fill="#808080"/>
<path d="M272,32C267.653,32 267.112,32.019 265.403,32.099C259.589,32.365 256.363,35.589 256.096,41.403C256.019,43.112 256,43.656 256,48C256,52.347 256.019,52.891 256.096,54.597C256.363,60.408 259.589,63.637 265.403,63.904C267.112,63.981 267.653,64 272,64C276.347,64 276.891,63.981 278.6,63.904C284.403,63.637 287.643,60.413 287.904,54.597C287.981,52.891 288,52.347 288,48C288,43.656 287.981,43.112 287.904,41.403C287.643,35.597 284.413,32.363 278.6,32.099C276.891,32.019 276.347,32 272,32ZM272,34.887C276.272,34.887 276.779,34.903 278.467,34.98C282.805,35.177 284.827,37.233 285.027,41.537C285.101,43.225 285.117,43.729 285.117,48.001C285.117,52.273 285.101,52.78 285.027,54.465C284.827,58.767 282.808,60.828 278.467,61.025C276.779,61.1 276.275,61.119 272,61.119C267.728,61.119 267.221,61.103 265.536,61.025C261.189,60.825 259.176,58.761 258.976,54.465C258.901,52.78 258.883,52.273 258.883,48.001C258.883,43.729 258.901,43.223 258.976,41.537C259.173,37.231 261.195,35.175 265.536,34.977C267.221,34.9 267.728,34.887 272,34.887ZM263.784,48.001C263.784,43.462 267.464,39.785 272,39.785C276.536,39.785 280.216,43.465 280.216,48.001C280.216,52.54 276.536,56.217 272,56.217C267.464,56.217 263.784,52.54 263.784,48.001ZM272,53.335C269.054,53.335 266.667,50.948 266.667,48.001C266.667,45.057 269.054,42.668 272,42.668C274.944,42.668 277.336,45.055 277.336,48.001C277.336,50.948 274.944,53.335 272,53.335ZM278.619,39.463C278.619,38.402 279.48,37.543 280.539,37.543C281.603,37.543 282.462,38.402 282.462,39.463C282.462,40.524 281.6,41.383 280.539,41.383C279.478,41.383 278.619,40.522 278.619,39.463Z" clip-rule="evenodd" fill-rule="evenodd" fill="#FFFFFF"/>
<circle cx="160" cy="48" r="48" fill="#808080"/>
<path d="M176,39.08C174.824,39.603 173.557,39.955 172.229,40.115C173.587,39.301 174.624,38.016 175.117,36.483C173.848,37.235 172.443,37.781 170.947,38.075C169.752,36.797 168.043,36 166.157,36C161.917,36 158.803,39.955 159.76,44.061C154.307,43.787 149.467,41.173 146.229,37.203C144.509,40.152 145.339,44.013 148.261,45.968C147.187,45.933 146.176,45.637 145.291,45.147C145.219,48.187 147.4,51.032 150.557,51.667C149.635,51.917 148.621,51.976 147.592,51.779C148.427,54.387 150.856,56.283 153.725,56.336C150.96,58.501 147.485,59.469 144,59.059C146.907,60.923 150.355,62.008 154.061,62.008C166.253,62.008 173.139,51.712 172.723,42.477C174.008,41.555 175.12,40.397 176,39.08L176,39.08Z" fill="#FFFFFF"/>
<circle cx="48" cy="48" r="48" fill="#808080"/>
<path d="M43.333,42.667L38,42.667L38,48L43.333,48L43.333,64L51.333,64L51.333,48L56.187,48L56.667,42.667L51.333,42.667L51.333,40.445C51.333,39.171 51.589,38.667 52.821,38.667L56.667,38.667L56.667,32L50.256,32C45.461,32 43.333,34.112 43.333,38.155L43.333,42.667Z" fill="#FFFFFF"/>
</svg>
