<svg width="128" height="128" viewBox="0 0 128 128" fill="none" xmlns="http://www.w3.org/2000/svg" xmlns:xlink="http://www.w3.org/1999/xlink">
<path d="M122.125,7.5C119.05,7.5 116.5,10.05 116.5,13.125C116.5,15.461 116.5,32.898 116.5,33.75C116.5,35.85 114.85,37.5 112.75,37.5C110.65,37.5 109,35.85 109,33.75C109,31.01 109,6.524 109,5.625C109,2.55 106.45,0 103.375,0C100.3,0 97.75,2.55 97.75,5.625C97.75,8.877 97.75,32.551 97.75,33.75C97.75,35.85 96.1,37.5 94,37.5C91.9,37.5 90.25,35.85 90.25,33.75C90.25,30.467 90.25,13.799 90.25,13.125C90.25,10.05 87.7,7.5 84.625,7.5C81.55,7.5 79,10.05 79,13.125C79,15.358 79,40.053 79,41.25C79,43.35 77.35,45 75.25,45L67.75,45L90.25,68L90.25,71.75L120.25,71.75L120.25,65.5C125.05,60.175 128,52.8 128,45.675C128,43.345 128,14.836 128,13.125C128,10.05 125.2,7.5 122.125,7.5Z" clip-rule="evenodd" fill-rule="evenodd" fill="#2FB0AB"/>
<path d="M65.5,7.5C60.175,2.7 53.05,0 45.925,0C43.595,0 15.085,0 13.375,0C10.3,0 7.75,2.55 7.75,5.625C7.75,8.7 10.3,11.225 13.375,11.225C15.711,11.225 33.148,11.225 34,11.225C36.1,11.225 37.75,12.9 37.75,15C37.75,17.1 36.1,18.75 34,18.75C31.261,18.75 6.774,18.75 5.875,18.75C2.8,18.75 0,21.3 0,24.375C0,27.45 2.8,29.975 5.875,29.975C9.126,29.975 32.801,29.975 34,29.975C36.1,29.975 37.75,31.65 37.75,33.75C37.75,35.85 36.1,37.5 34,37.5C30.718,37.5 14.048,37.5 13.375,37.5C10.3,37.5 7.75,40.05 7.75,43.125C7.75,46.2 10.3,48.75 13.375,48.75C15.608,48.75 40.302,48.75 41.5,48.75C43.6,48.75 45.25,50.4 45.25,52.5L45.25,60L67.75,37.5L71.5,37.5L71.5,7.5L65.5,7.5Z" clip-rule="evenodd" fill-rule="evenodd" fill="#009EFF"/>
<path d="M37.75,60L37.75,56.25L7.75,56.25L7.75,62.5C2.95,67.825 0,75.2 0,82.325C0,84.655 0,113.165 0,114.875C0,117.95 2.8,120.5 5.875,120.5C8.95,120.5 11.5,117.95 11.5,114.875C11.5,112.539 11.5,95.102 11.5,94.25C11.5,92.15 13.15,90.5 15.25,90.5C17.35,90.5 19,92.15 19,94.25C19,96.989 19,121.476 19,122.375C19,125.45 21.55,128 24.625,128C27.7,128 30.25,125.45 30.25,122.375C30.25,119.123 30.25,95.449 30.25,94.25C30.25,92.15 31.9,90.5 34,90.5C36.1,90.5 37.75,92.15 37.75,94.25C37.75,97.532 37.75,114.202 37.75,114.875C37.75,117.95 40.3,120.5 43.375,120.5C46.45,120.5 49,117.95 49,114.875C49,112.642 49,87.948 49,86.75C49,84.65 50.65,83 52.75,83L60.25,83L37.75,60Z" clip-rule="evenodd" fill-rule="evenodd" fill="#2FB0AB"/>
<path d="M122.375,98C119.122,98 95.202,98 94,98C91.9,98 90.25,96.35 90.25,94.25C90.25,92.15 91.9,90.475 94,90.475C97.282,90.475 113.952,90.475 114.625,90.475C117.7,90.475 120.25,87.95 120.25,84.875C120.25,81.8 117.7,79.25 114.625,79.25C112.392,79.25 87.698,79.25 86.5,79.25C84.4,79.25 82.75,77.6 82.75,75.5L82.75,68L60.25,90.5L56.5,90.5L56.5,120.5L62.5,120.5C67.825,125.3 74.95,128 82.075,128C84.405,128 112.915,128 114.625,128C117.7,128 120.25,125.45 120.25,122.375C120.25,119.3 117.7,116.75 114.625,116.75C112.289,116.75 94.852,116.75 94,116.75C91.9,116.75 90.25,115.1 90.25,113C90.25,110.9 91.9,109.225 94,109.225C96.74,109.225 121.475,109.225 122.375,109.225C125.45,109.225 128,106.7 128,103.625C128,100.55 125.45,98 122.375,98Z" clip-rule="evenodd" fill-rule="evenodd" fill="#009EFF"/>
</svg>
