<svg width="64" height="64" viewBox="0 0 64 64" fill="none" xmlns="http://www.w3.org/2000/svg" xmlns:xlink="http://www.w3.org/1999/xlink">
<path d="M60.063,3.75C58.525,3.75 57.25,5.025 57.25,6.563C57.25,7.731 57.25,16.449 57.25,16.875C57.25,17.925 56.425,18.75 55.375,18.75C54.325,18.75 53.5,17.925 53.5,16.875C53.5,15.505 53.5,3.262 53.5,2.813C53.5,1.275 52.225,0 50.688,0C49.15,0 47.875,1.275 47.875,2.813C47.875,4.438 47.875,16.276 47.875,16.875C47.875,17.925 47.05,18.75 46,18.75C44.95,18.75 44.125,17.925 44.125,16.875C44.125,15.234 44.125,6.899 44.125,6.563C44.125,5.025 42.85,3.75 41.313,3.75C39.775,3.75 38.5,5.025 38.5,6.563C38.5,7.679 38.5,20.026 38.5,20.625C38.5,21.675 37.675,22.5 36.625,22.5L32.875,22.5L44.125,34L44.125,35.875L59.125,35.875L59.125,32.75C61.525,30.087 63,26.4 63,22.837C63,21.672 63,7.418 63,6.563C63,5.025 61.6,3.75 60.063,3.75Z" clip-rule="evenodd" fill-rule="evenodd" fill="#2FB0AB"/>
<path d="M31.75,3.75C29.087,1.35 25.525,0 21.962,0C20.797,0 6.543,0 5.688,0C4.15,0 2.875,1.275 2.875,2.813C2.875,4.35 4.15,5.613 5.688,5.613C6.856,5.613 15.574,5.613 16,5.613C17.05,5.613 17.875,6.45 17.875,7.5C17.875,8.55 17.05,9.375 16,9.375C14.63,9.375 2.387,9.375 1.938,9.375C0.4,9.375 -1,10.65 -1,12.188C-1,13.725 0.4,14.988 1.938,14.988C3.563,14.988 15.401,14.988 16,14.988C17.05,14.988 17.875,15.825 17.875,16.875C17.875,17.925 17.05,18.75 16,18.75C14.359,18.75 6.024,18.75 5.688,18.75C4.15,18.75 2.875,20.025 2.875,21.562C2.875,23.1 4.15,24.375 5.688,24.375C6.804,24.375 19.151,24.375 19.75,24.375C20.8,24.375 21.625,25.2 21.625,26.25L21.625,30L32.875,18.75L34.75,18.75L34.75,3.75L31.75,3.75Z" clip-rule="evenodd" fill-rule="evenodd" fill="#009EFF"/>
<path d="M17.875,30L17.875,28.125L2.875,28.125L2.875,31.25C0.475,33.912 -1,37.6 -1,41.163C-1,42.328 -1,56.583 -1,57.437C-1,58.975 0.4,60.25 1.938,60.25C3.475,60.25 4.75,58.975 4.75,57.437C4.75,56.27 4.75,47.551 4.75,47.125C4.75,46.075 5.575,45.25 6.625,45.25C7.675,45.25 8.5,46.075 8.5,47.125C8.5,48.495 8.5,60.738 8.5,61.187C8.5,62.725 9.775,64 11.313,64C12.85,64 14.125,62.725 14.125,61.187C14.125,59.562 14.125,47.724 14.125,47.125C14.125,46.075 14.95,45.25 16,45.25C17.05,45.25 17.875,46.075 17.875,47.125C17.875,48.766 17.875,57.101 17.875,57.437C17.875,58.975 19.15,60.25 20.688,60.25C22.225,60.25 23.5,58.975 23.5,57.437C23.5,56.321 23.5,43.974 23.5,43.375C23.5,42.325 24.325,41.5 25.375,41.5L29.125,41.5L17.875,30Z" clip-rule="evenodd" fill-rule="evenodd" fill="#2FB0AB"/>
<path d="M60.188,49C58.561,49 46.601,49 46,49C44.95,49 44.125,48.175 44.125,47.125C44.125,46.075 44.95,45.238 46,45.238C47.641,45.238 55.976,45.238 56.312,45.238C57.85,45.238 59.125,43.975 59.125,42.438C59.125,40.9 57.85,39.625 56.312,39.625C55.196,39.625 42.849,39.625 42.25,39.625C41.2,39.625 40.375,38.8 40.375,37.75L40.375,34L29.125,45.25L27.25,45.25L27.25,60.25L30.25,60.25C32.913,62.65 36.475,64 40.038,64C41.203,64 55.457,64 56.312,64C57.85,64 59.125,62.725 59.125,61.188C59.125,59.65 57.85,58.375 56.312,58.375C55.145,58.375 46.426,58.375 46,58.375C44.95,58.375 44.125,57.55 44.125,56.5C44.125,55.45 44.95,54.612 46,54.612C47.37,54.612 59.737,54.612 60.188,54.612C61.725,54.612 63,53.35 63,51.813C63,50.275 61.725,49 60.188,49Z" clip-rule="evenodd" fill-rule="evenodd" fill="#009EFF"/>
</svg>
