<svg width="32" height="28" viewBox="0 0 32 28" fill="none" xmlns="http://www.w3.org/2000/svg" xmlns:xlink="http://www.w3.org/1999/xlink">
<path d="M0,8.614L0,8.251C0,3.883 3.157,0.156 7.462,-0.561C10.256,-1.035 13.212,-0.107 15.25,1.934L16,2.683L16.694,1.934C18.788,-0.107 21.688,-1.035 24.538,-0.561C28.844,0.156 32,3.883 32,8.251L32,8.614C32,11.208 30.925,13.689 29.025,15.458L17.731,26.001C17.263,26.439 16.644,26.683 16,26.683C15.356,26.683 14.737,26.439 14.269,26.001L2.974,15.458C1.077,13.689 0,11.208 0,8.614L0,8.614Z" fill="#FF0000"/>
</svg>
