<svg width="16" height="14" viewBox="0 0 16 14" fill="none" xmlns="http://www.w3.org/2000/svg" xmlns:xlink="http://www.w3.org/1999/xlink">
<path d="M-1,4.807L-1,4.625C-1,2.441 0.579,0.578 2.731,0.219C4.128,-0.018 5.606,0.446 6.625,1.467L7,1.841L7.347,1.467C8.394,0.446 9.844,-0.018 11.269,0.219C13.422,0.578 15,2.441 15,4.625L15,4.807C15,6.103 14.463,7.344 13.512,8.228L7.866,13.5C7.631,13.719 7.322,13.841 7,13.841C6.678,13.841 6.369,13.719 6.134,13.5L0.487,8.228C-0.462,7.344 -1,6.103 -1,4.807L-1,4.807Z" fill="#FF0000"/>
</svg>
